G04 #@! TF.GenerationSoftware,KiCad,Pcbnew,(5.1.5)-3*
G04 #@! TF.CreationDate,2020-03-13T11:52:07+01:00*
G04 #@! TF.ProjectId,MainPCB,4d61696e-5043-4422-9e6b-696361645f70,rev?*
G04 #@! TF.SameCoordinates,Original*
G04 #@! TF.FileFunction,Legend,Top*
G04 #@! TF.FilePolarity,Positive*
%FSLAX46Y46*%
G04 Gerber Fmt 4.6, Leading zero omitted, Abs format (unit mm)*
G04 Created by KiCad (PCBNEW (5.1.5)-3) date 2020-03-13 11:52:07*
%MOMM*%
%LPD*%
G04 APERTURE LIST*
%ADD10C,0.150000*%
%ADD11C,0.120000*%
G04 APERTURE END LIST*
D10*
X57484476Y-121941080D02*
X57484476Y-120941080D01*
X57817809Y-121655366D01*
X58151142Y-120941080D01*
X58151142Y-121941080D01*
X59055904Y-121941080D02*
X59055904Y-121417271D01*
X59008285Y-121322033D01*
X58913047Y-121274414D01*
X58722571Y-121274414D01*
X58627333Y-121322033D01*
X59055904Y-121893461D02*
X58960666Y-121941080D01*
X58722571Y-121941080D01*
X58627333Y-121893461D01*
X58579714Y-121798223D01*
X58579714Y-121702985D01*
X58627333Y-121607747D01*
X58722571Y-121560128D01*
X58960666Y-121560128D01*
X59055904Y-121512509D01*
X59532095Y-121941080D02*
X59532095Y-121274414D01*
X59532095Y-120941080D02*
X59484476Y-120988700D01*
X59532095Y-121036319D01*
X59579714Y-120988700D01*
X59532095Y-120941080D01*
X59532095Y-121036319D01*
X60008285Y-121274414D02*
X60008285Y-121941080D01*
X60008285Y-121369652D02*
X60055904Y-121322033D01*
X60151142Y-121274414D01*
X60294000Y-121274414D01*
X60389238Y-121322033D01*
X60436857Y-121417271D01*
X60436857Y-121941080D01*
X60913047Y-121941080D02*
X60913047Y-120941080D01*
X61294000Y-120941080D01*
X61389238Y-120988700D01*
X61436857Y-121036319D01*
X61484476Y-121131557D01*
X61484476Y-121274414D01*
X61436857Y-121369652D01*
X61389238Y-121417271D01*
X61294000Y-121464890D01*
X60913047Y-121464890D01*
X62484476Y-121845842D02*
X62436857Y-121893461D01*
X62294000Y-121941080D01*
X62198761Y-121941080D01*
X62055904Y-121893461D01*
X61960666Y-121798223D01*
X61913047Y-121702985D01*
X61865428Y-121512509D01*
X61865428Y-121369652D01*
X61913047Y-121179176D01*
X61960666Y-121083938D01*
X62055904Y-120988700D01*
X62198761Y-120941080D01*
X62294000Y-120941080D01*
X62436857Y-120988700D01*
X62484476Y-121036319D01*
X63246380Y-121417271D02*
X63389238Y-121464890D01*
X63436857Y-121512509D01*
X63484476Y-121607747D01*
X63484476Y-121750604D01*
X63436857Y-121845842D01*
X63389238Y-121893461D01*
X63294000Y-121941080D01*
X62913047Y-121941080D01*
X62913047Y-120941080D01*
X63246380Y-120941080D01*
X63341619Y-120988700D01*
X63389238Y-121036319D01*
X63436857Y-121131557D01*
X63436857Y-121226795D01*
X63389238Y-121322033D01*
X63341619Y-121369652D01*
X63246380Y-121417271D01*
X62913047Y-121417271D01*
X65246380Y-121845842D02*
X65198761Y-121893461D01*
X65055904Y-121941080D01*
X64960666Y-121941080D01*
X64817809Y-121893461D01*
X64722571Y-121798223D01*
X64674952Y-121702985D01*
X64627333Y-121512509D01*
X64627333Y-121369652D01*
X64674952Y-121179176D01*
X64722571Y-121083938D01*
X64817809Y-120988700D01*
X64960666Y-120941080D01*
X65055904Y-120941080D01*
X65198761Y-120988700D01*
X65246380Y-121036319D01*
X65817809Y-121941080D02*
X65722571Y-121893461D01*
X65674952Y-121845842D01*
X65627333Y-121750604D01*
X65627333Y-121464890D01*
X65674952Y-121369652D01*
X65722571Y-121322033D01*
X65817809Y-121274414D01*
X65960666Y-121274414D01*
X66055904Y-121322033D01*
X66103523Y-121369652D01*
X66151142Y-121464890D01*
X66151142Y-121750604D01*
X66103523Y-121845842D01*
X66055904Y-121893461D01*
X65960666Y-121941080D01*
X65817809Y-121941080D01*
X66532095Y-121893461D02*
X66627333Y-121941080D01*
X66817809Y-121941080D01*
X66913047Y-121893461D01*
X66960666Y-121798223D01*
X66960666Y-121750604D01*
X66913047Y-121655366D01*
X66817809Y-121607747D01*
X66674952Y-121607747D01*
X66579714Y-121560128D01*
X66532095Y-121464890D01*
X66532095Y-121417271D01*
X66579714Y-121322033D01*
X66674952Y-121274414D01*
X66817809Y-121274414D01*
X66913047Y-121322033D01*
X67294000Y-121274414D02*
X67532095Y-121941080D01*
X67770190Y-121274414D02*
X67532095Y-121941080D01*
X67436857Y-122179176D01*
X67389238Y-122226795D01*
X67294000Y-122274414D01*
X69341619Y-121893461D02*
X69246380Y-121941080D01*
X69055904Y-121941080D01*
X68960666Y-121893461D01*
X68913047Y-121845842D01*
X68865428Y-121750604D01*
X68865428Y-121464890D01*
X68913047Y-121369652D01*
X68960666Y-121322033D01*
X69055904Y-121274414D01*
X69246380Y-121274414D01*
X69341619Y-121322033D01*
X70198761Y-121941080D02*
X70198761Y-121417271D01*
X70151142Y-121322033D01*
X70055904Y-121274414D01*
X69865428Y-121274414D01*
X69770190Y-121322033D01*
X70198761Y-121893461D02*
X70103523Y-121941080D01*
X69865428Y-121941080D01*
X69770190Y-121893461D01*
X69722571Y-121798223D01*
X69722571Y-121702985D01*
X69770190Y-121607747D01*
X69865428Y-121560128D01*
X70103523Y-121560128D01*
X70198761Y-121512509D01*
X70532095Y-121274414D02*
X70913047Y-121274414D01*
X70674952Y-121941080D02*
X70674952Y-121083938D01*
X70722571Y-120988700D01*
X70817809Y-120941080D01*
X70913047Y-120941080D01*
X71627333Y-121893461D02*
X71532095Y-121941080D01*
X71341619Y-121941080D01*
X71246380Y-121893461D01*
X71198761Y-121798223D01*
X71198761Y-121417271D01*
X71246380Y-121322033D01*
X71341619Y-121274414D01*
X71532095Y-121274414D01*
X71627333Y-121322033D01*
X71674952Y-121417271D01*
X71674952Y-121512509D01*
X71198761Y-121607747D01*
X71960666Y-121274414D02*
X72341619Y-121274414D01*
X72103523Y-120941080D02*
X72103523Y-121798223D01*
X72151142Y-121893461D01*
X72246380Y-121941080D01*
X72341619Y-121941080D01*
X73103523Y-121941080D02*
X73103523Y-121417271D01*
X73055904Y-121322033D01*
X72960666Y-121274414D01*
X72770190Y-121274414D01*
X72674952Y-121322033D01*
X73103523Y-121893461D02*
X73008285Y-121941080D01*
X72770190Y-121941080D01*
X72674952Y-121893461D01*
X72627333Y-121798223D01*
X72627333Y-121702985D01*
X72674952Y-121607747D01*
X72770190Y-121560128D01*
X73008285Y-121560128D01*
X73103523Y-121512509D01*
X73579714Y-121941080D02*
X73579714Y-121274414D01*
X73579714Y-121464890D02*
X73627333Y-121369652D01*
X73674952Y-121322033D01*
X73770190Y-121274414D01*
X73865428Y-121274414D01*
X74198761Y-121941080D02*
X74198761Y-121274414D01*
X74198761Y-120941080D02*
X74151142Y-120988700D01*
X74198761Y-121036319D01*
X74246380Y-120988700D01*
X74198761Y-120941080D01*
X74198761Y-121036319D01*
X75103523Y-121941080D02*
X75103523Y-121417271D01*
X75055904Y-121322033D01*
X74960666Y-121274414D01*
X74770190Y-121274414D01*
X74674952Y-121322033D01*
X75103523Y-121893461D02*
X75008285Y-121941080D01*
X74770190Y-121941080D01*
X74674952Y-121893461D01*
X74627333Y-121798223D01*
X74627333Y-121702985D01*
X74674952Y-121607747D01*
X74770190Y-121560128D01*
X75008285Y-121560128D01*
X75103523Y-121512509D01*
X64794000Y-123591080D02*
X64460666Y-123114890D01*
X64222571Y-123591080D02*
X64222571Y-122591080D01*
X64603523Y-122591080D01*
X64698761Y-122638700D01*
X64746380Y-122686319D01*
X64794000Y-122781557D01*
X64794000Y-122924414D01*
X64746380Y-123019652D01*
X64698761Y-123067271D01*
X64603523Y-123114890D01*
X64222571Y-123114890D01*
X65603523Y-123543461D02*
X65508285Y-123591080D01*
X65317809Y-123591080D01*
X65222571Y-123543461D01*
X65174952Y-123448223D01*
X65174952Y-123067271D01*
X65222571Y-122972033D01*
X65317809Y-122924414D01*
X65508285Y-122924414D01*
X65603523Y-122972033D01*
X65651142Y-123067271D01*
X65651142Y-123162509D01*
X65174952Y-123257747D01*
X65936857Y-122924414D02*
X66317809Y-122924414D01*
X66079714Y-123591080D02*
X66079714Y-122733938D01*
X66127333Y-122638700D01*
X66222571Y-122591080D01*
X66317809Y-122591080D01*
X66651142Y-123210128D02*
X67413047Y-123210128D01*
X68413047Y-123591080D02*
X67841619Y-123591080D01*
X68127333Y-123591080D02*
X68127333Y-122591080D01*
X68032095Y-122733938D01*
X67936857Y-122829176D01*
X67841619Y-122876795D01*
X100941809Y-114568266D02*
X101418000Y-114568266D01*
X100846571Y-114853980D02*
X101179904Y-113853980D01*
X101513238Y-114853980D01*
X101846571Y-114853980D02*
X101846571Y-113853980D01*
X102179904Y-114568266D01*
X102513238Y-113853980D01*
X102513238Y-114853980D01*
X103513238Y-113901600D02*
X103418000Y-113853980D01*
X103275142Y-113853980D01*
X103132285Y-113901600D01*
X103037047Y-113996838D01*
X102989428Y-114092076D01*
X102941809Y-114282552D01*
X102941809Y-114425409D01*
X102989428Y-114615885D01*
X103037047Y-114711123D01*
X103132285Y-114806361D01*
X103275142Y-114853980D01*
X103370380Y-114853980D01*
X103513238Y-114806361D01*
X103560857Y-114758742D01*
X103560857Y-114425409D01*
X103370380Y-114425409D01*
X104132285Y-114282552D02*
X104037047Y-114234933D01*
X103989428Y-114187314D01*
X103941809Y-114092076D01*
X103941809Y-114044457D01*
X103989428Y-113949219D01*
X104037047Y-113901600D01*
X104132285Y-113853980D01*
X104322761Y-113853980D01*
X104418000Y-113901600D01*
X104465619Y-113949219D01*
X104513238Y-114044457D01*
X104513238Y-114092076D01*
X104465619Y-114187314D01*
X104418000Y-114234933D01*
X104322761Y-114282552D01*
X104132285Y-114282552D01*
X104037047Y-114330171D01*
X103989428Y-114377790D01*
X103941809Y-114473028D01*
X103941809Y-114663504D01*
X103989428Y-114758742D01*
X104037047Y-114806361D01*
X104132285Y-114853980D01*
X104322761Y-114853980D01*
X104418000Y-114806361D01*
X104465619Y-114758742D01*
X104513238Y-114663504D01*
X104513238Y-114473028D01*
X104465619Y-114377790D01*
X104418000Y-114330171D01*
X104322761Y-114282552D01*
X105084666Y-114282552D02*
X104989428Y-114234933D01*
X104941809Y-114187314D01*
X104894190Y-114092076D01*
X104894190Y-114044457D01*
X104941809Y-113949219D01*
X104989428Y-113901600D01*
X105084666Y-113853980D01*
X105275142Y-113853980D01*
X105370380Y-113901600D01*
X105418000Y-113949219D01*
X105465619Y-114044457D01*
X105465619Y-114092076D01*
X105418000Y-114187314D01*
X105370380Y-114234933D01*
X105275142Y-114282552D01*
X105084666Y-114282552D01*
X104989428Y-114330171D01*
X104941809Y-114377790D01*
X104894190Y-114473028D01*
X104894190Y-114663504D01*
X104941809Y-114758742D01*
X104989428Y-114806361D01*
X105084666Y-114853980D01*
X105275142Y-114853980D01*
X105370380Y-114806361D01*
X105418000Y-114758742D01*
X105465619Y-114663504D01*
X105465619Y-114473028D01*
X105418000Y-114377790D01*
X105370380Y-114330171D01*
X105275142Y-114282552D01*
X105798952Y-113853980D02*
X106418000Y-113853980D01*
X106084666Y-114234933D01*
X106227523Y-114234933D01*
X106322761Y-114282552D01*
X106370380Y-114330171D01*
X106418000Y-114425409D01*
X106418000Y-114663504D01*
X106370380Y-114758742D01*
X106322761Y-114806361D01*
X106227523Y-114853980D01*
X105941809Y-114853980D01*
X105846571Y-114806361D01*
X105798952Y-114758742D01*
X106751333Y-113853980D02*
X107370380Y-113853980D01*
X107037047Y-114234933D01*
X107179904Y-114234933D01*
X107275142Y-114282552D01*
X107322761Y-114330171D01*
X107370380Y-114425409D01*
X107370380Y-114663504D01*
X107322761Y-114758742D01*
X107275142Y-114806361D01*
X107179904Y-114853980D01*
X106894190Y-114853980D01*
X106798952Y-114806361D01*
X106751333Y-114758742D01*
X107560857Y-114949219D02*
X108322761Y-114949219D01*
X108465619Y-113853980D02*
X109084666Y-113853980D01*
X108751333Y-114234933D01*
X108894190Y-114234933D01*
X108989428Y-114282552D01*
X109037047Y-114330171D01*
X109084666Y-114425409D01*
X109084666Y-114663504D01*
X109037047Y-114758742D01*
X108989428Y-114806361D01*
X108894190Y-114853980D01*
X108608476Y-114853980D01*
X108513238Y-114806361D01*
X108465619Y-114758742D01*
X109370380Y-113853980D02*
X109703714Y-114853980D01*
X110037047Y-113853980D01*
X110275142Y-113853980D02*
X110894190Y-113853980D01*
X110560857Y-114234933D01*
X110703714Y-114234933D01*
X110798952Y-114282552D01*
X110846571Y-114330171D01*
X110894190Y-114425409D01*
X110894190Y-114663504D01*
X110846571Y-114758742D01*
X110798952Y-114806361D01*
X110703714Y-114853980D01*
X110418000Y-114853980D01*
X110322761Y-114806361D01*
X110275142Y-114758742D01*
X100811485Y-111939366D02*
X101287676Y-111939366D01*
X100716247Y-112225080D02*
X101049580Y-111225080D01*
X101382914Y-112225080D01*
X101716247Y-111225080D02*
X101716247Y-112034604D01*
X101763866Y-112129842D01*
X101811485Y-112177461D01*
X101906723Y-112225080D01*
X102097200Y-112225080D01*
X102192438Y-112177461D01*
X102240057Y-112129842D01*
X102287676Y-112034604D01*
X102287676Y-111225080D01*
X102763866Y-112225080D02*
X102763866Y-111225080D01*
X103001961Y-111225080D01*
X103144819Y-111272700D01*
X103240057Y-111367938D01*
X103287676Y-111463176D01*
X103335295Y-111653652D01*
X103335295Y-111796509D01*
X103287676Y-111986985D01*
X103240057Y-112082223D01*
X103144819Y-112177461D01*
X103001961Y-112225080D01*
X102763866Y-112225080D01*
X103763866Y-112225080D02*
X103763866Y-111225080D01*
X104430533Y-111225080D02*
X104621009Y-111225080D01*
X104716247Y-111272700D01*
X104811485Y-111367938D01*
X104859104Y-111558414D01*
X104859104Y-111891747D01*
X104811485Y-112082223D01*
X104716247Y-112177461D01*
X104621009Y-112225080D01*
X104430533Y-112225080D01*
X104335295Y-112177461D01*
X104240057Y-112082223D01*
X104192438Y-111891747D01*
X104192438Y-111558414D01*
X104240057Y-111367938D01*
X104335295Y-111272700D01*
X104430533Y-111225080D01*
X105049580Y-112320319D02*
X105811485Y-112320319D01*
X105954342Y-111225080D02*
X106573390Y-111225080D01*
X106240057Y-111606033D01*
X106382914Y-111606033D01*
X106478152Y-111653652D01*
X106525771Y-111701271D01*
X106573390Y-111796509D01*
X106573390Y-112034604D01*
X106525771Y-112129842D01*
X106478152Y-112177461D01*
X106382914Y-112225080D01*
X106097200Y-112225080D01*
X106001961Y-112177461D01*
X105954342Y-112129842D01*
X106859104Y-111225080D02*
X107192438Y-112225080D01*
X107525771Y-111225080D01*
X107763866Y-111225080D02*
X108382914Y-111225080D01*
X108049580Y-111606033D01*
X108192438Y-111606033D01*
X108287676Y-111653652D01*
X108335295Y-111701271D01*
X108382914Y-111796509D01*
X108382914Y-112034604D01*
X108335295Y-112129842D01*
X108287676Y-112177461D01*
X108192438Y-112225080D01*
X107906723Y-112225080D01*
X107811485Y-112177461D01*
X107763866Y-112129842D01*
X101434995Y-108745400D02*
X101339757Y-108697780D01*
X101196900Y-108697780D01*
X101054042Y-108745400D01*
X100958804Y-108840638D01*
X100911185Y-108935876D01*
X100863566Y-109126352D01*
X100863566Y-109269209D01*
X100911185Y-109459685D01*
X100958804Y-109554923D01*
X101054042Y-109650161D01*
X101196900Y-109697780D01*
X101292138Y-109697780D01*
X101434995Y-109650161D01*
X101482614Y-109602542D01*
X101482614Y-109269209D01*
X101292138Y-109269209D01*
X101911185Y-109697780D02*
X101911185Y-108697780D01*
X102482614Y-109697780D01*
X102482614Y-108697780D01*
X102958804Y-109697780D02*
X102958804Y-108697780D01*
X103196900Y-108697780D01*
X103339757Y-108745400D01*
X103434995Y-108840638D01*
X103482614Y-108935876D01*
X103530233Y-109126352D01*
X103530233Y-109269209D01*
X103482614Y-109459685D01*
X103434995Y-109554923D01*
X103339757Y-109650161D01*
X103196900Y-109697780D01*
X102958804Y-109697780D01*
X100892480Y-107221280D02*
X100892480Y-106221280D01*
X101368671Y-106554614D02*
X101368671Y-107221280D01*
X101368671Y-106649852D02*
X101416290Y-106602233D01*
X101511528Y-106554614D01*
X101654385Y-106554614D01*
X101749623Y-106602233D01*
X101797242Y-106697471D01*
X101797242Y-107221280D01*
X102130576Y-106554614D02*
X102511528Y-106554614D01*
X102273433Y-106221280D02*
X102273433Y-107078423D01*
X102321052Y-107173661D01*
X102416290Y-107221280D01*
X102511528Y-107221280D01*
X102606766Y-107316519D02*
X103368671Y-107316519D01*
X104178195Y-107126042D02*
X104130576Y-107173661D01*
X103987719Y-107221280D01*
X103892480Y-107221280D01*
X103749623Y-107173661D01*
X103654385Y-107078423D01*
X103606766Y-106983185D01*
X103559147Y-106792709D01*
X103559147Y-106649852D01*
X103606766Y-106459376D01*
X103654385Y-106364138D01*
X103749623Y-106268900D01*
X103892480Y-106221280D01*
X103987719Y-106221280D01*
X104130576Y-106268900D01*
X104178195Y-106316519D01*
X105178195Y-107126042D02*
X105130576Y-107173661D01*
X104987719Y-107221280D01*
X104892480Y-107221280D01*
X104749623Y-107173661D01*
X104654385Y-107078423D01*
X104606766Y-106983185D01*
X104559147Y-106792709D01*
X104559147Y-106649852D01*
X104606766Y-106459376D01*
X104654385Y-106364138D01*
X104749623Y-106268900D01*
X104892480Y-106221280D01*
X104987719Y-106221280D01*
X105130576Y-106268900D01*
X105178195Y-106316519D01*
X105559147Y-107173661D02*
X105702004Y-107221280D01*
X105940100Y-107221280D01*
X106035338Y-107173661D01*
X106082957Y-107126042D01*
X106130576Y-107030804D01*
X106130576Y-106935566D01*
X106082957Y-106840328D01*
X106035338Y-106792709D01*
X105940100Y-106745090D01*
X105749623Y-106697471D01*
X105654385Y-106649852D01*
X105606766Y-106602233D01*
X105559147Y-106506995D01*
X105559147Y-106411757D01*
X105606766Y-106316519D01*
X105654385Y-106268900D01*
X105749623Y-106221280D01*
X105987719Y-106221280D01*
X106130576Y-106268900D01*
X106892480Y-106697471D02*
X107035338Y-106745090D01*
X107082957Y-106792709D01*
X107130576Y-106887947D01*
X107130576Y-107030804D01*
X107082957Y-107126042D01*
X107035338Y-107173661D01*
X106940100Y-107221280D01*
X106559147Y-107221280D01*
X106559147Y-106221280D01*
X106892480Y-106221280D01*
X106987719Y-106268900D01*
X107035338Y-106316519D01*
X107082957Y-106411757D01*
X107082957Y-106506995D01*
X107035338Y-106602233D01*
X106987719Y-106649852D01*
X106892480Y-106697471D01*
X106559147Y-106697471D01*
X108082957Y-107221280D02*
X107511528Y-107221280D01*
X107797242Y-107221280D02*
X107797242Y-106221280D01*
X107702004Y-106364138D01*
X107606766Y-106459376D01*
X107511528Y-106506995D01*
X109035338Y-107221280D02*
X108463909Y-107221280D01*
X108749623Y-107221280D02*
X108749623Y-106221280D01*
X108654385Y-106364138D01*
X108559147Y-106459376D01*
X108463909Y-106506995D01*
X100906723Y-104706680D02*
X100906723Y-103706680D01*
X101144819Y-103706680D01*
X101287676Y-103754300D01*
X101382914Y-103849538D01*
X101430533Y-103944776D01*
X101478152Y-104135252D01*
X101478152Y-104278109D01*
X101430533Y-104468585D01*
X101382914Y-104563823D01*
X101287676Y-104659061D01*
X101144819Y-104706680D01*
X100906723Y-104706680D01*
X102287676Y-104659061D02*
X102192438Y-104706680D01*
X102001961Y-104706680D01*
X101906723Y-104659061D01*
X101859104Y-104563823D01*
X101859104Y-104182871D01*
X101906723Y-104087633D01*
X102001961Y-104040014D01*
X102192438Y-104040014D01*
X102287676Y-104087633D01*
X102335295Y-104182871D01*
X102335295Y-104278109D01*
X101859104Y-104373347D01*
X102621009Y-104040014D02*
X103001961Y-104040014D01*
X102763866Y-103706680D02*
X102763866Y-104563823D01*
X102811485Y-104659061D01*
X102906723Y-104706680D01*
X103001961Y-104706680D01*
X103716247Y-104659061D02*
X103621009Y-104706680D01*
X103430533Y-104706680D01*
X103335295Y-104659061D01*
X103287676Y-104563823D01*
X103287676Y-104182871D01*
X103335295Y-104087633D01*
X103430533Y-104040014D01*
X103621009Y-104040014D01*
X103716247Y-104087633D01*
X103763866Y-104182871D01*
X103763866Y-104278109D01*
X103287676Y-104373347D01*
X104621009Y-104659061D02*
X104525771Y-104706680D01*
X104335295Y-104706680D01*
X104240057Y-104659061D01*
X104192438Y-104611442D01*
X104144819Y-104516204D01*
X104144819Y-104230490D01*
X104192438Y-104135252D01*
X104240057Y-104087633D01*
X104335295Y-104040014D01*
X104525771Y-104040014D01*
X104621009Y-104087633D01*
X104906723Y-104040014D02*
X105287676Y-104040014D01*
X105049580Y-103706680D02*
X105049580Y-104563823D01*
X105097200Y-104659061D01*
X105192438Y-104706680D01*
X105287676Y-104706680D01*
X105382914Y-104801919D02*
X106144819Y-104801919D01*
X106525771Y-104706680D02*
X106430533Y-104659061D01*
X106382914Y-104611442D01*
X106335295Y-104516204D01*
X106335295Y-104230490D01*
X106382914Y-104135252D01*
X106430533Y-104087633D01*
X106525771Y-104040014D01*
X106668628Y-104040014D01*
X106763866Y-104087633D01*
X106811485Y-104135252D01*
X106859104Y-104230490D01*
X106859104Y-104516204D01*
X106811485Y-104611442D01*
X106763866Y-104659061D01*
X106668628Y-104706680D01*
X106525771Y-104706680D01*
X107716247Y-104040014D02*
X107716247Y-104706680D01*
X107287676Y-104040014D02*
X107287676Y-104563823D01*
X107335295Y-104659061D01*
X107430533Y-104706680D01*
X107573390Y-104706680D01*
X107668628Y-104659061D01*
X107716247Y-104611442D01*
X108049580Y-104040014D02*
X108430533Y-104040014D01*
X108192438Y-103706680D02*
X108192438Y-104563823D01*
X108240057Y-104659061D01*
X108335295Y-104706680D01*
X108430533Y-104706680D01*
X100862071Y-101411114D02*
X100862071Y-102077780D01*
X100862071Y-101506352D02*
X100909690Y-101458733D01*
X101004928Y-101411114D01*
X101147785Y-101411114D01*
X101243023Y-101458733D01*
X101290642Y-101553971D01*
X101290642Y-102077780D01*
X101671595Y-101077780D02*
X101909690Y-102077780D01*
X102100166Y-101363495D01*
X102290642Y-102077780D01*
X102528738Y-101077780D01*
X103338261Y-102077780D02*
X103338261Y-101553971D01*
X103290642Y-101458733D01*
X103195404Y-101411114D01*
X103004928Y-101411114D01*
X102909690Y-101458733D01*
X103338261Y-102030161D02*
X103243023Y-102077780D01*
X103004928Y-102077780D01*
X102909690Y-102030161D01*
X102862071Y-101934923D01*
X102862071Y-101839685D01*
X102909690Y-101744447D01*
X103004928Y-101696828D01*
X103243023Y-101696828D01*
X103338261Y-101649209D01*
X103814452Y-102077780D02*
X103814452Y-101077780D01*
X103909690Y-101696828D02*
X104195404Y-102077780D01*
X104195404Y-101411114D02*
X103814452Y-101792066D01*
X105004928Y-102030161D02*
X104909690Y-102077780D01*
X104719214Y-102077780D01*
X104623976Y-102030161D01*
X104576357Y-101934923D01*
X104576357Y-101553971D01*
X104623976Y-101458733D01*
X104719214Y-101411114D01*
X104909690Y-101411114D01*
X105004928Y-101458733D01*
X105052547Y-101553971D01*
X105052547Y-101649209D01*
X104576357Y-101744447D01*
X100833823Y-96934280D02*
X100833823Y-95934280D01*
X101310014Y-96934280D02*
X101310014Y-95934280D01*
X101881442Y-96934280D01*
X101881442Y-95934280D01*
X102214776Y-95934280D02*
X102786204Y-95934280D01*
X102500490Y-96934280D02*
X102500490Y-95934280D01*
X102881442Y-97029519D02*
X103643347Y-97029519D01*
X103833823Y-96648566D02*
X104310014Y-96648566D01*
X103738585Y-96934280D02*
X104071919Y-95934280D01*
X104405252Y-96934280D01*
X104738585Y-96934280D02*
X104738585Y-95934280D01*
X105071919Y-96648566D01*
X105405252Y-95934280D01*
X105405252Y-96934280D01*
X106405252Y-95981900D02*
X106310014Y-95934280D01*
X106167157Y-95934280D01*
X106024300Y-95981900D01*
X105929061Y-96077138D01*
X105881442Y-96172376D01*
X105833823Y-96362852D01*
X105833823Y-96505709D01*
X105881442Y-96696185D01*
X105929061Y-96791423D01*
X106024300Y-96886661D01*
X106167157Y-96934280D01*
X106262395Y-96934280D01*
X106405252Y-96886661D01*
X106452871Y-96839042D01*
X106452871Y-96505709D01*
X106262395Y-96505709D01*
X107024300Y-96362852D02*
X106929061Y-96315233D01*
X106881442Y-96267614D01*
X106833823Y-96172376D01*
X106833823Y-96124757D01*
X106881442Y-96029519D01*
X106929061Y-95981900D01*
X107024300Y-95934280D01*
X107214776Y-95934280D01*
X107310014Y-95981900D01*
X107357633Y-96029519D01*
X107405252Y-96124757D01*
X107405252Y-96172376D01*
X107357633Y-96267614D01*
X107310014Y-96315233D01*
X107214776Y-96362852D01*
X107024300Y-96362852D01*
X106929061Y-96410471D01*
X106881442Y-96458090D01*
X106833823Y-96553328D01*
X106833823Y-96743804D01*
X106881442Y-96839042D01*
X106929061Y-96886661D01*
X107024300Y-96934280D01*
X107214776Y-96934280D01*
X107310014Y-96886661D01*
X107357633Y-96839042D01*
X107405252Y-96743804D01*
X107405252Y-96553328D01*
X107357633Y-96458090D01*
X107310014Y-96410471D01*
X107214776Y-96362852D01*
X107976680Y-96362852D02*
X107881442Y-96315233D01*
X107833823Y-96267614D01*
X107786204Y-96172376D01*
X107786204Y-96124757D01*
X107833823Y-96029519D01*
X107881442Y-95981900D01*
X107976680Y-95934280D01*
X108167157Y-95934280D01*
X108262395Y-95981900D01*
X108310014Y-96029519D01*
X108357633Y-96124757D01*
X108357633Y-96172376D01*
X108310014Y-96267614D01*
X108262395Y-96315233D01*
X108167157Y-96362852D01*
X107976680Y-96362852D01*
X107881442Y-96410471D01*
X107833823Y-96458090D01*
X107786204Y-96553328D01*
X107786204Y-96743804D01*
X107833823Y-96839042D01*
X107881442Y-96886661D01*
X107976680Y-96934280D01*
X108167157Y-96934280D01*
X108262395Y-96886661D01*
X108310014Y-96839042D01*
X108357633Y-96743804D01*
X108357633Y-96553328D01*
X108310014Y-96458090D01*
X108262395Y-96410471D01*
X108167157Y-96362852D01*
X108690966Y-95934280D02*
X109310014Y-95934280D01*
X108976680Y-96315233D01*
X109119538Y-96315233D01*
X109214776Y-96362852D01*
X109262395Y-96410471D01*
X109310014Y-96505709D01*
X109310014Y-96743804D01*
X109262395Y-96839042D01*
X109214776Y-96886661D01*
X109119538Y-96934280D01*
X108833823Y-96934280D01*
X108738585Y-96886661D01*
X108690966Y-96839042D01*
X109643347Y-95934280D02*
X110262395Y-95934280D01*
X109929061Y-96315233D01*
X110071919Y-96315233D01*
X110167157Y-96362852D01*
X110214776Y-96410471D01*
X110262395Y-96505709D01*
X110262395Y-96743804D01*
X110214776Y-96839042D01*
X110167157Y-96886661D01*
X110071919Y-96934280D01*
X109786204Y-96934280D01*
X109690966Y-96886661D01*
X109643347Y-96839042D01*
X100844504Y-98398080D02*
X101463552Y-98398080D01*
X101130219Y-98779033D01*
X101273076Y-98779033D01*
X101368314Y-98826652D01*
X101415933Y-98874271D01*
X101463552Y-98969509D01*
X101463552Y-99207604D01*
X101415933Y-99302842D01*
X101368314Y-99350461D01*
X101273076Y-99398080D01*
X100987361Y-99398080D01*
X100892123Y-99350461D01*
X100844504Y-99302842D01*
X101749266Y-98398080D02*
X102082600Y-99398080D01*
X102415933Y-98398080D01*
X102654028Y-98398080D02*
X103273076Y-98398080D01*
X102939742Y-98779033D01*
X103082600Y-98779033D01*
X103177838Y-98826652D01*
X103225457Y-98874271D01*
X103273076Y-98969509D01*
X103273076Y-99207604D01*
X103225457Y-99302842D01*
X103177838Y-99350461D01*
X103082600Y-99398080D01*
X102796885Y-99398080D01*
X102701647Y-99350461D01*
X102654028Y-99302842D01*
X100792114Y-94410161D02*
X100934971Y-94457780D01*
X101173066Y-94457780D01*
X101268304Y-94410161D01*
X101315923Y-94362542D01*
X101363542Y-94267304D01*
X101363542Y-94172066D01*
X101315923Y-94076828D01*
X101268304Y-94029209D01*
X101173066Y-93981590D01*
X100982590Y-93933971D01*
X100887352Y-93886352D01*
X100839733Y-93838733D01*
X100792114Y-93743495D01*
X100792114Y-93648257D01*
X100839733Y-93553019D01*
X100887352Y-93505400D01*
X100982590Y-93457780D01*
X101220685Y-93457780D01*
X101363542Y-93505400D01*
X101792114Y-94457780D02*
X101792114Y-93457780D01*
X102030209Y-93457780D01*
X102173066Y-93505400D01*
X102268304Y-93600638D01*
X102315923Y-93695876D01*
X102363542Y-93886352D01*
X102363542Y-94029209D01*
X102315923Y-94219685D01*
X102268304Y-94314923D01*
X102173066Y-94410161D01*
X102030209Y-94457780D01*
X101792114Y-94457780D01*
X102744495Y-94172066D02*
X103220685Y-94172066D01*
X102649257Y-94457780D02*
X102982590Y-93457780D01*
X103315923Y-94457780D01*
X100790523Y-91857461D02*
X100933380Y-91905080D01*
X101171476Y-91905080D01*
X101266714Y-91857461D01*
X101314333Y-91809842D01*
X101361952Y-91714604D01*
X101361952Y-91619366D01*
X101314333Y-91524128D01*
X101266714Y-91476509D01*
X101171476Y-91428890D01*
X100981000Y-91381271D01*
X100885761Y-91333652D01*
X100838142Y-91286033D01*
X100790523Y-91190795D01*
X100790523Y-91095557D01*
X100838142Y-91000319D01*
X100885761Y-90952700D01*
X100981000Y-90905080D01*
X101219095Y-90905080D01*
X101361952Y-90952700D01*
X102361952Y-91809842D02*
X102314333Y-91857461D01*
X102171476Y-91905080D01*
X102076238Y-91905080D01*
X101933380Y-91857461D01*
X101838142Y-91762223D01*
X101790523Y-91666985D01*
X101742904Y-91476509D01*
X101742904Y-91333652D01*
X101790523Y-91143176D01*
X101838142Y-91047938D01*
X101933380Y-90952700D01*
X102076238Y-90905080D01*
X102171476Y-90905080D01*
X102314333Y-90952700D01*
X102361952Y-91000319D01*
X103266714Y-91905080D02*
X102790523Y-91905080D01*
X102790523Y-90905080D01*
X98845642Y-86559542D02*
X98893261Y-86607161D01*
X98940880Y-86750019D01*
X98940880Y-86845257D01*
X98893261Y-86988114D01*
X98798023Y-87083352D01*
X98702785Y-87130971D01*
X98512309Y-87178590D01*
X98369452Y-87178590D01*
X98178976Y-87130971D01*
X98083738Y-87083352D01*
X97988500Y-86988114D01*
X97940880Y-86845257D01*
X97940880Y-86750019D01*
X97988500Y-86607161D01*
X98036119Y-86559542D01*
X98845642Y-85559542D02*
X98893261Y-85607161D01*
X98940880Y-85750019D01*
X98940880Y-85845257D01*
X98893261Y-85988114D01*
X98798023Y-86083352D01*
X98702785Y-86130971D01*
X98512309Y-86178590D01*
X98369452Y-86178590D01*
X98178976Y-86130971D01*
X98083738Y-86083352D01*
X97988500Y-85988114D01*
X97940880Y-85845257D01*
X97940880Y-85750019D01*
X97988500Y-85607161D01*
X98036119Y-85559542D01*
X98893261Y-85178590D02*
X98940880Y-85035733D01*
X98940880Y-84797638D01*
X98893261Y-84702400D01*
X98845642Y-84654780D01*
X98750404Y-84607161D01*
X98655166Y-84607161D01*
X98559928Y-84654780D01*
X98512309Y-84702400D01*
X98464690Y-84797638D01*
X98417071Y-84988114D01*
X98369452Y-85083352D01*
X98321833Y-85130971D01*
X98226595Y-85178590D01*
X98131357Y-85178590D01*
X98036119Y-85130971D01*
X97988500Y-85083352D01*
X97940880Y-84988114D01*
X97940880Y-84750019D01*
X97988500Y-84607161D01*
X98369452Y-84035733D02*
X98321833Y-84130971D01*
X98274214Y-84178590D01*
X98178976Y-84226209D01*
X98131357Y-84226209D01*
X98036119Y-84178590D01*
X97988500Y-84130971D01*
X97940880Y-84035733D01*
X97940880Y-83845257D01*
X97988500Y-83750019D01*
X98036119Y-83702400D01*
X98131357Y-83654780D01*
X98178976Y-83654780D01*
X98274214Y-83702400D01*
X98321833Y-83750019D01*
X98369452Y-83845257D01*
X98369452Y-84035733D01*
X98417071Y-84130971D01*
X98464690Y-84178590D01*
X98559928Y-84226209D01*
X98750404Y-84226209D01*
X98845642Y-84178590D01*
X98893261Y-84130971D01*
X98940880Y-84035733D01*
X98940880Y-83845257D01*
X98893261Y-83750019D01*
X98845642Y-83702400D01*
X98750404Y-83654780D01*
X98559928Y-83654780D01*
X98464690Y-83702400D01*
X98417071Y-83750019D01*
X98369452Y-83845257D01*
X98940880Y-82702400D02*
X98940880Y-83273828D01*
X98940880Y-82988114D02*
X97940880Y-82988114D01*
X98083738Y-83083352D01*
X98178976Y-83178590D01*
X98226595Y-83273828D01*
X98940880Y-81750019D02*
X98940880Y-82321447D01*
X98940880Y-82035733D02*
X97940880Y-82035733D01*
X98083738Y-82130971D01*
X98178976Y-82226209D01*
X98226595Y-82321447D01*
X99036119Y-81559542D02*
X99036119Y-80797638D01*
X97940880Y-80654780D02*
X97940880Y-80035733D01*
X98321833Y-80369066D01*
X98321833Y-80226209D01*
X98369452Y-80130971D01*
X98417071Y-80083352D01*
X98512309Y-80035733D01*
X98750404Y-80035733D01*
X98845642Y-80083352D01*
X98893261Y-80130971D01*
X98940880Y-80226209D01*
X98940880Y-80511923D01*
X98893261Y-80607161D01*
X98845642Y-80654780D01*
X97940880Y-79750019D02*
X98940880Y-79416685D01*
X97940880Y-79083352D01*
X97940880Y-78845257D02*
X97940880Y-78226209D01*
X98321833Y-78559542D01*
X98321833Y-78416685D01*
X98369452Y-78321447D01*
X98417071Y-78273828D01*
X98512309Y-78226209D01*
X98750404Y-78226209D01*
X98845642Y-78273828D01*
X98893261Y-78321447D01*
X98940880Y-78416685D01*
X98940880Y-78702400D01*
X98893261Y-78797638D01*
X98845642Y-78845257D01*
D11*
X143620500Y-110895000D02*
X143620500Y-110515000D01*
X150040500Y-110895000D02*
X143620500Y-110895000D01*
X150040500Y-129135000D02*
X143620500Y-129135000D01*
X150040500Y-110895000D02*
X150040500Y-129135000D01*
X124295500Y-129135000D02*
X124295500Y-128135000D01*
X125075500Y-129135000D02*
X124295500Y-129135000D01*
X124295500Y-110895000D02*
X124295500Y-111895000D01*
X125075500Y-110895000D02*
X124295500Y-110895000D01*
X115793436Y-122195000D02*
X116997564Y-122195000D01*
X115793436Y-120375000D02*
X116997564Y-120375000D01*
X100390000Y-115630000D02*
X99060000Y-115630000D01*
X100390000Y-114300000D02*
X100390000Y-115630000D01*
X100390000Y-113030000D02*
X97730000Y-113030000D01*
X97730000Y-113030000D02*
X97730000Y-87570000D01*
X100390000Y-113030000D02*
X100390000Y-87570000D01*
X100390000Y-87570000D02*
X97730000Y-87570000D01*
X55381000Y-65331500D02*
X55381000Y-62831500D01*
X54131000Y-64081500D02*
X56631000Y-64081500D01*
X141631000Y-64081500D02*
X139131000Y-64081500D01*
X136521000Y-66641500D02*
X136521000Y-59661500D01*
X136521000Y-59641500D02*
X59241000Y-59641500D01*
X59241000Y-59641500D02*
X59241000Y-66641500D01*
X136521000Y-73521500D02*
X136521000Y-80521500D01*
X136521000Y-80521500D02*
X59241000Y-80521500D01*
X59241000Y-80521500D02*
X59241000Y-73521500D01*
X59241000Y-66641500D02*
X54881000Y-66641500D01*
D10*
X143027100Y-88629900D02*
X143027100Y-89629900D01*
X143027100Y-85029900D02*
X143027100Y-84029900D01*
X143452100Y-85029900D02*
X143027100Y-85029900D01*
X143452100Y-85754900D02*
X143452100Y-85029900D01*
X139877100Y-90979900D02*
X141277100Y-90979900D01*
X137327100Y-90979900D02*
X137477100Y-90979900D01*
X137327100Y-90679900D02*
X137327100Y-90979900D01*
X136877100Y-90679900D02*
X137327100Y-90679900D01*
X137327100Y-82979900D02*
X136877100Y-82979900D01*
X137327100Y-82679900D02*
X137327100Y-82979900D01*
X137477100Y-82679900D02*
X137327100Y-82679900D01*
X141277100Y-82679900D02*
X139877100Y-82679900D01*
D11*
X118753000Y-96764200D02*
X118278000Y-96764200D01*
X121498000Y-99984200D02*
X121498000Y-99509200D01*
X121023000Y-99984200D02*
X121498000Y-99984200D01*
X118278000Y-99984200D02*
X118278000Y-99509200D01*
X118753000Y-99984200D02*
X118278000Y-99984200D01*
X121498000Y-96764200D02*
X121498000Y-97239200D01*
X121023000Y-96764200D02*
X121498000Y-96764200D01*
X86930000Y-120540000D02*
X88330000Y-120540000D01*
X88330000Y-118220000D02*
X86430000Y-118220000D01*
X85660000Y-110380000D02*
X87060000Y-110380000D01*
X87060000Y-108060000D02*
X85160000Y-108060000D01*
X90530000Y-121317936D02*
X90530000Y-122522064D01*
X92350000Y-121317936D02*
X92350000Y-122522064D01*
X89260000Y-109887936D02*
X89260000Y-111092064D01*
X91080000Y-109887936D02*
X91080000Y-111092064D01*
X92170000Y-119590000D02*
X92670000Y-119590000D01*
X92420000Y-119840000D02*
X92420000Y-119340000D01*
X95175563Y-119100000D02*
X96240000Y-118035563D01*
X92784437Y-119100000D02*
X91720000Y-118035563D01*
X92784437Y-119100000D02*
X92920000Y-119100000D01*
X95175563Y-119100000D02*
X95040000Y-119100000D01*
X96240000Y-118035563D02*
X96240000Y-114580000D01*
X91720000Y-118035563D02*
X91720000Y-114580000D01*
X91720000Y-114580000D02*
X92920000Y-114580000D01*
X96240000Y-114580000D02*
X95040000Y-114580000D01*
X92170000Y-108160000D02*
X92670000Y-108160000D01*
X92420000Y-108410000D02*
X92420000Y-107910000D01*
X95175563Y-107670000D02*
X96240000Y-106605563D01*
X92784437Y-107670000D02*
X91720000Y-106605563D01*
X92784437Y-107670000D02*
X92920000Y-107670000D01*
X95175563Y-107670000D02*
X95040000Y-107670000D01*
X96240000Y-106605563D02*
X96240000Y-103150000D01*
X91720000Y-106605563D02*
X91720000Y-103150000D01*
X91720000Y-103150000D02*
X92920000Y-103150000D01*
X96240000Y-103150000D02*
X95040000Y-103150000D01*
X83090000Y-105200000D02*
X82590000Y-105200000D01*
X82840000Y-104950000D02*
X82840000Y-105450000D01*
X80084437Y-105690000D02*
X79020000Y-106754437D01*
X82475563Y-105690000D02*
X83540000Y-106754437D01*
X82475563Y-105690000D02*
X82340000Y-105690000D01*
X80084437Y-105690000D02*
X80220000Y-105690000D01*
X79020000Y-106754437D02*
X79020000Y-110210000D01*
X83540000Y-106754437D02*
X83540000Y-110210000D01*
X83540000Y-110210000D02*
X82340000Y-110210000D01*
X79020000Y-110210000D02*
X80220000Y-110210000D01*
X84360000Y-115360000D02*
X83860000Y-115360000D01*
X84110000Y-115110000D02*
X84110000Y-115610000D01*
X81354437Y-115850000D02*
X80290000Y-116914437D01*
X83745563Y-115850000D02*
X84810000Y-116914437D01*
X83745563Y-115850000D02*
X83610000Y-115850000D01*
X81354437Y-115850000D02*
X81490000Y-115850000D01*
X80290000Y-116914437D02*
X80290000Y-120370000D01*
X84810000Y-116914437D02*
X84810000Y-120370000D01*
X84810000Y-120370000D02*
X83610000Y-120370000D01*
X80290000Y-120370000D02*
X81490000Y-120370000D01*
X93440000Y-87840000D02*
X93940000Y-87840000D01*
X93690000Y-88090000D02*
X93690000Y-87590000D01*
X96445563Y-87350000D02*
X97510000Y-86285563D01*
X94054437Y-87350000D02*
X92990000Y-86285563D01*
X94054437Y-87350000D02*
X94190000Y-87350000D01*
X96445563Y-87350000D02*
X96310000Y-87350000D01*
X97510000Y-86285563D02*
X97510000Y-82830000D01*
X92990000Y-86285563D02*
X92990000Y-82830000D01*
X92990000Y-82830000D02*
X94190000Y-82830000D01*
X97510000Y-82830000D02*
X96310000Y-82830000D01*
X88170000Y-83610000D02*
X87670000Y-83610000D01*
X87920000Y-83360000D02*
X87920000Y-83860000D01*
X85164437Y-84100000D02*
X84100000Y-85164437D01*
X87555563Y-84100000D02*
X88620000Y-85164437D01*
X87555563Y-84100000D02*
X87420000Y-84100000D01*
X85164437Y-84100000D02*
X85300000Y-84100000D01*
X84100000Y-85164437D02*
X84100000Y-88620000D01*
X88620000Y-85164437D02*
X88620000Y-88620000D01*
X88620000Y-88620000D02*
X87420000Y-88620000D01*
X84100000Y-88620000D02*
X85300000Y-88620000D01*
X137306500Y-108096300D02*
X137306500Y-107596300D01*
X137556500Y-107846300D02*
X137056500Y-107846300D01*
X136816500Y-105090737D02*
X135752063Y-104026300D01*
X136816500Y-107481863D02*
X135752063Y-108546300D01*
X136816500Y-107481863D02*
X136816500Y-107346300D01*
X136816500Y-105090737D02*
X136816500Y-105226300D01*
X135752063Y-104026300D02*
X132296500Y-104026300D01*
X135752063Y-108546300D02*
X132296500Y-108546300D01*
X132296500Y-108546300D02*
X132296500Y-107346300D01*
X132296500Y-104026300D02*
X132296500Y-105226300D01*
X62812000Y-94313800D02*
X62812000Y-93688800D01*
X63124500Y-94001300D02*
X62499500Y-94001300D01*
X62259500Y-90620737D02*
X61195063Y-89556300D01*
X62259500Y-94011863D02*
X61195063Y-95076300D01*
X62259500Y-94011863D02*
X62259500Y-93376300D01*
X62259500Y-90620737D02*
X62259500Y-91256300D01*
X61195063Y-89556300D02*
X56739500Y-89556300D01*
X61195063Y-95076300D02*
X56739500Y-95076300D01*
X56739500Y-95076300D02*
X56739500Y-93376300D01*
X56739500Y-89556300D02*
X56739500Y-91256300D01*
X129091900Y-89456600D02*
X129716900Y-89456600D01*
X129404400Y-89769100D02*
X129404400Y-89144100D01*
X132784963Y-88904100D02*
X133849400Y-87839663D01*
X129393837Y-88904100D02*
X128329400Y-87839663D01*
X129393837Y-88904100D02*
X130029400Y-88904100D01*
X132784963Y-88904100D02*
X132149400Y-88904100D01*
X133849400Y-87839663D02*
X133849400Y-83384100D01*
X128329400Y-87839663D02*
X128329400Y-83384100D01*
X128329400Y-83384100D02*
X130029400Y-83384100D01*
X133849400Y-83384100D02*
X132149400Y-83384100D01*
X141478000Y-72694800D02*
X144018000Y-72694800D01*
X141478000Y-80314800D02*
X141478000Y-72694800D01*
X144018000Y-80314800D02*
X141478000Y-80314800D01*
X144018000Y-72694800D02*
X144018000Y-80314800D01*
X142519900Y-97051300D02*
X142675900Y-97051300D01*
X140203900Y-97051300D02*
X140359900Y-97051300D01*
X142519737Y-94450170D02*
G75*
G02X142519900Y-96532261I-1079837J-1041130D01*
G01*
X140360063Y-94450170D02*
G75*
G03X140359900Y-96532261I1079837J-1041130D01*
G01*
X142518508Y-93818965D02*
G75*
G02X142675416Y-97051300I-1078608J-1672335D01*
G01*
X140361292Y-93818965D02*
G75*
G03X140204384Y-97051300I1078608J-1672335D01*
G01*
X142519900Y-103147300D02*
X142675900Y-103147300D01*
X140203900Y-103147300D02*
X140359900Y-103147300D01*
X142519737Y-100546170D02*
G75*
G02X142519900Y-102628261I-1079837J-1041130D01*
G01*
X140360063Y-100546170D02*
G75*
G03X140359900Y-102628261I1079837J-1041130D01*
G01*
X142518508Y-99914965D02*
G75*
G02X142675416Y-103147300I-1078608J-1672335D01*
G01*
X140361292Y-99914965D02*
G75*
G03X140204384Y-103147300I1078608J-1672335D01*
G01*
X90740000Y-90060000D02*
X92140000Y-90060000D01*
X92140000Y-87740000D02*
X90240000Y-87740000D01*
X105153100Y-88542700D02*
X105153100Y-86092700D01*
X101933100Y-86742700D02*
X101933100Y-88542700D01*
X72236700Y-95892600D02*
X72236700Y-94342600D01*
X70536700Y-96042600D02*
X70536700Y-94342600D01*
X94340000Y-90837936D02*
X94340000Y-92042064D01*
X96160000Y-90837936D02*
X96160000Y-92042064D01*
X99991500Y-122892736D02*
X99991500Y-124096864D01*
X101811500Y-122892736D02*
X101811500Y-124096864D01*
X67939836Y-99944600D02*
X69143964Y-99944600D01*
X67939836Y-98124600D02*
X69143964Y-98124600D01*
X73311936Y-99919200D02*
X74516064Y-99919200D01*
X73311936Y-98099200D02*
X74516064Y-98099200D01*
X67378664Y-93717700D02*
X66174536Y-93717700D01*
X67378664Y-95537700D02*
X66174536Y-95537700D01*
X68905036Y-92362700D02*
X70109164Y-92362700D01*
X68905036Y-90542700D02*
X70109164Y-90542700D01*
X135402236Y-95080500D02*
X136606364Y-95080500D01*
X135402236Y-93260500D02*
X136606364Y-93260500D01*
X135414936Y-101176500D02*
X136619064Y-101176500D01*
X135414936Y-99356500D02*
X136619064Y-99356500D01*
X114952864Y-94416200D02*
X113748736Y-94416200D01*
X114952864Y-96236200D02*
X113748736Y-96236200D01*
X119616900Y-93007264D02*
X119616900Y-91803136D01*
X117796900Y-93007264D02*
X117796900Y-91803136D01*
X122118800Y-93007264D02*
X122118800Y-91803136D01*
X120298800Y-93007264D02*
X120298800Y-91803136D01*
X130513500Y-96893464D02*
X130513500Y-95689336D01*
X128693500Y-96893464D02*
X128693500Y-95689336D01*
X74162600Y-104648000D02*
X74162600Y-101198000D01*
X74162600Y-104648000D02*
X74162600Y-106598000D01*
X69042600Y-104648000D02*
X69042600Y-102698000D01*
X69042600Y-104648000D02*
X69042600Y-106598000D01*
X60889000Y-84063300D02*
X60889000Y-85523300D01*
X57729000Y-84063300D02*
X57729000Y-86223300D01*
X57729000Y-84063300D02*
X58659000Y-84063300D01*
X60889000Y-84063300D02*
X59959000Y-84063300D01*
X141169700Y-131346900D02*
X141169700Y-132676900D01*
X139839700Y-131346900D02*
X141169700Y-131346900D01*
X138569700Y-131346900D02*
X138569700Y-134006900D01*
X138569700Y-134006900D02*
X133429700Y-134006900D01*
X138569700Y-131346900D02*
X133429700Y-131346900D01*
X133429700Y-131346900D02*
X133429700Y-134006900D01*
X104275500Y-125675000D02*
X104275500Y-132135000D01*
X108805500Y-125675000D02*
X106205500Y-125675000D01*
X110735500Y-125675000D02*
X110735500Y-132135000D01*
X108805500Y-132135000D02*
X106205500Y-132135000D01*
X110705500Y-125675000D02*
X110735500Y-125675000D01*
X104275500Y-125675000D02*
X104305500Y-125675000D01*
X104275500Y-132135000D02*
X104305500Y-132135000D01*
X110735500Y-132135000D02*
X110705500Y-132135000D01*
X141787964Y-106176400D02*
X140583836Y-106176400D01*
X141787964Y-107996400D02*
X140583836Y-107996400D01*
X106903436Y-122195000D02*
X108107564Y-122195000D01*
X106903436Y-120375000D02*
X108107564Y-120375000D01*
X108047200Y-88473364D02*
X108047200Y-87269236D01*
X106227200Y-88473364D02*
X106227200Y-87269236D01*
X101163036Y-85238000D02*
X102367164Y-85238000D01*
X101163036Y-83418000D02*
X102367164Y-83418000D01*
X73410400Y-92158736D02*
X73410400Y-93362864D01*
X75230400Y-92158736D02*
X75230400Y-93362864D01*
X59669764Y-96422800D02*
X58465636Y-96422800D01*
X59669764Y-98242800D02*
X58465636Y-98242800D01*
X114916364Y-97502300D02*
X113712236Y-97502300D01*
X114916364Y-99322300D02*
X113712236Y-99322300D01*
X124581836Y-100516100D02*
X125785964Y-100516100D01*
X124581836Y-98696100D02*
X125785964Y-98696100D01*
X124569136Y-97226800D02*
X125773264Y-97226800D01*
X124569136Y-95406800D02*
X125773264Y-95406800D01*
X126728900Y-87673264D02*
X126728900Y-86469136D01*
X124908900Y-87673264D02*
X124908900Y-86469136D01*
X55381000Y-42621500D02*
X55381000Y-40121500D01*
X54131000Y-41371500D02*
X56631000Y-41371500D01*
X141631000Y-41371500D02*
X139131000Y-41371500D01*
X136521000Y-43931500D02*
X136521000Y-36951500D01*
X136521000Y-36931500D02*
X59241000Y-36931500D01*
X59241000Y-36931500D02*
X59241000Y-43931500D01*
X136521000Y-50811500D02*
X136521000Y-57811500D01*
X136521000Y-57811500D02*
X59241000Y-57811500D01*
X59241000Y-57811500D02*
X59241000Y-50811500D01*
X59241000Y-43931500D02*
X54881000Y-43931500D01*
X113165500Y-125675000D02*
X113165500Y-132135000D01*
X117695500Y-125675000D02*
X115095500Y-125675000D01*
X119625500Y-125675000D02*
X119625500Y-132135000D01*
X117695500Y-132135000D02*
X115095500Y-132135000D01*
X119595500Y-125675000D02*
X119625500Y-125675000D01*
X113165500Y-125675000D02*
X113195500Y-125675000D01*
X113165500Y-132135000D02*
X113195500Y-132135000D01*
X119625500Y-132135000D02*
X119595500Y-132135000D01*
D10*
X57137466Y-126313080D02*
X56804133Y-125836890D01*
X56566038Y-126313080D02*
X56566038Y-125313080D01*
X56946990Y-125313080D01*
X57042228Y-125360700D01*
X57089847Y-125408319D01*
X57137466Y-125503557D01*
X57137466Y-125646414D01*
X57089847Y-125741652D01*
X57042228Y-125789271D01*
X56946990Y-125836890D01*
X56566038Y-125836890D01*
X57566038Y-125789271D02*
X57899371Y-125789271D01*
X58042228Y-126313080D02*
X57566038Y-126313080D01*
X57566038Y-125313080D01*
X58042228Y-125313080D01*
X58804133Y-125789271D02*
X58470800Y-125789271D01*
X58470800Y-126313080D02*
X58470800Y-125313080D01*
X58946990Y-125313080D01*
X59470800Y-125313080D02*
X59470800Y-125551176D01*
X59232704Y-125455938D02*
X59470800Y-125551176D01*
X59708895Y-125455938D01*
X59327942Y-125741652D02*
X59470800Y-125551176D01*
X59613657Y-125741652D01*
X60232704Y-125313080D02*
X60232704Y-125551176D01*
X59994609Y-125455938D02*
X60232704Y-125551176D01*
X60470800Y-125455938D01*
X60089847Y-125741652D02*
X60232704Y-125551176D01*
X60375561Y-125741652D01*
X139420766Y-36130380D02*
X139087433Y-35654190D01*
X138849338Y-36130380D02*
X138849338Y-35130380D01*
X139230290Y-35130380D01*
X139325528Y-35178000D01*
X139373147Y-35225619D01*
X139420766Y-35320857D01*
X139420766Y-35463714D01*
X139373147Y-35558952D01*
X139325528Y-35606571D01*
X139230290Y-35654190D01*
X138849338Y-35654190D01*
X139849338Y-35606571D02*
X140182671Y-35606571D01*
X140325528Y-36130380D02*
X139849338Y-36130380D01*
X139849338Y-35130380D01*
X140325528Y-35130380D01*
X141087433Y-35606571D02*
X140754100Y-35606571D01*
X140754100Y-36130380D02*
X140754100Y-35130380D01*
X141230290Y-35130380D01*
X141754100Y-35130380D02*
X141754100Y-35368476D01*
X141516004Y-35273238D02*
X141754100Y-35368476D01*
X141992195Y-35273238D01*
X141611242Y-35558952D02*
X141754100Y-35368476D01*
X141896957Y-35558952D01*
X142516004Y-35130380D02*
X142516004Y-35368476D01*
X142277909Y-35273238D02*
X142516004Y-35368476D01*
X142754100Y-35273238D01*
X142373147Y-35558952D02*
X142516004Y-35368476D01*
X142658861Y-35558952D01*
X124983595Y-108857380D02*
X124983595Y-109666904D01*
X125031214Y-109762142D01*
X125078833Y-109809761D01*
X125174071Y-109857380D01*
X125364547Y-109857380D01*
X125459785Y-109809761D01*
X125507404Y-109762142D01*
X125555023Y-109666904D01*
X125555023Y-108857380D01*
X126459785Y-109190714D02*
X126459785Y-109857380D01*
X126221690Y-108809761D02*
X125983595Y-109524047D01*
X126602642Y-109524047D01*
X115752642Y-119822142D02*
X115705023Y-119869761D01*
X115562166Y-119917380D01*
X115466928Y-119917380D01*
X115324071Y-119869761D01*
X115228833Y-119774523D01*
X115181214Y-119679285D01*
X115133595Y-119488809D01*
X115133595Y-119345952D01*
X115181214Y-119155476D01*
X115228833Y-119060238D01*
X115324071Y-118965000D01*
X115466928Y-118917380D01*
X115562166Y-118917380D01*
X115705023Y-118965000D01*
X115752642Y-119012619D01*
X116133595Y-119012619D02*
X116181214Y-118965000D01*
X116276452Y-118917380D01*
X116514547Y-118917380D01*
X116609785Y-118965000D01*
X116657404Y-119012619D01*
X116705023Y-119107857D01*
X116705023Y-119203095D01*
X116657404Y-119345952D01*
X116085976Y-119917380D01*
X116705023Y-119917380D01*
X117324071Y-118917380D02*
X117419309Y-118917380D01*
X117514547Y-118965000D01*
X117562166Y-119012619D01*
X117609785Y-119107857D01*
X117657404Y-119298333D01*
X117657404Y-119536428D01*
X117609785Y-119726904D01*
X117562166Y-119822142D01*
X117514547Y-119869761D01*
X117419309Y-119917380D01*
X117324071Y-119917380D01*
X117228833Y-119869761D01*
X117181214Y-119822142D01*
X117133595Y-119726904D01*
X117085976Y-119536428D01*
X117085976Y-119298333D01*
X117133595Y-119107857D01*
X117181214Y-119012619D01*
X117228833Y-118965000D01*
X117324071Y-118917380D01*
X98726666Y-116082380D02*
X98726666Y-116796666D01*
X98679047Y-116939523D01*
X98583809Y-117034761D01*
X98440952Y-117082380D01*
X98345714Y-117082380D01*
X99155238Y-116177619D02*
X99202857Y-116130000D01*
X99298095Y-116082380D01*
X99536190Y-116082380D01*
X99631428Y-116130000D01*
X99679047Y-116177619D01*
X99726666Y-116272857D01*
X99726666Y-116368095D01*
X99679047Y-116510952D01*
X99107619Y-117082380D01*
X99726666Y-117082380D01*
X97095285Y-58510071D02*
X97238142Y-58557690D01*
X97285761Y-58605309D01*
X97333380Y-58700547D01*
X97333380Y-58843404D01*
X97285761Y-58938642D01*
X97238142Y-58986261D01*
X97142904Y-59033880D01*
X96761952Y-59033880D01*
X96761952Y-58033880D01*
X97095285Y-58033880D01*
X97190523Y-58081500D01*
X97238142Y-58129119D01*
X97285761Y-58224357D01*
X97285761Y-58319595D01*
X97238142Y-58414833D01*
X97190523Y-58462452D01*
X97095285Y-58510071D01*
X96761952Y-58510071D01*
X97619095Y-58033880D02*
X98190523Y-58033880D01*
X97904809Y-59033880D02*
X97904809Y-58033880D01*
X99047666Y-59033880D02*
X98476238Y-59033880D01*
X98761952Y-59033880D02*
X98761952Y-58033880D01*
X98666714Y-58176738D01*
X98571476Y-58271976D01*
X98476238Y-58319595D01*
X143579480Y-87163233D02*
X144293766Y-87163233D01*
X144436623Y-87210852D01*
X144531861Y-87306090D01*
X144579480Y-87448947D01*
X144579480Y-87544185D01*
X144579480Y-86163233D02*
X144579480Y-86734661D01*
X144579480Y-86448947D02*
X143579480Y-86448947D01*
X143722338Y-86544185D01*
X143817576Y-86639423D01*
X143865195Y-86734661D01*
X119126095Y-95006580D02*
X119126095Y-95816104D01*
X119173714Y-95911342D01*
X119221333Y-95958961D01*
X119316571Y-96006580D01*
X119507047Y-96006580D01*
X119602285Y-95958961D01*
X119649904Y-95911342D01*
X119697523Y-95816104D01*
X119697523Y-95006580D01*
X120697523Y-96006580D02*
X120126095Y-96006580D01*
X120411809Y-96006580D02*
X120411809Y-95006580D01*
X120316571Y-95149438D01*
X120221333Y-95244676D01*
X120126095Y-95292295D01*
X86868095Y-116832380D02*
X86868095Y-117641904D01*
X86915714Y-117737142D01*
X86963333Y-117784761D01*
X87058571Y-117832380D01*
X87249047Y-117832380D01*
X87344285Y-117784761D01*
X87391904Y-117737142D01*
X87439523Y-117641904D01*
X87439523Y-116832380D01*
X87820476Y-116832380D02*
X88487142Y-116832380D01*
X88058571Y-117832380D01*
X85598095Y-106672380D02*
X85598095Y-107481904D01*
X85645714Y-107577142D01*
X85693333Y-107624761D01*
X85788571Y-107672380D01*
X85979047Y-107672380D01*
X86074285Y-107624761D01*
X86121904Y-107577142D01*
X86169523Y-107481904D01*
X86169523Y-106672380D01*
X87074285Y-106672380D02*
X86883809Y-106672380D01*
X86788571Y-106720000D01*
X86740952Y-106767619D01*
X86645714Y-106910476D01*
X86598095Y-107100952D01*
X86598095Y-107481904D01*
X86645714Y-107577142D01*
X86693333Y-107624761D01*
X86788571Y-107672380D01*
X86979047Y-107672380D01*
X87074285Y-107624761D01*
X87121904Y-107577142D01*
X87169523Y-107481904D01*
X87169523Y-107243809D01*
X87121904Y-107148571D01*
X87074285Y-107100952D01*
X86979047Y-107053333D01*
X86788571Y-107053333D01*
X86693333Y-107100952D01*
X86645714Y-107148571D01*
X86598095Y-107243809D01*
X93712380Y-122562857D02*
X93236190Y-122896190D01*
X93712380Y-123134285D02*
X92712380Y-123134285D01*
X92712380Y-122753333D01*
X92760000Y-122658095D01*
X92807619Y-122610476D01*
X92902857Y-122562857D01*
X93045714Y-122562857D01*
X93140952Y-122610476D01*
X93188571Y-122658095D01*
X93236190Y-122753333D01*
X93236190Y-123134285D01*
X93712380Y-121610476D02*
X93712380Y-122181904D01*
X93712380Y-121896190D02*
X92712380Y-121896190D01*
X92855238Y-121991428D01*
X92950476Y-122086666D01*
X92998095Y-122181904D01*
X93045714Y-120753333D02*
X93712380Y-120753333D01*
X92664761Y-120991428D02*
X93379047Y-121229523D01*
X93379047Y-120610476D01*
X92442380Y-111132857D02*
X91966190Y-111466190D01*
X92442380Y-111704285D02*
X91442380Y-111704285D01*
X91442380Y-111323333D01*
X91490000Y-111228095D01*
X91537619Y-111180476D01*
X91632857Y-111132857D01*
X91775714Y-111132857D01*
X91870952Y-111180476D01*
X91918571Y-111228095D01*
X91966190Y-111323333D01*
X91966190Y-111704285D01*
X92442380Y-110180476D02*
X92442380Y-110751904D01*
X92442380Y-110466190D02*
X91442380Y-110466190D01*
X91585238Y-110561428D01*
X91680476Y-110656666D01*
X91728095Y-110751904D01*
X91442380Y-109847142D02*
X91442380Y-109228095D01*
X91823333Y-109561428D01*
X91823333Y-109418571D01*
X91870952Y-109323333D01*
X91918571Y-109275714D01*
X92013809Y-109228095D01*
X92251904Y-109228095D01*
X92347142Y-109275714D01*
X92394761Y-109323333D01*
X92442380Y-109418571D01*
X92442380Y-109704285D01*
X92394761Y-109799523D01*
X92347142Y-109847142D01*
X91137142Y-117482857D02*
X91184761Y-117530476D01*
X91232380Y-117673333D01*
X91232380Y-117768571D01*
X91184761Y-117911428D01*
X91089523Y-118006666D01*
X90994285Y-118054285D01*
X90803809Y-118101904D01*
X90660952Y-118101904D01*
X90470476Y-118054285D01*
X90375238Y-118006666D01*
X90280000Y-117911428D01*
X90232380Y-117768571D01*
X90232380Y-117673333D01*
X90280000Y-117530476D01*
X90327619Y-117482857D01*
X91232380Y-116530476D02*
X91232380Y-117101904D01*
X91232380Y-116816190D02*
X90232380Y-116816190D01*
X90375238Y-116911428D01*
X90470476Y-117006666D01*
X90518095Y-117101904D01*
X91232380Y-116054285D02*
X91232380Y-115863809D01*
X91184761Y-115768571D01*
X91137142Y-115720952D01*
X90994285Y-115625714D01*
X90803809Y-115578095D01*
X90422857Y-115578095D01*
X90327619Y-115625714D01*
X90280000Y-115673333D01*
X90232380Y-115768571D01*
X90232380Y-115959047D01*
X90280000Y-116054285D01*
X90327619Y-116101904D01*
X90422857Y-116149523D01*
X90660952Y-116149523D01*
X90756190Y-116101904D01*
X90803809Y-116054285D01*
X90851428Y-115959047D01*
X90851428Y-115768571D01*
X90803809Y-115673333D01*
X90756190Y-115625714D01*
X90660952Y-115578095D01*
X91137142Y-106052857D02*
X91184761Y-106100476D01*
X91232380Y-106243333D01*
X91232380Y-106338571D01*
X91184761Y-106481428D01*
X91089523Y-106576666D01*
X90994285Y-106624285D01*
X90803809Y-106671904D01*
X90660952Y-106671904D01*
X90470476Y-106624285D01*
X90375238Y-106576666D01*
X90280000Y-106481428D01*
X90232380Y-106338571D01*
X90232380Y-106243333D01*
X90280000Y-106100476D01*
X90327619Y-106052857D01*
X91232380Y-105100476D02*
X91232380Y-105671904D01*
X91232380Y-105386190D02*
X90232380Y-105386190D01*
X90375238Y-105481428D01*
X90470476Y-105576666D01*
X90518095Y-105671904D01*
X90660952Y-104529047D02*
X90613333Y-104624285D01*
X90565714Y-104671904D01*
X90470476Y-104719523D01*
X90422857Y-104719523D01*
X90327619Y-104671904D01*
X90280000Y-104624285D01*
X90232380Y-104529047D01*
X90232380Y-104338571D01*
X90280000Y-104243333D01*
X90327619Y-104195714D01*
X90422857Y-104148095D01*
X90470476Y-104148095D01*
X90565714Y-104195714D01*
X90613333Y-104243333D01*
X90660952Y-104338571D01*
X90660952Y-104529047D01*
X90708571Y-104624285D01*
X90756190Y-104671904D01*
X90851428Y-104719523D01*
X91041904Y-104719523D01*
X91137142Y-104671904D01*
X91184761Y-104624285D01*
X91232380Y-104529047D01*
X91232380Y-104338571D01*
X91184761Y-104243333D01*
X91137142Y-104195714D01*
X91041904Y-104148095D01*
X90851428Y-104148095D01*
X90756190Y-104195714D01*
X90708571Y-104243333D01*
X90660952Y-104338571D01*
X84837142Y-108592857D02*
X84884761Y-108640476D01*
X84932380Y-108783333D01*
X84932380Y-108878571D01*
X84884761Y-109021428D01*
X84789523Y-109116666D01*
X84694285Y-109164285D01*
X84503809Y-109211904D01*
X84360952Y-109211904D01*
X84170476Y-109164285D01*
X84075238Y-109116666D01*
X83980000Y-109021428D01*
X83932380Y-108878571D01*
X83932380Y-108783333D01*
X83980000Y-108640476D01*
X84027619Y-108592857D01*
X84932380Y-107640476D02*
X84932380Y-108211904D01*
X84932380Y-107926190D02*
X83932380Y-107926190D01*
X84075238Y-108021428D01*
X84170476Y-108116666D01*
X84218095Y-108211904D01*
X83932380Y-107307142D02*
X83932380Y-106640476D01*
X84932380Y-107069047D01*
X86107142Y-118752857D02*
X86154761Y-118800476D01*
X86202380Y-118943333D01*
X86202380Y-119038571D01*
X86154761Y-119181428D01*
X86059523Y-119276666D01*
X85964285Y-119324285D01*
X85773809Y-119371904D01*
X85630952Y-119371904D01*
X85440476Y-119324285D01*
X85345238Y-119276666D01*
X85250000Y-119181428D01*
X85202380Y-119038571D01*
X85202380Y-118943333D01*
X85250000Y-118800476D01*
X85297619Y-118752857D01*
X86202380Y-117800476D02*
X86202380Y-118371904D01*
X86202380Y-118086190D02*
X85202380Y-118086190D01*
X85345238Y-118181428D01*
X85440476Y-118276666D01*
X85488095Y-118371904D01*
X85202380Y-116943333D02*
X85202380Y-117133809D01*
X85250000Y-117229047D01*
X85297619Y-117276666D01*
X85440476Y-117371904D01*
X85630952Y-117419523D01*
X86011904Y-117419523D01*
X86107142Y-117371904D01*
X86154761Y-117324285D01*
X86202380Y-117229047D01*
X86202380Y-117038571D01*
X86154761Y-116943333D01*
X86107142Y-116895714D01*
X86011904Y-116848095D01*
X85773809Y-116848095D01*
X85678571Y-116895714D01*
X85630952Y-116943333D01*
X85583333Y-117038571D01*
X85583333Y-117229047D01*
X85630952Y-117324285D01*
X85678571Y-117371904D01*
X85773809Y-117419523D01*
X92407142Y-85732857D02*
X92454761Y-85780476D01*
X92502380Y-85923333D01*
X92502380Y-86018571D01*
X92454761Y-86161428D01*
X92359523Y-86256666D01*
X92264285Y-86304285D01*
X92073809Y-86351904D01*
X91930952Y-86351904D01*
X91740476Y-86304285D01*
X91645238Y-86256666D01*
X91550000Y-86161428D01*
X91502380Y-86018571D01*
X91502380Y-85923333D01*
X91550000Y-85780476D01*
X91597619Y-85732857D01*
X92502380Y-84780476D02*
X92502380Y-85351904D01*
X92502380Y-85066190D02*
X91502380Y-85066190D01*
X91645238Y-85161428D01*
X91740476Y-85256666D01*
X91788095Y-85351904D01*
X91502380Y-83875714D02*
X91502380Y-84351904D01*
X91978571Y-84399523D01*
X91930952Y-84351904D01*
X91883333Y-84256666D01*
X91883333Y-84018571D01*
X91930952Y-83923333D01*
X91978571Y-83875714D01*
X92073809Y-83828095D01*
X92311904Y-83828095D01*
X92407142Y-83875714D01*
X92454761Y-83923333D01*
X92502380Y-84018571D01*
X92502380Y-84256666D01*
X92454761Y-84351904D01*
X92407142Y-84399523D01*
X89917142Y-87002857D02*
X89964761Y-87050476D01*
X90012380Y-87193333D01*
X90012380Y-87288571D01*
X89964761Y-87431428D01*
X89869523Y-87526666D01*
X89774285Y-87574285D01*
X89583809Y-87621904D01*
X89440952Y-87621904D01*
X89250476Y-87574285D01*
X89155238Y-87526666D01*
X89060000Y-87431428D01*
X89012380Y-87288571D01*
X89012380Y-87193333D01*
X89060000Y-87050476D01*
X89107619Y-87002857D01*
X90012380Y-86050476D02*
X90012380Y-86621904D01*
X90012380Y-86336190D02*
X89012380Y-86336190D01*
X89155238Y-86431428D01*
X89250476Y-86526666D01*
X89298095Y-86621904D01*
X89345714Y-85193333D02*
X90012380Y-85193333D01*
X88964761Y-85431428D02*
X89679047Y-85669523D01*
X89679047Y-85050476D01*
X133913642Y-109843442D02*
X133866023Y-109891061D01*
X133723166Y-109938680D01*
X133627928Y-109938680D01*
X133485071Y-109891061D01*
X133389833Y-109795823D01*
X133342214Y-109700585D01*
X133294595Y-109510109D01*
X133294595Y-109367252D01*
X133342214Y-109176776D01*
X133389833Y-109081538D01*
X133485071Y-108986300D01*
X133627928Y-108938680D01*
X133723166Y-108938680D01*
X133866023Y-108986300D01*
X133913642Y-109033919D01*
X134866023Y-109938680D02*
X134294595Y-109938680D01*
X134580309Y-109938680D02*
X134580309Y-108938680D01*
X134485071Y-109081538D01*
X134389833Y-109176776D01*
X134294595Y-109224395D01*
X135246976Y-109033919D02*
X135294595Y-108986300D01*
X135389833Y-108938680D01*
X135627928Y-108938680D01*
X135723166Y-108986300D01*
X135770785Y-109033919D01*
X135818404Y-109129157D01*
X135818404Y-109224395D01*
X135770785Y-109367252D01*
X135199357Y-109938680D01*
X135818404Y-109938680D01*
X59332833Y-96373442D02*
X59285214Y-96421061D01*
X59142357Y-96468680D01*
X59047119Y-96468680D01*
X58904261Y-96421061D01*
X58809023Y-96325823D01*
X58761404Y-96230585D01*
X58713785Y-96040109D01*
X58713785Y-95897252D01*
X58761404Y-95706776D01*
X58809023Y-95611538D01*
X58904261Y-95516300D01*
X59047119Y-95468680D01*
X59142357Y-95468680D01*
X59285214Y-95516300D01*
X59332833Y-95563919D01*
X59666166Y-95468680D02*
X60332833Y-95468680D01*
X59904261Y-96468680D01*
X127746542Y-86310766D02*
X127794161Y-86358385D01*
X127841780Y-86501242D01*
X127841780Y-86596480D01*
X127794161Y-86739338D01*
X127698923Y-86834576D01*
X127603685Y-86882195D01*
X127413209Y-86929814D01*
X127270352Y-86929814D01*
X127079876Y-86882195D01*
X126984638Y-86834576D01*
X126889400Y-86739338D01*
X126841780Y-86596480D01*
X126841780Y-86501242D01*
X126889400Y-86358385D01*
X126937019Y-86310766D01*
X126937019Y-85929814D02*
X126889400Y-85882195D01*
X126841780Y-85786957D01*
X126841780Y-85548861D01*
X126889400Y-85453623D01*
X126937019Y-85406004D01*
X127032257Y-85358385D01*
X127127495Y-85358385D01*
X127270352Y-85406004D01*
X127841780Y-85977433D01*
X127841780Y-85358385D01*
X141914666Y-71412180D02*
X141914666Y-72126466D01*
X141867047Y-72269323D01*
X141771809Y-72364561D01*
X141628952Y-72412180D01*
X141533714Y-72412180D01*
X142390857Y-72412180D02*
X142390857Y-71412180D01*
X142771809Y-71412180D01*
X142867047Y-71459800D01*
X142914666Y-71507419D01*
X142962285Y-71602657D01*
X142962285Y-71745514D01*
X142914666Y-71840752D01*
X142867047Y-71888371D01*
X142771809Y-71935990D01*
X142390857Y-71935990D01*
X143914666Y-72412180D02*
X143343238Y-72412180D01*
X143628952Y-72412180D02*
X143628952Y-71412180D01*
X143533714Y-71555038D01*
X143438476Y-71650276D01*
X143343238Y-71697895D01*
X138932280Y-96229395D02*
X137932280Y-96229395D01*
X137932280Y-95991300D01*
X137979900Y-95848442D01*
X138075138Y-95753204D01*
X138170376Y-95705585D01*
X138360852Y-95657966D01*
X138503709Y-95657966D01*
X138694185Y-95705585D01*
X138789423Y-95753204D01*
X138884661Y-95848442D01*
X138932280Y-95991300D01*
X138932280Y-96229395D01*
X138027519Y-95277014D02*
X137979900Y-95229395D01*
X137932280Y-95134157D01*
X137932280Y-94896061D01*
X137979900Y-94800823D01*
X138027519Y-94753204D01*
X138122757Y-94705585D01*
X138217995Y-94705585D01*
X138360852Y-94753204D01*
X138932280Y-95324633D01*
X138932280Y-94705585D01*
X138932280Y-102325395D02*
X137932280Y-102325395D01*
X137932280Y-102087300D01*
X137979900Y-101944442D01*
X138075138Y-101849204D01*
X138170376Y-101801585D01*
X138360852Y-101753966D01*
X138503709Y-101753966D01*
X138694185Y-101801585D01*
X138789423Y-101849204D01*
X138884661Y-101944442D01*
X138932280Y-102087300D01*
X138932280Y-102325395D01*
X138932280Y-100801585D02*
X138932280Y-101373014D01*
X138932280Y-101087300D02*
X137932280Y-101087300D01*
X138075138Y-101182538D01*
X138170376Y-101277776D01*
X138217995Y-101373014D01*
X90678095Y-86352380D02*
X90678095Y-87161904D01*
X90725714Y-87257142D01*
X90773333Y-87304761D01*
X90868571Y-87352380D01*
X91059047Y-87352380D01*
X91154285Y-87304761D01*
X91201904Y-87257142D01*
X91249523Y-87161904D01*
X91249523Y-86352380D01*
X92201904Y-86352380D02*
X91725714Y-86352380D01*
X91678095Y-86828571D01*
X91725714Y-86780952D01*
X91820952Y-86733333D01*
X92059047Y-86733333D01*
X92154285Y-86780952D01*
X92201904Y-86828571D01*
X92249523Y-86923809D01*
X92249523Y-87161904D01*
X92201904Y-87257142D01*
X92154285Y-87304761D01*
X92059047Y-87352380D01*
X91820952Y-87352380D01*
X91725714Y-87304761D01*
X91678095Y-87257142D01*
X105895480Y-88404604D02*
X106705004Y-88404604D01*
X106800242Y-88356985D01*
X106847861Y-88309366D01*
X106895480Y-88214128D01*
X106895480Y-88023652D01*
X106847861Y-87928414D01*
X106800242Y-87880795D01*
X106705004Y-87833176D01*
X105895480Y-87833176D01*
X105895480Y-87452223D02*
X105895480Y-86833176D01*
X106276433Y-87166509D01*
X106276433Y-87023652D01*
X106324052Y-86928414D01*
X106371671Y-86880795D01*
X106466909Y-86833176D01*
X106705004Y-86833176D01*
X106800242Y-86880795D01*
X106847861Y-86928414D01*
X106895480Y-87023652D01*
X106895480Y-87309366D01*
X106847861Y-87404604D01*
X106800242Y-87452223D01*
X68839080Y-95859504D02*
X69648604Y-95859504D01*
X69743842Y-95811885D01*
X69791461Y-95764266D01*
X69839080Y-95669028D01*
X69839080Y-95478552D01*
X69791461Y-95383314D01*
X69743842Y-95335695D01*
X69648604Y-95288076D01*
X68839080Y-95288076D01*
X68934319Y-94859504D02*
X68886700Y-94811885D01*
X68839080Y-94716647D01*
X68839080Y-94478552D01*
X68886700Y-94383314D01*
X68934319Y-94335695D01*
X69029557Y-94288076D01*
X69124795Y-94288076D01*
X69267652Y-94335695D01*
X69839080Y-94907123D01*
X69839080Y-94288076D01*
X97522380Y-92082857D02*
X97046190Y-92416190D01*
X97522380Y-92654285D02*
X96522380Y-92654285D01*
X96522380Y-92273333D01*
X96570000Y-92178095D01*
X96617619Y-92130476D01*
X96712857Y-92082857D01*
X96855714Y-92082857D01*
X96950952Y-92130476D01*
X96998571Y-92178095D01*
X97046190Y-92273333D01*
X97046190Y-92654285D01*
X97522380Y-91130476D02*
X97522380Y-91701904D01*
X97522380Y-91416190D02*
X96522380Y-91416190D01*
X96665238Y-91511428D01*
X96760476Y-91606666D01*
X96808095Y-91701904D01*
X96617619Y-90749523D02*
X96570000Y-90701904D01*
X96522380Y-90606666D01*
X96522380Y-90368571D01*
X96570000Y-90273333D01*
X96617619Y-90225714D01*
X96712857Y-90178095D01*
X96808095Y-90178095D01*
X96950952Y-90225714D01*
X97522380Y-90797142D01*
X97522380Y-90178095D01*
X103173880Y-124137657D02*
X102697690Y-124470990D01*
X103173880Y-124709085D02*
X102173880Y-124709085D01*
X102173880Y-124328133D01*
X102221500Y-124232895D01*
X102269119Y-124185276D01*
X102364357Y-124137657D01*
X102507214Y-124137657D01*
X102602452Y-124185276D01*
X102650071Y-124232895D01*
X102697690Y-124328133D01*
X102697690Y-124709085D01*
X103173880Y-123185276D02*
X103173880Y-123756704D01*
X103173880Y-123470990D02*
X102173880Y-123470990D01*
X102316738Y-123566228D01*
X102411976Y-123661466D01*
X102459595Y-123756704D01*
X103173880Y-122232895D02*
X103173880Y-122804323D01*
X103173880Y-122518609D02*
X102173880Y-122518609D01*
X102316738Y-122613847D01*
X102411976Y-122709085D01*
X102459595Y-122804323D01*
X67899042Y-97666980D02*
X67565709Y-97190790D01*
X67327614Y-97666980D02*
X67327614Y-96666980D01*
X67708566Y-96666980D01*
X67803804Y-96714600D01*
X67851423Y-96762219D01*
X67899042Y-96857457D01*
X67899042Y-97000314D01*
X67851423Y-97095552D01*
X67803804Y-97143171D01*
X67708566Y-97190790D01*
X67327614Y-97190790D01*
X68851423Y-97666980D02*
X68279995Y-97666980D01*
X68565709Y-97666980D02*
X68565709Y-96666980D01*
X68470471Y-96809838D01*
X68375233Y-96905076D01*
X68279995Y-96952695D01*
X69470471Y-96666980D02*
X69565709Y-96666980D01*
X69660947Y-96714600D01*
X69708566Y-96762219D01*
X69756185Y-96857457D01*
X69803804Y-97047933D01*
X69803804Y-97286028D01*
X69756185Y-97476504D01*
X69708566Y-97571742D01*
X69660947Y-97619361D01*
X69565709Y-97666980D01*
X69470471Y-97666980D01*
X69375233Y-97619361D01*
X69327614Y-97571742D01*
X69279995Y-97476504D01*
X69232376Y-97286028D01*
X69232376Y-97047933D01*
X69279995Y-96857457D01*
X69327614Y-96762219D01*
X69375233Y-96714600D01*
X69470471Y-96666980D01*
X73747333Y-97641580D02*
X73414000Y-97165390D01*
X73175904Y-97641580D02*
X73175904Y-96641580D01*
X73556857Y-96641580D01*
X73652095Y-96689200D01*
X73699714Y-96736819D01*
X73747333Y-96832057D01*
X73747333Y-96974914D01*
X73699714Y-97070152D01*
X73652095Y-97117771D01*
X73556857Y-97165390D01*
X73175904Y-97165390D01*
X74223523Y-97641580D02*
X74414000Y-97641580D01*
X74509238Y-97593961D01*
X74556857Y-97546342D01*
X74652095Y-97403485D01*
X74699714Y-97213009D01*
X74699714Y-96832057D01*
X74652095Y-96736819D01*
X74604476Y-96689200D01*
X74509238Y-96641580D01*
X74318761Y-96641580D01*
X74223523Y-96689200D01*
X74175904Y-96736819D01*
X74128285Y-96832057D01*
X74128285Y-97070152D01*
X74175904Y-97165390D01*
X74223523Y-97213009D01*
X74318761Y-97260628D01*
X74509238Y-97260628D01*
X74604476Y-97213009D01*
X74652095Y-97165390D01*
X74699714Y-97070152D01*
X66609933Y-96900080D02*
X66276600Y-96423890D01*
X66038504Y-96900080D02*
X66038504Y-95900080D01*
X66419457Y-95900080D01*
X66514695Y-95947700D01*
X66562314Y-95995319D01*
X66609933Y-96090557D01*
X66609933Y-96233414D01*
X66562314Y-96328652D01*
X66514695Y-96376271D01*
X66419457Y-96423890D01*
X66038504Y-96423890D01*
X67181361Y-96328652D02*
X67086123Y-96281033D01*
X67038504Y-96233414D01*
X66990885Y-96138176D01*
X66990885Y-96090557D01*
X67038504Y-95995319D01*
X67086123Y-95947700D01*
X67181361Y-95900080D01*
X67371838Y-95900080D01*
X67467076Y-95947700D01*
X67514695Y-95995319D01*
X67562314Y-96090557D01*
X67562314Y-96138176D01*
X67514695Y-96233414D01*
X67467076Y-96281033D01*
X67371838Y-96328652D01*
X67181361Y-96328652D01*
X67086123Y-96376271D01*
X67038504Y-96423890D01*
X66990885Y-96519128D01*
X66990885Y-96709604D01*
X67038504Y-96804842D01*
X67086123Y-96852461D01*
X67181361Y-96900080D01*
X67371838Y-96900080D01*
X67467076Y-96852461D01*
X67514695Y-96804842D01*
X67562314Y-96709604D01*
X67562314Y-96519128D01*
X67514695Y-96423890D01*
X67467076Y-96376271D01*
X67371838Y-96328652D01*
X69340433Y-90085080D02*
X69007100Y-89608890D01*
X68769004Y-90085080D02*
X68769004Y-89085080D01*
X69149957Y-89085080D01*
X69245195Y-89132700D01*
X69292814Y-89180319D01*
X69340433Y-89275557D01*
X69340433Y-89418414D01*
X69292814Y-89513652D01*
X69245195Y-89561271D01*
X69149957Y-89608890D01*
X68769004Y-89608890D01*
X69673766Y-89085080D02*
X70340433Y-89085080D01*
X69911861Y-90085080D01*
X135837633Y-92802880D02*
X135504300Y-92326690D01*
X135266204Y-92802880D02*
X135266204Y-91802880D01*
X135647157Y-91802880D01*
X135742395Y-91850500D01*
X135790014Y-91898119D01*
X135837633Y-91993357D01*
X135837633Y-92136214D01*
X135790014Y-92231452D01*
X135742395Y-92279071D01*
X135647157Y-92326690D01*
X135266204Y-92326690D01*
X136694776Y-91802880D02*
X136504300Y-91802880D01*
X136409061Y-91850500D01*
X136361442Y-91898119D01*
X136266204Y-92040976D01*
X136218585Y-92231452D01*
X136218585Y-92612404D01*
X136266204Y-92707642D01*
X136313823Y-92755261D01*
X136409061Y-92802880D01*
X136599538Y-92802880D01*
X136694776Y-92755261D01*
X136742395Y-92707642D01*
X136790014Y-92612404D01*
X136790014Y-92374309D01*
X136742395Y-92279071D01*
X136694776Y-92231452D01*
X136599538Y-92183833D01*
X136409061Y-92183833D01*
X136313823Y-92231452D01*
X136266204Y-92279071D01*
X136218585Y-92374309D01*
X135850333Y-98898880D02*
X135517000Y-98422690D01*
X135278904Y-98898880D02*
X135278904Y-97898880D01*
X135659857Y-97898880D01*
X135755095Y-97946500D01*
X135802714Y-97994119D01*
X135850333Y-98089357D01*
X135850333Y-98232214D01*
X135802714Y-98327452D01*
X135755095Y-98375071D01*
X135659857Y-98422690D01*
X135278904Y-98422690D01*
X136755095Y-97898880D02*
X136278904Y-97898880D01*
X136231285Y-98375071D01*
X136278904Y-98327452D01*
X136374142Y-98279833D01*
X136612238Y-98279833D01*
X136707476Y-98327452D01*
X136755095Y-98375071D01*
X136802714Y-98470309D01*
X136802714Y-98708404D01*
X136755095Y-98803642D01*
X136707476Y-98851261D01*
X136612238Y-98898880D01*
X136374142Y-98898880D01*
X136278904Y-98851261D01*
X136231285Y-98803642D01*
X114184133Y-97598580D02*
X113850800Y-97122390D01*
X113612704Y-97598580D02*
X113612704Y-96598580D01*
X113993657Y-96598580D01*
X114088895Y-96646200D01*
X114136514Y-96693819D01*
X114184133Y-96789057D01*
X114184133Y-96931914D01*
X114136514Y-97027152D01*
X114088895Y-97074771D01*
X113993657Y-97122390D01*
X113612704Y-97122390D01*
X115041276Y-96931914D02*
X115041276Y-97598580D01*
X114803180Y-96550961D02*
X114565085Y-97265247D01*
X115184133Y-97265247D01*
X117339280Y-92571866D02*
X116863090Y-92905200D01*
X117339280Y-93143295D02*
X116339280Y-93143295D01*
X116339280Y-92762342D01*
X116386900Y-92667104D01*
X116434519Y-92619485D01*
X116529757Y-92571866D01*
X116672614Y-92571866D01*
X116767852Y-92619485D01*
X116815471Y-92667104D01*
X116863090Y-92762342D01*
X116863090Y-93143295D01*
X116339280Y-92238533D02*
X116339280Y-91619485D01*
X116720233Y-91952819D01*
X116720233Y-91809961D01*
X116767852Y-91714723D01*
X116815471Y-91667104D01*
X116910709Y-91619485D01*
X117148804Y-91619485D01*
X117244042Y-91667104D01*
X117291661Y-91714723D01*
X117339280Y-91809961D01*
X117339280Y-92095676D01*
X117291661Y-92190914D01*
X117244042Y-92238533D01*
X119841180Y-92571866D02*
X119364990Y-92905200D01*
X119841180Y-93143295D02*
X118841180Y-93143295D01*
X118841180Y-92762342D01*
X118888800Y-92667104D01*
X118936419Y-92619485D01*
X119031657Y-92571866D01*
X119174514Y-92571866D01*
X119269752Y-92619485D01*
X119317371Y-92667104D01*
X119364990Y-92762342D01*
X119364990Y-93143295D01*
X118936419Y-92190914D02*
X118888800Y-92143295D01*
X118841180Y-92048057D01*
X118841180Y-91809961D01*
X118888800Y-91714723D01*
X118936419Y-91667104D01*
X119031657Y-91619485D01*
X119126895Y-91619485D01*
X119269752Y-91667104D01*
X119841180Y-92238533D01*
X119841180Y-91619485D01*
X128235880Y-96458066D02*
X127759690Y-96791400D01*
X128235880Y-97029495D02*
X127235880Y-97029495D01*
X127235880Y-96648542D01*
X127283500Y-96553304D01*
X127331119Y-96505685D01*
X127426357Y-96458066D01*
X127569214Y-96458066D01*
X127664452Y-96505685D01*
X127712071Y-96553304D01*
X127759690Y-96648542D01*
X127759690Y-97029495D01*
X128235880Y-95505685D02*
X128235880Y-96077114D01*
X128235880Y-95791400D02*
X127235880Y-95791400D01*
X127378738Y-95886638D01*
X127473976Y-95981876D01*
X127521595Y-96077114D01*
X75550219Y-104743238D02*
X75502600Y-104838476D01*
X75407361Y-104933714D01*
X75264504Y-105076571D01*
X75216885Y-105171809D01*
X75216885Y-105267047D01*
X75454980Y-105219428D02*
X75407361Y-105314666D01*
X75312123Y-105409904D01*
X75121647Y-105457523D01*
X74788314Y-105457523D01*
X74597838Y-105409904D01*
X74502600Y-105314666D01*
X74454980Y-105219428D01*
X74454980Y-105028952D01*
X74502600Y-104933714D01*
X74597838Y-104838476D01*
X74788314Y-104790857D01*
X75121647Y-104790857D01*
X75312123Y-104838476D01*
X75407361Y-104933714D01*
X75454980Y-105028952D01*
X75454980Y-105219428D01*
X74550219Y-104409904D02*
X74502600Y-104362285D01*
X74454980Y-104267047D01*
X74454980Y-104028952D01*
X74502600Y-103933714D01*
X74550219Y-103886095D01*
X74645457Y-103838476D01*
X74740695Y-103838476D01*
X74883552Y-103886095D01*
X75454980Y-104457523D01*
X75454980Y-103838476D01*
X57356619Y-84918538D02*
X57309000Y-85013776D01*
X57213761Y-85109014D01*
X57070904Y-85251871D01*
X57023285Y-85347109D01*
X57023285Y-85442347D01*
X57261380Y-85394728D02*
X57213761Y-85489966D01*
X57118523Y-85585204D01*
X56928047Y-85632823D01*
X56594714Y-85632823D01*
X56404238Y-85585204D01*
X56309000Y-85489966D01*
X56261380Y-85394728D01*
X56261380Y-85204252D01*
X56309000Y-85109014D01*
X56404238Y-85013776D01*
X56594714Y-84966157D01*
X56928047Y-84966157D01*
X57118523Y-85013776D01*
X57213761Y-85109014D01*
X57261380Y-85204252D01*
X57261380Y-85394728D01*
X57261380Y-84013776D02*
X57261380Y-84585204D01*
X57261380Y-84299490D02*
X56261380Y-84299490D01*
X56404238Y-84394728D01*
X56499476Y-84489966D01*
X56547095Y-84585204D01*
X141622080Y-133010233D02*
X142336366Y-133010233D01*
X142479223Y-133057852D01*
X142574461Y-133153090D01*
X142622080Y-133295947D01*
X142622080Y-133391185D01*
X141622080Y-132629280D02*
X141622080Y-132010233D01*
X142003033Y-132343566D01*
X142003033Y-132200709D01*
X142050652Y-132105471D01*
X142098271Y-132057852D01*
X142193509Y-132010233D01*
X142431604Y-132010233D01*
X142526842Y-132057852D01*
X142574461Y-132105471D01*
X142622080Y-132200709D01*
X142622080Y-132486423D01*
X142574461Y-132581661D01*
X142526842Y-132629280D01*
X111484071Y-130119285D02*
X111484071Y-129785952D01*
X112007880Y-129643095D02*
X112007880Y-130119285D01*
X111007880Y-130119285D01*
X111007880Y-129643095D01*
X112007880Y-129214523D02*
X111007880Y-129214523D01*
X112007880Y-128643095D01*
X111007880Y-128643095D01*
X112007880Y-127643095D02*
X112007880Y-128214523D01*
X112007880Y-127928809D02*
X111007880Y-127928809D01*
X111150738Y-128024047D01*
X111245976Y-128119285D01*
X111293595Y-128214523D01*
X140543042Y-109263542D02*
X140495423Y-109311161D01*
X140352566Y-109358780D01*
X140257328Y-109358780D01*
X140114471Y-109311161D01*
X140019233Y-109215923D01*
X139971614Y-109120685D01*
X139923995Y-108930209D01*
X139923995Y-108787352D01*
X139971614Y-108596876D01*
X140019233Y-108501638D01*
X140114471Y-108406400D01*
X140257328Y-108358780D01*
X140352566Y-108358780D01*
X140495423Y-108406400D01*
X140543042Y-108454019D01*
X141495423Y-109358780D02*
X140923995Y-109358780D01*
X141209709Y-109358780D02*
X141209709Y-108358780D01*
X141114471Y-108501638D01*
X141019233Y-108596876D01*
X140923995Y-108644495D01*
X141828757Y-108358780D02*
X142447804Y-108358780D01*
X142114471Y-108739733D01*
X142257328Y-108739733D01*
X142352566Y-108787352D01*
X142400185Y-108834971D01*
X142447804Y-108930209D01*
X142447804Y-109168304D01*
X142400185Y-109263542D01*
X142352566Y-109311161D01*
X142257328Y-109358780D01*
X141971614Y-109358780D01*
X141876376Y-109311161D01*
X141828757Y-109263542D01*
X106862642Y-119822142D02*
X106815023Y-119869761D01*
X106672166Y-119917380D01*
X106576928Y-119917380D01*
X106434071Y-119869761D01*
X106338833Y-119774523D01*
X106291214Y-119679285D01*
X106243595Y-119488809D01*
X106243595Y-119345952D01*
X106291214Y-119155476D01*
X106338833Y-119060238D01*
X106434071Y-118965000D01*
X106576928Y-118917380D01*
X106672166Y-118917380D01*
X106815023Y-118965000D01*
X106862642Y-119012619D01*
X107815023Y-119917380D02*
X107243595Y-119917380D01*
X107529309Y-119917380D02*
X107529309Y-118917380D01*
X107434071Y-119060238D01*
X107338833Y-119155476D01*
X107243595Y-119203095D01*
X108767404Y-119917380D02*
X108195976Y-119917380D01*
X108481690Y-119917380D02*
X108481690Y-118917380D01*
X108386452Y-119060238D01*
X108291214Y-119155476D01*
X108195976Y-119203095D01*
X105674342Y-88514157D02*
X105721961Y-88561776D01*
X105769580Y-88704633D01*
X105769580Y-88799871D01*
X105721961Y-88942728D01*
X105626723Y-89037966D01*
X105531485Y-89085585D01*
X105341009Y-89133204D01*
X105198152Y-89133204D01*
X105007676Y-89085585D01*
X104912438Y-89037966D01*
X104817200Y-88942728D01*
X104769580Y-88799871D01*
X104769580Y-88704633D01*
X104817200Y-88561776D01*
X104864819Y-88514157D01*
X105769580Y-87561776D02*
X105769580Y-88133204D01*
X105769580Y-87847490D02*
X104769580Y-87847490D01*
X104912438Y-87942728D01*
X105007676Y-88037966D01*
X105055295Y-88133204D01*
X104769580Y-86942728D02*
X104769580Y-86847490D01*
X104817200Y-86752252D01*
X104864819Y-86704633D01*
X104960057Y-86657014D01*
X105150533Y-86609395D01*
X105388628Y-86609395D01*
X105579104Y-86657014D01*
X105674342Y-86704633D01*
X105721961Y-86752252D01*
X105769580Y-86847490D01*
X105769580Y-86942728D01*
X105721961Y-87037966D01*
X105674342Y-87085585D01*
X105579104Y-87133204D01*
X105388628Y-87180823D01*
X105150533Y-87180823D01*
X104960057Y-87133204D01*
X104864819Y-87085585D01*
X104817200Y-87037966D01*
X104769580Y-86942728D01*
X101598433Y-82865142D02*
X101550814Y-82912761D01*
X101407957Y-82960380D01*
X101312719Y-82960380D01*
X101169861Y-82912761D01*
X101074623Y-82817523D01*
X101027004Y-82722285D01*
X100979385Y-82531809D01*
X100979385Y-82388952D01*
X101027004Y-82198476D01*
X101074623Y-82103238D01*
X101169861Y-82008000D01*
X101312719Y-81960380D01*
X101407957Y-81960380D01*
X101550814Y-82008000D01*
X101598433Y-82055619D01*
X102074623Y-82960380D02*
X102265100Y-82960380D01*
X102360338Y-82912761D01*
X102407957Y-82865142D01*
X102503195Y-82722285D01*
X102550814Y-82531809D01*
X102550814Y-82150857D01*
X102503195Y-82055619D01*
X102455576Y-82008000D01*
X102360338Y-81960380D01*
X102169861Y-81960380D01*
X102074623Y-82008000D01*
X102027004Y-82055619D01*
X101979385Y-82150857D01*
X101979385Y-82388952D01*
X102027004Y-82484190D01*
X102074623Y-82531809D01*
X102169861Y-82579428D01*
X102360338Y-82579428D01*
X102455576Y-82531809D01*
X102503195Y-82484190D01*
X102550814Y-82388952D01*
X76497542Y-92927466D02*
X76545161Y-92975085D01*
X76592780Y-93117942D01*
X76592780Y-93213180D01*
X76545161Y-93356038D01*
X76449923Y-93451276D01*
X76354685Y-93498895D01*
X76164209Y-93546514D01*
X76021352Y-93546514D01*
X75830876Y-93498895D01*
X75735638Y-93451276D01*
X75640400Y-93356038D01*
X75592780Y-93213180D01*
X75592780Y-93117942D01*
X75640400Y-92975085D01*
X75688019Y-92927466D01*
X76021352Y-92356038D02*
X75973733Y-92451276D01*
X75926114Y-92498895D01*
X75830876Y-92546514D01*
X75783257Y-92546514D01*
X75688019Y-92498895D01*
X75640400Y-92451276D01*
X75592780Y-92356038D01*
X75592780Y-92165561D01*
X75640400Y-92070323D01*
X75688019Y-92022704D01*
X75783257Y-91975085D01*
X75830876Y-91975085D01*
X75926114Y-92022704D01*
X75973733Y-92070323D01*
X76021352Y-92165561D01*
X76021352Y-92356038D01*
X76068971Y-92451276D01*
X76116590Y-92498895D01*
X76211828Y-92546514D01*
X76402304Y-92546514D01*
X76497542Y-92498895D01*
X76545161Y-92451276D01*
X76592780Y-92356038D01*
X76592780Y-92165561D01*
X76545161Y-92070323D01*
X76497542Y-92022704D01*
X76402304Y-91975085D01*
X76211828Y-91975085D01*
X76116590Y-92022704D01*
X76068971Y-92070323D01*
X76021352Y-92165561D01*
X58901033Y-99509942D02*
X58853414Y-99557561D01*
X58710557Y-99605180D01*
X58615319Y-99605180D01*
X58472461Y-99557561D01*
X58377223Y-99462323D01*
X58329604Y-99367085D01*
X58281985Y-99176609D01*
X58281985Y-99033752D01*
X58329604Y-98843276D01*
X58377223Y-98748038D01*
X58472461Y-98652800D01*
X58615319Y-98605180D01*
X58710557Y-98605180D01*
X58853414Y-98652800D01*
X58901033Y-98700419D01*
X59758176Y-98605180D02*
X59567700Y-98605180D01*
X59472461Y-98652800D01*
X59424842Y-98700419D01*
X59329604Y-98843276D01*
X59281985Y-99033752D01*
X59281985Y-99414704D01*
X59329604Y-99509942D01*
X59377223Y-99557561D01*
X59472461Y-99605180D01*
X59662938Y-99605180D01*
X59758176Y-99557561D01*
X59805795Y-99509942D01*
X59853414Y-99414704D01*
X59853414Y-99176609D01*
X59805795Y-99081371D01*
X59758176Y-99033752D01*
X59662938Y-98986133D01*
X59472461Y-98986133D01*
X59377223Y-99033752D01*
X59329604Y-99081371D01*
X59281985Y-99176609D01*
X114147633Y-100589442D02*
X114100014Y-100637061D01*
X113957157Y-100684680D01*
X113861919Y-100684680D01*
X113719061Y-100637061D01*
X113623823Y-100541823D01*
X113576204Y-100446585D01*
X113528585Y-100256109D01*
X113528585Y-100113252D01*
X113576204Y-99922776D01*
X113623823Y-99827538D01*
X113719061Y-99732300D01*
X113861919Y-99684680D01*
X113957157Y-99684680D01*
X114100014Y-99732300D01*
X114147633Y-99779919D01*
X115052395Y-99684680D02*
X114576204Y-99684680D01*
X114528585Y-100160871D01*
X114576204Y-100113252D01*
X114671442Y-100065633D01*
X114909538Y-100065633D01*
X115004776Y-100113252D01*
X115052395Y-100160871D01*
X115100014Y-100256109D01*
X115100014Y-100494204D01*
X115052395Y-100589442D01*
X115004776Y-100637061D01*
X114909538Y-100684680D01*
X114671442Y-100684680D01*
X114576204Y-100637061D01*
X114528585Y-100589442D01*
X125017233Y-98143242D02*
X124969614Y-98190861D01*
X124826757Y-98238480D01*
X124731519Y-98238480D01*
X124588661Y-98190861D01*
X124493423Y-98095623D01*
X124445804Y-98000385D01*
X124398185Y-97809909D01*
X124398185Y-97667052D01*
X124445804Y-97476576D01*
X124493423Y-97381338D01*
X124588661Y-97286100D01*
X124731519Y-97238480D01*
X124826757Y-97238480D01*
X124969614Y-97286100D01*
X125017233Y-97333719D01*
X125874376Y-97571814D02*
X125874376Y-98238480D01*
X125636280Y-97190861D02*
X125398185Y-97905147D01*
X126017233Y-97905147D01*
X125004533Y-94853942D02*
X124956914Y-94901561D01*
X124814057Y-94949180D01*
X124718819Y-94949180D01*
X124575961Y-94901561D01*
X124480723Y-94806323D01*
X124433104Y-94711085D01*
X124385485Y-94520609D01*
X124385485Y-94377752D01*
X124433104Y-94187276D01*
X124480723Y-94092038D01*
X124575961Y-93996800D01*
X124718819Y-93949180D01*
X124814057Y-93949180D01*
X124956914Y-93996800D01*
X125004533Y-94044419D01*
X125337866Y-93949180D02*
X125956914Y-93949180D01*
X125623580Y-94330133D01*
X125766438Y-94330133D01*
X125861676Y-94377752D01*
X125909295Y-94425371D01*
X125956914Y-94520609D01*
X125956914Y-94758704D01*
X125909295Y-94853942D01*
X125861676Y-94901561D01*
X125766438Y-94949180D01*
X125480723Y-94949180D01*
X125385485Y-94901561D01*
X125337866Y-94853942D01*
X124356042Y-87237866D02*
X124403661Y-87285485D01*
X124451280Y-87428342D01*
X124451280Y-87523580D01*
X124403661Y-87666438D01*
X124308423Y-87761676D01*
X124213185Y-87809295D01*
X124022709Y-87856914D01*
X123879852Y-87856914D01*
X123689376Y-87809295D01*
X123594138Y-87761676D01*
X123498900Y-87666438D01*
X123451280Y-87523580D01*
X123451280Y-87428342D01*
X123498900Y-87285485D01*
X123546519Y-87237866D01*
X124451280Y-86285485D02*
X124451280Y-86856914D01*
X124451280Y-86571200D02*
X123451280Y-86571200D01*
X123594138Y-86666438D01*
X123689376Y-86761676D01*
X123736995Y-86856914D01*
X97095285Y-35800071D02*
X97238142Y-35847690D01*
X97285761Y-35895309D01*
X97333380Y-35990547D01*
X97333380Y-36133404D01*
X97285761Y-36228642D01*
X97238142Y-36276261D01*
X97142904Y-36323880D01*
X96761952Y-36323880D01*
X96761952Y-35323880D01*
X97095285Y-35323880D01*
X97190523Y-35371500D01*
X97238142Y-35419119D01*
X97285761Y-35514357D01*
X97285761Y-35609595D01*
X97238142Y-35704833D01*
X97190523Y-35752452D01*
X97095285Y-35800071D01*
X96761952Y-35800071D01*
X97619095Y-35323880D02*
X98190523Y-35323880D01*
X97904809Y-36323880D02*
X97904809Y-35323880D01*
X98476238Y-35419119D02*
X98523857Y-35371500D01*
X98619095Y-35323880D01*
X98857190Y-35323880D01*
X98952428Y-35371500D01*
X99000047Y-35419119D01*
X99047666Y-35514357D01*
X99047666Y-35609595D01*
X99000047Y-35752452D01*
X98428619Y-36323880D01*
X99047666Y-36323880D01*
X120374071Y-130738333D02*
X120421690Y-130595476D01*
X120469309Y-130547857D01*
X120564547Y-130500238D01*
X120707404Y-130500238D01*
X120802642Y-130547857D01*
X120850261Y-130595476D01*
X120897880Y-130690714D01*
X120897880Y-131071666D01*
X119897880Y-131071666D01*
X119897880Y-130738333D01*
X119945500Y-130643095D01*
X119993119Y-130595476D01*
X120088357Y-130547857D01*
X120183595Y-130547857D01*
X120278833Y-130595476D01*
X120326452Y-130643095D01*
X120374071Y-130738333D01*
X120374071Y-131071666D01*
X119897880Y-129881190D02*
X119897880Y-129690714D01*
X119945500Y-129595476D01*
X120040738Y-129500238D01*
X120231214Y-129452619D01*
X120564547Y-129452619D01*
X120755023Y-129500238D01*
X120850261Y-129595476D01*
X120897880Y-129690714D01*
X120897880Y-129881190D01*
X120850261Y-129976428D01*
X120755023Y-130071666D01*
X120564547Y-130119285D01*
X120231214Y-130119285D01*
X120040738Y-130071666D01*
X119945500Y-129976428D01*
X119897880Y-129881190D01*
X119897880Y-128833571D02*
X119897880Y-128643095D01*
X119945500Y-128547857D01*
X120040738Y-128452619D01*
X120231214Y-128405000D01*
X120564547Y-128405000D01*
X120755023Y-128452619D01*
X120850261Y-128547857D01*
X120897880Y-128643095D01*
X120897880Y-128833571D01*
X120850261Y-128928809D01*
X120755023Y-129024047D01*
X120564547Y-129071666D01*
X120231214Y-129071666D01*
X120040738Y-129024047D01*
X119945500Y-128928809D01*
X119897880Y-128833571D01*
X119897880Y-128119285D02*
X119897880Y-127547857D01*
X120897880Y-127833571D02*
X119897880Y-127833571D01*
X120897880Y-126690714D02*
X120897880Y-127262142D01*
X120897880Y-126976428D02*
X119897880Y-126976428D01*
X120040738Y-127071666D01*
X120135976Y-127166904D01*
X120183595Y-127262142D01*
M02*
