G04 #@! TF.GenerationSoftware,KiCad,Pcbnew,(5.1.5)-3*
G04 #@! TF.CreationDate,2020-03-13T11:52:07+01:00*
G04 #@! TF.ProjectId,MainPCB,4d61696e-5043-4422-9e6b-696361645f70,rev?*
G04 #@! TF.SameCoordinates,Original*
G04 #@! TF.FileFunction,Copper,L2,Bot*
G04 #@! TF.FilePolarity,Positive*
%FSLAX46Y46*%
G04 Gerber Fmt 4.6, Leading zero omitted, Abs format (unit mm)*
G04 Created by KiCad (PCBNEW (5.1.5)-3) date 2020-03-13 11:52:07*
%MOMM*%
%LPD*%
G04 APERTURE LIST*
%ADD10O,1.700000X1.700000*%
%ADD11R,1.700000X1.700000*%
%ADD12O,1.800000X1.150000*%
%ADD13O,2.000000X1.450000*%
%ADD14R,2.000000X2.000000*%
%ADD15C,1.800000*%
%ADD16R,1.800000X1.800000*%
%ADD17C,0.800000*%
%ADD18C,0.500000*%
%ADD19C,0.250000*%
%ADD20C,0.254000*%
G04 APERTURE END LIST*
D10*
X99060000Y-88900000D03*
X99060000Y-91440000D03*
X99060000Y-93980000D03*
X99060000Y-96520000D03*
X99060000Y-99060000D03*
X99060000Y-101600000D03*
X99060000Y-104140000D03*
X99060000Y-106680000D03*
X99060000Y-109220000D03*
X99060000Y-111760000D03*
D11*
X99060000Y-114300000D03*
D12*
X138677100Y-90704900D03*
X138677100Y-82954900D03*
D13*
X142477100Y-90554900D03*
X142477100Y-83104900D03*
D14*
X142748000Y-79004800D03*
X142748000Y-74004800D03*
D15*
X141439900Y-94221300D03*
D16*
X141439900Y-96761300D03*
D15*
X141439900Y-100317300D03*
D16*
X141439900Y-102857300D03*
D10*
X134759700Y-132676900D03*
X137299700Y-132676900D03*
D11*
X139839700Y-132676900D03*
D17*
X63042800Y-95288100D03*
X86817200Y-92036900D03*
X92125800Y-85064600D03*
X117297200Y-100482400D03*
X119621300Y-95389700D03*
X120319800Y-102679500D03*
X121577100Y-100545900D03*
X143002000Y-131267200D03*
X85695000Y-119494300D03*
X142608300Y-109143800D03*
X139484100Y-104419400D03*
X136131300Y-125501400D03*
X139839700Y-126098300D03*
X129641600Y-108839000D03*
X115163600Y-100495100D03*
X68097400Y-89484200D03*
X124662900Y-101447600D03*
X119151400Y-101447600D03*
X109321600Y-98132900D03*
X109791500Y-90017600D03*
X107530900Y-83915301D03*
X130352800Y-133019800D03*
X86360000Y-121920000D03*
X127812800Y-131940300D03*
X86360000Y-111760000D03*
X121475500Y-125095000D03*
X88900000Y-90170000D03*
X69215000Y-96837500D03*
X74155300Y-95948500D03*
D18*
X136131300Y-97739200D02*
X136131300Y-125501400D01*
X99060000Y-93980000D02*
X132372100Y-93980000D01*
X132372100Y-93980000D02*
X136131300Y-97739200D01*
X138341100Y-96761300D02*
X138341100Y-124599700D01*
X99060000Y-91440000D02*
X133019800Y-91440000D01*
X138341100Y-124599700D02*
X139839700Y-126098300D01*
X133019800Y-91440000D02*
X138341100Y-96761300D01*
X99060000Y-96520000D02*
X124790200Y-96520000D01*
X124790200Y-96520000D02*
X129603500Y-101333300D01*
X129603500Y-101333300D02*
X129603500Y-108800900D01*
X129603500Y-108800900D02*
X129641600Y-108839000D01*
D19*
X114597915Y-100495100D02*
X114470915Y-100368100D01*
X115163600Y-100495100D02*
X114597915Y-100495100D01*
X114470915Y-100368100D02*
X95199200Y-100368100D01*
X95199200Y-100368100D02*
X90855800Y-96024700D01*
X90855800Y-96024700D02*
X90855800Y-90322400D01*
X90855800Y-90322400D02*
X88099900Y-87566500D01*
X88099900Y-87566500D02*
X69684900Y-87566500D01*
X69684900Y-87566500D02*
X68097400Y-89154000D01*
X68097400Y-89154000D02*
X68097400Y-89484200D01*
X124662900Y-101447600D02*
X119151400Y-101447600D01*
X119151400Y-101447600D02*
X119151400Y-100317300D01*
X119151400Y-100317300D02*
X116992400Y-98158300D01*
X116992400Y-98158300D02*
X109347000Y-98158300D01*
X109347000Y-98158300D02*
X109321600Y-98132900D01*
X109486700Y-89712800D02*
X109791500Y-90017600D01*
X109791500Y-89451915D02*
X109778800Y-89439215D01*
X109791500Y-90017600D02*
X109791500Y-89451915D01*
X109778800Y-86163201D02*
X107530900Y-83915301D01*
X109778800Y-89439215D02*
X109778800Y-86163201D01*
D18*
X86360000Y-121920000D02*
X86360000Y-121920000D01*
X86360000Y-128270000D02*
X86360000Y-121920000D01*
X130352800Y-133019800D02*
X89992200Y-133019800D01*
X86360000Y-129387600D02*
X86360000Y-128270000D01*
X89992200Y-133019800D02*
X86360000Y-129387600D01*
X86360000Y-111760000D02*
X86360000Y-111760000D01*
X86360000Y-111760000D02*
X86360000Y-111760000D01*
X87630000Y-113030000D02*
X86360000Y-111760000D01*
X127812800Y-131940300D02*
X91300300Y-131940300D01*
X87630000Y-128270000D02*
X87630000Y-113030000D01*
X91300300Y-131940300D02*
X87630000Y-128270000D01*
X88900000Y-90170000D02*
X88900000Y-90170000D01*
D19*
X88900000Y-90170000D02*
X88900000Y-115036600D01*
X98958400Y-125095000D02*
X121475500Y-125095000D01*
X88900000Y-115036600D02*
X98958400Y-125095000D01*
X69780685Y-96837500D02*
X70669685Y-95948500D01*
X69215000Y-96837500D02*
X69780685Y-96837500D01*
X70669685Y-95948500D02*
X74155300Y-95948500D01*
D20*
G36*
X144453800Y-36482487D02*
G01*
X144453801Y-133760156D01*
X141282782Y-133759278D01*
X141315512Y-133651382D01*
X141327772Y-133526900D01*
X141327772Y-131826900D01*
X141315512Y-131702418D01*
X141279202Y-131582720D01*
X141220237Y-131472406D01*
X141140885Y-131375715D01*
X141044194Y-131296363D01*
X140933880Y-131237398D01*
X140814182Y-131201088D01*
X140689700Y-131188828D01*
X138989700Y-131188828D01*
X138865218Y-131201088D01*
X138745520Y-131237398D01*
X138635206Y-131296363D01*
X138538515Y-131375715D01*
X138459163Y-131472406D01*
X138400198Y-131582720D01*
X138378187Y-131655280D01*
X138246332Y-131523425D01*
X138003111Y-131360910D01*
X137732858Y-131248968D01*
X137445960Y-131191900D01*
X137153440Y-131191900D01*
X136866542Y-131248968D01*
X136596289Y-131360910D01*
X136353068Y-131523425D01*
X136146225Y-131730268D01*
X136024505Y-131912434D01*
X135954878Y-131795545D01*
X135759969Y-131579312D01*
X135526620Y-131405259D01*
X135263799Y-131280075D01*
X135116590Y-131235424D01*
X134886700Y-131356745D01*
X134886700Y-132549900D01*
X134906700Y-132549900D01*
X134906700Y-132803900D01*
X134886700Y-132803900D01*
X134886700Y-132823900D01*
X134632700Y-132823900D01*
X134632700Y-132803900D01*
X133438886Y-132803900D01*
X133318219Y-133033791D01*
X133415543Y-133308152D01*
X133564522Y-133558255D01*
X133743839Y-133757190D01*
X131079858Y-133756453D01*
X131156737Y-133679574D01*
X131270005Y-133510056D01*
X131348026Y-133321698D01*
X131387800Y-133121739D01*
X131387800Y-132917861D01*
X131348026Y-132717902D01*
X131270005Y-132529544D01*
X131156737Y-132360026D01*
X131116720Y-132320009D01*
X133318219Y-132320009D01*
X133438886Y-132549900D01*
X134632700Y-132549900D01*
X134632700Y-131356745D01*
X134402810Y-131235424D01*
X134255601Y-131280075D01*
X133992780Y-131405259D01*
X133759431Y-131579312D01*
X133564522Y-131795545D01*
X133415543Y-132045648D01*
X133318219Y-132320009D01*
X131116720Y-132320009D01*
X131012574Y-132215863D01*
X130843056Y-132102595D01*
X130654698Y-132024574D01*
X130454739Y-131984800D01*
X130250861Y-131984800D01*
X130050902Y-132024574D01*
X129862544Y-132102595D01*
X129814346Y-132134800D01*
X128829389Y-132134800D01*
X128847800Y-132042239D01*
X128847800Y-131838361D01*
X128808026Y-131638402D01*
X128730005Y-131450044D01*
X128616737Y-131280526D01*
X128472574Y-131136363D01*
X128303056Y-131023095D01*
X128114698Y-130945074D01*
X127914739Y-130905300D01*
X127710861Y-130905300D01*
X127510902Y-130945074D01*
X127322544Y-131023095D01*
X127274346Y-131055300D01*
X91666879Y-131055300D01*
X88515000Y-127903422D01*
X88515000Y-115726401D01*
X98394601Y-125606003D01*
X98418399Y-125635001D01*
X98534124Y-125729974D01*
X98666153Y-125800546D01*
X98809414Y-125844003D01*
X98921067Y-125855000D01*
X98921075Y-125855000D01*
X98958400Y-125858676D01*
X98995725Y-125855000D01*
X120771789Y-125855000D01*
X120815726Y-125898937D01*
X120985244Y-126012205D01*
X121173602Y-126090226D01*
X121373561Y-126130000D01*
X121577439Y-126130000D01*
X121777398Y-126090226D01*
X121965756Y-126012205D01*
X122135274Y-125898937D01*
X122279437Y-125754774D01*
X122392705Y-125585256D01*
X122470726Y-125396898D01*
X122510500Y-125196939D01*
X122510500Y-124993061D01*
X122470726Y-124793102D01*
X122392705Y-124604744D01*
X122279437Y-124435226D01*
X122135274Y-124291063D01*
X121965756Y-124177795D01*
X121777398Y-124099774D01*
X121577439Y-124060000D01*
X121373561Y-124060000D01*
X121173602Y-124099774D01*
X120985244Y-124177795D01*
X120815726Y-124291063D01*
X120771789Y-124335000D01*
X99273202Y-124335000D01*
X89660000Y-114721799D01*
X89660000Y-113450000D01*
X97571928Y-113450000D01*
X97571928Y-115150000D01*
X97584188Y-115274482D01*
X97620498Y-115394180D01*
X97679463Y-115504494D01*
X97758815Y-115601185D01*
X97855506Y-115680537D01*
X97965820Y-115739502D01*
X98085518Y-115775812D01*
X98210000Y-115788072D01*
X99910000Y-115788072D01*
X100034482Y-115775812D01*
X100154180Y-115739502D01*
X100264494Y-115680537D01*
X100361185Y-115601185D01*
X100440537Y-115504494D01*
X100499502Y-115394180D01*
X100535812Y-115274482D01*
X100548072Y-115150000D01*
X100548072Y-113450000D01*
X100535812Y-113325518D01*
X100499502Y-113205820D01*
X100440537Y-113095506D01*
X100361185Y-112998815D01*
X100264494Y-112919463D01*
X100154180Y-112860498D01*
X100081620Y-112838487D01*
X100213475Y-112706632D01*
X100375990Y-112463411D01*
X100487932Y-112193158D01*
X100545000Y-111906260D01*
X100545000Y-111613740D01*
X100487932Y-111326842D01*
X100375990Y-111056589D01*
X100213475Y-110813368D01*
X100006632Y-110606525D01*
X99824466Y-110484805D01*
X99941355Y-110415178D01*
X100157588Y-110220269D01*
X100331641Y-109986920D01*
X100456825Y-109724099D01*
X100501476Y-109576890D01*
X100380155Y-109347000D01*
X99187000Y-109347000D01*
X99187000Y-109367000D01*
X98933000Y-109367000D01*
X98933000Y-109347000D01*
X97739845Y-109347000D01*
X97618524Y-109576890D01*
X97663175Y-109724099D01*
X97788359Y-109986920D01*
X97962412Y-110220269D01*
X98178645Y-110415178D01*
X98295534Y-110484805D01*
X98113368Y-110606525D01*
X97906525Y-110813368D01*
X97744010Y-111056589D01*
X97632068Y-111326842D01*
X97575000Y-111613740D01*
X97575000Y-111906260D01*
X97632068Y-112193158D01*
X97744010Y-112463411D01*
X97906525Y-112706632D01*
X98038380Y-112838487D01*
X97965820Y-112860498D01*
X97855506Y-112919463D01*
X97758815Y-112998815D01*
X97679463Y-113095506D01*
X97620498Y-113205820D01*
X97584188Y-113325518D01*
X97571928Y-113450000D01*
X89660000Y-113450000D01*
X89660000Y-90873711D01*
X89703937Y-90829774D01*
X89817205Y-90660256D01*
X89895226Y-90471898D01*
X89901078Y-90442479D01*
X90095801Y-90637203D01*
X90095800Y-95987377D01*
X90092124Y-96024700D01*
X90095800Y-96062022D01*
X90095800Y-96062032D01*
X90106797Y-96173685D01*
X90135177Y-96267242D01*
X90150254Y-96316946D01*
X90220826Y-96448976D01*
X90253264Y-96488501D01*
X90315799Y-96564701D01*
X90344803Y-96588504D01*
X94635400Y-100879102D01*
X94659199Y-100908101D01*
X94774924Y-101003074D01*
X94906953Y-101073646D01*
X95050214Y-101117103D01*
X95161867Y-101128100D01*
X95161876Y-101128100D01*
X95199199Y-101131776D01*
X95236522Y-101128100D01*
X97648115Y-101128100D01*
X97632068Y-101166842D01*
X97575000Y-101453740D01*
X97575000Y-101746260D01*
X97632068Y-102033158D01*
X97744010Y-102303411D01*
X97906525Y-102546632D01*
X98113368Y-102753475D01*
X98287760Y-102870000D01*
X98113368Y-102986525D01*
X97906525Y-103193368D01*
X97744010Y-103436589D01*
X97632068Y-103706842D01*
X97575000Y-103993740D01*
X97575000Y-104286260D01*
X97632068Y-104573158D01*
X97744010Y-104843411D01*
X97906525Y-105086632D01*
X98113368Y-105293475D01*
X98287760Y-105410000D01*
X98113368Y-105526525D01*
X97906525Y-105733368D01*
X97744010Y-105976589D01*
X97632068Y-106246842D01*
X97575000Y-106533740D01*
X97575000Y-106826260D01*
X97632068Y-107113158D01*
X97744010Y-107383411D01*
X97906525Y-107626632D01*
X98113368Y-107833475D01*
X98295534Y-107955195D01*
X98178645Y-108024822D01*
X97962412Y-108219731D01*
X97788359Y-108453080D01*
X97663175Y-108715901D01*
X97618524Y-108863110D01*
X97739845Y-109093000D01*
X98933000Y-109093000D01*
X98933000Y-109073000D01*
X99187000Y-109073000D01*
X99187000Y-109093000D01*
X100380155Y-109093000D01*
X100501476Y-108863110D01*
X100456825Y-108715901D01*
X100331641Y-108453080D01*
X100157588Y-108219731D01*
X99941355Y-108024822D01*
X99824466Y-107955195D01*
X100006632Y-107833475D01*
X100213475Y-107626632D01*
X100375990Y-107383411D01*
X100487932Y-107113158D01*
X100545000Y-106826260D01*
X100545000Y-106533740D01*
X100487932Y-106246842D01*
X100375990Y-105976589D01*
X100213475Y-105733368D01*
X100006632Y-105526525D01*
X99832240Y-105410000D01*
X100006632Y-105293475D01*
X100213475Y-105086632D01*
X100375990Y-104843411D01*
X100487932Y-104573158D01*
X100545000Y-104286260D01*
X100545000Y-103993740D01*
X100487932Y-103706842D01*
X100375990Y-103436589D01*
X100213475Y-103193368D01*
X100006632Y-102986525D01*
X99832240Y-102870000D01*
X100006632Y-102753475D01*
X100213475Y-102546632D01*
X100375990Y-102303411D01*
X100487932Y-102033158D01*
X100545000Y-101746260D01*
X100545000Y-101453740D01*
X100487932Y-101166842D01*
X100471885Y-101128100D01*
X114171234Y-101128100D01*
X114173639Y-101130074D01*
X114305668Y-101200646D01*
X114448876Y-101244087D01*
X114503826Y-101299037D01*
X114673344Y-101412305D01*
X114861702Y-101490326D01*
X115061661Y-101530100D01*
X115265539Y-101530100D01*
X115465498Y-101490326D01*
X115653856Y-101412305D01*
X115823374Y-101299037D01*
X115967537Y-101154874D01*
X116080805Y-100985356D01*
X116158826Y-100796998D01*
X116198600Y-100597039D01*
X116198600Y-100393161D01*
X116158826Y-100193202D01*
X116080805Y-100004844D01*
X115967537Y-99835326D01*
X115823374Y-99691163D01*
X115653856Y-99577895D01*
X115465498Y-99499874D01*
X115265539Y-99460100D01*
X115061661Y-99460100D01*
X114861702Y-99499874D01*
X114673344Y-99577895D01*
X114612737Y-99618391D01*
X114508248Y-99608100D01*
X114508237Y-99608100D01*
X114470915Y-99604424D01*
X114433593Y-99608100D01*
X100440322Y-99608100D01*
X100487932Y-99493158D01*
X100545000Y-99206260D01*
X100545000Y-98913740D01*
X100487932Y-98626842D01*
X100375990Y-98356589D01*
X100213475Y-98113368D01*
X100006632Y-97906525D01*
X99832240Y-97790000D01*
X100006632Y-97673475D01*
X100213475Y-97466632D01*
X100254656Y-97405000D01*
X108585789Y-97405000D01*
X108517663Y-97473126D01*
X108404395Y-97642644D01*
X108326374Y-97831002D01*
X108286600Y-98030961D01*
X108286600Y-98234839D01*
X108326374Y-98434798D01*
X108404395Y-98623156D01*
X108517663Y-98792674D01*
X108661826Y-98936837D01*
X108831344Y-99050105D01*
X109019702Y-99128126D01*
X109219661Y-99167900D01*
X109423539Y-99167900D01*
X109623498Y-99128126D01*
X109811856Y-99050105D01*
X109981374Y-98936837D01*
X109999911Y-98918300D01*
X116677599Y-98918300D01*
X118391401Y-100632103D01*
X118391401Y-100743888D01*
X118347463Y-100787826D01*
X118234195Y-100957344D01*
X118156174Y-101145702D01*
X118116400Y-101345661D01*
X118116400Y-101549539D01*
X118156174Y-101749498D01*
X118234195Y-101937856D01*
X118347463Y-102107374D01*
X118491626Y-102251537D01*
X118661144Y-102364805D01*
X118849502Y-102442826D01*
X119049461Y-102482600D01*
X119253339Y-102482600D01*
X119453298Y-102442826D01*
X119641656Y-102364805D01*
X119811174Y-102251537D01*
X119855111Y-102207600D01*
X123959189Y-102207600D01*
X124003126Y-102251537D01*
X124172644Y-102364805D01*
X124361002Y-102442826D01*
X124560961Y-102482600D01*
X124764839Y-102482600D01*
X124964798Y-102442826D01*
X125153156Y-102364805D01*
X125322674Y-102251537D01*
X125466837Y-102107374D01*
X125580105Y-101937856D01*
X125658126Y-101749498D01*
X125697900Y-101549539D01*
X125697900Y-101345661D01*
X125658126Y-101145702D01*
X125580105Y-100957344D01*
X125466837Y-100787826D01*
X125322674Y-100643663D01*
X125153156Y-100530395D01*
X124964798Y-100452374D01*
X124764839Y-100412600D01*
X124560961Y-100412600D01*
X124361002Y-100452374D01*
X124172644Y-100530395D01*
X124003126Y-100643663D01*
X123959189Y-100687600D01*
X119911400Y-100687600D01*
X119911400Y-100354622D01*
X119915076Y-100317299D01*
X119911400Y-100279976D01*
X119911400Y-100279967D01*
X119900403Y-100168314D01*
X119856946Y-100025053D01*
X119835055Y-99984098D01*
X119786374Y-99893023D01*
X119715199Y-99806297D01*
X119691401Y-99777299D01*
X119662403Y-99753501D01*
X117556204Y-97647303D01*
X117532401Y-97618299D01*
X117416676Y-97523326D01*
X117284647Y-97452754D01*
X117141386Y-97409297D01*
X117097758Y-97405000D01*
X124423622Y-97405000D01*
X128718500Y-101699879D01*
X128718501Y-108362973D01*
X128646374Y-108537102D01*
X128606600Y-108737061D01*
X128606600Y-108940939D01*
X128646374Y-109140898D01*
X128724395Y-109329256D01*
X128837663Y-109498774D01*
X128981826Y-109642937D01*
X129151344Y-109756205D01*
X129339702Y-109834226D01*
X129539661Y-109874000D01*
X129743539Y-109874000D01*
X129943498Y-109834226D01*
X130131856Y-109756205D01*
X130301374Y-109642937D01*
X130445537Y-109498774D01*
X130558805Y-109329256D01*
X130636826Y-109140898D01*
X130676600Y-108940939D01*
X130676600Y-108737061D01*
X130636826Y-108537102D01*
X130558805Y-108348744D01*
X130488500Y-108243525D01*
X130488500Y-101376765D01*
X130492781Y-101333299D01*
X130488500Y-101289833D01*
X130488500Y-101289823D01*
X130475695Y-101159810D01*
X130425089Y-100992987D01*
X130342911Y-100839241D01*
X130304449Y-100792375D01*
X130260032Y-100738253D01*
X130260030Y-100738251D01*
X130232317Y-100704483D01*
X130198551Y-100676772D01*
X125446734Y-95924956D01*
X125419017Y-95891183D01*
X125284259Y-95780589D01*
X125130513Y-95698411D01*
X124963690Y-95647805D01*
X124833677Y-95635000D01*
X124833669Y-95635000D01*
X124790200Y-95630719D01*
X124746731Y-95635000D01*
X100254656Y-95635000D01*
X100213475Y-95573368D01*
X100006632Y-95366525D01*
X99832240Y-95250000D01*
X100006632Y-95133475D01*
X100213475Y-94926632D01*
X100254656Y-94865000D01*
X132005522Y-94865000D01*
X135246300Y-98105779D01*
X135246301Y-124962944D01*
X135214095Y-125011144D01*
X135136074Y-125199502D01*
X135096300Y-125399461D01*
X135096300Y-125603339D01*
X135136074Y-125803298D01*
X135214095Y-125991656D01*
X135327363Y-126161174D01*
X135471526Y-126305337D01*
X135641044Y-126418605D01*
X135829402Y-126496626D01*
X136029361Y-126536400D01*
X136233239Y-126536400D01*
X136433198Y-126496626D01*
X136621556Y-126418605D01*
X136791074Y-126305337D01*
X136935237Y-126161174D01*
X137048505Y-125991656D01*
X137126526Y-125803298D01*
X137166300Y-125603339D01*
X137166300Y-125399461D01*
X137126526Y-125199502D01*
X137048505Y-125011144D01*
X137016300Y-124962946D01*
X137016300Y-97782669D01*
X137020581Y-97739200D01*
X137016300Y-97695731D01*
X137016300Y-97695723D01*
X137003495Y-97565710D01*
X136990638Y-97523326D01*
X136952889Y-97398886D01*
X136870711Y-97245141D01*
X136787832Y-97144153D01*
X136787830Y-97144151D01*
X136760117Y-97110383D01*
X136726350Y-97082671D01*
X133028634Y-93384956D01*
X133000917Y-93351183D01*
X132866159Y-93240589D01*
X132712413Y-93158411D01*
X132545590Y-93107805D01*
X132415577Y-93095000D01*
X132415569Y-93095000D01*
X132372100Y-93090719D01*
X132328631Y-93095000D01*
X100254656Y-93095000D01*
X100213475Y-93033368D01*
X100006632Y-92826525D01*
X99832240Y-92710000D01*
X100006632Y-92593475D01*
X100213475Y-92386632D01*
X100254656Y-92325000D01*
X132653222Y-92325000D01*
X137456100Y-97127879D01*
X137456101Y-124556221D01*
X137451819Y-124599700D01*
X137468905Y-124773190D01*
X137519512Y-124940013D01*
X137601690Y-125093759D01*
X137684568Y-125194746D01*
X137684571Y-125194749D01*
X137712284Y-125228517D01*
X137746051Y-125256229D01*
X138833165Y-126343344D01*
X138844474Y-126400198D01*
X138922495Y-126588556D01*
X139035763Y-126758074D01*
X139179926Y-126902237D01*
X139349444Y-127015505D01*
X139537802Y-127093526D01*
X139737761Y-127133300D01*
X139941639Y-127133300D01*
X140141598Y-127093526D01*
X140329956Y-127015505D01*
X140499474Y-126902237D01*
X140643637Y-126758074D01*
X140756905Y-126588556D01*
X140834926Y-126400198D01*
X140874700Y-126200239D01*
X140874700Y-125996361D01*
X140834926Y-125796402D01*
X140756905Y-125608044D01*
X140643637Y-125438526D01*
X140499474Y-125294363D01*
X140329956Y-125181095D01*
X140141598Y-125103074D01*
X140084744Y-125091765D01*
X139226100Y-124233122D01*
X139226100Y-101957300D01*
X139901828Y-101957300D01*
X139901828Y-103757300D01*
X139914088Y-103881782D01*
X139950398Y-104001480D01*
X140009363Y-104111794D01*
X140088715Y-104208485D01*
X140185406Y-104287837D01*
X140295720Y-104346802D01*
X140415418Y-104383112D01*
X140539900Y-104395372D01*
X142339900Y-104395372D01*
X142464382Y-104383112D01*
X142584080Y-104346802D01*
X142694394Y-104287837D01*
X142791085Y-104208485D01*
X142870437Y-104111794D01*
X142929402Y-104001480D01*
X142965712Y-103881782D01*
X142977972Y-103757300D01*
X142977972Y-101957300D01*
X142965712Y-101832818D01*
X142929402Y-101713120D01*
X142870437Y-101602806D01*
X142791085Y-101506115D01*
X142694394Y-101426763D01*
X142584080Y-101367798D01*
X142565773Y-101362244D01*
X142632212Y-101295805D01*
X142800199Y-101044395D01*
X142915911Y-100765043D01*
X142974900Y-100468484D01*
X142974900Y-100166116D01*
X142915911Y-99869557D01*
X142800199Y-99590205D01*
X142632212Y-99338795D01*
X142418405Y-99124988D01*
X142166995Y-98957001D01*
X141887643Y-98841289D01*
X141591084Y-98782300D01*
X141288716Y-98782300D01*
X140992157Y-98841289D01*
X140712805Y-98957001D01*
X140461395Y-99124988D01*
X140247588Y-99338795D01*
X140079601Y-99590205D01*
X139963889Y-99869557D01*
X139904900Y-100166116D01*
X139904900Y-100468484D01*
X139963889Y-100765043D01*
X140079601Y-101044395D01*
X140247588Y-101295805D01*
X140314027Y-101362244D01*
X140295720Y-101367798D01*
X140185406Y-101426763D01*
X140088715Y-101506115D01*
X140009363Y-101602806D01*
X139950398Y-101713120D01*
X139914088Y-101832818D01*
X139901828Y-101957300D01*
X139226100Y-101957300D01*
X139226100Y-96804769D01*
X139230381Y-96761300D01*
X139226100Y-96717831D01*
X139226100Y-96717823D01*
X139213295Y-96587810D01*
X139192725Y-96520000D01*
X139162689Y-96420986D01*
X139080511Y-96267241D01*
X138997632Y-96166253D01*
X138997630Y-96166251D01*
X138969917Y-96132483D01*
X138936151Y-96104772D01*
X138692679Y-95861300D01*
X139901828Y-95861300D01*
X139901828Y-97661300D01*
X139914088Y-97785782D01*
X139950398Y-97905480D01*
X140009363Y-98015794D01*
X140088715Y-98112485D01*
X140185406Y-98191837D01*
X140295720Y-98250802D01*
X140415418Y-98287112D01*
X140539900Y-98299372D01*
X142339900Y-98299372D01*
X142464382Y-98287112D01*
X142584080Y-98250802D01*
X142694394Y-98191837D01*
X142791085Y-98112485D01*
X142870437Y-98015794D01*
X142929402Y-97905480D01*
X142965712Y-97785782D01*
X142977972Y-97661300D01*
X142977972Y-95861300D01*
X142965712Y-95736818D01*
X142929402Y-95617120D01*
X142870437Y-95506806D01*
X142791085Y-95410115D01*
X142694394Y-95330763D01*
X142584080Y-95271798D01*
X142565773Y-95266244D01*
X142632212Y-95199805D01*
X142800199Y-94948395D01*
X142915911Y-94669043D01*
X142974900Y-94372484D01*
X142974900Y-94070116D01*
X142915911Y-93773557D01*
X142800199Y-93494205D01*
X142632212Y-93242795D01*
X142418405Y-93028988D01*
X142166995Y-92861001D01*
X141887643Y-92745289D01*
X141591084Y-92686300D01*
X141288716Y-92686300D01*
X140992157Y-92745289D01*
X140712805Y-92861001D01*
X140461395Y-93028988D01*
X140247588Y-93242795D01*
X140079601Y-93494205D01*
X139963889Y-93773557D01*
X139904900Y-94070116D01*
X139904900Y-94372484D01*
X139963889Y-94669043D01*
X140079601Y-94948395D01*
X140247588Y-95199805D01*
X140314027Y-95266244D01*
X140295720Y-95271798D01*
X140185406Y-95330763D01*
X140088715Y-95410115D01*
X140009363Y-95506806D01*
X139950398Y-95617120D01*
X139914088Y-95736818D01*
X139901828Y-95861300D01*
X138692679Y-95861300D01*
X133849956Y-91018577D01*
X137183465Y-91018577D01*
X137185604Y-91050615D01*
X137275464Y-91271544D01*
X137406698Y-91470697D01*
X137574263Y-91640421D01*
X137771720Y-91774194D01*
X137991481Y-91866874D01*
X138225100Y-91914900D01*
X138550100Y-91914900D01*
X138550100Y-90831900D01*
X138804100Y-90831900D01*
X138804100Y-91914900D01*
X139129100Y-91914900D01*
X139362719Y-91866874D01*
X139582480Y-91774194D01*
X139779937Y-91640421D01*
X139947502Y-91470697D01*
X140078736Y-91271544D01*
X140168596Y-91050615D01*
X140170735Y-91018577D01*
X140086027Y-90892158D01*
X140884581Y-90892158D01*
X140897022Y-90958017D01*
X141000743Y-91204879D01*
X141150631Y-91426763D01*
X141340927Y-91615142D01*
X141564317Y-91762776D01*
X141812217Y-91863992D01*
X142075100Y-91914900D01*
X142350100Y-91914900D01*
X142350100Y-90681900D01*
X142604100Y-90681900D01*
X142604100Y-91914900D01*
X142879100Y-91914900D01*
X143141983Y-91863992D01*
X143389883Y-91762776D01*
X143613273Y-91615142D01*
X143803569Y-91426763D01*
X143953457Y-91204879D01*
X144057178Y-90958017D01*
X144069619Y-90892158D01*
X143946618Y-90681900D01*
X142604100Y-90681900D01*
X142350100Y-90681900D01*
X141007582Y-90681900D01*
X140884581Y-90892158D01*
X140086027Y-90892158D01*
X140045650Y-90831900D01*
X138804100Y-90831900D01*
X138550100Y-90831900D01*
X137308550Y-90831900D01*
X137183465Y-91018577D01*
X133849956Y-91018577D01*
X133676334Y-90844956D01*
X133648617Y-90811183D01*
X133513859Y-90700589D01*
X133360113Y-90618411D01*
X133193290Y-90567805D01*
X133063277Y-90555000D01*
X133063269Y-90555000D01*
X133019800Y-90550719D01*
X132976331Y-90555000D01*
X110677204Y-90555000D01*
X110708705Y-90507856D01*
X110757016Y-90391223D01*
X137183465Y-90391223D01*
X137308550Y-90577900D01*
X138550100Y-90577900D01*
X138550100Y-89494900D01*
X138804100Y-89494900D01*
X138804100Y-90577900D01*
X140045650Y-90577900D01*
X140170735Y-90391223D01*
X140168596Y-90359185D01*
X140078736Y-90138256D01*
X139947502Y-89939103D01*
X139779937Y-89769379D01*
X139582480Y-89635606D01*
X139362719Y-89542926D01*
X139129100Y-89494900D01*
X138804100Y-89494900D01*
X138550100Y-89494900D01*
X138225100Y-89494900D01*
X137991481Y-89542926D01*
X137771720Y-89635606D01*
X137574263Y-89769379D01*
X137406698Y-89939103D01*
X137275464Y-90138256D01*
X137185604Y-90359185D01*
X137183465Y-90391223D01*
X110757016Y-90391223D01*
X110786726Y-90319498D01*
X110826500Y-90119539D01*
X110826500Y-89915661D01*
X110786726Y-89715702D01*
X110708705Y-89527344D01*
X110595437Y-89357826D01*
X110540487Y-89302876D01*
X110538800Y-89297315D01*
X110538800Y-89227961D01*
X140392100Y-89227961D01*
X140392100Y-89431839D01*
X140431874Y-89631798D01*
X140509895Y-89820156D01*
X140623163Y-89989674D01*
X140767326Y-90133837D01*
X140885496Y-90212796D01*
X140884581Y-90217642D01*
X141007582Y-90427900D01*
X142350100Y-90427900D01*
X142350100Y-89806166D01*
X142422326Y-89631798D01*
X142462100Y-89431839D01*
X142462100Y-89227961D01*
X142455524Y-89194900D01*
X142604100Y-89194900D01*
X142604100Y-90427900D01*
X143946618Y-90427900D01*
X144069619Y-90217642D01*
X144057178Y-90151783D01*
X143953457Y-89904921D01*
X143803569Y-89683037D01*
X143613273Y-89494658D01*
X143389883Y-89347024D01*
X143141983Y-89245808D01*
X142879100Y-89194900D01*
X142604100Y-89194900D01*
X142455524Y-89194900D01*
X142422326Y-89028002D01*
X142344305Y-88839644D01*
X142231037Y-88670126D01*
X142086874Y-88525963D01*
X141917356Y-88412695D01*
X141728998Y-88334674D01*
X141529039Y-88294900D01*
X141325161Y-88294900D01*
X141125202Y-88334674D01*
X140936844Y-88412695D01*
X140767326Y-88525963D01*
X140623163Y-88670126D01*
X140509895Y-88839644D01*
X140431874Y-89028002D01*
X140392100Y-89227961D01*
X110538800Y-89227961D01*
X110538800Y-86200526D01*
X110542476Y-86163201D01*
X110538800Y-86125876D01*
X110538800Y-86125868D01*
X110527803Y-86014215D01*
X110484346Y-85870954D01*
X110413774Y-85738925D01*
X110318801Y-85623200D01*
X110289803Y-85599402D01*
X108918362Y-84227961D01*
X140392100Y-84227961D01*
X140392100Y-84431839D01*
X140431874Y-84631798D01*
X140509895Y-84820156D01*
X140623163Y-84989674D01*
X140767326Y-85133837D01*
X140936844Y-85247105D01*
X141125202Y-85325126D01*
X141325161Y-85364900D01*
X141529039Y-85364900D01*
X141728998Y-85325126D01*
X141917356Y-85247105D01*
X142086874Y-85133837D01*
X142231037Y-84989674D01*
X142344305Y-84820156D01*
X142422326Y-84631798D01*
X142462100Y-84431839D01*
X142462100Y-84227961D01*
X142422326Y-84028002D01*
X142350100Y-83853634D01*
X142350100Y-83231900D01*
X142604100Y-83231900D01*
X142604100Y-84464900D01*
X142879100Y-84464900D01*
X143141983Y-84413992D01*
X143389883Y-84312776D01*
X143613273Y-84165142D01*
X143803569Y-83976763D01*
X143953457Y-83754879D01*
X144057178Y-83508017D01*
X144069619Y-83442158D01*
X143946618Y-83231900D01*
X142604100Y-83231900D01*
X142350100Y-83231900D01*
X141007582Y-83231900D01*
X140884581Y-83442158D01*
X140885496Y-83447004D01*
X140767326Y-83525963D01*
X140623163Y-83670126D01*
X140509895Y-83839644D01*
X140431874Y-84028002D01*
X140392100Y-84227961D01*
X108918362Y-84227961D01*
X108565900Y-83875500D01*
X108565900Y-83813362D01*
X108526126Y-83613403D01*
X108448105Y-83425045D01*
X108343557Y-83268577D01*
X137183465Y-83268577D01*
X137185604Y-83300615D01*
X137275464Y-83521544D01*
X137406698Y-83720697D01*
X137574263Y-83890421D01*
X137771720Y-84024194D01*
X137991481Y-84116874D01*
X138225100Y-84164900D01*
X138550100Y-84164900D01*
X138550100Y-83081900D01*
X138804100Y-83081900D01*
X138804100Y-84164900D01*
X139129100Y-84164900D01*
X139362719Y-84116874D01*
X139582480Y-84024194D01*
X139779937Y-83890421D01*
X139947502Y-83720697D01*
X140078736Y-83521544D01*
X140168596Y-83300615D01*
X140170735Y-83268577D01*
X140045650Y-83081900D01*
X138804100Y-83081900D01*
X138550100Y-83081900D01*
X137308550Y-83081900D01*
X137183465Y-83268577D01*
X108343557Y-83268577D01*
X108334837Y-83255527D01*
X108190674Y-83111364D01*
X108021156Y-82998096D01*
X107832798Y-82920075D01*
X107632839Y-82880301D01*
X107428961Y-82880301D01*
X107229002Y-82920075D01*
X107040644Y-82998096D01*
X106871126Y-83111364D01*
X106726963Y-83255527D01*
X106613695Y-83425045D01*
X106535674Y-83613403D01*
X106495900Y-83813362D01*
X106495900Y-84017240D01*
X106535674Y-84217199D01*
X106613695Y-84405557D01*
X106726963Y-84575075D01*
X106871126Y-84719238D01*
X107040644Y-84832506D01*
X107229002Y-84910527D01*
X107428961Y-84950301D01*
X107491099Y-84950301D01*
X109018801Y-86478004D01*
X109018800Y-89113627D01*
X108946699Y-89172799D01*
X108851726Y-89288524D01*
X108781154Y-89420554D01*
X108737698Y-89563815D01*
X108723024Y-89712800D01*
X108737698Y-89861785D01*
X108756500Y-89923769D01*
X108756500Y-90119539D01*
X108796274Y-90319498D01*
X108874295Y-90507856D01*
X108905796Y-90555000D01*
X100254656Y-90555000D01*
X100213475Y-90493368D01*
X100006632Y-90286525D01*
X99832240Y-90170000D01*
X100006632Y-90053475D01*
X100213475Y-89846632D01*
X100375990Y-89603411D01*
X100487932Y-89333158D01*
X100545000Y-89046260D01*
X100545000Y-88753740D01*
X100487932Y-88466842D01*
X100375990Y-88196589D01*
X100213475Y-87953368D01*
X100006632Y-87746525D01*
X99763411Y-87584010D01*
X99493158Y-87472068D01*
X99206260Y-87415000D01*
X98913740Y-87415000D01*
X98626842Y-87472068D01*
X98356589Y-87584010D01*
X98113368Y-87746525D01*
X97906525Y-87953368D01*
X97744010Y-88196589D01*
X97632068Y-88466842D01*
X97575000Y-88753740D01*
X97575000Y-89046260D01*
X97632068Y-89333158D01*
X97744010Y-89603411D01*
X97906525Y-89846632D01*
X98113368Y-90053475D01*
X98287760Y-90170000D01*
X98113368Y-90286525D01*
X97906525Y-90493368D01*
X97744010Y-90736589D01*
X97632068Y-91006842D01*
X97575000Y-91293740D01*
X97575000Y-91586260D01*
X97632068Y-91873158D01*
X97744010Y-92143411D01*
X97906525Y-92386632D01*
X98113368Y-92593475D01*
X98287760Y-92710000D01*
X98113368Y-92826525D01*
X97906525Y-93033368D01*
X97744010Y-93276589D01*
X97632068Y-93546842D01*
X97575000Y-93833740D01*
X97575000Y-94126260D01*
X97632068Y-94413158D01*
X97744010Y-94683411D01*
X97906525Y-94926632D01*
X98113368Y-95133475D01*
X98287760Y-95250000D01*
X98113368Y-95366525D01*
X97906525Y-95573368D01*
X97744010Y-95816589D01*
X97632068Y-96086842D01*
X97575000Y-96373740D01*
X97575000Y-96666260D01*
X97632068Y-96953158D01*
X97744010Y-97223411D01*
X97906525Y-97466632D01*
X98113368Y-97673475D01*
X98287760Y-97790000D01*
X98113368Y-97906525D01*
X97906525Y-98113368D01*
X97744010Y-98356589D01*
X97632068Y-98626842D01*
X97575000Y-98913740D01*
X97575000Y-99206260D01*
X97632068Y-99493158D01*
X97679678Y-99608100D01*
X95514002Y-99608100D01*
X91615800Y-95709899D01*
X91615800Y-90359722D01*
X91619476Y-90322399D01*
X91615800Y-90285076D01*
X91615800Y-90285067D01*
X91604803Y-90173414D01*
X91561346Y-90030153D01*
X91531575Y-89974456D01*
X91490774Y-89898123D01*
X91419599Y-89811397D01*
X91395801Y-89782399D01*
X91366803Y-89758601D01*
X88663704Y-87055503D01*
X88639901Y-87026499D01*
X88524176Y-86931526D01*
X88392147Y-86860954D01*
X88248886Y-86817497D01*
X88137233Y-86806500D01*
X88137222Y-86806500D01*
X88099900Y-86802824D01*
X88062578Y-86806500D01*
X69722222Y-86806500D01*
X69684899Y-86802824D01*
X69647576Y-86806500D01*
X69647567Y-86806500D01*
X69535914Y-86817497D01*
X69392653Y-86860954D01*
X69260623Y-86931526D01*
X69176983Y-87000168D01*
X69144899Y-87026499D01*
X69121101Y-87055497D01*
X67611343Y-88565256D01*
X67607144Y-88566995D01*
X67437626Y-88680263D01*
X67293463Y-88824426D01*
X67180195Y-88993944D01*
X67102174Y-89182302D01*
X67062400Y-89382261D01*
X67062400Y-89586139D01*
X67102174Y-89786098D01*
X67180195Y-89974456D01*
X67293463Y-90143974D01*
X67437626Y-90288137D01*
X67607144Y-90401405D01*
X67795502Y-90479426D01*
X67995461Y-90519200D01*
X68199339Y-90519200D01*
X68399298Y-90479426D01*
X68587656Y-90401405D01*
X68757174Y-90288137D01*
X68901337Y-90143974D01*
X69014605Y-89974456D01*
X69092626Y-89786098D01*
X69132400Y-89586139D01*
X69132400Y-89382261D01*
X69101133Y-89225069D01*
X69999702Y-88326500D01*
X87785099Y-88326500D01*
X88627521Y-89168922D01*
X88598102Y-89174774D01*
X88409744Y-89252795D01*
X88240226Y-89366063D01*
X88096063Y-89510226D01*
X87982795Y-89679744D01*
X87904774Y-89868102D01*
X87865000Y-90068061D01*
X87865000Y-90271939D01*
X87904774Y-90471898D01*
X87982795Y-90660256D01*
X88096063Y-90829774D01*
X88140000Y-90873711D01*
X88140001Y-112288422D01*
X87366535Y-111514957D01*
X87355226Y-111458102D01*
X87277205Y-111269744D01*
X87163937Y-111100226D01*
X87019774Y-110956063D01*
X86850256Y-110842795D01*
X86661898Y-110764774D01*
X86461939Y-110725000D01*
X86258061Y-110725000D01*
X86058102Y-110764774D01*
X85869744Y-110842795D01*
X85700226Y-110956063D01*
X85556063Y-111100226D01*
X85442795Y-111269744D01*
X85364774Y-111458102D01*
X85325000Y-111658061D01*
X85325000Y-111861939D01*
X85364774Y-112061898D01*
X85442795Y-112250256D01*
X85556063Y-112419774D01*
X85700226Y-112563937D01*
X85869744Y-112677205D01*
X86058102Y-112755226D01*
X86114957Y-112766535D01*
X86745001Y-113396580D01*
X86745000Y-120959196D01*
X86661898Y-120924774D01*
X86461939Y-120885000D01*
X86258061Y-120885000D01*
X86058102Y-120924774D01*
X85869744Y-121002795D01*
X85700226Y-121116063D01*
X85556063Y-121260226D01*
X85442795Y-121429744D01*
X85364774Y-121618102D01*
X85325000Y-121818061D01*
X85325000Y-122021939D01*
X85364774Y-122221898D01*
X85442795Y-122410256D01*
X85475001Y-122458456D01*
X85475000Y-128313476D01*
X85475001Y-128313485D01*
X85475000Y-129344130D01*
X85470719Y-129387600D01*
X85475000Y-129431069D01*
X85475000Y-129431076D01*
X85487805Y-129561089D01*
X85538411Y-129727912D01*
X85620589Y-129881658D01*
X85731183Y-130016417D01*
X85764956Y-130044134D01*
X89335670Y-133614849D01*
X89363383Y-133648617D01*
X89397151Y-133676330D01*
X89397153Y-133676332D01*
X89480744Y-133744934D01*
X54491700Y-133735245D01*
X54491700Y-129840572D01*
X56235800Y-129840572D01*
X56235800Y-130280828D01*
X56321690Y-130712625D01*
X56490169Y-131119369D01*
X56734762Y-131485429D01*
X57046071Y-131796738D01*
X57412131Y-132041331D01*
X57818875Y-132209810D01*
X58250672Y-132295700D01*
X58690928Y-132295700D01*
X59122725Y-132209810D01*
X59529469Y-132041331D01*
X59895529Y-131796738D01*
X60206838Y-131485429D01*
X60451431Y-131119369D01*
X60619910Y-130712625D01*
X60705800Y-130280828D01*
X60705800Y-129840572D01*
X60619910Y-129408775D01*
X60451431Y-129002031D01*
X60206838Y-128635971D01*
X59895529Y-128324662D01*
X59529469Y-128080069D01*
X59122725Y-127911590D01*
X58690928Y-127825700D01*
X58250672Y-127825700D01*
X57818875Y-127911590D01*
X57412131Y-128080069D01*
X57046071Y-128324662D01*
X56734762Y-128635971D01*
X56490169Y-129002031D01*
X56321690Y-129408775D01*
X56235800Y-129840572D01*
X54491700Y-129840572D01*
X54491700Y-96735561D01*
X68180000Y-96735561D01*
X68180000Y-96939439D01*
X68219774Y-97139398D01*
X68297795Y-97327756D01*
X68411063Y-97497274D01*
X68555226Y-97641437D01*
X68724744Y-97754705D01*
X68913102Y-97832726D01*
X69113061Y-97872500D01*
X69316939Y-97872500D01*
X69516898Y-97832726D01*
X69705256Y-97754705D01*
X69874774Y-97641437D01*
X69929724Y-97586487D01*
X70072932Y-97543046D01*
X70204961Y-97472474D01*
X70320686Y-97377501D01*
X70344488Y-97348498D01*
X70984487Y-96708500D01*
X73451589Y-96708500D01*
X73495526Y-96752437D01*
X73665044Y-96865705D01*
X73853402Y-96943726D01*
X74053361Y-96983500D01*
X74257239Y-96983500D01*
X74457198Y-96943726D01*
X74645556Y-96865705D01*
X74815074Y-96752437D01*
X74959237Y-96608274D01*
X75072505Y-96438756D01*
X75150526Y-96250398D01*
X75190300Y-96050439D01*
X75190300Y-95846561D01*
X75150526Y-95646602D01*
X75072505Y-95458244D01*
X74959237Y-95288726D01*
X74815074Y-95144563D01*
X74645556Y-95031295D01*
X74457198Y-94953274D01*
X74257239Y-94913500D01*
X74053361Y-94913500D01*
X73853402Y-94953274D01*
X73665044Y-95031295D01*
X73495526Y-95144563D01*
X73451589Y-95188500D01*
X70707008Y-95188500D01*
X70669685Y-95184824D01*
X70632362Y-95188500D01*
X70632352Y-95188500D01*
X70520699Y-95199497D01*
X70377438Y-95242954D01*
X70245409Y-95313526D01*
X70129684Y-95408499D01*
X70105886Y-95437497D01*
X69647155Y-95896229D01*
X69516898Y-95842274D01*
X69316939Y-95802500D01*
X69113061Y-95802500D01*
X68913102Y-95842274D01*
X68724744Y-95920295D01*
X68555226Y-96033563D01*
X68411063Y-96177726D01*
X68297795Y-96347244D01*
X68219774Y-96535602D01*
X68180000Y-96735561D01*
X54491700Y-96735561D01*
X54491700Y-82641223D01*
X137183465Y-82641223D01*
X137308550Y-82827900D01*
X138550100Y-82827900D01*
X138550100Y-81744900D01*
X138804100Y-81744900D01*
X138804100Y-82827900D01*
X140045650Y-82827900D01*
X140086026Y-82767642D01*
X140884581Y-82767642D01*
X141007582Y-82977900D01*
X142350100Y-82977900D01*
X142350100Y-81744900D01*
X142604100Y-81744900D01*
X142604100Y-82977900D01*
X143946618Y-82977900D01*
X144069619Y-82767642D01*
X144057178Y-82701783D01*
X143953457Y-82454921D01*
X143803569Y-82233037D01*
X143613273Y-82044658D01*
X143389883Y-81897024D01*
X143141983Y-81795808D01*
X142879100Y-81744900D01*
X142604100Y-81744900D01*
X142350100Y-81744900D01*
X142075100Y-81744900D01*
X141812217Y-81795808D01*
X141564317Y-81897024D01*
X141340927Y-82044658D01*
X141150631Y-82233037D01*
X141000743Y-82454921D01*
X140897022Y-82701783D01*
X140884581Y-82767642D01*
X140086026Y-82767642D01*
X140170735Y-82641223D01*
X140168596Y-82609185D01*
X140078736Y-82388256D01*
X139947502Y-82189103D01*
X139779937Y-82019379D01*
X139582480Y-81885606D01*
X139362719Y-81792926D01*
X139129100Y-81744900D01*
X138804100Y-81744900D01*
X138550100Y-81744900D01*
X138225100Y-81744900D01*
X137991481Y-81792926D01*
X137771720Y-81885606D01*
X137574263Y-82019379D01*
X137406698Y-82189103D01*
X137275464Y-82388256D01*
X137185604Y-82609185D01*
X137183465Y-82641223D01*
X54491700Y-82641223D01*
X54491700Y-77849060D01*
X67921000Y-77849060D01*
X67921000Y-78313940D01*
X68011694Y-78769887D01*
X68189595Y-79199379D01*
X68447868Y-79585912D01*
X68776588Y-79914632D01*
X69163121Y-80172905D01*
X69592613Y-80350806D01*
X70048560Y-80441500D01*
X70513440Y-80441500D01*
X70969387Y-80350806D01*
X71398879Y-80172905D01*
X71785412Y-79914632D01*
X72114132Y-79585912D01*
X72372405Y-79199379D01*
X72550306Y-78769887D01*
X72641000Y-78313940D01*
X72641000Y-78004800D01*
X141109928Y-78004800D01*
X141109928Y-80004800D01*
X141122188Y-80129282D01*
X141158498Y-80248980D01*
X141217463Y-80359294D01*
X141296815Y-80455985D01*
X141393506Y-80535337D01*
X141503820Y-80594302D01*
X141623518Y-80630612D01*
X141748000Y-80642872D01*
X143748000Y-80642872D01*
X143872482Y-80630612D01*
X143992180Y-80594302D01*
X144102494Y-80535337D01*
X144199185Y-80455985D01*
X144278537Y-80359294D01*
X144337502Y-80248980D01*
X144373812Y-80129282D01*
X144386072Y-80004800D01*
X144386072Y-78004800D01*
X144373812Y-77880318D01*
X144337502Y-77760620D01*
X144278537Y-77650306D01*
X144199185Y-77553615D01*
X144102494Y-77474263D01*
X143992180Y-77415298D01*
X143872482Y-77378988D01*
X143748000Y-77366728D01*
X141748000Y-77366728D01*
X141623518Y-77378988D01*
X141503820Y-77415298D01*
X141393506Y-77474263D01*
X141296815Y-77553615D01*
X141217463Y-77650306D01*
X141158498Y-77760620D01*
X141122188Y-77880318D01*
X141109928Y-78004800D01*
X72641000Y-78004800D01*
X72641000Y-77849060D01*
X72550306Y-77393113D01*
X72372405Y-76963621D01*
X72114132Y-76577088D01*
X71785412Y-76248368D01*
X71398879Y-75990095D01*
X70969387Y-75812194D01*
X70513440Y-75721500D01*
X70048560Y-75721500D01*
X69592613Y-75812194D01*
X69163121Y-75990095D01*
X68776588Y-76248368D01*
X68447868Y-76577088D01*
X68189595Y-76963621D01*
X68011694Y-77393113D01*
X67921000Y-77849060D01*
X54491700Y-77849060D01*
X54491700Y-73004800D01*
X141109928Y-73004800D01*
X141109928Y-75004800D01*
X141122188Y-75129282D01*
X141158498Y-75248980D01*
X141217463Y-75359294D01*
X141296815Y-75455985D01*
X141393506Y-75535337D01*
X141503820Y-75594302D01*
X141623518Y-75630612D01*
X141748000Y-75642872D01*
X143748000Y-75642872D01*
X143872482Y-75630612D01*
X143992180Y-75594302D01*
X144102494Y-75535337D01*
X144199185Y-75455985D01*
X144278537Y-75359294D01*
X144337502Y-75248980D01*
X144373812Y-75129282D01*
X144386072Y-75004800D01*
X144386072Y-73004800D01*
X144373812Y-72880318D01*
X144337502Y-72760620D01*
X144278537Y-72650306D01*
X144199185Y-72553615D01*
X144102494Y-72474263D01*
X143992180Y-72415298D01*
X143872482Y-72378988D01*
X143748000Y-72366728D01*
X141748000Y-72366728D01*
X141623518Y-72378988D01*
X141503820Y-72415298D01*
X141393506Y-72474263D01*
X141296815Y-72553615D01*
X141217463Y-72650306D01*
X141158498Y-72760620D01*
X141122188Y-72880318D01*
X141109928Y-73004800D01*
X54491700Y-73004800D01*
X54491700Y-61901261D01*
X60121000Y-61901261D01*
X60121000Y-62261739D01*
X60191325Y-62615291D01*
X60329275Y-62948330D01*
X60529546Y-63248057D01*
X60784443Y-63502954D01*
X61084170Y-63703225D01*
X61417209Y-63841175D01*
X61770761Y-63911500D01*
X62131239Y-63911500D01*
X62484791Y-63841175D01*
X62817830Y-63703225D01*
X63117557Y-63502954D01*
X63372454Y-63248057D01*
X63572725Y-62948330D01*
X63710675Y-62615291D01*
X63781000Y-62261739D01*
X63781000Y-61901261D01*
X63770617Y-61849060D01*
X123121000Y-61849060D01*
X123121000Y-62313940D01*
X123211694Y-62769887D01*
X123389595Y-63199379D01*
X123647868Y-63585912D01*
X123976588Y-63914632D01*
X124363121Y-64172905D01*
X124792613Y-64350806D01*
X125248560Y-64441500D01*
X125713440Y-64441500D01*
X126169387Y-64350806D01*
X126598879Y-64172905D01*
X126985412Y-63914632D01*
X127314132Y-63585912D01*
X127572405Y-63199379D01*
X127750306Y-62769887D01*
X127841000Y-62313940D01*
X127841000Y-61849060D01*
X127750306Y-61393113D01*
X127572405Y-60963621D01*
X127314132Y-60577088D01*
X126985412Y-60248368D01*
X126598879Y-59990095D01*
X126169387Y-59812194D01*
X125713440Y-59721500D01*
X125248560Y-59721500D01*
X124792613Y-59812194D01*
X124363121Y-59990095D01*
X123976588Y-60248368D01*
X123647868Y-60577088D01*
X123389595Y-60963621D01*
X123211694Y-61393113D01*
X123121000Y-61849060D01*
X63770617Y-61849060D01*
X63710675Y-61547709D01*
X63572725Y-61214670D01*
X63372454Y-60914943D01*
X63117557Y-60660046D01*
X62817830Y-60459775D01*
X62484791Y-60321825D01*
X62131239Y-60251500D01*
X61770761Y-60251500D01*
X61417209Y-60321825D01*
X61084170Y-60459775D01*
X60784443Y-60660046D01*
X60529546Y-60914943D01*
X60329275Y-61214670D01*
X60191325Y-61547709D01*
X60121000Y-61901261D01*
X54491700Y-61901261D01*
X54491700Y-55139060D01*
X67921000Y-55139060D01*
X67921000Y-55603940D01*
X68011694Y-56059887D01*
X68189595Y-56489379D01*
X68447868Y-56875912D01*
X68776588Y-57204632D01*
X69163121Y-57462905D01*
X69592613Y-57640806D01*
X70048560Y-57731500D01*
X70513440Y-57731500D01*
X70969387Y-57640806D01*
X71398879Y-57462905D01*
X71785412Y-57204632D01*
X72114132Y-56875912D01*
X72372405Y-56489379D01*
X72550306Y-56059887D01*
X72641000Y-55603940D01*
X72641000Y-55139060D01*
X72550306Y-54683113D01*
X72372405Y-54253621D01*
X72114132Y-53867088D01*
X71785412Y-53538368D01*
X71398879Y-53280095D01*
X70969387Y-53102194D01*
X70513440Y-53011500D01*
X70048560Y-53011500D01*
X69592613Y-53102194D01*
X69163121Y-53280095D01*
X68776588Y-53538368D01*
X68447868Y-53867088D01*
X68189595Y-54253621D01*
X68011694Y-54683113D01*
X67921000Y-55139060D01*
X54491700Y-55139060D01*
X54491700Y-39191261D01*
X60121000Y-39191261D01*
X60121000Y-39551739D01*
X60191325Y-39905291D01*
X60329275Y-40238330D01*
X60529546Y-40538057D01*
X60784443Y-40792954D01*
X61084170Y-40993225D01*
X61417209Y-41131175D01*
X61770761Y-41201500D01*
X62131239Y-41201500D01*
X62484791Y-41131175D01*
X62817830Y-40993225D01*
X63117557Y-40792954D01*
X63372454Y-40538057D01*
X63572725Y-40238330D01*
X63710675Y-39905291D01*
X63781000Y-39551739D01*
X63781000Y-39191261D01*
X63770617Y-39139060D01*
X123121000Y-39139060D01*
X123121000Y-39603940D01*
X123211694Y-40059887D01*
X123389595Y-40489379D01*
X123647868Y-40875912D01*
X123976588Y-41204632D01*
X124363121Y-41462905D01*
X124792613Y-41640806D01*
X125248560Y-41731500D01*
X125713440Y-41731500D01*
X126169387Y-41640806D01*
X126598879Y-41462905D01*
X126985412Y-41204632D01*
X127314132Y-40875912D01*
X127572405Y-40489379D01*
X127750306Y-40059887D01*
X127830272Y-39657872D01*
X138519100Y-39657872D01*
X138519100Y-40098128D01*
X138604990Y-40529925D01*
X138773469Y-40936669D01*
X139018062Y-41302729D01*
X139329371Y-41614038D01*
X139695431Y-41858631D01*
X140102175Y-42027110D01*
X140533972Y-42113000D01*
X140974228Y-42113000D01*
X141406025Y-42027110D01*
X141812769Y-41858631D01*
X142178829Y-41614038D01*
X142490138Y-41302729D01*
X142734731Y-40936669D01*
X142903210Y-40529925D01*
X142989100Y-40098128D01*
X142989100Y-39657872D01*
X142903210Y-39226075D01*
X142734731Y-38819331D01*
X142490138Y-38453271D01*
X142178829Y-38141962D01*
X141812769Y-37897369D01*
X141406025Y-37728890D01*
X140974228Y-37643000D01*
X140533972Y-37643000D01*
X140102175Y-37728890D01*
X139695431Y-37897369D01*
X139329371Y-38141962D01*
X139018062Y-38453271D01*
X138773469Y-38819331D01*
X138604990Y-39226075D01*
X138519100Y-39657872D01*
X127830272Y-39657872D01*
X127841000Y-39603940D01*
X127841000Y-39139060D01*
X127750306Y-38683113D01*
X127572405Y-38253621D01*
X127314132Y-37867088D01*
X126985412Y-37538368D01*
X126598879Y-37280095D01*
X126169387Y-37102194D01*
X125713440Y-37011500D01*
X125248560Y-37011500D01*
X124792613Y-37102194D01*
X124363121Y-37280095D01*
X123976588Y-37538368D01*
X123647868Y-37867088D01*
X123389595Y-38253621D01*
X123211694Y-38683113D01*
X123121000Y-39139060D01*
X63770617Y-39139060D01*
X63710675Y-38837709D01*
X63572725Y-38504670D01*
X63372454Y-38204943D01*
X63117557Y-37950046D01*
X62817830Y-37749775D01*
X62484791Y-37611825D01*
X62131239Y-37541500D01*
X61770761Y-37541500D01*
X61417209Y-37611825D01*
X61084170Y-37749775D01*
X60784443Y-37950046D01*
X60529546Y-38204943D01*
X60329275Y-38504670D01*
X60191325Y-38837709D01*
X60121000Y-39191261D01*
X54491700Y-39191261D01*
X54491700Y-36420212D01*
X144453800Y-36482487D01*
G37*
X144453800Y-36482487D02*
X144453801Y-133760156D01*
X141282782Y-133759278D01*
X141315512Y-133651382D01*
X141327772Y-133526900D01*
X141327772Y-131826900D01*
X141315512Y-131702418D01*
X141279202Y-131582720D01*
X141220237Y-131472406D01*
X141140885Y-131375715D01*
X141044194Y-131296363D01*
X140933880Y-131237398D01*
X140814182Y-131201088D01*
X140689700Y-131188828D01*
X138989700Y-131188828D01*
X138865218Y-131201088D01*
X138745520Y-131237398D01*
X138635206Y-131296363D01*
X138538515Y-131375715D01*
X138459163Y-131472406D01*
X138400198Y-131582720D01*
X138378187Y-131655280D01*
X138246332Y-131523425D01*
X138003111Y-131360910D01*
X137732858Y-131248968D01*
X137445960Y-131191900D01*
X137153440Y-131191900D01*
X136866542Y-131248968D01*
X136596289Y-131360910D01*
X136353068Y-131523425D01*
X136146225Y-131730268D01*
X136024505Y-131912434D01*
X135954878Y-131795545D01*
X135759969Y-131579312D01*
X135526620Y-131405259D01*
X135263799Y-131280075D01*
X135116590Y-131235424D01*
X134886700Y-131356745D01*
X134886700Y-132549900D01*
X134906700Y-132549900D01*
X134906700Y-132803900D01*
X134886700Y-132803900D01*
X134886700Y-132823900D01*
X134632700Y-132823900D01*
X134632700Y-132803900D01*
X133438886Y-132803900D01*
X133318219Y-133033791D01*
X133415543Y-133308152D01*
X133564522Y-133558255D01*
X133743839Y-133757190D01*
X131079858Y-133756453D01*
X131156737Y-133679574D01*
X131270005Y-133510056D01*
X131348026Y-133321698D01*
X131387800Y-133121739D01*
X131387800Y-132917861D01*
X131348026Y-132717902D01*
X131270005Y-132529544D01*
X131156737Y-132360026D01*
X131116720Y-132320009D01*
X133318219Y-132320009D01*
X133438886Y-132549900D01*
X134632700Y-132549900D01*
X134632700Y-131356745D01*
X134402810Y-131235424D01*
X134255601Y-131280075D01*
X133992780Y-131405259D01*
X133759431Y-131579312D01*
X133564522Y-131795545D01*
X133415543Y-132045648D01*
X133318219Y-132320009D01*
X131116720Y-132320009D01*
X131012574Y-132215863D01*
X130843056Y-132102595D01*
X130654698Y-132024574D01*
X130454739Y-131984800D01*
X130250861Y-131984800D01*
X130050902Y-132024574D01*
X129862544Y-132102595D01*
X129814346Y-132134800D01*
X128829389Y-132134800D01*
X128847800Y-132042239D01*
X128847800Y-131838361D01*
X128808026Y-131638402D01*
X128730005Y-131450044D01*
X128616737Y-131280526D01*
X128472574Y-131136363D01*
X128303056Y-131023095D01*
X128114698Y-130945074D01*
X127914739Y-130905300D01*
X127710861Y-130905300D01*
X127510902Y-130945074D01*
X127322544Y-131023095D01*
X127274346Y-131055300D01*
X91666879Y-131055300D01*
X88515000Y-127903422D01*
X88515000Y-115726401D01*
X98394601Y-125606003D01*
X98418399Y-125635001D01*
X98534124Y-125729974D01*
X98666153Y-125800546D01*
X98809414Y-125844003D01*
X98921067Y-125855000D01*
X98921075Y-125855000D01*
X98958400Y-125858676D01*
X98995725Y-125855000D01*
X120771789Y-125855000D01*
X120815726Y-125898937D01*
X120985244Y-126012205D01*
X121173602Y-126090226D01*
X121373561Y-126130000D01*
X121577439Y-126130000D01*
X121777398Y-126090226D01*
X121965756Y-126012205D01*
X122135274Y-125898937D01*
X122279437Y-125754774D01*
X122392705Y-125585256D01*
X122470726Y-125396898D01*
X122510500Y-125196939D01*
X122510500Y-124993061D01*
X122470726Y-124793102D01*
X122392705Y-124604744D01*
X122279437Y-124435226D01*
X122135274Y-124291063D01*
X121965756Y-124177795D01*
X121777398Y-124099774D01*
X121577439Y-124060000D01*
X121373561Y-124060000D01*
X121173602Y-124099774D01*
X120985244Y-124177795D01*
X120815726Y-124291063D01*
X120771789Y-124335000D01*
X99273202Y-124335000D01*
X89660000Y-114721799D01*
X89660000Y-113450000D01*
X97571928Y-113450000D01*
X97571928Y-115150000D01*
X97584188Y-115274482D01*
X97620498Y-115394180D01*
X97679463Y-115504494D01*
X97758815Y-115601185D01*
X97855506Y-115680537D01*
X97965820Y-115739502D01*
X98085518Y-115775812D01*
X98210000Y-115788072D01*
X99910000Y-115788072D01*
X100034482Y-115775812D01*
X100154180Y-115739502D01*
X100264494Y-115680537D01*
X100361185Y-115601185D01*
X100440537Y-115504494D01*
X100499502Y-115394180D01*
X100535812Y-115274482D01*
X100548072Y-115150000D01*
X100548072Y-113450000D01*
X100535812Y-113325518D01*
X100499502Y-113205820D01*
X100440537Y-113095506D01*
X100361185Y-112998815D01*
X100264494Y-112919463D01*
X100154180Y-112860498D01*
X100081620Y-112838487D01*
X100213475Y-112706632D01*
X100375990Y-112463411D01*
X100487932Y-112193158D01*
X100545000Y-111906260D01*
X100545000Y-111613740D01*
X100487932Y-111326842D01*
X100375990Y-111056589D01*
X100213475Y-110813368D01*
X100006632Y-110606525D01*
X99824466Y-110484805D01*
X99941355Y-110415178D01*
X100157588Y-110220269D01*
X100331641Y-109986920D01*
X100456825Y-109724099D01*
X100501476Y-109576890D01*
X100380155Y-109347000D01*
X99187000Y-109347000D01*
X99187000Y-109367000D01*
X98933000Y-109367000D01*
X98933000Y-109347000D01*
X97739845Y-109347000D01*
X97618524Y-109576890D01*
X97663175Y-109724099D01*
X97788359Y-109986920D01*
X97962412Y-110220269D01*
X98178645Y-110415178D01*
X98295534Y-110484805D01*
X98113368Y-110606525D01*
X97906525Y-110813368D01*
X97744010Y-111056589D01*
X97632068Y-111326842D01*
X97575000Y-111613740D01*
X97575000Y-111906260D01*
X97632068Y-112193158D01*
X97744010Y-112463411D01*
X97906525Y-112706632D01*
X98038380Y-112838487D01*
X97965820Y-112860498D01*
X97855506Y-112919463D01*
X97758815Y-112998815D01*
X97679463Y-113095506D01*
X97620498Y-113205820D01*
X97584188Y-113325518D01*
X97571928Y-113450000D01*
X89660000Y-113450000D01*
X89660000Y-90873711D01*
X89703937Y-90829774D01*
X89817205Y-90660256D01*
X89895226Y-90471898D01*
X89901078Y-90442479D01*
X90095801Y-90637203D01*
X90095800Y-95987377D01*
X90092124Y-96024700D01*
X90095800Y-96062022D01*
X90095800Y-96062032D01*
X90106797Y-96173685D01*
X90135177Y-96267242D01*
X90150254Y-96316946D01*
X90220826Y-96448976D01*
X90253264Y-96488501D01*
X90315799Y-96564701D01*
X90344803Y-96588504D01*
X94635400Y-100879102D01*
X94659199Y-100908101D01*
X94774924Y-101003074D01*
X94906953Y-101073646D01*
X95050214Y-101117103D01*
X95161867Y-101128100D01*
X95161876Y-101128100D01*
X95199199Y-101131776D01*
X95236522Y-101128100D01*
X97648115Y-101128100D01*
X97632068Y-101166842D01*
X97575000Y-101453740D01*
X97575000Y-101746260D01*
X97632068Y-102033158D01*
X97744010Y-102303411D01*
X97906525Y-102546632D01*
X98113368Y-102753475D01*
X98287760Y-102870000D01*
X98113368Y-102986525D01*
X97906525Y-103193368D01*
X97744010Y-103436589D01*
X97632068Y-103706842D01*
X97575000Y-103993740D01*
X97575000Y-104286260D01*
X97632068Y-104573158D01*
X97744010Y-104843411D01*
X97906525Y-105086632D01*
X98113368Y-105293475D01*
X98287760Y-105410000D01*
X98113368Y-105526525D01*
X97906525Y-105733368D01*
X97744010Y-105976589D01*
X97632068Y-106246842D01*
X97575000Y-106533740D01*
X97575000Y-106826260D01*
X97632068Y-107113158D01*
X97744010Y-107383411D01*
X97906525Y-107626632D01*
X98113368Y-107833475D01*
X98295534Y-107955195D01*
X98178645Y-108024822D01*
X97962412Y-108219731D01*
X97788359Y-108453080D01*
X97663175Y-108715901D01*
X97618524Y-108863110D01*
X97739845Y-109093000D01*
X98933000Y-109093000D01*
X98933000Y-109073000D01*
X99187000Y-109073000D01*
X99187000Y-109093000D01*
X100380155Y-109093000D01*
X100501476Y-108863110D01*
X100456825Y-108715901D01*
X100331641Y-108453080D01*
X100157588Y-108219731D01*
X99941355Y-108024822D01*
X99824466Y-107955195D01*
X100006632Y-107833475D01*
X100213475Y-107626632D01*
X100375990Y-107383411D01*
X100487932Y-107113158D01*
X100545000Y-106826260D01*
X100545000Y-106533740D01*
X100487932Y-106246842D01*
X100375990Y-105976589D01*
X100213475Y-105733368D01*
X100006632Y-105526525D01*
X99832240Y-105410000D01*
X100006632Y-105293475D01*
X100213475Y-105086632D01*
X100375990Y-104843411D01*
X100487932Y-104573158D01*
X100545000Y-104286260D01*
X100545000Y-103993740D01*
X100487932Y-103706842D01*
X100375990Y-103436589D01*
X100213475Y-103193368D01*
X100006632Y-102986525D01*
X99832240Y-102870000D01*
X100006632Y-102753475D01*
X100213475Y-102546632D01*
X100375990Y-102303411D01*
X100487932Y-102033158D01*
X100545000Y-101746260D01*
X100545000Y-101453740D01*
X100487932Y-101166842D01*
X100471885Y-101128100D01*
X114171234Y-101128100D01*
X114173639Y-101130074D01*
X114305668Y-101200646D01*
X114448876Y-101244087D01*
X114503826Y-101299037D01*
X114673344Y-101412305D01*
X114861702Y-101490326D01*
X115061661Y-101530100D01*
X115265539Y-101530100D01*
X115465498Y-101490326D01*
X115653856Y-101412305D01*
X115823374Y-101299037D01*
X115967537Y-101154874D01*
X116080805Y-100985356D01*
X116158826Y-100796998D01*
X116198600Y-100597039D01*
X116198600Y-100393161D01*
X116158826Y-100193202D01*
X116080805Y-100004844D01*
X115967537Y-99835326D01*
X115823374Y-99691163D01*
X115653856Y-99577895D01*
X115465498Y-99499874D01*
X115265539Y-99460100D01*
X115061661Y-99460100D01*
X114861702Y-99499874D01*
X114673344Y-99577895D01*
X114612737Y-99618391D01*
X114508248Y-99608100D01*
X114508237Y-99608100D01*
X114470915Y-99604424D01*
X114433593Y-99608100D01*
X100440322Y-99608100D01*
X100487932Y-99493158D01*
X100545000Y-99206260D01*
X100545000Y-98913740D01*
X100487932Y-98626842D01*
X100375990Y-98356589D01*
X100213475Y-98113368D01*
X100006632Y-97906525D01*
X99832240Y-97790000D01*
X100006632Y-97673475D01*
X100213475Y-97466632D01*
X100254656Y-97405000D01*
X108585789Y-97405000D01*
X108517663Y-97473126D01*
X108404395Y-97642644D01*
X108326374Y-97831002D01*
X108286600Y-98030961D01*
X108286600Y-98234839D01*
X108326374Y-98434798D01*
X108404395Y-98623156D01*
X108517663Y-98792674D01*
X108661826Y-98936837D01*
X108831344Y-99050105D01*
X109019702Y-99128126D01*
X109219661Y-99167900D01*
X109423539Y-99167900D01*
X109623498Y-99128126D01*
X109811856Y-99050105D01*
X109981374Y-98936837D01*
X109999911Y-98918300D01*
X116677599Y-98918300D01*
X118391401Y-100632103D01*
X118391401Y-100743888D01*
X118347463Y-100787826D01*
X118234195Y-100957344D01*
X118156174Y-101145702D01*
X118116400Y-101345661D01*
X118116400Y-101549539D01*
X118156174Y-101749498D01*
X118234195Y-101937856D01*
X118347463Y-102107374D01*
X118491626Y-102251537D01*
X118661144Y-102364805D01*
X118849502Y-102442826D01*
X119049461Y-102482600D01*
X119253339Y-102482600D01*
X119453298Y-102442826D01*
X119641656Y-102364805D01*
X119811174Y-102251537D01*
X119855111Y-102207600D01*
X123959189Y-102207600D01*
X124003126Y-102251537D01*
X124172644Y-102364805D01*
X124361002Y-102442826D01*
X124560961Y-102482600D01*
X124764839Y-102482600D01*
X124964798Y-102442826D01*
X125153156Y-102364805D01*
X125322674Y-102251537D01*
X125466837Y-102107374D01*
X125580105Y-101937856D01*
X125658126Y-101749498D01*
X125697900Y-101549539D01*
X125697900Y-101345661D01*
X125658126Y-101145702D01*
X125580105Y-100957344D01*
X125466837Y-100787826D01*
X125322674Y-100643663D01*
X125153156Y-100530395D01*
X124964798Y-100452374D01*
X124764839Y-100412600D01*
X124560961Y-100412600D01*
X124361002Y-100452374D01*
X124172644Y-100530395D01*
X124003126Y-100643663D01*
X123959189Y-100687600D01*
X119911400Y-100687600D01*
X119911400Y-100354622D01*
X119915076Y-100317299D01*
X119911400Y-100279976D01*
X119911400Y-100279967D01*
X119900403Y-100168314D01*
X119856946Y-100025053D01*
X119835055Y-99984098D01*
X119786374Y-99893023D01*
X119715199Y-99806297D01*
X119691401Y-99777299D01*
X119662403Y-99753501D01*
X117556204Y-97647303D01*
X117532401Y-97618299D01*
X117416676Y-97523326D01*
X117284647Y-97452754D01*
X117141386Y-97409297D01*
X117097758Y-97405000D01*
X124423622Y-97405000D01*
X128718500Y-101699879D01*
X128718501Y-108362973D01*
X128646374Y-108537102D01*
X128606600Y-108737061D01*
X128606600Y-108940939D01*
X128646374Y-109140898D01*
X128724395Y-109329256D01*
X128837663Y-109498774D01*
X128981826Y-109642937D01*
X129151344Y-109756205D01*
X129339702Y-109834226D01*
X129539661Y-109874000D01*
X129743539Y-109874000D01*
X129943498Y-109834226D01*
X130131856Y-109756205D01*
X130301374Y-109642937D01*
X130445537Y-109498774D01*
X130558805Y-109329256D01*
X130636826Y-109140898D01*
X130676600Y-108940939D01*
X130676600Y-108737061D01*
X130636826Y-108537102D01*
X130558805Y-108348744D01*
X130488500Y-108243525D01*
X130488500Y-101376765D01*
X130492781Y-101333299D01*
X130488500Y-101289833D01*
X130488500Y-101289823D01*
X130475695Y-101159810D01*
X130425089Y-100992987D01*
X130342911Y-100839241D01*
X130304449Y-100792375D01*
X130260032Y-100738253D01*
X130260030Y-100738251D01*
X130232317Y-100704483D01*
X130198551Y-100676772D01*
X125446734Y-95924956D01*
X125419017Y-95891183D01*
X125284259Y-95780589D01*
X125130513Y-95698411D01*
X124963690Y-95647805D01*
X124833677Y-95635000D01*
X124833669Y-95635000D01*
X124790200Y-95630719D01*
X124746731Y-95635000D01*
X100254656Y-95635000D01*
X100213475Y-95573368D01*
X100006632Y-95366525D01*
X99832240Y-95250000D01*
X100006632Y-95133475D01*
X100213475Y-94926632D01*
X100254656Y-94865000D01*
X132005522Y-94865000D01*
X135246300Y-98105779D01*
X135246301Y-124962944D01*
X135214095Y-125011144D01*
X135136074Y-125199502D01*
X135096300Y-125399461D01*
X135096300Y-125603339D01*
X135136074Y-125803298D01*
X135214095Y-125991656D01*
X135327363Y-126161174D01*
X135471526Y-126305337D01*
X135641044Y-126418605D01*
X135829402Y-126496626D01*
X136029361Y-126536400D01*
X136233239Y-126536400D01*
X136433198Y-126496626D01*
X136621556Y-126418605D01*
X136791074Y-126305337D01*
X136935237Y-126161174D01*
X137048505Y-125991656D01*
X137126526Y-125803298D01*
X137166300Y-125603339D01*
X137166300Y-125399461D01*
X137126526Y-125199502D01*
X137048505Y-125011144D01*
X137016300Y-124962946D01*
X137016300Y-97782669D01*
X137020581Y-97739200D01*
X137016300Y-97695731D01*
X137016300Y-97695723D01*
X137003495Y-97565710D01*
X136990638Y-97523326D01*
X136952889Y-97398886D01*
X136870711Y-97245141D01*
X136787832Y-97144153D01*
X136787830Y-97144151D01*
X136760117Y-97110383D01*
X136726350Y-97082671D01*
X133028634Y-93384956D01*
X133000917Y-93351183D01*
X132866159Y-93240589D01*
X132712413Y-93158411D01*
X132545590Y-93107805D01*
X132415577Y-93095000D01*
X132415569Y-93095000D01*
X132372100Y-93090719D01*
X132328631Y-93095000D01*
X100254656Y-93095000D01*
X100213475Y-93033368D01*
X100006632Y-92826525D01*
X99832240Y-92710000D01*
X100006632Y-92593475D01*
X100213475Y-92386632D01*
X100254656Y-92325000D01*
X132653222Y-92325000D01*
X137456100Y-97127879D01*
X137456101Y-124556221D01*
X137451819Y-124599700D01*
X137468905Y-124773190D01*
X137519512Y-124940013D01*
X137601690Y-125093759D01*
X137684568Y-125194746D01*
X137684571Y-125194749D01*
X137712284Y-125228517D01*
X137746051Y-125256229D01*
X138833165Y-126343344D01*
X138844474Y-126400198D01*
X138922495Y-126588556D01*
X139035763Y-126758074D01*
X139179926Y-126902237D01*
X139349444Y-127015505D01*
X139537802Y-127093526D01*
X139737761Y-127133300D01*
X139941639Y-127133300D01*
X140141598Y-127093526D01*
X140329956Y-127015505D01*
X140499474Y-126902237D01*
X140643637Y-126758074D01*
X140756905Y-126588556D01*
X140834926Y-126400198D01*
X140874700Y-126200239D01*
X140874700Y-125996361D01*
X140834926Y-125796402D01*
X140756905Y-125608044D01*
X140643637Y-125438526D01*
X140499474Y-125294363D01*
X140329956Y-125181095D01*
X140141598Y-125103074D01*
X140084744Y-125091765D01*
X139226100Y-124233122D01*
X139226100Y-101957300D01*
X139901828Y-101957300D01*
X139901828Y-103757300D01*
X139914088Y-103881782D01*
X139950398Y-104001480D01*
X140009363Y-104111794D01*
X140088715Y-104208485D01*
X140185406Y-104287837D01*
X140295720Y-104346802D01*
X140415418Y-104383112D01*
X140539900Y-104395372D01*
X142339900Y-104395372D01*
X142464382Y-104383112D01*
X142584080Y-104346802D01*
X142694394Y-104287837D01*
X142791085Y-104208485D01*
X142870437Y-104111794D01*
X142929402Y-104001480D01*
X142965712Y-103881782D01*
X142977972Y-103757300D01*
X142977972Y-101957300D01*
X142965712Y-101832818D01*
X142929402Y-101713120D01*
X142870437Y-101602806D01*
X142791085Y-101506115D01*
X142694394Y-101426763D01*
X142584080Y-101367798D01*
X142565773Y-101362244D01*
X142632212Y-101295805D01*
X142800199Y-101044395D01*
X142915911Y-100765043D01*
X142974900Y-100468484D01*
X142974900Y-100166116D01*
X142915911Y-99869557D01*
X142800199Y-99590205D01*
X142632212Y-99338795D01*
X142418405Y-99124988D01*
X142166995Y-98957001D01*
X141887643Y-98841289D01*
X141591084Y-98782300D01*
X141288716Y-98782300D01*
X140992157Y-98841289D01*
X140712805Y-98957001D01*
X140461395Y-99124988D01*
X140247588Y-99338795D01*
X140079601Y-99590205D01*
X139963889Y-99869557D01*
X139904900Y-100166116D01*
X139904900Y-100468484D01*
X139963889Y-100765043D01*
X140079601Y-101044395D01*
X140247588Y-101295805D01*
X140314027Y-101362244D01*
X140295720Y-101367798D01*
X140185406Y-101426763D01*
X140088715Y-101506115D01*
X140009363Y-101602806D01*
X139950398Y-101713120D01*
X139914088Y-101832818D01*
X139901828Y-101957300D01*
X139226100Y-101957300D01*
X139226100Y-96804769D01*
X139230381Y-96761300D01*
X139226100Y-96717831D01*
X139226100Y-96717823D01*
X139213295Y-96587810D01*
X139192725Y-96520000D01*
X139162689Y-96420986D01*
X139080511Y-96267241D01*
X138997632Y-96166253D01*
X138997630Y-96166251D01*
X138969917Y-96132483D01*
X138936151Y-96104772D01*
X138692679Y-95861300D01*
X139901828Y-95861300D01*
X139901828Y-97661300D01*
X139914088Y-97785782D01*
X139950398Y-97905480D01*
X140009363Y-98015794D01*
X140088715Y-98112485D01*
X140185406Y-98191837D01*
X140295720Y-98250802D01*
X140415418Y-98287112D01*
X140539900Y-98299372D01*
X142339900Y-98299372D01*
X142464382Y-98287112D01*
X142584080Y-98250802D01*
X142694394Y-98191837D01*
X142791085Y-98112485D01*
X142870437Y-98015794D01*
X142929402Y-97905480D01*
X142965712Y-97785782D01*
X142977972Y-97661300D01*
X142977972Y-95861300D01*
X142965712Y-95736818D01*
X142929402Y-95617120D01*
X142870437Y-95506806D01*
X142791085Y-95410115D01*
X142694394Y-95330763D01*
X142584080Y-95271798D01*
X142565773Y-95266244D01*
X142632212Y-95199805D01*
X142800199Y-94948395D01*
X142915911Y-94669043D01*
X142974900Y-94372484D01*
X142974900Y-94070116D01*
X142915911Y-93773557D01*
X142800199Y-93494205D01*
X142632212Y-93242795D01*
X142418405Y-93028988D01*
X142166995Y-92861001D01*
X141887643Y-92745289D01*
X141591084Y-92686300D01*
X141288716Y-92686300D01*
X140992157Y-92745289D01*
X140712805Y-92861001D01*
X140461395Y-93028988D01*
X140247588Y-93242795D01*
X140079601Y-93494205D01*
X139963889Y-93773557D01*
X139904900Y-94070116D01*
X139904900Y-94372484D01*
X139963889Y-94669043D01*
X140079601Y-94948395D01*
X140247588Y-95199805D01*
X140314027Y-95266244D01*
X140295720Y-95271798D01*
X140185406Y-95330763D01*
X140088715Y-95410115D01*
X140009363Y-95506806D01*
X139950398Y-95617120D01*
X139914088Y-95736818D01*
X139901828Y-95861300D01*
X138692679Y-95861300D01*
X133849956Y-91018577D01*
X137183465Y-91018577D01*
X137185604Y-91050615D01*
X137275464Y-91271544D01*
X137406698Y-91470697D01*
X137574263Y-91640421D01*
X137771720Y-91774194D01*
X137991481Y-91866874D01*
X138225100Y-91914900D01*
X138550100Y-91914900D01*
X138550100Y-90831900D01*
X138804100Y-90831900D01*
X138804100Y-91914900D01*
X139129100Y-91914900D01*
X139362719Y-91866874D01*
X139582480Y-91774194D01*
X139779937Y-91640421D01*
X139947502Y-91470697D01*
X140078736Y-91271544D01*
X140168596Y-91050615D01*
X140170735Y-91018577D01*
X140086027Y-90892158D01*
X140884581Y-90892158D01*
X140897022Y-90958017D01*
X141000743Y-91204879D01*
X141150631Y-91426763D01*
X141340927Y-91615142D01*
X141564317Y-91762776D01*
X141812217Y-91863992D01*
X142075100Y-91914900D01*
X142350100Y-91914900D01*
X142350100Y-90681900D01*
X142604100Y-90681900D01*
X142604100Y-91914900D01*
X142879100Y-91914900D01*
X143141983Y-91863992D01*
X143389883Y-91762776D01*
X143613273Y-91615142D01*
X143803569Y-91426763D01*
X143953457Y-91204879D01*
X144057178Y-90958017D01*
X144069619Y-90892158D01*
X143946618Y-90681900D01*
X142604100Y-90681900D01*
X142350100Y-90681900D01*
X141007582Y-90681900D01*
X140884581Y-90892158D01*
X140086027Y-90892158D01*
X140045650Y-90831900D01*
X138804100Y-90831900D01*
X138550100Y-90831900D01*
X137308550Y-90831900D01*
X137183465Y-91018577D01*
X133849956Y-91018577D01*
X133676334Y-90844956D01*
X133648617Y-90811183D01*
X133513859Y-90700589D01*
X133360113Y-90618411D01*
X133193290Y-90567805D01*
X133063277Y-90555000D01*
X133063269Y-90555000D01*
X133019800Y-90550719D01*
X132976331Y-90555000D01*
X110677204Y-90555000D01*
X110708705Y-90507856D01*
X110757016Y-90391223D01*
X137183465Y-90391223D01*
X137308550Y-90577900D01*
X138550100Y-90577900D01*
X138550100Y-89494900D01*
X138804100Y-89494900D01*
X138804100Y-90577900D01*
X140045650Y-90577900D01*
X140170735Y-90391223D01*
X140168596Y-90359185D01*
X140078736Y-90138256D01*
X139947502Y-89939103D01*
X139779937Y-89769379D01*
X139582480Y-89635606D01*
X139362719Y-89542926D01*
X139129100Y-89494900D01*
X138804100Y-89494900D01*
X138550100Y-89494900D01*
X138225100Y-89494900D01*
X137991481Y-89542926D01*
X137771720Y-89635606D01*
X137574263Y-89769379D01*
X137406698Y-89939103D01*
X137275464Y-90138256D01*
X137185604Y-90359185D01*
X137183465Y-90391223D01*
X110757016Y-90391223D01*
X110786726Y-90319498D01*
X110826500Y-90119539D01*
X110826500Y-89915661D01*
X110786726Y-89715702D01*
X110708705Y-89527344D01*
X110595437Y-89357826D01*
X110540487Y-89302876D01*
X110538800Y-89297315D01*
X110538800Y-89227961D01*
X140392100Y-89227961D01*
X140392100Y-89431839D01*
X140431874Y-89631798D01*
X140509895Y-89820156D01*
X140623163Y-89989674D01*
X140767326Y-90133837D01*
X140885496Y-90212796D01*
X140884581Y-90217642D01*
X141007582Y-90427900D01*
X142350100Y-90427900D01*
X142350100Y-89806166D01*
X142422326Y-89631798D01*
X142462100Y-89431839D01*
X142462100Y-89227961D01*
X142455524Y-89194900D01*
X142604100Y-89194900D01*
X142604100Y-90427900D01*
X143946618Y-90427900D01*
X144069619Y-90217642D01*
X144057178Y-90151783D01*
X143953457Y-89904921D01*
X143803569Y-89683037D01*
X143613273Y-89494658D01*
X143389883Y-89347024D01*
X143141983Y-89245808D01*
X142879100Y-89194900D01*
X142604100Y-89194900D01*
X142455524Y-89194900D01*
X142422326Y-89028002D01*
X142344305Y-88839644D01*
X142231037Y-88670126D01*
X142086874Y-88525963D01*
X141917356Y-88412695D01*
X141728998Y-88334674D01*
X141529039Y-88294900D01*
X141325161Y-88294900D01*
X141125202Y-88334674D01*
X140936844Y-88412695D01*
X140767326Y-88525963D01*
X140623163Y-88670126D01*
X140509895Y-88839644D01*
X140431874Y-89028002D01*
X140392100Y-89227961D01*
X110538800Y-89227961D01*
X110538800Y-86200526D01*
X110542476Y-86163201D01*
X110538800Y-86125876D01*
X110538800Y-86125868D01*
X110527803Y-86014215D01*
X110484346Y-85870954D01*
X110413774Y-85738925D01*
X110318801Y-85623200D01*
X110289803Y-85599402D01*
X108918362Y-84227961D01*
X140392100Y-84227961D01*
X140392100Y-84431839D01*
X140431874Y-84631798D01*
X140509895Y-84820156D01*
X140623163Y-84989674D01*
X140767326Y-85133837D01*
X140936844Y-85247105D01*
X141125202Y-85325126D01*
X141325161Y-85364900D01*
X141529039Y-85364900D01*
X141728998Y-85325126D01*
X141917356Y-85247105D01*
X142086874Y-85133837D01*
X142231037Y-84989674D01*
X142344305Y-84820156D01*
X142422326Y-84631798D01*
X142462100Y-84431839D01*
X142462100Y-84227961D01*
X142422326Y-84028002D01*
X142350100Y-83853634D01*
X142350100Y-83231900D01*
X142604100Y-83231900D01*
X142604100Y-84464900D01*
X142879100Y-84464900D01*
X143141983Y-84413992D01*
X143389883Y-84312776D01*
X143613273Y-84165142D01*
X143803569Y-83976763D01*
X143953457Y-83754879D01*
X144057178Y-83508017D01*
X144069619Y-83442158D01*
X143946618Y-83231900D01*
X142604100Y-83231900D01*
X142350100Y-83231900D01*
X141007582Y-83231900D01*
X140884581Y-83442158D01*
X140885496Y-83447004D01*
X140767326Y-83525963D01*
X140623163Y-83670126D01*
X140509895Y-83839644D01*
X140431874Y-84028002D01*
X140392100Y-84227961D01*
X108918362Y-84227961D01*
X108565900Y-83875500D01*
X108565900Y-83813362D01*
X108526126Y-83613403D01*
X108448105Y-83425045D01*
X108343557Y-83268577D01*
X137183465Y-83268577D01*
X137185604Y-83300615D01*
X137275464Y-83521544D01*
X137406698Y-83720697D01*
X137574263Y-83890421D01*
X137771720Y-84024194D01*
X137991481Y-84116874D01*
X138225100Y-84164900D01*
X138550100Y-84164900D01*
X138550100Y-83081900D01*
X138804100Y-83081900D01*
X138804100Y-84164900D01*
X139129100Y-84164900D01*
X139362719Y-84116874D01*
X139582480Y-84024194D01*
X139779937Y-83890421D01*
X139947502Y-83720697D01*
X140078736Y-83521544D01*
X140168596Y-83300615D01*
X140170735Y-83268577D01*
X140045650Y-83081900D01*
X138804100Y-83081900D01*
X138550100Y-83081900D01*
X137308550Y-83081900D01*
X137183465Y-83268577D01*
X108343557Y-83268577D01*
X108334837Y-83255527D01*
X108190674Y-83111364D01*
X108021156Y-82998096D01*
X107832798Y-82920075D01*
X107632839Y-82880301D01*
X107428961Y-82880301D01*
X107229002Y-82920075D01*
X107040644Y-82998096D01*
X106871126Y-83111364D01*
X106726963Y-83255527D01*
X106613695Y-83425045D01*
X106535674Y-83613403D01*
X106495900Y-83813362D01*
X106495900Y-84017240D01*
X106535674Y-84217199D01*
X106613695Y-84405557D01*
X106726963Y-84575075D01*
X106871126Y-84719238D01*
X107040644Y-84832506D01*
X107229002Y-84910527D01*
X107428961Y-84950301D01*
X107491099Y-84950301D01*
X109018801Y-86478004D01*
X109018800Y-89113627D01*
X108946699Y-89172799D01*
X108851726Y-89288524D01*
X108781154Y-89420554D01*
X108737698Y-89563815D01*
X108723024Y-89712800D01*
X108737698Y-89861785D01*
X108756500Y-89923769D01*
X108756500Y-90119539D01*
X108796274Y-90319498D01*
X108874295Y-90507856D01*
X108905796Y-90555000D01*
X100254656Y-90555000D01*
X100213475Y-90493368D01*
X100006632Y-90286525D01*
X99832240Y-90170000D01*
X100006632Y-90053475D01*
X100213475Y-89846632D01*
X100375990Y-89603411D01*
X100487932Y-89333158D01*
X100545000Y-89046260D01*
X100545000Y-88753740D01*
X100487932Y-88466842D01*
X100375990Y-88196589D01*
X100213475Y-87953368D01*
X100006632Y-87746525D01*
X99763411Y-87584010D01*
X99493158Y-87472068D01*
X99206260Y-87415000D01*
X98913740Y-87415000D01*
X98626842Y-87472068D01*
X98356589Y-87584010D01*
X98113368Y-87746525D01*
X97906525Y-87953368D01*
X97744010Y-88196589D01*
X97632068Y-88466842D01*
X97575000Y-88753740D01*
X97575000Y-89046260D01*
X97632068Y-89333158D01*
X97744010Y-89603411D01*
X97906525Y-89846632D01*
X98113368Y-90053475D01*
X98287760Y-90170000D01*
X98113368Y-90286525D01*
X97906525Y-90493368D01*
X97744010Y-90736589D01*
X97632068Y-91006842D01*
X97575000Y-91293740D01*
X97575000Y-91586260D01*
X97632068Y-91873158D01*
X97744010Y-92143411D01*
X97906525Y-92386632D01*
X98113368Y-92593475D01*
X98287760Y-92710000D01*
X98113368Y-92826525D01*
X97906525Y-93033368D01*
X97744010Y-93276589D01*
X97632068Y-93546842D01*
X97575000Y-93833740D01*
X97575000Y-94126260D01*
X97632068Y-94413158D01*
X97744010Y-94683411D01*
X97906525Y-94926632D01*
X98113368Y-95133475D01*
X98287760Y-95250000D01*
X98113368Y-95366525D01*
X97906525Y-95573368D01*
X97744010Y-95816589D01*
X97632068Y-96086842D01*
X97575000Y-96373740D01*
X97575000Y-96666260D01*
X97632068Y-96953158D01*
X97744010Y-97223411D01*
X97906525Y-97466632D01*
X98113368Y-97673475D01*
X98287760Y-97790000D01*
X98113368Y-97906525D01*
X97906525Y-98113368D01*
X97744010Y-98356589D01*
X97632068Y-98626842D01*
X97575000Y-98913740D01*
X97575000Y-99206260D01*
X97632068Y-99493158D01*
X97679678Y-99608100D01*
X95514002Y-99608100D01*
X91615800Y-95709899D01*
X91615800Y-90359722D01*
X91619476Y-90322399D01*
X91615800Y-90285076D01*
X91615800Y-90285067D01*
X91604803Y-90173414D01*
X91561346Y-90030153D01*
X91531575Y-89974456D01*
X91490774Y-89898123D01*
X91419599Y-89811397D01*
X91395801Y-89782399D01*
X91366803Y-89758601D01*
X88663704Y-87055503D01*
X88639901Y-87026499D01*
X88524176Y-86931526D01*
X88392147Y-86860954D01*
X88248886Y-86817497D01*
X88137233Y-86806500D01*
X88137222Y-86806500D01*
X88099900Y-86802824D01*
X88062578Y-86806500D01*
X69722222Y-86806500D01*
X69684899Y-86802824D01*
X69647576Y-86806500D01*
X69647567Y-86806500D01*
X69535914Y-86817497D01*
X69392653Y-86860954D01*
X69260623Y-86931526D01*
X69176983Y-87000168D01*
X69144899Y-87026499D01*
X69121101Y-87055497D01*
X67611343Y-88565256D01*
X67607144Y-88566995D01*
X67437626Y-88680263D01*
X67293463Y-88824426D01*
X67180195Y-88993944D01*
X67102174Y-89182302D01*
X67062400Y-89382261D01*
X67062400Y-89586139D01*
X67102174Y-89786098D01*
X67180195Y-89974456D01*
X67293463Y-90143974D01*
X67437626Y-90288137D01*
X67607144Y-90401405D01*
X67795502Y-90479426D01*
X67995461Y-90519200D01*
X68199339Y-90519200D01*
X68399298Y-90479426D01*
X68587656Y-90401405D01*
X68757174Y-90288137D01*
X68901337Y-90143974D01*
X69014605Y-89974456D01*
X69092626Y-89786098D01*
X69132400Y-89586139D01*
X69132400Y-89382261D01*
X69101133Y-89225069D01*
X69999702Y-88326500D01*
X87785099Y-88326500D01*
X88627521Y-89168922D01*
X88598102Y-89174774D01*
X88409744Y-89252795D01*
X88240226Y-89366063D01*
X88096063Y-89510226D01*
X87982795Y-89679744D01*
X87904774Y-89868102D01*
X87865000Y-90068061D01*
X87865000Y-90271939D01*
X87904774Y-90471898D01*
X87982795Y-90660256D01*
X88096063Y-90829774D01*
X88140000Y-90873711D01*
X88140001Y-112288422D01*
X87366535Y-111514957D01*
X87355226Y-111458102D01*
X87277205Y-111269744D01*
X87163937Y-111100226D01*
X87019774Y-110956063D01*
X86850256Y-110842795D01*
X86661898Y-110764774D01*
X86461939Y-110725000D01*
X86258061Y-110725000D01*
X86058102Y-110764774D01*
X85869744Y-110842795D01*
X85700226Y-110956063D01*
X85556063Y-111100226D01*
X85442795Y-111269744D01*
X85364774Y-111458102D01*
X85325000Y-111658061D01*
X85325000Y-111861939D01*
X85364774Y-112061898D01*
X85442795Y-112250256D01*
X85556063Y-112419774D01*
X85700226Y-112563937D01*
X85869744Y-112677205D01*
X86058102Y-112755226D01*
X86114957Y-112766535D01*
X86745001Y-113396580D01*
X86745000Y-120959196D01*
X86661898Y-120924774D01*
X86461939Y-120885000D01*
X86258061Y-120885000D01*
X86058102Y-120924774D01*
X85869744Y-121002795D01*
X85700226Y-121116063D01*
X85556063Y-121260226D01*
X85442795Y-121429744D01*
X85364774Y-121618102D01*
X85325000Y-121818061D01*
X85325000Y-122021939D01*
X85364774Y-122221898D01*
X85442795Y-122410256D01*
X85475001Y-122458456D01*
X85475000Y-128313476D01*
X85475001Y-128313485D01*
X85475000Y-129344130D01*
X85470719Y-129387600D01*
X85475000Y-129431069D01*
X85475000Y-129431076D01*
X85487805Y-129561089D01*
X85538411Y-129727912D01*
X85620589Y-129881658D01*
X85731183Y-130016417D01*
X85764956Y-130044134D01*
X89335670Y-133614849D01*
X89363383Y-133648617D01*
X89397151Y-133676330D01*
X89397153Y-133676332D01*
X89480744Y-133744934D01*
X54491700Y-133735245D01*
X54491700Y-129840572D01*
X56235800Y-129840572D01*
X56235800Y-130280828D01*
X56321690Y-130712625D01*
X56490169Y-131119369D01*
X56734762Y-131485429D01*
X57046071Y-131796738D01*
X57412131Y-132041331D01*
X57818875Y-132209810D01*
X58250672Y-132295700D01*
X58690928Y-132295700D01*
X59122725Y-132209810D01*
X59529469Y-132041331D01*
X59895529Y-131796738D01*
X60206838Y-131485429D01*
X60451431Y-131119369D01*
X60619910Y-130712625D01*
X60705800Y-130280828D01*
X60705800Y-129840572D01*
X60619910Y-129408775D01*
X60451431Y-129002031D01*
X60206838Y-128635971D01*
X59895529Y-128324662D01*
X59529469Y-128080069D01*
X59122725Y-127911590D01*
X58690928Y-127825700D01*
X58250672Y-127825700D01*
X57818875Y-127911590D01*
X57412131Y-128080069D01*
X57046071Y-128324662D01*
X56734762Y-128635971D01*
X56490169Y-129002031D01*
X56321690Y-129408775D01*
X56235800Y-129840572D01*
X54491700Y-129840572D01*
X54491700Y-96735561D01*
X68180000Y-96735561D01*
X68180000Y-96939439D01*
X68219774Y-97139398D01*
X68297795Y-97327756D01*
X68411063Y-97497274D01*
X68555226Y-97641437D01*
X68724744Y-97754705D01*
X68913102Y-97832726D01*
X69113061Y-97872500D01*
X69316939Y-97872500D01*
X69516898Y-97832726D01*
X69705256Y-97754705D01*
X69874774Y-97641437D01*
X69929724Y-97586487D01*
X70072932Y-97543046D01*
X70204961Y-97472474D01*
X70320686Y-97377501D01*
X70344488Y-97348498D01*
X70984487Y-96708500D01*
X73451589Y-96708500D01*
X73495526Y-96752437D01*
X73665044Y-96865705D01*
X73853402Y-96943726D01*
X74053361Y-96983500D01*
X74257239Y-96983500D01*
X74457198Y-96943726D01*
X74645556Y-96865705D01*
X74815074Y-96752437D01*
X74959237Y-96608274D01*
X75072505Y-96438756D01*
X75150526Y-96250398D01*
X75190300Y-96050439D01*
X75190300Y-95846561D01*
X75150526Y-95646602D01*
X75072505Y-95458244D01*
X74959237Y-95288726D01*
X74815074Y-95144563D01*
X74645556Y-95031295D01*
X74457198Y-94953274D01*
X74257239Y-94913500D01*
X74053361Y-94913500D01*
X73853402Y-94953274D01*
X73665044Y-95031295D01*
X73495526Y-95144563D01*
X73451589Y-95188500D01*
X70707008Y-95188500D01*
X70669685Y-95184824D01*
X70632362Y-95188500D01*
X70632352Y-95188500D01*
X70520699Y-95199497D01*
X70377438Y-95242954D01*
X70245409Y-95313526D01*
X70129684Y-95408499D01*
X70105886Y-95437497D01*
X69647155Y-95896229D01*
X69516898Y-95842274D01*
X69316939Y-95802500D01*
X69113061Y-95802500D01*
X68913102Y-95842274D01*
X68724744Y-95920295D01*
X68555226Y-96033563D01*
X68411063Y-96177726D01*
X68297795Y-96347244D01*
X68219774Y-96535602D01*
X68180000Y-96735561D01*
X54491700Y-96735561D01*
X54491700Y-82641223D01*
X137183465Y-82641223D01*
X137308550Y-82827900D01*
X138550100Y-82827900D01*
X138550100Y-81744900D01*
X138804100Y-81744900D01*
X138804100Y-82827900D01*
X140045650Y-82827900D01*
X140086026Y-82767642D01*
X140884581Y-82767642D01*
X141007582Y-82977900D01*
X142350100Y-82977900D01*
X142350100Y-81744900D01*
X142604100Y-81744900D01*
X142604100Y-82977900D01*
X143946618Y-82977900D01*
X144069619Y-82767642D01*
X144057178Y-82701783D01*
X143953457Y-82454921D01*
X143803569Y-82233037D01*
X143613273Y-82044658D01*
X143389883Y-81897024D01*
X143141983Y-81795808D01*
X142879100Y-81744900D01*
X142604100Y-81744900D01*
X142350100Y-81744900D01*
X142075100Y-81744900D01*
X141812217Y-81795808D01*
X141564317Y-81897024D01*
X141340927Y-82044658D01*
X141150631Y-82233037D01*
X141000743Y-82454921D01*
X140897022Y-82701783D01*
X140884581Y-82767642D01*
X140086026Y-82767642D01*
X140170735Y-82641223D01*
X140168596Y-82609185D01*
X140078736Y-82388256D01*
X139947502Y-82189103D01*
X139779937Y-82019379D01*
X139582480Y-81885606D01*
X139362719Y-81792926D01*
X139129100Y-81744900D01*
X138804100Y-81744900D01*
X138550100Y-81744900D01*
X138225100Y-81744900D01*
X137991481Y-81792926D01*
X137771720Y-81885606D01*
X137574263Y-82019379D01*
X137406698Y-82189103D01*
X137275464Y-82388256D01*
X137185604Y-82609185D01*
X137183465Y-82641223D01*
X54491700Y-82641223D01*
X54491700Y-77849060D01*
X67921000Y-77849060D01*
X67921000Y-78313940D01*
X68011694Y-78769887D01*
X68189595Y-79199379D01*
X68447868Y-79585912D01*
X68776588Y-79914632D01*
X69163121Y-80172905D01*
X69592613Y-80350806D01*
X70048560Y-80441500D01*
X70513440Y-80441500D01*
X70969387Y-80350806D01*
X71398879Y-80172905D01*
X71785412Y-79914632D01*
X72114132Y-79585912D01*
X72372405Y-79199379D01*
X72550306Y-78769887D01*
X72641000Y-78313940D01*
X72641000Y-78004800D01*
X141109928Y-78004800D01*
X141109928Y-80004800D01*
X141122188Y-80129282D01*
X141158498Y-80248980D01*
X141217463Y-80359294D01*
X141296815Y-80455985D01*
X141393506Y-80535337D01*
X141503820Y-80594302D01*
X141623518Y-80630612D01*
X141748000Y-80642872D01*
X143748000Y-80642872D01*
X143872482Y-80630612D01*
X143992180Y-80594302D01*
X144102494Y-80535337D01*
X144199185Y-80455985D01*
X144278537Y-80359294D01*
X144337502Y-80248980D01*
X144373812Y-80129282D01*
X144386072Y-80004800D01*
X144386072Y-78004800D01*
X144373812Y-77880318D01*
X144337502Y-77760620D01*
X144278537Y-77650306D01*
X144199185Y-77553615D01*
X144102494Y-77474263D01*
X143992180Y-77415298D01*
X143872482Y-77378988D01*
X143748000Y-77366728D01*
X141748000Y-77366728D01*
X141623518Y-77378988D01*
X141503820Y-77415298D01*
X141393506Y-77474263D01*
X141296815Y-77553615D01*
X141217463Y-77650306D01*
X141158498Y-77760620D01*
X141122188Y-77880318D01*
X141109928Y-78004800D01*
X72641000Y-78004800D01*
X72641000Y-77849060D01*
X72550306Y-77393113D01*
X72372405Y-76963621D01*
X72114132Y-76577088D01*
X71785412Y-76248368D01*
X71398879Y-75990095D01*
X70969387Y-75812194D01*
X70513440Y-75721500D01*
X70048560Y-75721500D01*
X69592613Y-75812194D01*
X69163121Y-75990095D01*
X68776588Y-76248368D01*
X68447868Y-76577088D01*
X68189595Y-76963621D01*
X68011694Y-77393113D01*
X67921000Y-77849060D01*
X54491700Y-77849060D01*
X54491700Y-73004800D01*
X141109928Y-73004800D01*
X141109928Y-75004800D01*
X141122188Y-75129282D01*
X141158498Y-75248980D01*
X141217463Y-75359294D01*
X141296815Y-75455985D01*
X141393506Y-75535337D01*
X141503820Y-75594302D01*
X141623518Y-75630612D01*
X141748000Y-75642872D01*
X143748000Y-75642872D01*
X143872482Y-75630612D01*
X143992180Y-75594302D01*
X144102494Y-75535337D01*
X144199185Y-75455985D01*
X144278537Y-75359294D01*
X144337502Y-75248980D01*
X144373812Y-75129282D01*
X144386072Y-75004800D01*
X144386072Y-73004800D01*
X144373812Y-72880318D01*
X144337502Y-72760620D01*
X144278537Y-72650306D01*
X144199185Y-72553615D01*
X144102494Y-72474263D01*
X143992180Y-72415298D01*
X143872482Y-72378988D01*
X143748000Y-72366728D01*
X141748000Y-72366728D01*
X141623518Y-72378988D01*
X141503820Y-72415298D01*
X141393506Y-72474263D01*
X141296815Y-72553615D01*
X141217463Y-72650306D01*
X141158498Y-72760620D01*
X141122188Y-72880318D01*
X141109928Y-73004800D01*
X54491700Y-73004800D01*
X54491700Y-61901261D01*
X60121000Y-61901261D01*
X60121000Y-62261739D01*
X60191325Y-62615291D01*
X60329275Y-62948330D01*
X60529546Y-63248057D01*
X60784443Y-63502954D01*
X61084170Y-63703225D01*
X61417209Y-63841175D01*
X61770761Y-63911500D01*
X62131239Y-63911500D01*
X62484791Y-63841175D01*
X62817830Y-63703225D01*
X63117557Y-63502954D01*
X63372454Y-63248057D01*
X63572725Y-62948330D01*
X63710675Y-62615291D01*
X63781000Y-62261739D01*
X63781000Y-61901261D01*
X63770617Y-61849060D01*
X123121000Y-61849060D01*
X123121000Y-62313940D01*
X123211694Y-62769887D01*
X123389595Y-63199379D01*
X123647868Y-63585912D01*
X123976588Y-63914632D01*
X124363121Y-64172905D01*
X124792613Y-64350806D01*
X125248560Y-64441500D01*
X125713440Y-64441500D01*
X126169387Y-64350806D01*
X126598879Y-64172905D01*
X126985412Y-63914632D01*
X127314132Y-63585912D01*
X127572405Y-63199379D01*
X127750306Y-62769887D01*
X127841000Y-62313940D01*
X127841000Y-61849060D01*
X127750306Y-61393113D01*
X127572405Y-60963621D01*
X127314132Y-60577088D01*
X126985412Y-60248368D01*
X126598879Y-59990095D01*
X126169387Y-59812194D01*
X125713440Y-59721500D01*
X125248560Y-59721500D01*
X124792613Y-59812194D01*
X124363121Y-59990095D01*
X123976588Y-60248368D01*
X123647868Y-60577088D01*
X123389595Y-60963621D01*
X123211694Y-61393113D01*
X123121000Y-61849060D01*
X63770617Y-61849060D01*
X63710675Y-61547709D01*
X63572725Y-61214670D01*
X63372454Y-60914943D01*
X63117557Y-60660046D01*
X62817830Y-60459775D01*
X62484791Y-60321825D01*
X62131239Y-60251500D01*
X61770761Y-60251500D01*
X61417209Y-60321825D01*
X61084170Y-60459775D01*
X60784443Y-60660046D01*
X60529546Y-60914943D01*
X60329275Y-61214670D01*
X60191325Y-61547709D01*
X60121000Y-61901261D01*
X54491700Y-61901261D01*
X54491700Y-55139060D01*
X67921000Y-55139060D01*
X67921000Y-55603940D01*
X68011694Y-56059887D01*
X68189595Y-56489379D01*
X68447868Y-56875912D01*
X68776588Y-57204632D01*
X69163121Y-57462905D01*
X69592613Y-57640806D01*
X70048560Y-57731500D01*
X70513440Y-57731500D01*
X70969387Y-57640806D01*
X71398879Y-57462905D01*
X71785412Y-57204632D01*
X72114132Y-56875912D01*
X72372405Y-56489379D01*
X72550306Y-56059887D01*
X72641000Y-55603940D01*
X72641000Y-55139060D01*
X72550306Y-54683113D01*
X72372405Y-54253621D01*
X72114132Y-53867088D01*
X71785412Y-53538368D01*
X71398879Y-53280095D01*
X70969387Y-53102194D01*
X70513440Y-53011500D01*
X70048560Y-53011500D01*
X69592613Y-53102194D01*
X69163121Y-53280095D01*
X68776588Y-53538368D01*
X68447868Y-53867088D01*
X68189595Y-54253621D01*
X68011694Y-54683113D01*
X67921000Y-55139060D01*
X54491700Y-55139060D01*
X54491700Y-39191261D01*
X60121000Y-39191261D01*
X60121000Y-39551739D01*
X60191325Y-39905291D01*
X60329275Y-40238330D01*
X60529546Y-40538057D01*
X60784443Y-40792954D01*
X61084170Y-40993225D01*
X61417209Y-41131175D01*
X61770761Y-41201500D01*
X62131239Y-41201500D01*
X62484791Y-41131175D01*
X62817830Y-40993225D01*
X63117557Y-40792954D01*
X63372454Y-40538057D01*
X63572725Y-40238330D01*
X63710675Y-39905291D01*
X63781000Y-39551739D01*
X63781000Y-39191261D01*
X63770617Y-39139060D01*
X123121000Y-39139060D01*
X123121000Y-39603940D01*
X123211694Y-40059887D01*
X123389595Y-40489379D01*
X123647868Y-40875912D01*
X123976588Y-41204632D01*
X124363121Y-41462905D01*
X124792613Y-41640806D01*
X125248560Y-41731500D01*
X125713440Y-41731500D01*
X126169387Y-41640806D01*
X126598879Y-41462905D01*
X126985412Y-41204632D01*
X127314132Y-40875912D01*
X127572405Y-40489379D01*
X127750306Y-40059887D01*
X127830272Y-39657872D01*
X138519100Y-39657872D01*
X138519100Y-40098128D01*
X138604990Y-40529925D01*
X138773469Y-40936669D01*
X139018062Y-41302729D01*
X139329371Y-41614038D01*
X139695431Y-41858631D01*
X140102175Y-42027110D01*
X140533972Y-42113000D01*
X140974228Y-42113000D01*
X141406025Y-42027110D01*
X141812769Y-41858631D01*
X142178829Y-41614038D01*
X142490138Y-41302729D01*
X142734731Y-40936669D01*
X142903210Y-40529925D01*
X142989100Y-40098128D01*
X142989100Y-39657872D01*
X142903210Y-39226075D01*
X142734731Y-38819331D01*
X142490138Y-38453271D01*
X142178829Y-38141962D01*
X141812769Y-37897369D01*
X141406025Y-37728890D01*
X140974228Y-37643000D01*
X140533972Y-37643000D01*
X140102175Y-37728890D01*
X139695431Y-37897369D01*
X139329371Y-38141962D01*
X139018062Y-38453271D01*
X138773469Y-38819331D01*
X138604990Y-39226075D01*
X138519100Y-39657872D01*
X127830272Y-39657872D01*
X127841000Y-39603940D01*
X127841000Y-39139060D01*
X127750306Y-38683113D01*
X127572405Y-38253621D01*
X127314132Y-37867088D01*
X126985412Y-37538368D01*
X126598879Y-37280095D01*
X126169387Y-37102194D01*
X125713440Y-37011500D01*
X125248560Y-37011500D01*
X124792613Y-37102194D01*
X124363121Y-37280095D01*
X123976588Y-37538368D01*
X123647868Y-37867088D01*
X123389595Y-38253621D01*
X123211694Y-38683113D01*
X123121000Y-39139060D01*
X63770617Y-39139060D01*
X63710675Y-38837709D01*
X63572725Y-38504670D01*
X63372454Y-38204943D01*
X63117557Y-37950046D01*
X62817830Y-37749775D01*
X62484791Y-37611825D01*
X62131239Y-37541500D01*
X61770761Y-37541500D01*
X61417209Y-37611825D01*
X61084170Y-37749775D01*
X60784443Y-37950046D01*
X60529546Y-38204943D01*
X60329275Y-38504670D01*
X60191325Y-38837709D01*
X60121000Y-39191261D01*
X54491700Y-39191261D01*
X54491700Y-36420212D01*
X144453800Y-36482487D01*
M02*
