M48
; DRILL file {KiCad (5.1.5)-3} date 13/03/2020 11:53:00
; FORMAT={-:-/ absolute / inch / decimal}
; #@! TF.CreationDate,2020-03-13T11:53:00+01:00
; #@! TF.GenerationSoftware,Kicad,Pcbnew,(5.1.5)-3
; #@! TF.FileFunction,Plated,1,2,PTH
FMAT,2
INCH
T1C0.0157
T2C0.0217
T3C0.0315
T4C0.0335
T5C0.0354
T6C0.0394
%
G90
G05
T1
X2.482Y-3.7515
X2.681Y-3.523
X2.725Y-3.8125
X2.9195Y-3.7775
X3.3738Y-4.7045
X3.4Y-4.4
X3.4Y-4.8
X3.418Y-3.6235
X3.5Y-3.55
X3.627Y-3.349
X4.2335Y-3.3038
X4.304Y-3.8635
X4.3225Y-3.544
X4.534Y-3.9565
X4.618Y-3.956
X4.691Y-3.994
X4.7095Y-3.7555
X4.737Y-4.0425
X4.7825Y-4.925
X4.7865Y-3.9585
X4.908Y-3.994
X5.032Y-5.1945
X5.104Y-4.285
X5.132Y-5.237
X5.3595Y-4.941
X5.4915Y-4.111
X5.5055Y-4.9645
X5.6145Y-4.297
X5.63Y-5.168
T3
X5.62Y-2.9136
X5.62Y-3.1104
T5
X5.5685Y-3.7095
X5.5685Y-3.8095
X5.5685Y-3.9495
X5.5685Y-4.0495
T6
X3.9Y-3.5
X3.9Y-3.6
X3.9Y-3.7
X3.9Y-3.8
X3.9Y-3.9
X3.9Y-4.0
X3.9Y-4.1
X3.9Y-4.2
X3.9Y-4.3
X3.9Y-4.4
X3.9Y-4.5
X5.3055Y-5.2235
X5.4055Y-5.2235
X5.5055Y-5.2235
T2
G00X5.4725Y-3.2659
M15
G01X5.4469Y-3.2659
M16
G05
G00X5.4725Y-3.5711
M15
G01X5.4469Y-3.5711
M16
G05
T4
G00X5.6202Y-3.2718
M15
G01X5.5985Y-3.2718
M16
G05
G00X5.6202Y-3.5652
M15
G01X5.5985Y-3.5652
M16
G05
T0
M30
