G04 #@! TF.GenerationSoftware,KiCad,Pcbnew,(5.1.5)-3*
G04 #@! TF.CreationDate,2020-03-13T11:52:07+01:00*
G04 #@! TF.ProjectId,MainPCB,4d61696e-5043-4422-9e6b-696361645f70,rev?*
G04 #@! TF.SameCoordinates,Original*
G04 #@! TF.FileFunction,Soldermask,Bot*
G04 #@! TF.FilePolarity,Negative*
%FSLAX46Y46*%
G04 Gerber Fmt 4.6, Leading zero omitted, Abs format (unit mm)*
G04 Created by KiCad (PCBNEW (5.1.5)-3) date 2020-03-13 11:52:07*
%MOMM*%
%LPD*%
G04 APERTURE LIST*
%ADD10C,0.100000*%
G04 APERTURE END LIST*
D10*
G36*
X140740700Y-133577900D02*
G01*
X138938700Y-133577900D01*
X138938700Y-131775900D01*
X140740700Y-131775900D01*
X140740700Y-133577900D01*
G37*
G36*
X134873212Y-131780827D02*
G01*
X135022512Y-131810524D01*
X135186484Y-131878444D01*
X135334054Y-131977047D01*
X135459553Y-132102546D01*
X135558156Y-132250116D01*
X135626076Y-132414088D01*
X135660700Y-132588159D01*
X135660700Y-132765641D01*
X135626076Y-132939712D01*
X135558156Y-133103684D01*
X135459553Y-133251254D01*
X135334054Y-133376753D01*
X135186484Y-133475356D01*
X135022512Y-133543276D01*
X134873212Y-133572973D01*
X134848442Y-133577900D01*
X134670958Y-133577900D01*
X134646188Y-133572973D01*
X134496888Y-133543276D01*
X134332916Y-133475356D01*
X134185346Y-133376753D01*
X134059847Y-133251254D01*
X133961244Y-133103684D01*
X133893324Y-132939712D01*
X133858700Y-132765641D01*
X133858700Y-132588159D01*
X133893324Y-132414088D01*
X133961244Y-132250116D01*
X134059847Y-132102546D01*
X134185346Y-131977047D01*
X134332916Y-131878444D01*
X134496888Y-131810524D01*
X134646188Y-131780827D01*
X134670958Y-131775900D01*
X134848442Y-131775900D01*
X134873212Y-131780827D01*
G37*
G36*
X137413212Y-131780827D02*
G01*
X137562512Y-131810524D01*
X137726484Y-131878444D01*
X137874054Y-131977047D01*
X137999553Y-132102546D01*
X138098156Y-132250116D01*
X138166076Y-132414088D01*
X138200700Y-132588159D01*
X138200700Y-132765641D01*
X138166076Y-132939712D01*
X138098156Y-133103684D01*
X137999553Y-133251254D01*
X137874054Y-133376753D01*
X137726484Y-133475356D01*
X137562512Y-133543276D01*
X137413212Y-133572973D01*
X137388442Y-133577900D01*
X137210958Y-133577900D01*
X137186188Y-133572973D01*
X137036888Y-133543276D01*
X136872916Y-133475356D01*
X136725346Y-133376753D01*
X136599847Y-133251254D01*
X136501244Y-133103684D01*
X136433324Y-132939712D01*
X136398700Y-132765641D01*
X136398700Y-132588159D01*
X136433324Y-132414088D01*
X136501244Y-132250116D01*
X136599847Y-132102546D01*
X136725346Y-131977047D01*
X136872916Y-131878444D01*
X137036888Y-131810524D01*
X137186188Y-131780827D01*
X137210958Y-131775900D01*
X137388442Y-131775900D01*
X137413212Y-131780827D01*
G37*
G36*
X58846056Y-128451998D02*
G01*
X58952379Y-128473147D01*
X59252842Y-128597603D01*
X59523251Y-128778285D01*
X59753215Y-129008249D01*
X59933897Y-129278658D01*
X60058353Y-129579121D01*
X60121800Y-129898091D01*
X60121800Y-130223309D01*
X60058353Y-130542279D01*
X59933897Y-130842742D01*
X59753215Y-131113151D01*
X59523251Y-131343115D01*
X59252842Y-131523797D01*
X58952379Y-131648253D01*
X58846056Y-131669402D01*
X58633411Y-131711700D01*
X58308189Y-131711700D01*
X58095544Y-131669402D01*
X57989221Y-131648253D01*
X57688758Y-131523797D01*
X57418349Y-131343115D01*
X57188385Y-131113151D01*
X57007703Y-130842742D01*
X56883247Y-130542279D01*
X56819800Y-130223309D01*
X56819800Y-129898091D01*
X56883247Y-129579121D01*
X57007703Y-129278658D01*
X57188385Y-129008249D01*
X57418349Y-128778285D01*
X57688758Y-128597603D01*
X57989221Y-128473147D01*
X58095544Y-128451998D01*
X58308189Y-128409700D01*
X58633411Y-128409700D01*
X58846056Y-128451998D01*
G37*
G36*
X99961000Y-115201000D02*
G01*
X98159000Y-115201000D01*
X98159000Y-113399000D01*
X99961000Y-113399000D01*
X99961000Y-115201000D01*
G37*
G36*
X99173512Y-110863927D02*
G01*
X99322812Y-110893624D01*
X99486784Y-110961544D01*
X99634354Y-111060147D01*
X99759853Y-111185646D01*
X99858456Y-111333216D01*
X99926376Y-111497188D01*
X99961000Y-111671259D01*
X99961000Y-111848741D01*
X99926376Y-112022812D01*
X99858456Y-112186784D01*
X99759853Y-112334354D01*
X99634354Y-112459853D01*
X99486784Y-112558456D01*
X99322812Y-112626376D01*
X99173512Y-112656073D01*
X99148742Y-112661000D01*
X98971258Y-112661000D01*
X98946488Y-112656073D01*
X98797188Y-112626376D01*
X98633216Y-112558456D01*
X98485646Y-112459853D01*
X98360147Y-112334354D01*
X98261544Y-112186784D01*
X98193624Y-112022812D01*
X98159000Y-111848741D01*
X98159000Y-111671259D01*
X98193624Y-111497188D01*
X98261544Y-111333216D01*
X98360147Y-111185646D01*
X98485646Y-111060147D01*
X98633216Y-110961544D01*
X98797188Y-110893624D01*
X98946488Y-110863927D01*
X98971258Y-110859000D01*
X99148742Y-110859000D01*
X99173512Y-110863927D01*
G37*
G36*
X99173512Y-108323927D02*
G01*
X99322812Y-108353624D01*
X99486784Y-108421544D01*
X99634354Y-108520147D01*
X99759853Y-108645646D01*
X99858456Y-108793216D01*
X99926376Y-108957188D01*
X99961000Y-109131259D01*
X99961000Y-109308741D01*
X99926376Y-109482812D01*
X99858456Y-109646784D01*
X99759853Y-109794354D01*
X99634354Y-109919853D01*
X99486784Y-110018456D01*
X99322812Y-110086376D01*
X99173512Y-110116073D01*
X99148742Y-110121000D01*
X98971258Y-110121000D01*
X98946488Y-110116073D01*
X98797188Y-110086376D01*
X98633216Y-110018456D01*
X98485646Y-109919853D01*
X98360147Y-109794354D01*
X98261544Y-109646784D01*
X98193624Y-109482812D01*
X98159000Y-109308741D01*
X98159000Y-109131259D01*
X98193624Y-108957188D01*
X98261544Y-108793216D01*
X98360147Y-108645646D01*
X98485646Y-108520147D01*
X98633216Y-108421544D01*
X98797188Y-108353624D01*
X98946488Y-108323927D01*
X98971258Y-108319000D01*
X99148742Y-108319000D01*
X99173512Y-108323927D01*
G37*
G36*
X99173512Y-105783927D02*
G01*
X99322812Y-105813624D01*
X99486784Y-105881544D01*
X99634354Y-105980147D01*
X99759853Y-106105646D01*
X99858456Y-106253216D01*
X99926376Y-106417188D01*
X99961000Y-106591259D01*
X99961000Y-106768741D01*
X99926376Y-106942812D01*
X99858456Y-107106784D01*
X99759853Y-107254354D01*
X99634354Y-107379853D01*
X99486784Y-107478456D01*
X99322812Y-107546376D01*
X99173512Y-107576073D01*
X99148742Y-107581000D01*
X98971258Y-107581000D01*
X98946488Y-107576073D01*
X98797188Y-107546376D01*
X98633216Y-107478456D01*
X98485646Y-107379853D01*
X98360147Y-107254354D01*
X98261544Y-107106784D01*
X98193624Y-106942812D01*
X98159000Y-106768741D01*
X98159000Y-106591259D01*
X98193624Y-106417188D01*
X98261544Y-106253216D01*
X98360147Y-106105646D01*
X98485646Y-105980147D01*
X98633216Y-105881544D01*
X98797188Y-105813624D01*
X98946488Y-105783927D01*
X98971258Y-105779000D01*
X99148742Y-105779000D01*
X99173512Y-105783927D01*
G37*
G36*
X99173512Y-103243927D02*
G01*
X99322812Y-103273624D01*
X99486784Y-103341544D01*
X99634354Y-103440147D01*
X99759853Y-103565646D01*
X99858456Y-103713216D01*
X99926376Y-103877188D01*
X99961000Y-104051259D01*
X99961000Y-104228741D01*
X99926376Y-104402812D01*
X99858456Y-104566784D01*
X99759853Y-104714354D01*
X99634354Y-104839853D01*
X99486784Y-104938456D01*
X99322812Y-105006376D01*
X99173512Y-105036073D01*
X99148742Y-105041000D01*
X98971258Y-105041000D01*
X98946488Y-105036073D01*
X98797188Y-105006376D01*
X98633216Y-104938456D01*
X98485646Y-104839853D01*
X98360147Y-104714354D01*
X98261544Y-104566784D01*
X98193624Y-104402812D01*
X98159000Y-104228741D01*
X98159000Y-104051259D01*
X98193624Y-103877188D01*
X98261544Y-103713216D01*
X98360147Y-103565646D01*
X98485646Y-103440147D01*
X98633216Y-103341544D01*
X98797188Y-103273624D01*
X98946488Y-103243927D01*
X98971258Y-103239000D01*
X99148742Y-103239000D01*
X99173512Y-103243927D01*
G37*
G36*
X142390900Y-103808300D02*
G01*
X140488900Y-103808300D01*
X140488900Y-101906300D01*
X142390900Y-101906300D01*
X142390900Y-103808300D01*
G37*
G36*
X99173512Y-100703927D02*
G01*
X99322812Y-100733624D01*
X99486784Y-100801544D01*
X99634354Y-100900147D01*
X99759853Y-101025646D01*
X99858456Y-101173216D01*
X99926376Y-101337188D01*
X99961000Y-101511259D01*
X99961000Y-101688741D01*
X99926376Y-101862812D01*
X99858456Y-102026784D01*
X99759853Y-102174354D01*
X99634354Y-102299853D01*
X99486784Y-102398456D01*
X99322812Y-102466376D01*
X99173512Y-102496073D01*
X99148742Y-102501000D01*
X98971258Y-102501000D01*
X98946488Y-102496073D01*
X98797188Y-102466376D01*
X98633216Y-102398456D01*
X98485646Y-102299853D01*
X98360147Y-102174354D01*
X98261544Y-102026784D01*
X98193624Y-101862812D01*
X98159000Y-101688741D01*
X98159000Y-101511259D01*
X98193624Y-101337188D01*
X98261544Y-101173216D01*
X98360147Y-101025646D01*
X98485646Y-100900147D01*
X98633216Y-100801544D01*
X98797188Y-100733624D01*
X98946488Y-100703927D01*
X98971258Y-100699000D01*
X99148742Y-100699000D01*
X99173512Y-100703927D01*
G37*
G36*
X141717295Y-99402846D02*
G01*
X141890366Y-99474534D01*
X141890367Y-99474535D01*
X142046127Y-99578610D01*
X142178590Y-99711073D01*
X142230981Y-99789482D01*
X142282666Y-99866834D01*
X142354354Y-100039905D01*
X142390900Y-100223633D01*
X142390900Y-100410967D01*
X142354354Y-100594695D01*
X142282666Y-100767766D01*
X142282665Y-100767767D01*
X142178590Y-100923527D01*
X142046127Y-101055990D01*
X141967718Y-101108381D01*
X141890366Y-101160066D01*
X141717295Y-101231754D01*
X141533567Y-101268300D01*
X141346233Y-101268300D01*
X141162505Y-101231754D01*
X140989434Y-101160066D01*
X140912082Y-101108381D01*
X140833673Y-101055990D01*
X140701210Y-100923527D01*
X140597135Y-100767767D01*
X140597134Y-100767766D01*
X140525446Y-100594695D01*
X140488900Y-100410967D01*
X140488900Y-100223633D01*
X140525446Y-100039905D01*
X140597134Y-99866834D01*
X140648819Y-99789482D01*
X140701210Y-99711073D01*
X140833673Y-99578610D01*
X140989433Y-99474535D01*
X140989434Y-99474534D01*
X141162505Y-99402846D01*
X141346233Y-99366300D01*
X141533567Y-99366300D01*
X141717295Y-99402846D01*
G37*
G36*
X99173512Y-98163927D02*
G01*
X99322812Y-98193624D01*
X99486784Y-98261544D01*
X99634354Y-98360147D01*
X99759853Y-98485646D01*
X99858456Y-98633216D01*
X99926376Y-98797188D01*
X99961000Y-98971259D01*
X99961000Y-99148741D01*
X99926376Y-99322812D01*
X99858456Y-99486784D01*
X99759853Y-99634354D01*
X99634354Y-99759853D01*
X99486784Y-99858456D01*
X99322812Y-99926376D01*
X99173512Y-99956073D01*
X99148742Y-99961000D01*
X98971258Y-99961000D01*
X98946488Y-99956073D01*
X98797188Y-99926376D01*
X98633216Y-99858456D01*
X98485646Y-99759853D01*
X98360147Y-99634354D01*
X98261544Y-99486784D01*
X98193624Y-99322812D01*
X98159000Y-99148741D01*
X98159000Y-98971259D01*
X98193624Y-98797188D01*
X98261544Y-98633216D01*
X98360147Y-98485646D01*
X98485646Y-98360147D01*
X98633216Y-98261544D01*
X98797188Y-98193624D01*
X98946488Y-98163927D01*
X98971258Y-98159000D01*
X99148742Y-98159000D01*
X99173512Y-98163927D01*
G37*
G36*
X142390900Y-97712300D02*
G01*
X140488900Y-97712300D01*
X140488900Y-95810300D01*
X142390900Y-95810300D01*
X142390900Y-97712300D01*
G37*
G36*
X99173512Y-95623927D02*
G01*
X99322812Y-95653624D01*
X99486784Y-95721544D01*
X99634354Y-95820147D01*
X99759853Y-95945646D01*
X99858456Y-96093216D01*
X99926376Y-96257188D01*
X99961000Y-96431259D01*
X99961000Y-96608741D01*
X99926376Y-96782812D01*
X99858456Y-96946784D01*
X99759853Y-97094354D01*
X99634354Y-97219853D01*
X99486784Y-97318456D01*
X99322812Y-97386376D01*
X99173512Y-97416073D01*
X99148742Y-97421000D01*
X98971258Y-97421000D01*
X98946488Y-97416073D01*
X98797188Y-97386376D01*
X98633216Y-97318456D01*
X98485646Y-97219853D01*
X98360147Y-97094354D01*
X98261544Y-96946784D01*
X98193624Y-96782812D01*
X98159000Y-96608741D01*
X98159000Y-96431259D01*
X98193624Y-96257188D01*
X98261544Y-96093216D01*
X98360147Y-95945646D01*
X98485646Y-95820147D01*
X98633216Y-95721544D01*
X98797188Y-95653624D01*
X98946488Y-95623927D01*
X98971258Y-95619000D01*
X99148742Y-95619000D01*
X99173512Y-95623927D01*
G37*
G36*
X141717295Y-93306846D02*
G01*
X141890366Y-93378534D01*
X141890367Y-93378535D01*
X142046127Y-93482610D01*
X142178590Y-93615073D01*
X142178591Y-93615075D01*
X142282666Y-93770834D01*
X142354354Y-93943905D01*
X142390900Y-94127633D01*
X142390900Y-94314967D01*
X142354354Y-94498695D01*
X142282666Y-94671766D01*
X142282665Y-94671767D01*
X142178590Y-94827527D01*
X142046127Y-94959990D01*
X141967718Y-95012381D01*
X141890366Y-95064066D01*
X141717295Y-95135754D01*
X141533567Y-95172300D01*
X141346233Y-95172300D01*
X141162505Y-95135754D01*
X140989434Y-95064066D01*
X140912082Y-95012381D01*
X140833673Y-94959990D01*
X140701210Y-94827527D01*
X140597135Y-94671767D01*
X140597134Y-94671766D01*
X140525446Y-94498695D01*
X140488900Y-94314967D01*
X140488900Y-94127633D01*
X140525446Y-93943905D01*
X140597134Y-93770834D01*
X140701209Y-93615075D01*
X140701210Y-93615073D01*
X140833673Y-93482610D01*
X140989433Y-93378535D01*
X140989434Y-93378534D01*
X141162505Y-93306846D01*
X141346233Y-93270300D01*
X141533567Y-93270300D01*
X141717295Y-93306846D01*
G37*
G36*
X99173512Y-93083927D02*
G01*
X99322812Y-93113624D01*
X99486784Y-93181544D01*
X99634354Y-93280147D01*
X99759853Y-93405646D01*
X99858456Y-93553216D01*
X99926376Y-93717188D01*
X99961000Y-93891259D01*
X99961000Y-94068741D01*
X99926376Y-94242812D01*
X99858456Y-94406784D01*
X99759853Y-94554354D01*
X99634354Y-94679853D01*
X99486784Y-94778456D01*
X99322812Y-94846376D01*
X99173512Y-94876073D01*
X99148742Y-94881000D01*
X98971258Y-94881000D01*
X98946488Y-94876073D01*
X98797188Y-94846376D01*
X98633216Y-94778456D01*
X98485646Y-94679853D01*
X98360147Y-94554354D01*
X98261544Y-94406784D01*
X98193624Y-94242812D01*
X98159000Y-94068741D01*
X98159000Y-93891259D01*
X98193624Y-93717188D01*
X98261544Y-93553216D01*
X98360147Y-93405646D01*
X98485646Y-93280147D01*
X98633216Y-93181544D01*
X98797188Y-93113624D01*
X98946488Y-93083927D01*
X98971258Y-93079000D01*
X99148742Y-93079000D01*
X99173512Y-93083927D01*
G37*
G36*
X99173512Y-90543927D02*
G01*
X99322812Y-90573624D01*
X99486784Y-90641544D01*
X99634354Y-90740147D01*
X99759853Y-90865646D01*
X99858456Y-91013216D01*
X99926376Y-91177188D01*
X99961000Y-91351259D01*
X99961000Y-91528741D01*
X99926376Y-91702812D01*
X99858456Y-91866784D01*
X99759853Y-92014354D01*
X99634354Y-92139853D01*
X99486784Y-92238456D01*
X99322812Y-92306376D01*
X99173512Y-92336073D01*
X99148742Y-92341000D01*
X98971258Y-92341000D01*
X98946488Y-92336073D01*
X98797188Y-92306376D01*
X98633216Y-92238456D01*
X98485646Y-92139853D01*
X98360147Y-92014354D01*
X98261544Y-91866784D01*
X98193624Y-91702812D01*
X98159000Y-91528741D01*
X98159000Y-91351259D01*
X98193624Y-91177188D01*
X98261544Y-91013216D01*
X98360147Y-90865646D01*
X98485646Y-90740147D01*
X98633216Y-90641544D01*
X98797188Y-90573624D01*
X98946488Y-90543927D01*
X98971258Y-90539000D01*
X99148742Y-90539000D01*
X99173512Y-90543927D01*
G37*
G36*
X141558652Y-88896231D02*
G01*
X141640727Y-88930228D01*
X141640729Y-88930229D01*
X141677913Y-88955075D01*
X141714595Y-88979585D01*
X141777415Y-89042405D01*
X141826772Y-89116273D01*
X141860769Y-89198348D01*
X141878100Y-89285479D01*
X141878100Y-89374321D01*
X141860769Y-89461452D01*
X141826772Y-89543527D01*
X141777415Y-89617395D01*
X141761862Y-89632948D01*
X141746317Y-89651890D01*
X141734766Y-89673501D01*
X141727653Y-89696950D01*
X141725251Y-89721336D01*
X141727653Y-89745722D01*
X141734766Y-89769171D01*
X141746317Y-89790782D01*
X141761862Y-89809724D01*
X141780804Y-89825269D01*
X141802415Y-89836820D01*
X141825864Y-89843933D01*
X141850250Y-89846335D01*
X141874636Y-89843933D01*
X141898085Y-89836820D01*
X141901714Y-89835104D01*
X141903700Y-89834502D01*
X141903701Y-89834501D01*
X141948001Y-89821063D01*
X142049979Y-89790128D01*
X142163982Y-89778900D01*
X142790218Y-89778900D01*
X142904221Y-89790128D01*
X143050502Y-89834502D01*
X143185304Y-89906555D01*
X143185307Y-89906557D01*
X143185308Y-89906558D01*
X143270668Y-89976612D01*
X143303469Y-90003531D01*
X143400445Y-90121696D01*
X143472498Y-90256498D01*
X143516872Y-90402779D01*
X143531854Y-90554900D01*
X143516872Y-90707021D01*
X143472498Y-90853302D01*
X143400445Y-90988104D01*
X143400443Y-90988107D01*
X143400442Y-90988108D01*
X143303469Y-91106269D01*
X143217055Y-91177188D01*
X143185304Y-91203245D01*
X143050502Y-91275298D01*
X142904221Y-91319672D01*
X142790218Y-91330900D01*
X142163982Y-91330900D01*
X142049979Y-91319672D01*
X141903698Y-91275298D01*
X141768896Y-91203245D01*
X141737146Y-91177188D01*
X141650731Y-91106269D01*
X141553758Y-90988108D01*
X141553757Y-90988107D01*
X141553755Y-90988104D01*
X141481702Y-90853302D01*
X141437328Y-90707021D01*
X141422346Y-90554900D01*
X141437328Y-90402779D01*
X141481702Y-90256498D01*
X141553755Y-90121696D01*
X141650733Y-90003528D01*
X141683530Y-89976612D01*
X141700857Y-89959285D01*
X141714470Y-89938911D01*
X141723848Y-89916272D01*
X141728628Y-89892239D01*
X141728628Y-89867735D01*
X141723848Y-89843701D01*
X141714470Y-89821063D01*
X141700856Y-89800688D01*
X141683529Y-89783361D01*
X141663155Y-89769748D01*
X141640516Y-89760370D01*
X141616483Y-89755590D01*
X141591979Y-89755590D01*
X141567945Y-89760370D01*
X141559451Y-89763410D01*
X141471521Y-89780900D01*
X141382679Y-89780900D01*
X141295548Y-89763569D01*
X141213473Y-89729572D01*
X141213472Y-89729572D01*
X141213471Y-89729571D01*
X141139604Y-89680214D01*
X141076786Y-89617396D01*
X141027429Y-89543529D01*
X141027428Y-89543527D01*
X140993431Y-89461452D01*
X140976100Y-89374321D01*
X140976100Y-89285479D01*
X140993431Y-89198348D01*
X141027428Y-89116273D01*
X141076785Y-89042405D01*
X141139605Y-88979585D01*
X141176287Y-88955075D01*
X141213471Y-88930229D01*
X141213473Y-88930228D01*
X141295548Y-88896231D01*
X141382679Y-88878900D01*
X141471521Y-88878900D01*
X141558652Y-88896231D01*
G37*
G36*
X139124815Y-90087958D02*
G01*
X139220853Y-90117091D01*
X139236035Y-90121696D01*
X139242822Y-90123755D01*
X139351568Y-90181881D01*
X139446890Y-90260110D01*
X139525119Y-90355432D01*
X139583245Y-90464178D01*
X139619042Y-90582185D01*
X139631128Y-90704900D01*
X139619042Y-90827615D01*
X139583245Y-90945622D01*
X139525119Y-91054368D01*
X139446890Y-91149690D01*
X139351568Y-91227919D01*
X139242822Y-91286045D01*
X139124815Y-91321842D01*
X139032846Y-91330900D01*
X138321354Y-91330900D01*
X138229385Y-91321842D01*
X138111378Y-91286045D01*
X138002632Y-91227919D01*
X137907310Y-91149690D01*
X137829081Y-91054368D01*
X137770955Y-90945622D01*
X137735158Y-90827615D01*
X137723072Y-90704900D01*
X137735158Y-90582185D01*
X137770955Y-90464178D01*
X137829081Y-90355432D01*
X137907310Y-90260110D01*
X138002632Y-90181881D01*
X138111378Y-90123755D01*
X138118166Y-90121696D01*
X138133347Y-90117091D01*
X138229385Y-90087958D01*
X138321354Y-90078900D01*
X139032846Y-90078900D01*
X139124815Y-90087958D01*
G37*
G36*
X99173512Y-88003927D02*
G01*
X99322812Y-88033624D01*
X99486784Y-88101544D01*
X99634354Y-88200147D01*
X99759853Y-88325646D01*
X99858456Y-88473216D01*
X99926376Y-88637188D01*
X99961000Y-88811259D01*
X99961000Y-88988741D01*
X99926376Y-89162812D01*
X99858456Y-89326784D01*
X99759853Y-89474354D01*
X99634354Y-89599853D01*
X99486784Y-89698456D01*
X99322812Y-89766376D01*
X99173512Y-89796073D01*
X99148742Y-89801000D01*
X98971258Y-89801000D01*
X98946488Y-89796073D01*
X98797188Y-89766376D01*
X98633216Y-89698456D01*
X98485646Y-89599853D01*
X98360147Y-89474354D01*
X98261544Y-89326784D01*
X98193624Y-89162812D01*
X98159000Y-88988741D01*
X98159000Y-88811259D01*
X98193624Y-88637188D01*
X98261544Y-88473216D01*
X98360147Y-88325646D01*
X98485646Y-88200147D01*
X98633216Y-88101544D01*
X98797188Y-88033624D01*
X98946488Y-88003927D01*
X98971258Y-87999000D01*
X99148742Y-87999000D01*
X99173512Y-88003927D01*
G37*
G36*
X142904221Y-82340128D02*
G01*
X143050502Y-82384502D01*
X143185304Y-82456555D01*
X143185307Y-82456557D01*
X143185308Y-82456558D01*
X143303469Y-82553531D01*
X143346063Y-82605431D01*
X143400445Y-82671696D01*
X143472498Y-82806498D01*
X143516872Y-82952779D01*
X143531854Y-83104900D01*
X143516872Y-83257021D01*
X143472498Y-83403302D01*
X143400445Y-83538104D01*
X143400443Y-83538107D01*
X143400442Y-83538108D01*
X143303469Y-83656269D01*
X143211216Y-83731980D01*
X143185304Y-83753245D01*
X143050502Y-83825298D01*
X142904221Y-83869672D01*
X142790218Y-83880900D01*
X142163982Y-83880900D01*
X142049979Y-83869672D01*
X141897764Y-83823498D01*
X141886539Y-83818848D01*
X141862505Y-83814067D01*
X141838001Y-83814067D01*
X141813968Y-83818846D01*
X141791329Y-83828223D01*
X141770954Y-83841836D01*
X141753627Y-83859163D01*
X141740012Y-83879537D01*
X141730634Y-83902175D01*
X141725853Y-83926209D01*
X141725853Y-83950713D01*
X141730632Y-83974746D01*
X141740009Y-83997385D01*
X141753622Y-84017760D01*
X141761862Y-84026852D01*
X141777415Y-84042405D01*
X141826772Y-84116273D01*
X141860769Y-84198348D01*
X141878100Y-84285479D01*
X141878100Y-84374321D01*
X141860769Y-84461452D01*
X141826772Y-84543527D01*
X141826771Y-84543529D01*
X141777414Y-84617396D01*
X141714596Y-84680214D01*
X141640729Y-84729571D01*
X141640728Y-84729572D01*
X141640727Y-84729572D01*
X141558652Y-84763569D01*
X141471521Y-84780900D01*
X141382679Y-84780900D01*
X141295548Y-84763569D01*
X141213473Y-84729572D01*
X141213472Y-84729572D01*
X141213471Y-84729571D01*
X141139604Y-84680214D01*
X141076786Y-84617396D01*
X141027429Y-84543529D01*
X141027428Y-84543527D01*
X140993431Y-84461452D01*
X140976100Y-84374321D01*
X140976100Y-84285479D01*
X140993431Y-84198348D01*
X141027428Y-84116273D01*
X141076785Y-84042405D01*
X141139605Y-83979585D01*
X141182815Y-83950713D01*
X141213471Y-83930229D01*
X141223176Y-83926209D01*
X141295548Y-83896231D01*
X141382679Y-83878900D01*
X141471521Y-83878900D01*
X141561046Y-83896707D01*
X141579843Y-83902410D01*
X141604229Y-83904812D01*
X141628615Y-83902411D01*
X141652064Y-83895298D01*
X141673675Y-83883747D01*
X141692617Y-83868202D01*
X141708163Y-83849261D01*
X141719714Y-83827650D01*
X141726828Y-83804201D01*
X141729230Y-83779815D01*
X141726829Y-83755429D01*
X141719716Y-83731980D01*
X141708165Y-83710369D01*
X141692620Y-83691427D01*
X141683530Y-83683188D01*
X141650733Y-83656272D01*
X141553755Y-83538104D01*
X141481702Y-83403302D01*
X141437328Y-83257021D01*
X141422346Y-83104900D01*
X141437328Y-82952779D01*
X141481702Y-82806498D01*
X141553755Y-82671696D01*
X141608138Y-82605431D01*
X141650731Y-82553531D01*
X141768892Y-82456558D01*
X141768893Y-82456557D01*
X141768896Y-82456555D01*
X141903698Y-82384502D01*
X142049979Y-82340128D01*
X142163982Y-82328900D01*
X142790218Y-82328900D01*
X142904221Y-82340128D01*
G37*
G36*
X139124815Y-82337958D02*
G01*
X139242822Y-82373755D01*
X139351568Y-82431881D01*
X139446890Y-82510110D01*
X139525119Y-82605432D01*
X139583245Y-82714178D01*
X139619042Y-82832185D01*
X139631128Y-82954900D01*
X139619042Y-83077615D01*
X139583245Y-83195622D01*
X139525119Y-83304368D01*
X139446890Y-83399690D01*
X139351568Y-83477919D01*
X139242822Y-83536045D01*
X139242819Y-83536046D01*
X139236021Y-83538108D01*
X139124815Y-83571842D01*
X139032846Y-83580900D01*
X138321354Y-83580900D01*
X138229385Y-83571842D01*
X138118179Y-83538108D01*
X138111381Y-83536046D01*
X138111378Y-83536045D01*
X138002632Y-83477919D01*
X137907310Y-83399690D01*
X137829081Y-83304368D01*
X137770955Y-83195622D01*
X137735158Y-83077615D01*
X137723072Y-82954900D01*
X137735158Y-82832185D01*
X137770955Y-82714178D01*
X137829081Y-82605432D01*
X137907310Y-82510110D01*
X138002632Y-82431881D01*
X138111378Y-82373755D01*
X138229385Y-82337958D01*
X138321354Y-82328900D01*
X139032846Y-82328900D01*
X139124815Y-82337958D01*
G37*
G36*
X143799000Y-80055800D02*
G01*
X141697000Y-80055800D01*
X141697000Y-77953800D01*
X143799000Y-77953800D01*
X143799000Y-80055800D01*
G37*
G36*
X70799039Y-76373750D02*
G01*
X70988372Y-76452175D01*
X71122251Y-76507629D01*
X71413134Y-76701991D01*
X71660509Y-76949366D01*
X71854871Y-77240249D01*
X71854871Y-77240250D01*
X71988750Y-77563461D01*
X72057000Y-77906578D01*
X72057000Y-78256422D01*
X71988750Y-78599539D01*
X71910325Y-78788872D01*
X71854871Y-78922751D01*
X71660509Y-79213634D01*
X71413134Y-79461009D01*
X71122251Y-79655371D01*
X70988372Y-79710825D01*
X70799039Y-79789250D01*
X70455922Y-79857500D01*
X70106078Y-79857500D01*
X69762961Y-79789250D01*
X69573628Y-79710825D01*
X69439749Y-79655371D01*
X69148866Y-79461009D01*
X68901491Y-79213634D01*
X68707129Y-78922751D01*
X68651675Y-78788872D01*
X68573250Y-78599539D01*
X68505000Y-78256422D01*
X68505000Y-77906578D01*
X68573250Y-77563461D01*
X68707129Y-77240250D01*
X68707129Y-77240249D01*
X68901491Y-76949366D01*
X69148866Y-76701991D01*
X69439749Y-76507629D01*
X69573628Y-76452175D01*
X69762961Y-76373750D01*
X70106078Y-76305500D01*
X70455922Y-76305500D01*
X70799039Y-76373750D01*
G37*
G36*
X143799000Y-75055800D02*
G01*
X141697000Y-75055800D01*
X141697000Y-72953800D01*
X143799000Y-72953800D01*
X143799000Y-75055800D01*
G37*
G36*
X125999039Y-60373750D02*
G01*
X126188372Y-60452175D01*
X126322251Y-60507629D01*
X126613134Y-60701991D01*
X126860509Y-60949366D01*
X127054871Y-61240249D01*
X127054871Y-61240250D01*
X127188750Y-61563461D01*
X127257000Y-61906578D01*
X127257000Y-62256422D01*
X127188750Y-62599539D01*
X127158859Y-62671701D01*
X127054871Y-62922751D01*
X126860509Y-63213634D01*
X126613134Y-63461009D01*
X126322251Y-63655371D01*
X126188372Y-63710825D01*
X125999039Y-63789250D01*
X125655922Y-63857500D01*
X125306078Y-63857500D01*
X124962961Y-63789250D01*
X124773628Y-63710825D01*
X124639749Y-63655371D01*
X124348866Y-63461009D01*
X124101491Y-63213634D01*
X123907129Y-62922751D01*
X123803141Y-62671701D01*
X123773250Y-62599539D01*
X123705000Y-62256422D01*
X123705000Y-61906578D01*
X123773250Y-61563461D01*
X123907129Y-61240250D01*
X123907129Y-61240249D01*
X124101491Y-60949366D01*
X124348866Y-60701991D01*
X124639749Y-60507629D01*
X124773628Y-60452175D01*
X124962961Y-60373750D01*
X125306078Y-60305500D01*
X125655922Y-60305500D01*
X125999039Y-60373750D01*
G37*
G36*
X62314444Y-60883382D02*
G01*
X62541201Y-60977308D01*
X62541202Y-60977309D01*
X62745279Y-61113668D01*
X62918832Y-61287221D01*
X63009944Y-61423581D01*
X63055192Y-61491299D01*
X63149118Y-61718056D01*
X63197000Y-61958778D01*
X63197000Y-62204222D01*
X63149118Y-62444944D01*
X63055192Y-62671701D01*
X63055191Y-62671702D01*
X62918832Y-62875779D01*
X62745279Y-63049332D01*
X62608919Y-63140444D01*
X62541201Y-63185692D01*
X62314444Y-63279618D01*
X62073722Y-63327500D01*
X61828278Y-63327500D01*
X61587556Y-63279618D01*
X61360799Y-63185692D01*
X61293081Y-63140444D01*
X61156721Y-63049332D01*
X60983168Y-62875779D01*
X60846809Y-62671702D01*
X60846808Y-62671701D01*
X60752882Y-62444944D01*
X60705000Y-62204222D01*
X60705000Y-61958778D01*
X60752882Y-61718056D01*
X60846808Y-61491299D01*
X60892056Y-61423581D01*
X60983168Y-61287221D01*
X61156721Y-61113668D01*
X61360798Y-60977309D01*
X61360799Y-60977308D01*
X61587556Y-60883382D01*
X61828278Y-60835500D01*
X62073722Y-60835500D01*
X62314444Y-60883382D01*
G37*
G36*
X70799039Y-53663750D02*
G01*
X70988372Y-53742175D01*
X71122251Y-53797629D01*
X71413134Y-53991991D01*
X71660509Y-54239366D01*
X71854871Y-54530249D01*
X71854871Y-54530250D01*
X71988750Y-54853461D01*
X72057000Y-55196578D01*
X72057000Y-55546422D01*
X71988750Y-55889539D01*
X71910325Y-56078872D01*
X71854871Y-56212751D01*
X71660509Y-56503634D01*
X71413134Y-56751009D01*
X71122251Y-56945371D01*
X70988372Y-57000825D01*
X70799039Y-57079250D01*
X70455922Y-57147500D01*
X70106078Y-57147500D01*
X69762961Y-57079250D01*
X69573628Y-57000825D01*
X69439749Y-56945371D01*
X69148866Y-56751009D01*
X68901491Y-56503634D01*
X68707129Y-56212751D01*
X68651675Y-56078872D01*
X68573250Y-55889539D01*
X68505000Y-55546422D01*
X68505000Y-55196578D01*
X68573250Y-54853461D01*
X68707129Y-54530250D01*
X68707129Y-54530249D01*
X68901491Y-54239366D01*
X69148866Y-53991991D01*
X69439749Y-53797629D01*
X69573628Y-53742175D01*
X69762961Y-53663750D01*
X70106078Y-53595500D01*
X70455922Y-53595500D01*
X70799039Y-53663750D01*
G37*
G36*
X141119351Y-38267308D02*
G01*
X141235679Y-38290447D01*
X141448137Y-38378450D01*
X141509019Y-38403668D01*
X141536142Y-38414903D01*
X141806551Y-38595585D01*
X142036515Y-38825549D01*
X142217197Y-39095958D01*
X142217198Y-39095960D01*
X142341653Y-39396422D01*
X142405100Y-39715389D01*
X142405100Y-40040611D01*
X142341653Y-40359578D01*
X142234819Y-40617500D01*
X142217197Y-40660042D01*
X142036515Y-40930451D01*
X141806551Y-41160415D01*
X141536142Y-41341097D01*
X141235679Y-41465553D01*
X141129356Y-41486702D01*
X140916711Y-41529000D01*
X140591489Y-41529000D01*
X140378844Y-41486702D01*
X140272521Y-41465553D01*
X139972058Y-41341097D01*
X139701649Y-41160415D01*
X139471685Y-40930451D01*
X139291003Y-40660042D01*
X139273382Y-40617500D01*
X139166547Y-40359578D01*
X139103100Y-40040611D01*
X139103100Y-39715389D01*
X139166547Y-39396422D01*
X139291002Y-39095960D01*
X139291003Y-39095958D01*
X139471685Y-38825549D01*
X139701649Y-38595585D01*
X139972058Y-38414903D01*
X139999182Y-38403668D01*
X140060063Y-38378450D01*
X140272521Y-38290447D01*
X140388849Y-38267308D01*
X140591489Y-38227000D01*
X140916711Y-38227000D01*
X141119351Y-38267308D01*
G37*
G36*
X125999039Y-37663750D02*
G01*
X126188372Y-37742175D01*
X126322251Y-37797629D01*
X126613134Y-37991991D01*
X126860509Y-38239366D01*
X127054871Y-38530249D01*
X127081934Y-38595585D01*
X127188750Y-38853461D01*
X127257000Y-39196578D01*
X127257000Y-39546422D01*
X127188750Y-39889539D01*
X127158859Y-39961701D01*
X127054871Y-40212751D01*
X126860509Y-40503634D01*
X126613134Y-40751009D01*
X126322251Y-40945371D01*
X126188372Y-41000825D01*
X125999039Y-41079250D01*
X125655922Y-41147500D01*
X125306078Y-41147500D01*
X124962961Y-41079250D01*
X124773628Y-41000825D01*
X124639749Y-40945371D01*
X124348866Y-40751009D01*
X124101491Y-40503634D01*
X123907129Y-40212751D01*
X123803141Y-39961701D01*
X123773250Y-39889539D01*
X123705000Y-39546422D01*
X123705000Y-39196578D01*
X123773250Y-38853461D01*
X123880066Y-38595585D01*
X123907129Y-38530249D01*
X124101491Y-38239366D01*
X124348866Y-37991991D01*
X124639749Y-37797629D01*
X124773628Y-37742175D01*
X124962961Y-37663750D01*
X125306078Y-37595500D01*
X125655922Y-37595500D01*
X125999039Y-37663750D01*
G37*
G36*
X62314444Y-38173382D02*
G01*
X62541201Y-38267308D01*
X62541202Y-38267309D01*
X62745279Y-38403668D01*
X62918832Y-38577221D01*
X62931102Y-38595585D01*
X63055192Y-38781299D01*
X63149118Y-39008056D01*
X63197000Y-39248778D01*
X63197000Y-39494222D01*
X63149118Y-39734944D01*
X63055192Y-39961701D01*
X63055191Y-39961702D01*
X62918832Y-40165779D01*
X62745279Y-40339332D01*
X62608919Y-40430444D01*
X62541201Y-40475692D01*
X62314444Y-40569618D01*
X62073722Y-40617500D01*
X61828278Y-40617500D01*
X61587556Y-40569618D01*
X61360799Y-40475692D01*
X61293081Y-40430444D01*
X61156721Y-40339332D01*
X60983168Y-40165779D01*
X60846809Y-39961702D01*
X60846808Y-39961701D01*
X60752882Y-39734944D01*
X60705000Y-39494222D01*
X60705000Y-39248778D01*
X60752882Y-39008056D01*
X60846808Y-38781299D01*
X60970898Y-38595585D01*
X60983168Y-38577221D01*
X61156721Y-38403668D01*
X61360798Y-38267309D01*
X61360799Y-38267308D01*
X61587556Y-38173382D01*
X61828278Y-38125500D01*
X62073722Y-38125500D01*
X62314444Y-38173382D01*
G37*
M02*
