M48
; DRILL file {KiCad (5.1.5)-3} date 14/03/2020 15:18:59
; FORMAT={-:-/ absolute / inch / decimal}
; #@! TF.CreationDate,2020-03-14T15:18:59+01:00
; #@! TF.GenerationSoftware,Kicad,Pcbnew,(5.1.5)-3
; #@! TF.FileFunction,Plated,1,2,PTH
FMAT,2
INCH
T1C0.0157
T2C0.0276
T3C0.0394
T4C0.1181
%
G90
G05
T1
X2.575Y11.85
X2.625Y12.075
X2.625Y11.8
X2.675Y12.125
X2.75Y12.1
X2.75Y11.525
X2.775Y12.05
X2.775Y11.975
X3.0Y11.65
X3.0Y11.575
T2
X1.8963Y11.325
X1.975Y11.325
X2.0537Y11.325
T3
X2.25Y12.225
X2.25Y12.125
X2.25Y12.025
X2.25Y11.925
X2.25Y11.825
X2.25Y11.725
X2.25Y11.625
X2.25Y11.525
X2.25Y11.425
X2.25Y11.325
X2.25Y11.225
T4
X1.825Y12.2
X3.125Y11.225
T0
M30
