G04 #@! TF.GenerationSoftware,KiCad,Pcbnew,(5.1.5)-3*
G04 #@! TF.CreationDate,2020-03-14T15:22:24+01:00*
G04 #@! TF.ProjectId,SesnorBoard,5365736e-6f72-4426-9f61-72642e6b6963,rev?*
G04 #@! TF.SameCoordinates,Original*
G04 #@! TF.FileFunction,Paste,Top*
G04 #@! TF.FilePolarity,Positive*
%FSLAX46Y46*%
G04 Gerber Fmt 4.6, Leading zero omitted, Abs format (unit mm)*
G04 Created by KiCad (PCBNEW (5.1.5)-3) date 2020-03-14 15:22:24*
%MOMM*%
%LPD*%
G04 APERTURE LIST*
%ADD10R,2.600000X0.800000*%
%ADD11R,3.600000X0.800000*%
%ADD12R,2.600000X0.700000*%
%ADD13R,1.400000X2.100000*%
%ADD14C,0.100000*%
%ADD15R,0.400000X0.600000*%
%ADD16R,2.200000X1.300000*%
%ADD17R,0.300000X1.000000*%
G04 APERTURE END LIST*
D10*
X78615000Y290410000D03*
X78615000Y301410000D03*
X72515000Y290410000D03*
D11*
X73015000Y301410000D03*
D12*
X72515000Y298450000D03*
X72515000Y297180000D03*
X72515000Y295910000D03*
X72515000Y294640000D03*
X72515000Y293370000D03*
X78615000Y293370000D03*
X78615000Y294640000D03*
X78615000Y295910000D03*
X78615000Y297180000D03*
X78615000Y298450000D03*
D13*
X48260000Y292735000D03*
X52660000Y292735000D03*
D14*
G36*
X66179504Y287893796D02*
G01*
X66203773Y287890196D01*
X66227571Y287884235D01*
X66250671Y287875970D01*
X66272849Y287865480D01*
X66293893Y287852867D01*
X66313598Y287838253D01*
X66331777Y287821777D01*
X66348253Y287803598D01*
X66362867Y287783893D01*
X66375480Y287762849D01*
X66385970Y287740671D01*
X66394235Y287717571D01*
X66400196Y287693773D01*
X66403796Y287669504D01*
X66405000Y287645000D01*
X66405000Y286395000D01*
X66403796Y286370496D01*
X66400196Y286346227D01*
X66394235Y286322429D01*
X66385970Y286299329D01*
X66375480Y286277151D01*
X66362867Y286256107D01*
X66348253Y286236402D01*
X66331777Y286218223D01*
X66313598Y286201747D01*
X66293893Y286187133D01*
X66272849Y286174520D01*
X66250671Y286164030D01*
X66227571Y286155765D01*
X66203773Y286149804D01*
X66179504Y286146204D01*
X66155000Y286145000D01*
X65405000Y286145000D01*
X65380496Y286146204D01*
X65356227Y286149804D01*
X65332429Y286155765D01*
X65309329Y286164030D01*
X65287151Y286174520D01*
X65266107Y286187133D01*
X65246402Y286201747D01*
X65228223Y286218223D01*
X65211747Y286236402D01*
X65197133Y286256107D01*
X65184520Y286277151D01*
X65174030Y286299329D01*
X65165765Y286322429D01*
X65159804Y286346227D01*
X65156204Y286370496D01*
X65155000Y286395000D01*
X65155000Y287645000D01*
X65156204Y287669504D01*
X65159804Y287693773D01*
X65165765Y287717571D01*
X65174030Y287740671D01*
X65184520Y287762849D01*
X65197133Y287783893D01*
X65211747Y287803598D01*
X65228223Y287821777D01*
X65246402Y287838253D01*
X65266107Y287852867D01*
X65287151Y287865480D01*
X65309329Y287875970D01*
X65332429Y287884235D01*
X65356227Y287890196D01*
X65380496Y287893796D01*
X65405000Y287895000D01*
X66155000Y287895000D01*
X66179504Y287893796D01*
G37*
G36*
X68979504Y287893796D02*
G01*
X69003773Y287890196D01*
X69027571Y287884235D01*
X69050671Y287875970D01*
X69072849Y287865480D01*
X69093893Y287852867D01*
X69113598Y287838253D01*
X69131777Y287821777D01*
X69148253Y287803598D01*
X69162867Y287783893D01*
X69175480Y287762849D01*
X69185970Y287740671D01*
X69194235Y287717571D01*
X69200196Y287693773D01*
X69203796Y287669504D01*
X69205000Y287645000D01*
X69205000Y286395000D01*
X69203796Y286370496D01*
X69200196Y286346227D01*
X69194235Y286322429D01*
X69185970Y286299329D01*
X69175480Y286277151D01*
X69162867Y286256107D01*
X69148253Y286236402D01*
X69131777Y286218223D01*
X69113598Y286201747D01*
X69093893Y286187133D01*
X69072849Y286174520D01*
X69050671Y286164030D01*
X69027571Y286155765D01*
X69003773Y286149804D01*
X68979504Y286146204D01*
X68955000Y286145000D01*
X68205000Y286145000D01*
X68180496Y286146204D01*
X68156227Y286149804D01*
X68132429Y286155765D01*
X68109329Y286164030D01*
X68087151Y286174520D01*
X68066107Y286187133D01*
X68046402Y286201747D01*
X68028223Y286218223D01*
X68011747Y286236402D01*
X67997133Y286256107D01*
X67984520Y286277151D01*
X67974030Y286299329D01*
X67965765Y286322429D01*
X67959804Y286346227D01*
X67956204Y286370496D01*
X67955000Y286395000D01*
X67955000Y287645000D01*
X67956204Y287669504D01*
X67959804Y287693773D01*
X67965765Y287717571D01*
X67974030Y287740671D01*
X67984520Y287762849D01*
X67997133Y287783893D01*
X68011747Y287803598D01*
X68028223Y287821777D01*
X68046402Y287838253D01*
X68066107Y287852867D01*
X68087151Y287865480D01*
X68109329Y287875970D01*
X68132429Y287884235D01*
X68156227Y287890196D01*
X68180496Y287893796D01*
X68205000Y287895000D01*
X68955000Y287895000D01*
X68979504Y287893796D01*
G37*
D15*
X68095000Y303115000D03*
X67495000Y305215000D03*
X68095000Y305215000D03*
X68695000Y305215000D03*
X69295000Y305215000D03*
X66895000Y305215000D03*
X68695000Y303115000D03*
X69295000Y303115000D03*
X67495000Y303115000D03*
X66895000Y303115000D03*
D16*
X67945000Y304165000D03*
D17*
X69195000Y304015000D03*
D14*
G36*
X69045000Y304815000D02*
G01*
X69345000Y304515000D01*
X69345000Y303815000D01*
X69045000Y303515000D01*
X69045000Y304815000D01*
G37*
G36*
X50434504Y296148796D02*
G01*
X50458773Y296145196D01*
X50482571Y296139235D01*
X50505671Y296130970D01*
X50527849Y296120480D01*
X50548893Y296107867D01*
X50568598Y296093253D01*
X50586777Y296076777D01*
X50603253Y296058598D01*
X50617867Y296038893D01*
X50630480Y296017849D01*
X50640970Y295995671D01*
X50649235Y295972571D01*
X50655196Y295948773D01*
X50658796Y295924504D01*
X50660000Y295900000D01*
X50660000Y294650000D01*
X50658796Y294625496D01*
X50655196Y294601227D01*
X50649235Y294577429D01*
X50640970Y294554329D01*
X50630480Y294532151D01*
X50617867Y294511107D01*
X50603253Y294491402D01*
X50586777Y294473223D01*
X50568598Y294456747D01*
X50548893Y294442133D01*
X50527849Y294429520D01*
X50505671Y294419030D01*
X50482571Y294410765D01*
X50458773Y294404804D01*
X50434504Y294401204D01*
X50410000Y294400000D01*
X49660000Y294400000D01*
X49635496Y294401204D01*
X49611227Y294404804D01*
X49587429Y294410765D01*
X49564329Y294419030D01*
X49542151Y294429520D01*
X49521107Y294442133D01*
X49501402Y294456747D01*
X49483223Y294473223D01*
X49466747Y294491402D01*
X49452133Y294511107D01*
X49439520Y294532151D01*
X49429030Y294554329D01*
X49420765Y294577429D01*
X49414804Y294601227D01*
X49411204Y294625496D01*
X49410000Y294650000D01*
X49410000Y295900000D01*
X49411204Y295924504D01*
X49414804Y295948773D01*
X49420765Y295972571D01*
X49429030Y295995671D01*
X49439520Y296017849D01*
X49452133Y296038893D01*
X49466747Y296058598D01*
X49483223Y296076777D01*
X49501402Y296093253D01*
X49521107Y296107867D01*
X49542151Y296120480D01*
X49564329Y296130970D01*
X49587429Y296139235D01*
X49611227Y296145196D01*
X49635496Y296148796D01*
X49660000Y296150000D01*
X50410000Y296150000D01*
X50434504Y296148796D01*
G37*
G36*
X53234504Y296148796D02*
G01*
X53258773Y296145196D01*
X53282571Y296139235D01*
X53305671Y296130970D01*
X53327849Y296120480D01*
X53348893Y296107867D01*
X53368598Y296093253D01*
X53386777Y296076777D01*
X53403253Y296058598D01*
X53417867Y296038893D01*
X53430480Y296017849D01*
X53440970Y295995671D01*
X53449235Y295972571D01*
X53455196Y295948773D01*
X53458796Y295924504D01*
X53460000Y295900000D01*
X53460000Y294650000D01*
X53458796Y294625496D01*
X53455196Y294601227D01*
X53449235Y294577429D01*
X53440970Y294554329D01*
X53430480Y294532151D01*
X53417867Y294511107D01*
X53403253Y294491402D01*
X53386777Y294473223D01*
X53368598Y294456747D01*
X53348893Y294442133D01*
X53327849Y294429520D01*
X53305671Y294419030D01*
X53282571Y294410765D01*
X53258773Y294404804D01*
X53234504Y294401204D01*
X53210000Y294400000D01*
X52460000Y294400000D01*
X52435496Y294401204D01*
X52411227Y294404804D01*
X52387429Y294410765D01*
X52364329Y294419030D01*
X52342151Y294429520D01*
X52321107Y294442133D01*
X52301402Y294456747D01*
X52283223Y294473223D01*
X52266747Y294491402D01*
X52252133Y294511107D01*
X52239520Y294532151D01*
X52229030Y294554329D01*
X52220765Y294577429D01*
X52214804Y294601227D01*
X52211204Y294625496D01*
X52210000Y294650000D01*
X52210000Y295900000D01*
X52211204Y295924504D01*
X52214804Y295948773D01*
X52220765Y295972571D01*
X52229030Y295995671D01*
X52239520Y296017849D01*
X52252133Y296038893D01*
X52266747Y296058598D01*
X52283223Y296076777D01*
X52301402Y296093253D01*
X52321107Y296107867D01*
X52342151Y296120480D01*
X52364329Y296130970D01*
X52387429Y296139235D01*
X52411227Y296145196D01*
X52435496Y296148796D01*
X52460000Y296150000D01*
X53210000Y296150000D01*
X53234504Y296148796D01*
G37*
G36*
X50434504Y298688796D02*
G01*
X50458773Y298685196D01*
X50482571Y298679235D01*
X50505671Y298670970D01*
X50527849Y298660480D01*
X50548893Y298647867D01*
X50568598Y298633253D01*
X50586777Y298616777D01*
X50603253Y298598598D01*
X50617867Y298578893D01*
X50630480Y298557849D01*
X50640970Y298535671D01*
X50649235Y298512571D01*
X50655196Y298488773D01*
X50658796Y298464504D01*
X50660000Y298440000D01*
X50660000Y297190000D01*
X50658796Y297165496D01*
X50655196Y297141227D01*
X50649235Y297117429D01*
X50640970Y297094329D01*
X50630480Y297072151D01*
X50617867Y297051107D01*
X50603253Y297031402D01*
X50586777Y297013223D01*
X50568598Y296996747D01*
X50548893Y296982133D01*
X50527849Y296969520D01*
X50505671Y296959030D01*
X50482571Y296950765D01*
X50458773Y296944804D01*
X50434504Y296941204D01*
X50410000Y296940000D01*
X49660000Y296940000D01*
X49635496Y296941204D01*
X49611227Y296944804D01*
X49587429Y296950765D01*
X49564329Y296959030D01*
X49542151Y296969520D01*
X49521107Y296982133D01*
X49501402Y296996747D01*
X49483223Y297013223D01*
X49466747Y297031402D01*
X49452133Y297051107D01*
X49439520Y297072151D01*
X49429030Y297094329D01*
X49420765Y297117429D01*
X49414804Y297141227D01*
X49411204Y297165496D01*
X49410000Y297190000D01*
X49410000Y298440000D01*
X49411204Y298464504D01*
X49414804Y298488773D01*
X49420765Y298512571D01*
X49429030Y298535671D01*
X49439520Y298557849D01*
X49452133Y298578893D01*
X49466747Y298598598D01*
X49483223Y298616777D01*
X49501402Y298633253D01*
X49521107Y298647867D01*
X49542151Y298660480D01*
X49564329Y298670970D01*
X49587429Y298679235D01*
X49611227Y298685196D01*
X49635496Y298688796D01*
X49660000Y298690000D01*
X50410000Y298690000D01*
X50434504Y298688796D01*
G37*
G36*
X53234504Y298688796D02*
G01*
X53258773Y298685196D01*
X53282571Y298679235D01*
X53305671Y298670970D01*
X53327849Y298660480D01*
X53348893Y298647867D01*
X53368598Y298633253D01*
X53386777Y298616777D01*
X53403253Y298598598D01*
X53417867Y298578893D01*
X53430480Y298557849D01*
X53440970Y298535671D01*
X53449235Y298512571D01*
X53455196Y298488773D01*
X53458796Y298464504D01*
X53460000Y298440000D01*
X53460000Y297190000D01*
X53458796Y297165496D01*
X53455196Y297141227D01*
X53449235Y297117429D01*
X53440970Y297094329D01*
X53430480Y297072151D01*
X53417867Y297051107D01*
X53403253Y297031402D01*
X53386777Y297013223D01*
X53368598Y296996747D01*
X53348893Y296982133D01*
X53327849Y296969520D01*
X53305671Y296959030D01*
X53282571Y296950765D01*
X53258773Y296944804D01*
X53234504Y296941204D01*
X53210000Y296940000D01*
X52460000Y296940000D01*
X52435496Y296941204D01*
X52411227Y296944804D01*
X52387429Y296950765D01*
X52364329Y296959030D01*
X52342151Y296969520D01*
X52321107Y296982133D01*
X52301402Y296996747D01*
X52283223Y297013223D01*
X52266747Y297031402D01*
X52252133Y297051107D01*
X52239520Y297072151D01*
X52229030Y297094329D01*
X52220765Y297117429D01*
X52214804Y297141227D01*
X52211204Y297165496D01*
X52210000Y297190000D01*
X52210000Y298440000D01*
X52211204Y298464504D01*
X52214804Y298488773D01*
X52220765Y298512571D01*
X52229030Y298535671D01*
X52239520Y298557849D01*
X52252133Y298578893D01*
X52266747Y298598598D01*
X52283223Y298616777D01*
X52301402Y298633253D01*
X52321107Y298647867D01*
X52342151Y298660480D01*
X52364329Y298670970D01*
X52387429Y298679235D01*
X52411227Y298685196D01*
X52435496Y298688796D01*
X52460000Y298690000D01*
X53210000Y298690000D01*
X53234504Y298688796D01*
G37*
G36*
X65419504Y306188796D02*
G01*
X65443773Y306185196D01*
X65467571Y306179235D01*
X65490671Y306170970D01*
X65512849Y306160480D01*
X65533893Y306147867D01*
X65553598Y306133253D01*
X65571777Y306116777D01*
X65588253Y306098598D01*
X65602867Y306078893D01*
X65615480Y306057849D01*
X65625970Y306035671D01*
X65634235Y306012571D01*
X65640196Y305988773D01*
X65643796Y305964504D01*
X65645000Y305940000D01*
X65645000Y305190000D01*
X65643796Y305165496D01*
X65640196Y305141227D01*
X65634235Y305117429D01*
X65625970Y305094329D01*
X65615480Y305072151D01*
X65602867Y305051107D01*
X65588253Y305031402D01*
X65571777Y305013223D01*
X65553598Y304996747D01*
X65533893Y304982133D01*
X65512849Y304969520D01*
X65490671Y304959030D01*
X65467571Y304950765D01*
X65443773Y304944804D01*
X65419504Y304941204D01*
X65395000Y304940000D01*
X64145000Y304940000D01*
X64120496Y304941204D01*
X64096227Y304944804D01*
X64072429Y304950765D01*
X64049329Y304959030D01*
X64027151Y304969520D01*
X64006107Y304982133D01*
X63986402Y304996747D01*
X63968223Y305013223D01*
X63951747Y305031402D01*
X63937133Y305051107D01*
X63924520Y305072151D01*
X63914030Y305094329D01*
X63905765Y305117429D01*
X63899804Y305141227D01*
X63896204Y305165496D01*
X63895000Y305190000D01*
X63895000Y305940000D01*
X63896204Y305964504D01*
X63899804Y305988773D01*
X63905765Y306012571D01*
X63914030Y306035671D01*
X63924520Y306057849D01*
X63937133Y306078893D01*
X63951747Y306098598D01*
X63968223Y306116777D01*
X63986402Y306133253D01*
X64006107Y306147867D01*
X64027151Y306160480D01*
X64049329Y306170970D01*
X64072429Y306179235D01*
X64096227Y306185196D01*
X64120496Y306188796D01*
X64145000Y306190000D01*
X65395000Y306190000D01*
X65419504Y306188796D01*
G37*
G36*
X65419504Y303388796D02*
G01*
X65443773Y303385196D01*
X65467571Y303379235D01*
X65490671Y303370970D01*
X65512849Y303360480D01*
X65533893Y303347867D01*
X65553598Y303333253D01*
X65571777Y303316777D01*
X65588253Y303298598D01*
X65602867Y303278893D01*
X65615480Y303257849D01*
X65625970Y303235671D01*
X65634235Y303212571D01*
X65640196Y303188773D01*
X65643796Y303164504D01*
X65645000Y303140000D01*
X65645000Y302390000D01*
X65643796Y302365496D01*
X65640196Y302341227D01*
X65634235Y302317429D01*
X65625970Y302294329D01*
X65615480Y302272151D01*
X65602867Y302251107D01*
X65588253Y302231402D01*
X65571777Y302213223D01*
X65553598Y302196747D01*
X65533893Y302182133D01*
X65512849Y302169520D01*
X65490671Y302159030D01*
X65467571Y302150765D01*
X65443773Y302144804D01*
X65419504Y302141204D01*
X65395000Y302140000D01*
X64145000Y302140000D01*
X64120496Y302141204D01*
X64096227Y302144804D01*
X64072429Y302150765D01*
X64049329Y302159030D01*
X64027151Y302169520D01*
X64006107Y302182133D01*
X63986402Y302196747D01*
X63968223Y302213223D01*
X63951747Y302231402D01*
X63937133Y302251107D01*
X63924520Y302272151D01*
X63914030Y302294329D01*
X63905765Y302317429D01*
X63899804Y302341227D01*
X63896204Y302365496D01*
X63895000Y302390000D01*
X63895000Y303140000D01*
X63896204Y303164504D01*
X63899804Y303188773D01*
X63905765Y303212571D01*
X63914030Y303235671D01*
X63924520Y303257849D01*
X63937133Y303278893D01*
X63951747Y303298598D01*
X63968223Y303316777D01*
X63986402Y303333253D01*
X64006107Y303347867D01*
X64027151Y303360480D01*
X64049329Y303370970D01*
X64072429Y303379235D01*
X64096227Y303385196D01*
X64120496Y303388796D01*
X64145000Y303390000D01*
X65395000Y303390000D01*
X65419504Y303388796D01*
G37*
G36*
X66179504Y290433796D02*
G01*
X66203773Y290430196D01*
X66227571Y290424235D01*
X66250671Y290415970D01*
X66272849Y290405480D01*
X66293893Y290392867D01*
X66313598Y290378253D01*
X66331777Y290361777D01*
X66348253Y290343598D01*
X66362867Y290323893D01*
X66375480Y290302849D01*
X66385970Y290280671D01*
X66394235Y290257571D01*
X66400196Y290233773D01*
X66403796Y290209504D01*
X66405000Y290185000D01*
X66405000Y288935000D01*
X66403796Y288910496D01*
X66400196Y288886227D01*
X66394235Y288862429D01*
X66385970Y288839329D01*
X66375480Y288817151D01*
X66362867Y288796107D01*
X66348253Y288776402D01*
X66331777Y288758223D01*
X66313598Y288741747D01*
X66293893Y288727133D01*
X66272849Y288714520D01*
X66250671Y288704030D01*
X66227571Y288695765D01*
X66203773Y288689804D01*
X66179504Y288686204D01*
X66155000Y288685000D01*
X65405000Y288685000D01*
X65380496Y288686204D01*
X65356227Y288689804D01*
X65332429Y288695765D01*
X65309329Y288704030D01*
X65287151Y288714520D01*
X65266107Y288727133D01*
X65246402Y288741747D01*
X65228223Y288758223D01*
X65211747Y288776402D01*
X65197133Y288796107D01*
X65184520Y288817151D01*
X65174030Y288839329D01*
X65165765Y288862429D01*
X65159804Y288886227D01*
X65156204Y288910496D01*
X65155000Y288935000D01*
X65155000Y290185000D01*
X65156204Y290209504D01*
X65159804Y290233773D01*
X65165765Y290257571D01*
X65174030Y290280671D01*
X65184520Y290302849D01*
X65197133Y290323893D01*
X65211747Y290343598D01*
X65228223Y290361777D01*
X65246402Y290378253D01*
X65266107Y290392867D01*
X65287151Y290405480D01*
X65309329Y290415970D01*
X65332429Y290424235D01*
X65356227Y290430196D01*
X65380496Y290433796D01*
X65405000Y290435000D01*
X66155000Y290435000D01*
X66179504Y290433796D01*
G37*
G36*
X68979504Y290433796D02*
G01*
X69003773Y290430196D01*
X69027571Y290424235D01*
X69050671Y290415970D01*
X69072849Y290405480D01*
X69093893Y290392867D01*
X69113598Y290378253D01*
X69131777Y290361777D01*
X69148253Y290343598D01*
X69162867Y290323893D01*
X69175480Y290302849D01*
X69185970Y290280671D01*
X69194235Y290257571D01*
X69200196Y290233773D01*
X69203796Y290209504D01*
X69205000Y290185000D01*
X69205000Y288935000D01*
X69203796Y288910496D01*
X69200196Y288886227D01*
X69194235Y288862429D01*
X69185970Y288839329D01*
X69175480Y288817151D01*
X69162867Y288796107D01*
X69148253Y288776402D01*
X69131777Y288758223D01*
X69113598Y288741747D01*
X69093893Y288727133D01*
X69072849Y288714520D01*
X69050671Y288704030D01*
X69027571Y288695765D01*
X69003773Y288689804D01*
X68979504Y288686204D01*
X68955000Y288685000D01*
X68205000Y288685000D01*
X68180496Y288686204D01*
X68156227Y288689804D01*
X68132429Y288695765D01*
X68109329Y288704030D01*
X68087151Y288714520D01*
X68066107Y288727133D01*
X68046402Y288741747D01*
X68028223Y288758223D01*
X68011747Y288776402D01*
X67997133Y288796107D01*
X67984520Y288817151D01*
X67974030Y288839329D01*
X67965765Y288862429D01*
X67959804Y288886227D01*
X67956204Y288910496D01*
X67955000Y288935000D01*
X67955000Y290185000D01*
X67956204Y290209504D01*
X67959804Y290233773D01*
X67965765Y290257571D01*
X67974030Y290280671D01*
X67984520Y290302849D01*
X67997133Y290323893D01*
X68011747Y290343598D01*
X68028223Y290361777D01*
X68046402Y290378253D01*
X68066107Y290392867D01*
X68087151Y290405480D01*
X68109329Y290415970D01*
X68132429Y290424235D01*
X68156227Y290430196D01*
X68180496Y290433796D01*
X68205000Y290435000D01*
X68955000Y290435000D01*
X68979504Y290433796D01*
G37*
M02*
