G04 #@! TF.GenerationSoftware,KiCad,Pcbnew,(5.1.5)-3*
G04 #@! TF.CreationDate,2020-03-14T15:22:24+01:00*
G04 #@! TF.ProjectId,SesnorBoard,5365736e-6f72-4426-9f61-72642e6b6963,rev?*
G04 #@! TF.SameCoordinates,Original*
G04 #@! TF.FileFunction,Copper,L2,Bot*
G04 #@! TF.FilePolarity,Positive*
%FSLAX46Y46*%
G04 Gerber Fmt 4.6, Leading zero omitted, Abs format (unit mm)*
G04 Created by KiCad (PCBNEW (5.1.5)-3) date 2020-03-14 15:22:24*
%MOMM*%
%LPD*%
G04 APERTURE LIST*
%ADD10O,1.700000X1.700000*%
%ADD11R,1.700000X1.700000*%
%ADD12C,0.100000*%
%ADD13R,0.650000X0.400000*%
%ADD14O,1.350000X1.350000*%
%ADD15R,1.350000X1.350000*%
%ADD16C,4.000000*%
%ADD17C,0.800000*%
%ADD18C,0.250000*%
%ADD19C,0.254000*%
G04 APERTURE END LIST*
D10*
X57150000Y310515000D03*
X57150000Y307975000D03*
X57150000Y305435000D03*
X57150000Y302895000D03*
X57150000Y300355000D03*
X57150000Y297815000D03*
X57150000Y295275000D03*
X57150000Y292735000D03*
X57150000Y290195000D03*
X57150000Y287655000D03*
D11*
X57150000Y285115000D03*
G04 #@! TA.AperFunction,SMDPad,CuDef*
D12*
G36*
X70754504Y301228796D02*
G01*
X70778773Y301225196D01*
X70802571Y301219235D01*
X70825671Y301210970D01*
X70847849Y301200480D01*
X70868893Y301187867D01*
X70888598Y301173253D01*
X70906777Y301156777D01*
X70923253Y301138598D01*
X70937867Y301118893D01*
X70950480Y301097849D01*
X70960970Y301075671D01*
X70969235Y301052571D01*
X70975196Y301028773D01*
X70978796Y301004504D01*
X70980000Y300980000D01*
X70980000Y299730000D01*
X70978796Y299705496D01*
X70975196Y299681227D01*
X70969235Y299657429D01*
X70960970Y299634329D01*
X70950480Y299612151D01*
X70937867Y299591107D01*
X70923253Y299571402D01*
X70906777Y299553223D01*
X70888598Y299536747D01*
X70868893Y299522133D01*
X70847849Y299509520D01*
X70825671Y299499030D01*
X70802571Y299490765D01*
X70778773Y299484804D01*
X70754504Y299481204D01*
X70730000Y299480000D01*
X69980000Y299480000D01*
X69955496Y299481204D01*
X69931227Y299484804D01*
X69907429Y299490765D01*
X69884329Y299499030D01*
X69862151Y299509520D01*
X69841107Y299522133D01*
X69821402Y299536747D01*
X69803223Y299553223D01*
X69786747Y299571402D01*
X69772133Y299591107D01*
X69759520Y299612151D01*
X69749030Y299634329D01*
X69740765Y299657429D01*
X69734804Y299681227D01*
X69731204Y299705496D01*
X69730000Y299730000D01*
X69730000Y300980000D01*
X69731204Y301004504D01*
X69734804Y301028773D01*
X69740765Y301052571D01*
X69749030Y301075671D01*
X69759520Y301097849D01*
X69772133Y301118893D01*
X69786747Y301138598D01*
X69803223Y301156777D01*
X69821402Y301173253D01*
X69841107Y301187867D01*
X69862151Y301200480D01*
X69884329Y301210970D01*
X69907429Y301219235D01*
X69931227Y301225196D01*
X69955496Y301228796D01*
X69980000Y301230000D01*
X70730000Y301230000D01*
X70754504Y301228796D01*
G37*
G04 #@! TD.AperFunction*
G04 #@! TA.AperFunction,SMDPad,CuDef*
G36*
X73554504Y301228796D02*
G01*
X73578773Y301225196D01*
X73602571Y301219235D01*
X73625671Y301210970D01*
X73647849Y301200480D01*
X73668893Y301187867D01*
X73688598Y301173253D01*
X73706777Y301156777D01*
X73723253Y301138598D01*
X73737867Y301118893D01*
X73750480Y301097849D01*
X73760970Y301075671D01*
X73769235Y301052571D01*
X73775196Y301028773D01*
X73778796Y301004504D01*
X73780000Y300980000D01*
X73780000Y299730000D01*
X73778796Y299705496D01*
X73775196Y299681227D01*
X73769235Y299657429D01*
X73760970Y299634329D01*
X73750480Y299612151D01*
X73737867Y299591107D01*
X73723253Y299571402D01*
X73706777Y299553223D01*
X73688598Y299536747D01*
X73668893Y299522133D01*
X73647849Y299509520D01*
X73625671Y299499030D01*
X73602571Y299490765D01*
X73578773Y299484804D01*
X73554504Y299481204D01*
X73530000Y299480000D01*
X72780000Y299480000D01*
X72755496Y299481204D01*
X72731227Y299484804D01*
X72707429Y299490765D01*
X72684329Y299499030D01*
X72662151Y299509520D01*
X72641107Y299522133D01*
X72621402Y299536747D01*
X72603223Y299553223D01*
X72586747Y299571402D01*
X72572133Y299591107D01*
X72559520Y299612151D01*
X72549030Y299634329D01*
X72540765Y299657429D01*
X72534804Y299681227D01*
X72531204Y299705496D01*
X72530000Y299730000D01*
X72530000Y300980000D01*
X72531204Y301004504D01*
X72534804Y301028773D01*
X72540765Y301052571D01*
X72549030Y301075671D01*
X72559520Y301097849D01*
X72572133Y301118893D01*
X72586747Y301138598D01*
X72603223Y301156777D01*
X72621402Y301173253D01*
X72641107Y301187867D01*
X72662151Y301200480D01*
X72684329Y301210970D01*
X72707429Y301219235D01*
X72731227Y301225196D01*
X72755496Y301228796D01*
X72780000Y301230000D01*
X73530000Y301230000D01*
X73554504Y301228796D01*
G37*
G04 #@! TD.AperFunction*
G04 #@! TA.AperFunction,SMDPad,CuDef*
G36*
X73554504Y298688796D02*
G01*
X73578773Y298685196D01*
X73602571Y298679235D01*
X73625671Y298670970D01*
X73647849Y298660480D01*
X73668893Y298647867D01*
X73688598Y298633253D01*
X73706777Y298616777D01*
X73723253Y298598598D01*
X73737867Y298578893D01*
X73750480Y298557849D01*
X73760970Y298535671D01*
X73769235Y298512571D01*
X73775196Y298488773D01*
X73778796Y298464504D01*
X73780000Y298440000D01*
X73780000Y297190000D01*
X73778796Y297165496D01*
X73775196Y297141227D01*
X73769235Y297117429D01*
X73760970Y297094329D01*
X73750480Y297072151D01*
X73737867Y297051107D01*
X73723253Y297031402D01*
X73706777Y297013223D01*
X73688598Y296996747D01*
X73668893Y296982133D01*
X73647849Y296969520D01*
X73625671Y296959030D01*
X73602571Y296950765D01*
X73578773Y296944804D01*
X73554504Y296941204D01*
X73530000Y296940000D01*
X72780000Y296940000D01*
X72755496Y296941204D01*
X72731227Y296944804D01*
X72707429Y296950765D01*
X72684329Y296959030D01*
X72662151Y296969520D01*
X72641107Y296982133D01*
X72621402Y296996747D01*
X72603223Y297013223D01*
X72586747Y297031402D01*
X72572133Y297051107D01*
X72559520Y297072151D01*
X72549030Y297094329D01*
X72540765Y297117429D01*
X72534804Y297141227D01*
X72531204Y297165496D01*
X72530000Y297190000D01*
X72530000Y298440000D01*
X72531204Y298464504D01*
X72534804Y298488773D01*
X72540765Y298512571D01*
X72549030Y298535671D01*
X72559520Y298557849D01*
X72572133Y298578893D01*
X72586747Y298598598D01*
X72603223Y298616777D01*
X72621402Y298633253D01*
X72641107Y298647867D01*
X72662151Y298660480D01*
X72684329Y298670970D01*
X72707429Y298679235D01*
X72731227Y298685196D01*
X72755496Y298688796D01*
X72780000Y298690000D01*
X73530000Y298690000D01*
X73554504Y298688796D01*
G37*
G04 #@! TD.AperFunction*
G04 #@! TA.AperFunction,SMDPad,CuDef*
G36*
X70754504Y298688796D02*
G01*
X70778773Y298685196D01*
X70802571Y298679235D01*
X70825671Y298670970D01*
X70847849Y298660480D01*
X70868893Y298647867D01*
X70888598Y298633253D01*
X70906777Y298616777D01*
X70923253Y298598598D01*
X70937867Y298578893D01*
X70950480Y298557849D01*
X70960970Y298535671D01*
X70969235Y298512571D01*
X70975196Y298488773D01*
X70978796Y298464504D01*
X70980000Y298440000D01*
X70980000Y297190000D01*
X70978796Y297165496D01*
X70975196Y297141227D01*
X70969235Y297117429D01*
X70960970Y297094329D01*
X70950480Y297072151D01*
X70937867Y297051107D01*
X70923253Y297031402D01*
X70906777Y297013223D01*
X70888598Y296996747D01*
X70868893Y296982133D01*
X70847849Y296969520D01*
X70825671Y296959030D01*
X70802571Y296950765D01*
X70778773Y296944804D01*
X70754504Y296941204D01*
X70730000Y296940000D01*
X69980000Y296940000D01*
X69955496Y296941204D01*
X69931227Y296944804D01*
X69907429Y296950765D01*
X69884329Y296959030D01*
X69862151Y296969520D01*
X69841107Y296982133D01*
X69821402Y296996747D01*
X69803223Y297013223D01*
X69786747Y297031402D01*
X69772133Y297051107D01*
X69759520Y297072151D01*
X69749030Y297094329D01*
X69740765Y297117429D01*
X69734804Y297141227D01*
X69731204Y297165496D01*
X69730000Y297190000D01*
X69730000Y298440000D01*
X69731204Y298464504D01*
X69734804Y298488773D01*
X69740765Y298512571D01*
X69749030Y298535671D01*
X69759520Y298557849D01*
X69772133Y298578893D01*
X69786747Y298598598D01*
X69803223Y298616777D01*
X69821402Y298633253D01*
X69841107Y298647867D01*
X69862151Y298660480D01*
X69884329Y298670970D01*
X69907429Y298679235D01*
X69931227Y298685196D01*
X69955496Y298688796D01*
X69980000Y298690000D01*
X70730000Y298690000D01*
X70754504Y298688796D01*
G37*
G04 #@! TD.AperFunction*
G04 #@! TA.AperFunction,SMDPad,CuDef*
G36*
X62879504Y300343796D02*
G01*
X62903773Y300340196D01*
X62927571Y300334235D01*
X62950671Y300325970D01*
X62972849Y300315480D01*
X62993893Y300302867D01*
X63013598Y300288253D01*
X63031777Y300271777D01*
X63048253Y300253598D01*
X63062867Y300233893D01*
X63075480Y300212849D01*
X63085970Y300190671D01*
X63094235Y300167571D01*
X63100196Y300143773D01*
X63103796Y300119504D01*
X63105000Y300095000D01*
X63105000Y299345000D01*
X63103796Y299320496D01*
X63100196Y299296227D01*
X63094235Y299272429D01*
X63085970Y299249329D01*
X63075480Y299227151D01*
X63062867Y299206107D01*
X63048253Y299186402D01*
X63031777Y299168223D01*
X63013598Y299151747D01*
X62993893Y299137133D01*
X62972849Y299124520D01*
X62950671Y299114030D01*
X62927571Y299105765D01*
X62903773Y299099804D01*
X62879504Y299096204D01*
X62855000Y299095000D01*
X61605000Y299095000D01*
X61580496Y299096204D01*
X61556227Y299099804D01*
X61532429Y299105765D01*
X61509329Y299114030D01*
X61487151Y299124520D01*
X61466107Y299137133D01*
X61446402Y299151747D01*
X61428223Y299168223D01*
X61411747Y299186402D01*
X61397133Y299206107D01*
X61384520Y299227151D01*
X61374030Y299249329D01*
X61365765Y299272429D01*
X61359804Y299296227D01*
X61356204Y299320496D01*
X61355000Y299345000D01*
X61355000Y300095000D01*
X61356204Y300119504D01*
X61359804Y300143773D01*
X61365765Y300167571D01*
X61374030Y300190671D01*
X61384520Y300212849D01*
X61397133Y300233893D01*
X61411747Y300253598D01*
X61428223Y300271777D01*
X61446402Y300288253D01*
X61466107Y300302867D01*
X61487151Y300315480D01*
X61509329Y300325970D01*
X61532429Y300334235D01*
X61556227Y300340196D01*
X61580496Y300343796D01*
X61605000Y300345000D01*
X62855000Y300345000D01*
X62879504Y300343796D01*
G37*
G04 #@! TD.AperFunction*
G04 #@! TA.AperFunction,SMDPad,CuDef*
G36*
X62879504Y297543796D02*
G01*
X62903773Y297540196D01*
X62927571Y297534235D01*
X62950671Y297525970D01*
X62972849Y297515480D01*
X62993893Y297502867D01*
X63013598Y297488253D01*
X63031777Y297471777D01*
X63048253Y297453598D01*
X63062867Y297433893D01*
X63075480Y297412849D01*
X63085970Y297390671D01*
X63094235Y297367571D01*
X63100196Y297343773D01*
X63103796Y297319504D01*
X63105000Y297295000D01*
X63105000Y296545000D01*
X63103796Y296520496D01*
X63100196Y296496227D01*
X63094235Y296472429D01*
X63085970Y296449329D01*
X63075480Y296427151D01*
X63062867Y296406107D01*
X63048253Y296386402D01*
X63031777Y296368223D01*
X63013598Y296351747D01*
X62993893Y296337133D01*
X62972849Y296324520D01*
X62950671Y296314030D01*
X62927571Y296305765D01*
X62903773Y296299804D01*
X62879504Y296296204D01*
X62855000Y296295000D01*
X61605000Y296295000D01*
X61580496Y296296204D01*
X61556227Y296299804D01*
X61532429Y296305765D01*
X61509329Y296314030D01*
X61487151Y296324520D01*
X61466107Y296337133D01*
X61446402Y296351747D01*
X61428223Y296368223D01*
X61411747Y296386402D01*
X61397133Y296406107D01*
X61384520Y296427151D01*
X61374030Y296449329D01*
X61365765Y296472429D01*
X61359804Y296496227D01*
X61356204Y296520496D01*
X61355000Y296545000D01*
X61355000Y297295000D01*
X61356204Y297319504D01*
X61359804Y297343773D01*
X61365765Y297367571D01*
X61374030Y297390671D01*
X61384520Y297412849D01*
X61397133Y297433893D01*
X61411747Y297453598D01*
X61428223Y297471777D01*
X61446402Y297488253D01*
X61466107Y297502867D01*
X61487151Y297515480D01*
X61509329Y297525970D01*
X61532429Y297534235D01*
X61556227Y297540196D01*
X61580496Y297543796D01*
X61605000Y297545000D01*
X62855000Y297545000D01*
X62879504Y297543796D01*
G37*
G04 #@! TD.AperFunction*
G04 #@! TA.AperFunction,SMDPad,CuDef*
G36*
X70754504Y296148796D02*
G01*
X70778773Y296145196D01*
X70802571Y296139235D01*
X70825671Y296130970D01*
X70847849Y296120480D01*
X70868893Y296107867D01*
X70888598Y296093253D01*
X70906777Y296076777D01*
X70923253Y296058598D01*
X70937867Y296038893D01*
X70950480Y296017849D01*
X70960970Y295995671D01*
X70969235Y295972571D01*
X70975196Y295948773D01*
X70978796Y295924504D01*
X70980000Y295900000D01*
X70980000Y294650000D01*
X70978796Y294625496D01*
X70975196Y294601227D01*
X70969235Y294577429D01*
X70960970Y294554329D01*
X70950480Y294532151D01*
X70937867Y294511107D01*
X70923253Y294491402D01*
X70906777Y294473223D01*
X70888598Y294456747D01*
X70868893Y294442133D01*
X70847849Y294429520D01*
X70825671Y294419030D01*
X70802571Y294410765D01*
X70778773Y294404804D01*
X70754504Y294401204D01*
X70730000Y294400000D01*
X69980000Y294400000D01*
X69955496Y294401204D01*
X69931227Y294404804D01*
X69907429Y294410765D01*
X69884329Y294419030D01*
X69862151Y294429520D01*
X69841107Y294442133D01*
X69821402Y294456747D01*
X69803223Y294473223D01*
X69786747Y294491402D01*
X69772133Y294511107D01*
X69759520Y294532151D01*
X69749030Y294554329D01*
X69740765Y294577429D01*
X69734804Y294601227D01*
X69731204Y294625496D01*
X69730000Y294650000D01*
X69730000Y295900000D01*
X69731204Y295924504D01*
X69734804Y295948773D01*
X69740765Y295972571D01*
X69749030Y295995671D01*
X69759520Y296017849D01*
X69772133Y296038893D01*
X69786747Y296058598D01*
X69803223Y296076777D01*
X69821402Y296093253D01*
X69841107Y296107867D01*
X69862151Y296120480D01*
X69884329Y296130970D01*
X69907429Y296139235D01*
X69931227Y296145196D01*
X69955496Y296148796D01*
X69980000Y296150000D01*
X70730000Y296150000D01*
X70754504Y296148796D01*
G37*
G04 #@! TD.AperFunction*
G04 #@! TA.AperFunction,SMDPad,CuDef*
G36*
X73554504Y296148796D02*
G01*
X73578773Y296145196D01*
X73602571Y296139235D01*
X73625671Y296130970D01*
X73647849Y296120480D01*
X73668893Y296107867D01*
X73688598Y296093253D01*
X73706777Y296076777D01*
X73723253Y296058598D01*
X73737867Y296038893D01*
X73750480Y296017849D01*
X73760970Y295995671D01*
X73769235Y295972571D01*
X73775196Y295948773D01*
X73778796Y295924504D01*
X73780000Y295900000D01*
X73780000Y294650000D01*
X73778796Y294625496D01*
X73775196Y294601227D01*
X73769235Y294577429D01*
X73760970Y294554329D01*
X73750480Y294532151D01*
X73737867Y294511107D01*
X73723253Y294491402D01*
X73706777Y294473223D01*
X73688598Y294456747D01*
X73668893Y294442133D01*
X73647849Y294429520D01*
X73625671Y294419030D01*
X73602571Y294410765D01*
X73578773Y294404804D01*
X73554504Y294401204D01*
X73530000Y294400000D01*
X72780000Y294400000D01*
X72755496Y294401204D01*
X72731227Y294404804D01*
X72707429Y294410765D01*
X72684329Y294419030D01*
X72662151Y294429520D01*
X72641107Y294442133D01*
X72621402Y294456747D01*
X72603223Y294473223D01*
X72586747Y294491402D01*
X72572133Y294511107D01*
X72559520Y294532151D01*
X72549030Y294554329D01*
X72540765Y294577429D01*
X72534804Y294601227D01*
X72531204Y294625496D01*
X72530000Y294650000D01*
X72530000Y295900000D01*
X72531204Y295924504D01*
X72534804Y295948773D01*
X72540765Y295972571D01*
X72549030Y295995671D01*
X72559520Y296017849D01*
X72572133Y296038893D01*
X72586747Y296058598D01*
X72603223Y296076777D01*
X72621402Y296093253D01*
X72641107Y296107867D01*
X72662151Y296120480D01*
X72684329Y296130970D01*
X72707429Y296139235D01*
X72731227Y296145196D01*
X72755496Y296148796D01*
X72780000Y296150000D01*
X73530000Y296150000D01*
X73554504Y296148796D01*
G37*
G04 #@! TD.AperFunction*
G04 #@! TA.AperFunction,SMDPad,CuDef*
G36*
X68604504Y294243796D02*
G01*
X68628773Y294240196D01*
X68652571Y294234235D01*
X68675671Y294225970D01*
X68697849Y294215480D01*
X68718893Y294202867D01*
X68738598Y294188253D01*
X68756777Y294171777D01*
X68773253Y294153598D01*
X68787867Y294133893D01*
X68800480Y294112849D01*
X68810970Y294090671D01*
X68819235Y294067571D01*
X68825196Y294043773D01*
X68828796Y294019504D01*
X68830000Y293995000D01*
X68830000Y292745000D01*
X68828796Y292720496D01*
X68825196Y292696227D01*
X68819235Y292672429D01*
X68810970Y292649329D01*
X68800480Y292627151D01*
X68787867Y292606107D01*
X68773253Y292586402D01*
X68756777Y292568223D01*
X68738598Y292551747D01*
X68718893Y292537133D01*
X68697849Y292524520D01*
X68675671Y292514030D01*
X68652571Y292505765D01*
X68628773Y292499804D01*
X68604504Y292496204D01*
X68580000Y292495000D01*
X67830000Y292495000D01*
X67805496Y292496204D01*
X67781227Y292499804D01*
X67757429Y292505765D01*
X67734329Y292514030D01*
X67712151Y292524520D01*
X67691107Y292537133D01*
X67671402Y292551747D01*
X67653223Y292568223D01*
X67636747Y292586402D01*
X67622133Y292606107D01*
X67609520Y292627151D01*
X67599030Y292649329D01*
X67590765Y292672429D01*
X67584804Y292696227D01*
X67581204Y292720496D01*
X67580000Y292745000D01*
X67580000Y293995000D01*
X67581204Y294019504D01*
X67584804Y294043773D01*
X67590765Y294067571D01*
X67599030Y294090671D01*
X67609520Y294112849D01*
X67622133Y294133893D01*
X67636747Y294153598D01*
X67653223Y294171777D01*
X67671402Y294188253D01*
X67691107Y294202867D01*
X67712151Y294215480D01*
X67734329Y294225970D01*
X67757429Y294234235D01*
X67781227Y294240196D01*
X67805496Y294243796D01*
X67830000Y294245000D01*
X68580000Y294245000D01*
X68604504Y294243796D01*
G37*
G04 #@! TD.AperFunction*
G04 #@! TA.AperFunction,SMDPad,CuDef*
G36*
X65804504Y294243796D02*
G01*
X65828773Y294240196D01*
X65852571Y294234235D01*
X65875671Y294225970D01*
X65897849Y294215480D01*
X65918893Y294202867D01*
X65938598Y294188253D01*
X65956777Y294171777D01*
X65973253Y294153598D01*
X65987867Y294133893D01*
X66000480Y294112849D01*
X66010970Y294090671D01*
X66019235Y294067571D01*
X66025196Y294043773D01*
X66028796Y294019504D01*
X66030000Y293995000D01*
X66030000Y292745000D01*
X66028796Y292720496D01*
X66025196Y292696227D01*
X66019235Y292672429D01*
X66010970Y292649329D01*
X66000480Y292627151D01*
X65987867Y292606107D01*
X65973253Y292586402D01*
X65956777Y292568223D01*
X65938598Y292551747D01*
X65918893Y292537133D01*
X65897849Y292524520D01*
X65875671Y292514030D01*
X65852571Y292505765D01*
X65828773Y292499804D01*
X65804504Y292496204D01*
X65780000Y292495000D01*
X65030000Y292495000D01*
X65005496Y292496204D01*
X64981227Y292499804D01*
X64957429Y292505765D01*
X64934329Y292514030D01*
X64912151Y292524520D01*
X64891107Y292537133D01*
X64871402Y292551747D01*
X64853223Y292568223D01*
X64836747Y292586402D01*
X64822133Y292606107D01*
X64809520Y292627151D01*
X64799030Y292649329D01*
X64790765Y292672429D01*
X64784804Y292696227D01*
X64781204Y292720496D01*
X64780000Y292745000D01*
X64780000Y293995000D01*
X64781204Y294019504D01*
X64784804Y294043773D01*
X64790765Y294067571D01*
X64799030Y294090671D01*
X64809520Y294112849D01*
X64822133Y294133893D01*
X64836747Y294153598D01*
X64853223Y294171777D01*
X64871402Y294188253D01*
X64891107Y294202867D01*
X64912151Y294215480D01*
X64934329Y294225970D01*
X64957429Y294234235D01*
X64981227Y294240196D01*
X65005496Y294243796D01*
X65030000Y294245000D01*
X65780000Y294245000D01*
X65804504Y294243796D01*
G37*
G04 #@! TD.AperFunction*
G04 #@! TA.AperFunction,SMDPad,CuDef*
G36*
X73674504Y306693796D02*
G01*
X73698773Y306690196D01*
X73722571Y306684235D01*
X73745671Y306675970D01*
X73767849Y306665480D01*
X73788893Y306652867D01*
X73808598Y306638253D01*
X73826777Y306621777D01*
X73843253Y306603598D01*
X73857867Y306583893D01*
X73870480Y306562849D01*
X73880970Y306540671D01*
X73889235Y306517571D01*
X73895196Y306493773D01*
X73898796Y306469504D01*
X73900000Y306445000D01*
X73900000Y305695000D01*
X73898796Y305670496D01*
X73895196Y305646227D01*
X73889235Y305622429D01*
X73880970Y305599329D01*
X73870480Y305577151D01*
X73857867Y305556107D01*
X73843253Y305536402D01*
X73826777Y305518223D01*
X73808598Y305501747D01*
X73788893Y305487133D01*
X73767849Y305474520D01*
X73745671Y305464030D01*
X73722571Y305455765D01*
X73698773Y305449804D01*
X73674504Y305446204D01*
X73650000Y305445000D01*
X72400000Y305445000D01*
X72375496Y305446204D01*
X72351227Y305449804D01*
X72327429Y305455765D01*
X72304329Y305464030D01*
X72282151Y305474520D01*
X72261107Y305487133D01*
X72241402Y305501747D01*
X72223223Y305518223D01*
X72206747Y305536402D01*
X72192133Y305556107D01*
X72179520Y305577151D01*
X72169030Y305599329D01*
X72160765Y305622429D01*
X72154804Y305646227D01*
X72151204Y305670496D01*
X72150000Y305695000D01*
X72150000Y306445000D01*
X72151204Y306469504D01*
X72154804Y306493773D01*
X72160765Y306517571D01*
X72169030Y306540671D01*
X72179520Y306562849D01*
X72192133Y306583893D01*
X72206747Y306603598D01*
X72223223Y306621777D01*
X72241402Y306638253D01*
X72261107Y306652867D01*
X72282151Y306665480D01*
X72304329Y306675970D01*
X72327429Y306684235D01*
X72351227Y306690196D01*
X72375496Y306693796D01*
X72400000Y306695000D01*
X73650000Y306695000D01*
X73674504Y306693796D01*
G37*
G04 #@! TD.AperFunction*
G04 #@! TA.AperFunction,SMDPad,CuDef*
G36*
X73674504Y303893796D02*
G01*
X73698773Y303890196D01*
X73722571Y303884235D01*
X73745671Y303875970D01*
X73767849Y303865480D01*
X73788893Y303852867D01*
X73808598Y303838253D01*
X73826777Y303821777D01*
X73843253Y303803598D01*
X73857867Y303783893D01*
X73870480Y303762849D01*
X73880970Y303740671D01*
X73889235Y303717571D01*
X73895196Y303693773D01*
X73898796Y303669504D01*
X73900000Y303645000D01*
X73900000Y302895000D01*
X73898796Y302870496D01*
X73895196Y302846227D01*
X73889235Y302822429D01*
X73880970Y302799329D01*
X73870480Y302777151D01*
X73857867Y302756107D01*
X73843253Y302736402D01*
X73826777Y302718223D01*
X73808598Y302701747D01*
X73788893Y302687133D01*
X73767849Y302674520D01*
X73745671Y302664030D01*
X73722571Y302655765D01*
X73698773Y302649804D01*
X73674504Y302646204D01*
X73650000Y302645000D01*
X72400000Y302645000D01*
X72375496Y302646204D01*
X72351227Y302649804D01*
X72327429Y302655765D01*
X72304329Y302664030D01*
X72282151Y302674520D01*
X72261107Y302687133D01*
X72241402Y302701747D01*
X72223223Y302718223D01*
X72206747Y302736402D01*
X72192133Y302756107D01*
X72179520Y302777151D01*
X72169030Y302799329D01*
X72160765Y302822429D01*
X72154804Y302846227D01*
X72151204Y302870496D01*
X72150000Y302895000D01*
X72150000Y303645000D01*
X72151204Y303669504D01*
X72154804Y303693773D01*
X72160765Y303717571D01*
X72169030Y303740671D01*
X72179520Y303762849D01*
X72192133Y303783893D01*
X72206747Y303803598D01*
X72223223Y303821777D01*
X72241402Y303838253D01*
X72261107Y303852867D01*
X72282151Y303865480D01*
X72304329Y303875970D01*
X72327429Y303884235D01*
X72351227Y303890196D01*
X72375496Y303893796D01*
X72400000Y303895000D01*
X73650000Y303895000D01*
X73674504Y303893796D01*
G37*
G04 #@! TD.AperFunction*
G04 #@! TA.AperFunction,SMDPad,CuDef*
G36*
X76214504Y309493796D02*
G01*
X76238773Y309490196D01*
X76262571Y309484235D01*
X76285671Y309475970D01*
X76307849Y309465480D01*
X76328893Y309452867D01*
X76348598Y309438253D01*
X76366777Y309421777D01*
X76383253Y309403598D01*
X76397867Y309383893D01*
X76410480Y309362849D01*
X76420970Y309340671D01*
X76429235Y309317571D01*
X76435196Y309293773D01*
X76438796Y309269504D01*
X76440000Y309245000D01*
X76440000Y308495000D01*
X76438796Y308470496D01*
X76435196Y308446227D01*
X76429235Y308422429D01*
X76420970Y308399329D01*
X76410480Y308377151D01*
X76397867Y308356107D01*
X76383253Y308336402D01*
X76366777Y308318223D01*
X76348598Y308301747D01*
X76328893Y308287133D01*
X76307849Y308274520D01*
X76285671Y308264030D01*
X76262571Y308255765D01*
X76238773Y308249804D01*
X76214504Y308246204D01*
X76190000Y308245000D01*
X74940000Y308245000D01*
X74915496Y308246204D01*
X74891227Y308249804D01*
X74867429Y308255765D01*
X74844329Y308264030D01*
X74822151Y308274520D01*
X74801107Y308287133D01*
X74781402Y308301747D01*
X74763223Y308318223D01*
X74746747Y308336402D01*
X74732133Y308356107D01*
X74719520Y308377151D01*
X74709030Y308399329D01*
X74700765Y308422429D01*
X74694804Y308446227D01*
X74691204Y308470496D01*
X74690000Y308495000D01*
X74690000Y309245000D01*
X74691204Y309269504D01*
X74694804Y309293773D01*
X74700765Y309317571D01*
X74709030Y309340671D01*
X74719520Y309362849D01*
X74732133Y309383893D01*
X74746747Y309403598D01*
X74763223Y309421777D01*
X74781402Y309438253D01*
X74801107Y309452867D01*
X74822151Y309465480D01*
X74844329Y309475970D01*
X74867429Y309484235D01*
X74891227Y309490196D01*
X74915496Y309493796D01*
X74940000Y309495000D01*
X76190000Y309495000D01*
X76214504Y309493796D01*
G37*
G04 #@! TD.AperFunction*
G04 #@! TA.AperFunction,SMDPad,CuDef*
G36*
X76214504Y306693796D02*
G01*
X76238773Y306690196D01*
X76262571Y306684235D01*
X76285671Y306675970D01*
X76307849Y306665480D01*
X76328893Y306652867D01*
X76348598Y306638253D01*
X76366777Y306621777D01*
X76383253Y306603598D01*
X76397867Y306583893D01*
X76410480Y306562849D01*
X76420970Y306540671D01*
X76429235Y306517571D01*
X76435196Y306493773D01*
X76438796Y306469504D01*
X76440000Y306445000D01*
X76440000Y305695000D01*
X76438796Y305670496D01*
X76435196Y305646227D01*
X76429235Y305622429D01*
X76420970Y305599329D01*
X76410480Y305577151D01*
X76397867Y305556107D01*
X76383253Y305536402D01*
X76366777Y305518223D01*
X76348598Y305501747D01*
X76328893Y305487133D01*
X76307849Y305474520D01*
X76285671Y305464030D01*
X76262571Y305455765D01*
X76238773Y305449804D01*
X76214504Y305446204D01*
X76190000Y305445000D01*
X74940000Y305445000D01*
X74915496Y305446204D01*
X74891227Y305449804D01*
X74867429Y305455765D01*
X74844329Y305464030D01*
X74822151Y305474520D01*
X74801107Y305487133D01*
X74781402Y305501747D01*
X74763223Y305518223D01*
X74746747Y305536402D01*
X74732133Y305556107D01*
X74719520Y305577151D01*
X74709030Y305599329D01*
X74700765Y305622429D01*
X74694804Y305646227D01*
X74691204Y305670496D01*
X74690000Y305695000D01*
X74690000Y306445000D01*
X74691204Y306469504D01*
X74694804Y306493773D01*
X74700765Y306517571D01*
X74709030Y306540671D01*
X74719520Y306562849D01*
X74732133Y306583893D01*
X74746747Y306603598D01*
X74763223Y306621777D01*
X74781402Y306638253D01*
X74801107Y306652867D01*
X74822151Y306665480D01*
X74844329Y306675970D01*
X74867429Y306684235D01*
X74891227Y306690196D01*
X74915496Y306693796D01*
X74940000Y306695000D01*
X76190000Y306695000D01*
X76214504Y306693796D01*
G37*
G04 #@! TD.AperFunction*
G04 #@! TA.AperFunction,SMDPad,CuDef*
G36*
X62879504Y303258796D02*
G01*
X62903773Y303255196D01*
X62927571Y303249235D01*
X62950671Y303240970D01*
X62972849Y303230480D01*
X62993893Y303217867D01*
X63013598Y303203253D01*
X63031777Y303186777D01*
X63048253Y303168598D01*
X63062867Y303148893D01*
X63075480Y303127849D01*
X63085970Y303105671D01*
X63094235Y303082571D01*
X63100196Y303058773D01*
X63103796Y303034504D01*
X63105000Y303010000D01*
X63105000Y302260000D01*
X63103796Y302235496D01*
X63100196Y302211227D01*
X63094235Y302187429D01*
X63085970Y302164329D01*
X63075480Y302142151D01*
X63062867Y302121107D01*
X63048253Y302101402D01*
X63031777Y302083223D01*
X63013598Y302066747D01*
X62993893Y302052133D01*
X62972849Y302039520D01*
X62950671Y302029030D01*
X62927571Y302020765D01*
X62903773Y302014804D01*
X62879504Y302011204D01*
X62855000Y302010000D01*
X61605000Y302010000D01*
X61580496Y302011204D01*
X61556227Y302014804D01*
X61532429Y302020765D01*
X61509329Y302029030D01*
X61487151Y302039520D01*
X61466107Y302052133D01*
X61446402Y302066747D01*
X61428223Y302083223D01*
X61411747Y302101402D01*
X61397133Y302121107D01*
X61384520Y302142151D01*
X61374030Y302164329D01*
X61365765Y302187429D01*
X61359804Y302211227D01*
X61356204Y302235496D01*
X61355000Y302260000D01*
X61355000Y303010000D01*
X61356204Y303034504D01*
X61359804Y303058773D01*
X61365765Y303082571D01*
X61374030Y303105671D01*
X61384520Y303127849D01*
X61397133Y303148893D01*
X61411747Y303168598D01*
X61428223Y303186777D01*
X61446402Y303203253D01*
X61466107Y303217867D01*
X61487151Y303230480D01*
X61509329Y303240970D01*
X61532429Y303249235D01*
X61556227Y303255196D01*
X61580496Y303258796D01*
X61605000Y303260000D01*
X62855000Y303260000D01*
X62879504Y303258796D01*
G37*
G04 #@! TD.AperFunction*
G04 #@! TA.AperFunction,SMDPad,CuDef*
G36*
X62879504Y306058796D02*
G01*
X62903773Y306055196D01*
X62927571Y306049235D01*
X62950671Y306040970D01*
X62972849Y306030480D01*
X62993893Y306017867D01*
X63013598Y306003253D01*
X63031777Y305986777D01*
X63048253Y305968598D01*
X63062867Y305948893D01*
X63075480Y305927849D01*
X63085970Y305905671D01*
X63094235Y305882571D01*
X63100196Y305858773D01*
X63103796Y305834504D01*
X63105000Y305810000D01*
X63105000Y305060000D01*
X63103796Y305035496D01*
X63100196Y305011227D01*
X63094235Y304987429D01*
X63085970Y304964329D01*
X63075480Y304942151D01*
X63062867Y304921107D01*
X63048253Y304901402D01*
X63031777Y304883223D01*
X63013598Y304866747D01*
X62993893Y304852133D01*
X62972849Y304839520D01*
X62950671Y304829030D01*
X62927571Y304820765D01*
X62903773Y304814804D01*
X62879504Y304811204D01*
X62855000Y304810000D01*
X61605000Y304810000D01*
X61580496Y304811204D01*
X61556227Y304814804D01*
X61532429Y304820765D01*
X61509329Y304829030D01*
X61487151Y304839520D01*
X61466107Y304852133D01*
X61446402Y304866747D01*
X61428223Y304883223D01*
X61411747Y304901402D01*
X61397133Y304921107D01*
X61384520Y304942151D01*
X61374030Y304964329D01*
X61365765Y304987429D01*
X61359804Y305011227D01*
X61356204Y305035496D01*
X61355000Y305060000D01*
X61355000Y305810000D01*
X61356204Y305834504D01*
X61359804Y305858773D01*
X61365765Y305882571D01*
X61374030Y305905671D01*
X61384520Y305927849D01*
X61397133Y305948893D01*
X61411747Y305968598D01*
X61428223Y305986777D01*
X61446402Y306003253D01*
X61466107Y306017867D01*
X61487151Y306030480D01*
X61509329Y306040970D01*
X61532429Y306049235D01*
X61556227Y306055196D01*
X61580496Y306058796D01*
X61605000Y306060000D01*
X62855000Y306060000D01*
X62879504Y306058796D01*
G37*
G04 #@! TD.AperFunction*
G04 #@! TA.AperFunction,SMDPad,CuDef*
G36*
X78754504Y307963796D02*
G01*
X78778773Y307960196D01*
X78802571Y307954235D01*
X78825671Y307945970D01*
X78847849Y307935480D01*
X78868893Y307922867D01*
X78888598Y307908253D01*
X78906777Y307891777D01*
X78923253Y307873598D01*
X78937867Y307853893D01*
X78950480Y307832849D01*
X78960970Y307810671D01*
X78969235Y307787571D01*
X78975196Y307763773D01*
X78978796Y307739504D01*
X78980000Y307715000D01*
X78980000Y306965000D01*
X78978796Y306940496D01*
X78975196Y306916227D01*
X78969235Y306892429D01*
X78960970Y306869329D01*
X78950480Y306847151D01*
X78937867Y306826107D01*
X78923253Y306806402D01*
X78906777Y306788223D01*
X78888598Y306771747D01*
X78868893Y306757133D01*
X78847849Y306744520D01*
X78825671Y306734030D01*
X78802571Y306725765D01*
X78778773Y306719804D01*
X78754504Y306716204D01*
X78730000Y306715000D01*
X77480000Y306715000D01*
X77455496Y306716204D01*
X77431227Y306719804D01*
X77407429Y306725765D01*
X77384329Y306734030D01*
X77362151Y306744520D01*
X77341107Y306757133D01*
X77321402Y306771747D01*
X77303223Y306788223D01*
X77286747Y306806402D01*
X77272133Y306826107D01*
X77259520Y306847151D01*
X77249030Y306869329D01*
X77240765Y306892429D01*
X77234804Y306916227D01*
X77231204Y306940496D01*
X77230000Y306965000D01*
X77230000Y307715000D01*
X77231204Y307739504D01*
X77234804Y307763773D01*
X77240765Y307787571D01*
X77249030Y307810671D01*
X77259520Y307832849D01*
X77272133Y307853893D01*
X77286747Y307873598D01*
X77303223Y307891777D01*
X77321402Y307908253D01*
X77341107Y307922867D01*
X77362151Y307935480D01*
X77384329Y307945970D01*
X77407429Y307954235D01*
X77431227Y307960196D01*
X77455496Y307963796D01*
X77480000Y307965000D01*
X78730000Y307965000D01*
X78754504Y307963796D01*
G37*
G04 #@! TD.AperFunction*
G04 #@! TA.AperFunction,SMDPad,CuDef*
G36*
X78754504Y305163796D02*
G01*
X78778773Y305160196D01*
X78802571Y305154235D01*
X78825671Y305145970D01*
X78847849Y305135480D01*
X78868893Y305122867D01*
X78888598Y305108253D01*
X78906777Y305091777D01*
X78923253Y305073598D01*
X78937867Y305053893D01*
X78950480Y305032849D01*
X78960970Y305010671D01*
X78969235Y304987571D01*
X78975196Y304963773D01*
X78978796Y304939504D01*
X78980000Y304915000D01*
X78980000Y304165000D01*
X78978796Y304140496D01*
X78975196Y304116227D01*
X78969235Y304092429D01*
X78960970Y304069329D01*
X78950480Y304047151D01*
X78937867Y304026107D01*
X78923253Y304006402D01*
X78906777Y303988223D01*
X78888598Y303971747D01*
X78868893Y303957133D01*
X78847849Y303944520D01*
X78825671Y303934030D01*
X78802571Y303925765D01*
X78778773Y303919804D01*
X78754504Y303916204D01*
X78730000Y303915000D01*
X77480000Y303915000D01*
X77455496Y303916204D01*
X77431227Y303919804D01*
X77407429Y303925765D01*
X77384329Y303934030D01*
X77362151Y303944520D01*
X77341107Y303957133D01*
X77321402Y303971747D01*
X77303223Y303988223D01*
X77286747Y304006402D01*
X77272133Y304026107D01*
X77259520Y304047151D01*
X77249030Y304069329D01*
X77240765Y304092429D01*
X77234804Y304116227D01*
X77231204Y304140496D01*
X77230000Y304165000D01*
X77230000Y304915000D01*
X77231204Y304939504D01*
X77234804Y304963773D01*
X77240765Y304987571D01*
X77249030Y305010671D01*
X77259520Y305032849D01*
X77272133Y305053893D01*
X77286747Y305073598D01*
X77303223Y305091777D01*
X77321402Y305108253D01*
X77341107Y305122867D01*
X77362151Y305135480D01*
X77384329Y305145970D01*
X77407429Y305154235D01*
X77431227Y305160196D01*
X77455496Y305163796D01*
X77480000Y305165000D01*
X78730000Y305165000D01*
X78754504Y305163796D01*
G37*
G04 #@! TD.AperFunction*
G04 #@! TA.AperFunction,SMDPad,CuDef*
G36*
X73674504Y290688796D02*
G01*
X73698773Y290685196D01*
X73722571Y290679235D01*
X73745671Y290670970D01*
X73767849Y290660480D01*
X73788893Y290647867D01*
X73808598Y290633253D01*
X73826777Y290616777D01*
X73843253Y290598598D01*
X73857867Y290578893D01*
X73870480Y290557849D01*
X73880970Y290535671D01*
X73889235Y290512571D01*
X73895196Y290488773D01*
X73898796Y290464504D01*
X73900000Y290440000D01*
X73900000Y289690000D01*
X73898796Y289665496D01*
X73895196Y289641227D01*
X73889235Y289617429D01*
X73880970Y289594329D01*
X73870480Y289572151D01*
X73857867Y289551107D01*
X73843253Y289531402D01*
X73826777Y289513223D01*
X73808598Y289496747D01*
X73788893Y289482133D01*
X73767849Y289469520D01*
X73745671Y289459030D01*
X73722571Y289450765D01*
X73698773Y289444804D01*
X73674504Y289441204D01*
X73650000Y289440000D01*
X72400000Y289440000D01*
X72375496Y289441204D01*
X72351227Y289444804D01*
X72327429Y289450765D01*
X72304329Y289459030D01*
X72282151Y289469520D01*
X72261107Y289482133D01*
X72241402Y289496747D01*
X72223223Y289513223D01*
X72206747Y289531402D01*
X72192133Y289551107D01*
X72179520Y289572151D01*
X72169030Y289594329D01*
X72160765Y289617429D01*
X72154804Y289641227D01*
X72151204Y289665496D01*
X72150000Y289690000D01*
X72150000Y290440000D01*
X72151204Y290464504D01*
X72154804Y290488773D01*
X72160765Y290512571D01*
X72169030Y290535671D01*
X72179520Y290557849D01*
X72192133Y290578893D01*
X72206747Y290598598D01*
X72223223Y290616777D01*
X72241402Y290633253D01*
X72261107Y290647867D01*
X72282151Y290660480D01*
X72304329Y290670970D01*
X72327429Y290679235D01*
X72351227Y290685196D01*
X72375496Y290688796D01*
X72400000Y290690000D01*
X73650000Y290690000D01*
X73674504Y290688796D01*
G37*
G04 #@! TD.AperFunction*
G04 #@! TA.AperFunction,SMDPad,CuDef*
G36*
X73674504Y293488796D02*
G01*
X73698773Y293485196D01*
X73722571Y293479235D01*
X73745671Y293470970D01*
X73767849Y293460480D01*
X73788893Y293447867D01*
X73808598Y293433253D01*
X73826777Y293416777D01*
X73843253Y293398598D01*
X73857867Y293378893D01*
X73870480Y293357849D01*
X73880970Y293335671D01*
X73889235Y293312571D01*
X73895196Y293288773D01*
X73898796Y293264504D01*
X73900000Y293240000D01*
X73900000Y292490000D01*
X73898796Y292465496D01*
X73895196Y292441227D01*
X73889235Y292417429D01*
X73880970Y292394329D01*
X73870480Y292372151D01*
X73857867Y292351107D01*
X73843253Y292331402D01*
X73826777Y292313223D01*
X73808598Y292296747D01*
X73788893Y292282133D01*
X73767849Y292269520D01*
X73745671Y292259030D01*
X73722571Y292250765D01*
X73698773Y292244804D01*
X73674504Y292241204D01*
X73650000Y292240000D01*
X72400000Y292240000D01*
X72375496Y292241204D01*
X72351227Y292244804D01*
X72327429Y292250765D01*
X72304329Y292259030D01*
X72282151Y292269520D01*
X72261107Y292282133D01*
X72241402Y292296747D01*
X72223223Y292313223D01*
X72206747Y292331402D01*
X72192133Y292351107D01*
X72179520Y292372151D01*
X72169030Y292394329D01*
X72160765Y292417429D01*
X72154804Y292441227D01*
X72151204Y292465496D01*
X72150000Y292490000D01*
X72150000Y293240000D01*
X72151204Y293264504D01*
X72154804Y293288773D01*
X72160765Y293312571D01*
X72169030Y293335671D01*
X72179520Y293357849D01*
X72192133Y293378893D01*
X72206747Y293398598D01*
X72223223Y293416777D01*
X72241402Y293433253D01*
X72261107Y293447867D01*
X72282151Y293460480D01*
X72304329Y293470970D01*
X72327429Y293479235D01*
X72351227Y293485196D01*
X72375496Y293488796D01*
X72400000Y293490000D01*
X73650000Y293490000D01*
X73674504Y293488796D01*
G37*
G04 #@! TD.AperFunction*
G04 #@! TA.AperFunction,SMDPad,CuDef*
G36*
X51704504Y303768796D02*
G01*
X51728773Y303765196D01*
X51752571Y303759235D01*
X51775671Y303750970D01*
X51797849Y303740480D01*
X51818893Y303727867D01*
X51838598Y303713253D01*
X51856777Y303696777D01*
X51873253Y303678598D01*
X51887867Y303658893D01*
X51900480Y303637849D01*
X51910970Y303615671D01*
X51919235Y303592571D01*
X51925196Y303568773D01*
X51928796Y303544504D01*
X51930000Y303520000D01*
X51930000Y302270000D01*
X51928796Y302245496D01*
X51925196Y302221227D01*
X51919235Y302197429D01*
X51910970Y302174329D01*
X51900480Y302152151D01*
X51887867Y302131107D01*
X51873253Y302111402D01*
X51856777Y302093223D01*
X51838598Y302076747D01*
X51818893Y302062133D01*
X51797849Y302049520D01*
X51775671Y302039030D01*
X51752571Y302030765D01*
X51728773Y302024804D01*
X51704504Y302021204D01*
X51680000Y302020000D01*
X50930000Y302020000D01*
X50905496Y302021204D01*
X50881227Y302024804D01*
X50857429Y302030765D01*
X50834329Y302039030D01*
X50812151Y302049520D01*
X50791107Y302062133D01*
X50771402Y302076747D01*
X50753223Y302093223D01*
X50736747Y302111402D01*
X50722133Y302131107D01*
X50709520Y302152151D01*
X50699030Y302174329D01*
X50690765Y302197429D01*
X50684804Y302221227D01*
X50681204Y302245496D01*
X50680000Y302270000D01*
X50680000Y303520000D01*
X50681204Y303544504D01*
X50684804Y303568773D01*
X50690765Y303592571D01*
X50699030Y303615671D01*
X50709520Y303637849D01*
X50722133Y303658893D01*
X50736747Y303678598D01*
X50753223Y303696777D01*
X50771402Y303713253D01*
X50791107Y303727867D01*
X50812151Y303740480D01*
X50834329Y303750970D01*
X50857429Y303759235D01*
X50881227Y303765196D01*
X50905496Y303768796D01*
X50930000Y303770000D01*
X51680000Y303770000D01*
X51704504Y303768796D01*
G37*
G04 #@! TD.AperFunction*
G04 #@! TA.AperFunction,SMDPad,CuDef*
G36*
X54504504Y303768796D02*
G01*
X54528773Y303765196D01*
X54552571Y303759235D01*
X54575671Y303750970D01*
X54597849Y303740480D01*
X54618893Y303727867D01*
X54638598Y303713253D01*
X54656777Y303696777D01*
X54673253Y303678598D01*
X54687867Y303658893D01*
X54700480Y303637849D01*
X54710970Y303615671D01*
X54719235Y303592571D01*
X54725196Y303568773D01*
X54728796Y303544504D01*
X54730000Y303520000D01*
X54730000Y302270000D01*
X54728796Y302245496D01*
X54725196Y302221227D01*
X54719235Y302197429D01*
X54710970Y302174329D01*
X54700480Y302152151D01*
X54687867Y302131107D01*
X54673253Y302111402D01*
X54656777Y302093223D01*
X54638598Y302076747D01*
X54618893Y302062133D01*
X54597849Y302049520D01*
X54575671Y302039030D01*
X54552571Y302030765D01*
X54528773Y302024804D01*
X54504504Y302021204D01*
X54480000Y302020000D01*
X53730000Y302020000D01*
X53705496Y302021204D01*
X53681227Y302024804D01*
X53657429Y302030765D01*
X53634329Y302039030D01*
X53612151Y302049520D01*
X53591107Y302062133D01*
X53571402Y302076747D01*
X53553223Y302093223D01*
X53536747Y302111402D01*
X53522133Y302131107D01*
X53509520Y302152151D01*
X53499030Y302174329D01*
X53490765Y302197429D01*
X53484804Y302221227D01*
X53481204Y302245496D01*
X53480000Y302270000D01*
X53480000Y303520000D01*
X53481204Y303544504D01*
X53484804Y303568773D01*
X53490765Y303592571D01*
X53499030Y303615671D01*
X53509520Y303637849D01*
X53522133Y303658893D01*
X53536747Y303678598D01*
X53553223Y303696777D01*
X53571402Y303713253D01*
X53591107Y303727867D01*
X53612151Y303740480D01*
X53634329Y303750970D01*
X53657429Y303759235D01*
X53681227Y303765196D01*
X53705496Y303768796D01*
X53730000Y303770000D01*
X54480000Y303770000D01*
X54504504Y303768796D01*
G37*
G04 #@! TD.AperFunction*
D13*
X64455000Y298465000D03*
X64455000Y297165000D03*
X66355000Y297815000D03*
X66355000Y297165000D03*
X66355000Y298465000D03*
G04 #@! TA.AperFunction,SMDPad,CuDef*
D12*
G36*
X51704504Y308848796D02*
G01*
X51728773Y308845196D01*
X51752571Y308839235D01*
X51775671Y308830970D01*
X51797849Y308820480D01*
X51818893Y308807867D01*
X51838598Y308793253D01*
X51856777Y308776777D01*
X51873253Y308758598D01*
X51887867Y308738893D01*
X51900480Y308717849D01*
X51910970Y308695671D01*
X51919235Y308672571D01*
X51925196Y308648773D01*
X51928796Y308624504D01*
X51930000Y308600000D01*
X51930000Y307350000D01*
X51928796Y307325496D01*
X51925196Y307301227D01*
X51919235Y307277429D01*
X51910970Y307254329D01*
X51900480Y307232151D01*
X51887867Y307211107D01*
X51873253Y307191402D01*
X51856777Y307173223D01*
X51838598Y307156747D01*
X51818893Y307142133D01*
X51797849Y307129520D01*
X51775671Y307119030D01*
X51752571Y307110765D01*
X51728773Y307104804D01*
X51704504Y307101204D01*
X51680000Y307100000D01*
X50930000Y307100000D01*
X50905496Y307101204D01*
X50881227Y307104804D01*
X50857429Y307110765D01*
X50834329Y307119030D01*
X50812151Y307129520D01*
X50791107Y307142133D01*
X50771402Y307156747D01*
X50753223Y307173223D01*
X50736747Y307191402D01*
X50722133Y307211107D01*
X50709520Y307232151D01*
X50699030Y307254329D01*
X50690765Y307277429D01*
X50684804Y307301227D01*
X50681204Y307325496D01*
X50680000Y307350000D01*
X50680000Y308600000D01*
X50681204Y308624504D01*
X50684804Y308648773D01*
X50690765Y308672571D01*
X50699030Y308695671D01*
X50709520Y308717849D01*
X50722133Y308738893D01*
X50736747Y308758598D01*
X50753223Y308776777D01*
X50771402Y308793253D01*
X50791107Y308807867D01*
X50812151Y308820480D01*
X50834329Y308830970D01*
X50857429Y308839235D01*
X50881227Y308845196D01*
X50905496Y308848796D01*
X50930000Y308850000D01*
X51680000Y308850000D01*
X51704504Y308848796D01*
G37*
G04 #@! TD.AperFunction*
G04 #@! TA.AperFunction,SMDPad,CuDef*
G36*
X54504504Y308848796D02*
G01*
X54528773Y308845196D01*
X54552571Y308839235D01*
X54575671Y308830970D01*
X54597849Y308820480D01*
X54618893Y308807867D01*
X54638598Y308793253D01*
X54656777Y308776777D01*
X54673253Y308758598D01*
X54687867Y308738893D01*
X54700480Y308717849D01*
X54710970Y308695671D01*
X54719235Y308672571D01*
X54725196Y308648773D01*
X54728796Y308624504D01*
X54730000Y308600000D01*
X54730000Y307350000D01*
X54728796Y307325496D01*
X54725196Y307301227D01*
X54719235Y307277429D01*
X54710970Y307254329D01*
X54700480Y307232151D01*
X54687867Y307211107D01*
X54673253Y307191402D01*
X54656777Y307173223D01*
X54638598Y307156747D01*
X54618893Y307142133D01*
X54597849Y307129520D01*
X54575671Y307119030D01*
X54552571Y307110765D01*
X54528773Y307104804D01*
X54504504Y307101204D01*
X54480000Y307100000D01*
X53730000Y307100000D01*
X53705496Y307101204D01*
X53681227Y307104804D01*
X53657429Y307110765D01*
X53634329Y307119030D01*
X53612151Y307129520D01*
X53591107Y307142133D01*
X53571402Y307156747D01*
X53553223Y307173223D01*
X53536747Y307191402D01*
X53522133Y307211107D01*
X53509520Y307232151D01*
X53499030Y307254329D01*
X53490765Y307277429D01*
X53484804Y307301227D01*
X53481204Y307325496D01*
X53480000Y307350000D01*
X53480000Y308600000D01*
X53481204Y308624504D01*
X53484804Y308648773D01*
X53490765Y308672571D01*
X53499030Y308695671D01*
X53509520Y308717849D01*
X53522133Y308738893D01*
X53536747Y308758598D01*
X53553223Y308776777D01*
X53571402Y308793253D01*
X53591107Y308807867D01*
X53612151Y308820480D01*
X53634329Y308830970D01*
X53657429Y308839235D01*
X53681227Y308845196D01*
X53705496Y308848796D01*
X53730000Y308850000D01*
X54480000Y308850000D01*
X54504504Y308848796D01*
G37*
G04 #@! TD.AperFunction*
G04 #@! TA.AperFunction,SMDPad,CuDef*
G36*
X54504504Y306308796D02*
G01*
X54528773Y306305196D01*
X54552571Y306299235D01*
X54575671Y306290970D01*
X54597849Y306280480D01*
X54618893Y306267867D01*
X54638598Y306253253D01*
X54656777Y306236777D01*
X54673253Y306218598D01*
X54687867Y306198893D01*
X54700480Y306177849D01*
X54710970Y306155671D01*
X54719235Y306132571D01*
X54725196Y306108773D01*
X54728796Y306084504D01*
X54730000Y306060000D01*
X54730000Y304810000D01*
X54728796Y304785496D01*
X54725196Y304761227D01*
X54719235Y304737429D01*
X54710970Y304714329D01*
X54700480Y304692151D01*
X54687867Y304671107D01*
X54673253Y304651402D01*
X54656777Y304633223D01*
X54638598Y304616747D01*
X54618893Y304602133D01*
X54597849Y304589520D01*
X54575671Y304579030D01*
X54552571Y304570765D01*
X54528773Y304564804D01*
X54504504Y304561204D01*
X54480000Y304560000D01*
X53730000Y304560000D01*
X53705496Y304561204D01*
X53681227Y304564804D01*
X53657429Y304570765D01*
X53634329Y304579030D01*
X53612151Y304589520D01*
X53591107Y304602133D01*
X53571402Y304616747D01*
X53553223Y304633223D01*
X53536747Y304651402D01*
X53522133Y304671107D01*
X53509520Y304692151D01*
X53499030Y304714329D01*
X53490765Y304737429D01*
X53484804Y304761227D01*
X53481204Y304785496D01*
X53480000Y304810000D01*
X53480000Y306060000D01*
X53481204Y306084504D01*
X53484804Y306108773D01*
X53490765Y306132571D01*
X53499030Y306155671D01*
X53509520Y306177849D01*
X53522133Y306198893D01*
X53536747Y306218598D01*
X53553223Y306236777D01*
X53571402Y306253253D01*
X53591107Y306267867D01*
X53612151Y306280480D01*
X53634329Y306290970D01*
X53657429Y306299235D01*
X53681227Y306305196D01*
X53705496Y306308796D01*
X53730000Y306310000D01*
X54480000Y306310000D01*
X54504504Y306308796D01*
G37*
G04 #@! TD.AperFunction*
G04 #@! TA.AperFunction,SMDPad,CuDef*
G36*
X51704504Y306308796D02*
G01*
X51728773Y306305196D01*
X51752571Y306299235D01*
X51775671Y306290970D01*
X51797849Y306280480D01*
X51818893Y306267867D01*
X51838598Y306253253D01*
X51856777Y306236777D01*
X51873253Y306218598D01*
X51887867Y306198893D01*
X51900480Y306177849D01*
X51910970Y306155671D01*
X51919235Y306132571D01*
X51925196Y306108773D01*
X51928796Y306084504D01*
X51930000Y306060000D01*
X51930000Y304810000D01*
X51928796Y304785496D01*
X51925196Y304761227D01*
X51919235Y304737429D01*
X51910970Y304714329D01*
X51900480Y304692151D01*
X51887867Y304671107D01*
X51873253Y304651402D01*
X51856777Y304633223D01*
X51838598Y304616747D01*
X51818893Y304602133D01*
X51797849Y304589520D01*
X51775671Y304579030D01*
X51752571Y304570765D01*
X51728773Y304564804D01*
X51704504Y304561204D01*
X51680000Y304560000D01*
X50930000Y304560000D01*
X50905496Y304561204D01*
X50881227Y304564804D01*
X50857429Y304570765D01*
X50834329Y304579030D01*
X50812151Y304589520D01*
X50791107Y304602133D01*
X50771402Y304616747D01*
X50753223Y304633223D01*
X50736747Y304651402D01*
X50722133Y304671107D01*
X50709520Y304692151D01*
X50699030Y304714329D01*
X50690765Y304737429D01*
X50684804Y304761227D01*
X50681204Y304785496D01*
X50680000Y304810000D01*
X50680000Y306060000D01*
X50681204Y306084504D01*
X50684804Y306108773D01*
X50690765Y306132571D01*
X50699030Y306155671D01*
X50709520Y306177849D01*
X50722133Y306198893D01*
X50736747Y306218598D01*
X50753223Y306236777D01*
X50771402Y306253253D01*
X50791107Y306267867D01*
X50812151Y306280480D01*
X50834329Y306290970D01*
X50857429Y306299235D01*
X50881227Y306305196D01*
X50905496Y306308796D01*
X50930000Y306310000D01*
X51680000Y306310000D01*
X51704504Y306308796D01*
G37*
G04 #@! TD.AperFunction*
G04 #@! TA.AperFunction,SMDPad,CuDef*
G36*
X65299504Y308848796D02*
G01*
X65323773Y308845196D01*
X65347571Y308839235D01*
X65370671Y308830970D01*
X65392849Y308820480D01*
X65413893Y308807867D01*
X65433598Y308793253D01*
X65451777Y308776777D01*
X65468253Y308758598D01*
X65482867Y308738893D01*
X65495480Y308717849D01*
X65505970Y308695671D01*
X65514235Y308672571D01*
X65520196Y308648773D01*
X65523796Y308624504D01*
X65525000Y308600000D01*
X65525000Y307350000D01*
X65523796Y307325496D01*
X65520196Y307301227D01*
X65514235Y307277429D01*
X65505970Y307254329D01*
X65495480Y307232151D01*
X65482867Y307211107D01*
X65468253Y307191402D01*
X65451777Y307173223D01*
X65433598Y307156747D01*
X65413893Y307142133D01*
X65392849Y307129520D01*
X65370671Y307119030D01*
X65347571Y307110765D01*
X65323773Y307104804D01*
X65299504Y307101204D01*
X65275000Y307100000D01*
X64525000Y307100000D01*
X64500496Y307101204D01*
X64476227Y307104804D01*
X64452429Y307110765D01*
X64429329Y307119030D01*
X64407151Y307129520D01*
X64386107Y307142133D01*
X64366402Y307156747D01*
X64348223Y307173223D01*
X64331747Y307191402D01*
X64317133Y307211107D01*
X64304520Y307232151D01*
X64294030Y307254329D01*
X64285765Y307277429D01*
X64279804Y307301227D01*
X64276204Y307325496D01*
X64275000Y307350000D01*
X64275000Y308600000D01*
X64276204Y308624504D01*
X64279804Y308648773D01*
X64285765Y308672571D01*
X64294030Y308695671D01*
X64304520Y308717849D01*
X64317133Y308738893D01*
X64331747Y308758598D01*
X64348223Y308776777D01*
X64366402Y308793253D01*
X64386107Y308807867D01*
X64407151Y308820480D01*
X64429329Y308830970D01*
X64452429Y308839235D01*
X64476227Y308845196D01*
X64500496Y308848796D01*
X64525000Y308850000D01*
X65275000Y308850000D01*
X65299504Y308848796D01*
G37*
G04 #@! TD.AperFunction*
G04 #@! TA.AperFunction,SMDPad,CuDef*
G36*
X62499504Y308848796D02*
G01*
X62523773Y308845196D01*
X62547571Y308839235D01*
X62570671Y308830970D01*
X62592849Y308820480D01*
X62613893Y308807867D01*
X62633598Y308793253D01*
X62651777Y308776777D01*
X62668253Y308758598D01*
X62682867Y308738893D01*
X62695480Y308717849D01*
X62705970Y308695671D01*
X62714235Y308672571D01*
X62720196Y308648773D01*
X62723796Y308624504D01*
X62725000Y308600000D01*
X62725000Y307350000D01*
X62723796Y307325496D01*
X62720196Y307301227D01*
X62714235Y307277429D01*
X62705970Y307254329D01*
X62695480Y307232151D01*
X62682867Y307211107D01*
X62668253Y307191402D01*
X62651777Y307173223D01*
X62633598Y307156747D01*
X62613893Y307142133D01*
X62592849Y307129520D01*
X62570671Y307119030D01*
X62547571Y307110765D01*
X62523773Y307104804D01*
X62499504Y307101204D01*
X62475000Y307100000D01*
X61725000Y307100000D01*
X61700496Y307101204D01*
X61676227Y307104804D01*
X61652429Y307110765D01*
X61629329Y307119030D01*
X61607151Y307129520D01*
X61586107Y307142133D01*
X61566402Y307156747D01*
X61548223Y307173223D01*
X61531747Y307191402D01*
X61517133Y307211107D01*
X61504520Y307232151D01*
X61494030Y307254329D01*
X61485765Y307277429D01*
X61479804Y307301227D01*
X61476204Y307325496D01*
X61475000Y307350000D01*
X61475000Y308600000D01*
X61476204Y308624504D01*
X61479804Y308648773D01*
X61485765Y308672571D01*
X61494030Y308695671D01*
X61504520Y308717849D01*
X61517133Y308738893D01*
X61531747Y308758598D01*
X61548223Y308776777D01*
X61566402Y308793253D01*
X61586107Y308807867D01*
X61607151Y308820480D01*
X61629329Y308830970D01*
X61652429Y308839235D01*
X61676227Y308845196D01*
X61700496Y308848796D01*
X61725000Y308850000D01*
X62475000Y308850000D01*
X62499504Y308848796D01*
G37*
G04 #@! TD.AperFunction*
D14*
X52165000Y287655000D03*
X50165000Y287655000D03*
D15*
X48165000Y287655000D03*
D16*
X79375000Y285115000D03*
X46355000Y309880000D03*
D17*
X69850000Y292735000D03*
X70485000Y304165000D03*
X76200000Y294005000D03*
X76200000Y295910000D03*
X65405000Y300990000D03*
X69850000Y307340000D03*
X70485000Y306070000D03*
X66675000Y306705000D03*
X67945000Y307975000D03*
X66675000Y299720000D03*
D18*
X66355000Y297165000D02*
X66355000Y296230000D01*
X70485000Y301625000D02*
X70485000Y304165000D01*
X66355000Y297165000D02*
X69080000Y297165000D01*
X69730000Y297815000D02*
X70355000Y297815000D01*
X69080000Y297165000D02*
X69730000Y297815000D01*
X70485000Y298820000D02*
X70485000Y301625000D01*
X70355000Y298690000D02*
X70485000Y298820000D01*
X70355000Y297815000D02*
X70355000Y298690000D01*
X70355000Y301495000D02*
X70355000Y300355000D01*
X68710000Y292735000D02*
X68075000Y293370000D01*
X72895000Y292735000D02*
X73025000Y292865000D01*
X69850000Y292735000D02*
X72895000Y292735000D01*
X68075000Y294510000D02*
X68075000Y293370000D01*
X66355000Y296230000D02*
X68075000Y294510000D01*
X51305000Y308480000D02*
X51305000Y307975000D01*
X51305000Y302020000D02*
X51305000Y302895000D01*
X55947919Y290195000D02*
X51305000Y294837919D01*
X51305000Y294837919D02*
X51305000Y299480000D01*
X57150000Y290195000D02*
X55947919Y290195000D01*
X51305000Y303770000D02*
X51305000Y307975000D01*
X51305000Y302895000D02*
X51305000Y303770000D01*
X73025000Y290065000D02*
X76705000Y290065000D01*
X76705000Y290065000D02*
X78105000Y291465000D01*
X72895000Y290195000D02*
X73025000Y290065000D01*
X57150000Y290195000D02*
X72895000Y290195000D01*
X78105000Y291465000D02*
X78105000Y304540000D01*
X51305000Y299480000D02*
X51305000Y302895000D01*
X71755000Y297180000D02*
X72390000Y297815000D01*
X71755000Y295910000D02*
X71755000Y297180000D01*
X70355000Y295275000D02*
X71120000Y295275000D01*
X71120000Y295275000D02*
X71755000Y295910000D01*
X72390000Y297815000D02*
X73155000Y297815000D01*
X76200000Y294005000D02*
X74930000Y295275000D01*
X74930000Y295275000D02*
X73155000Y295275000D01*
X76200000Y297180000D02*
X76200000Y299085000D01*
X74930000Y300355000D02*
X73155000Y300355000D01*
X76200000Y299085000D02*
X74930000Y300355000D01*
X76200000Y297180000D02*
X76200000Y295910000D01*
X57150000Y305435000D02*
X54105000Y305435000D01*
X55770000Y307975000D02*
X54105000Y307975000D01*
X57150000Y307975000D02*
X55770000Y307975000D01*
X57400000Y295275000D02*
X57150000Y295275000D01*
X65405000Y300990000D02*
X65405000Y295275000D01*
X65405000Y295275000D02*
X65405000Y293370000D01*
X57150000Y295275000D02*
X58420000Y295275000D01*
X60325000Y293370000D02*
X65405000Y293370000D01*
X58420000Y295275000D02*
X60325000Y293370000D01*
X62475000Y297165000D02*
X62230000Y296920000D01*
X64455000Y297165000D02*
X62475000Y297165000D01*
X57150000Y297815000D02*
X59055000Y297815000D01*
X59950000Y296920000D02*
X62230000Y296920000D01*
X59055000Y297815000D02*
X59950000Y296920000D01*
X54105000Y303025000D02*
X54105000Y302895000D01*
X57150000Y302775000D02*
X57150000Y302895000D01*
X57150000Y302895000D02*
X54105000Y302895000D01*
X75050000Y307340000D02*
X78105000Y307340000D01*
X69850000Y307340000D02*
X75050000Y307340000D01*
X72390000Y305565000D02*
X73660000Y305565000D01*
X73025000Y306070000D02*
X75565000Y306070000D01*
X73025000Y306070000D02*
X70485000Y306070000D01*
X64900000Y307975000D02*
X66040000Y307975000D01*
X66675000Y307340000D02*
X66675000Y306705000D01*
X66040000Y307975000D02*
X66675000Y307340000D01*
X66815002Y297815000D02*
X66355000Y297815000D01*
X67945000Y298944998D02*
X66815002Y297815000D01*
X67945000Y307975000D02*
X67945000Y298944998D01*
X63105000Y305435000D02*
X62230000Y305435000D01*
X66675000Y301865000D02*
X63105000Y305435000D01*
X66675000Y299720000D02*
X66675000Y301865000D01*
X62230000Y307845000D02*
X62100000Y307975000D01*
X62230000Y305435000D02*
X62230000Y307845000D01*
X62860000Y298465000D02*
X63880000Y298465000D01*
X62230000Y299095000D02*
X62860000Y298465000D01*
X63880000Y298465000D02*
X64455000Y298465000D01*
X62230000Y299720000D02*
X62230000Y299095000D01*
X62230000Y300720000D02*
X62230000Y299720000D01*
X62230000Y302765000D02*
X62230000Y300720000D01*
X61355000Y302635000D02*
X62230000Y302635000D01*
X59690000Y304300000D02*
X61355000Y302635000D01*
X59690000Y307975000D02*
X59690000Y304300000D01*
X57150000Y310515000D02*
X59690000Y307975000D01*
X57150000Y310515000D02*
X73910000Y310515000D01*
D19*
G36*
X52578000Y301625000D02*
G01*
X52580440Y301600224D01*
X52587667Y301576399D01*
X52599403Y301554443D01*
X52615197Y301535197D01*
X53250197Y300900197D01*
X53269443Y300884403D01*
X53291399Y300872667D01*
X53315224Y300865440D01*
X53340000Y300863000D01*
X55118000Y300863000D01*
X55118000Y292100000D01*
X55120440Y292075224D01*
X55127667Y292051399D01*
X55139403Y292029443D01*
X55155197Y292010197D01*
X55790197Y291375197D01*
X55809443Y291359403D01*
X55831399Y291347667D01*
X55855224Y291340440D01*
X55880000Y291338000D01*
X56210758Y291338000D01*
X56052412Y291195269D01*
X55878359Y290961920D01*
X55753175Y290699099D01*
X55708524Y290551890D01*
X55829845Y290322000D01*
X57023000Y290322000D01*
X57023000Y290342000D01*
X57277000Y290342000D01*
X57277000Y290322000D01*
X58470155Y290322000D01*
X58591476Y290551890D01*
X58549585Y290690000D01*
X71511928Y290690000D01*
X71515000Y290350750D01*
X71673750Y290192000D01*
X72898000Y290192000D01*
X72898000Y291166250D01*
X73152000Y291166250D01*
X73152000Y290192000D01*
X74376250Y290192000D01*
X74535000Y290350750D01*
X74538072Y290690000D01*
X74525812Y290814482D01*
X74489502Y290934180D01*
X74430537Y291044494D01*
X74351185Y291141185D01*
X74254494Y291220537D01*
X74144180Y291279502D01*
X74024482Y291315812D01*
X73900000Y291328072D01*
X73310750Y291325000D01*
X73152000Y291166250D01*
X72898000Y291166250D01*
X72739250Y291325000D01*
X72150000Y291328072D01*
X72025518Y291315812D01*
X71905820Y291279502D01*
X71795506Y291220537D01*
X71698815Y291141185D01*
X71619463Y291044494D01*
X71560498Y290934180D01*
X71524188Y290814482D01*
X71511928Y290690000D01*
X58549585Y290690000D01*
X58546825Y290699099D01*
X58421641Y290961920D01*
X58247588Y291195269D01*
X58089242Y291338000D01*
X76200000Y291338000D01*
X76224776Y291340440D01*
X76248601Y291347667D01*
X76270557Y291359403D01*
X76289803Y291375197D01*
X76305597Y291394443D01*
X76317333Y291416399D01*
X76324560Y291440224D01*
X76327000Y291465000D01*
X76327000Y292974985D01*
X76501898Y293009774D01*
X76690256Y293087795D01*
X76859774Y293201063D01*
X77003937Y293345226D01*
X77117205Y293514744D01*
X77195226Y293703102D01*
X77235000Y293903061D01*
X77235000Y294106939D01*
X77195226Y294306898D01*
X77117205Y294495256D01*
X77003937Y294664774D01*
X76859774Y294808937D01*
X76690256Y294922205D01*
X76605047Y294957500D01*
X76690256Y294992795D01*
X76859774Y295106063D01*
X77003937Y295250226D01*
X77117205Y295419744D01*
X77195226Y295608102D01*
X77235000Y295808061D01*
X77235000Y296011939D01*
X77195226Y296211898D01*
X77117205Y296400256D01*
X77003937Y296569774D01*
X76960000Y296613711D01*
X76960000Y299047678D01*
X76963676Y299085001D01*
X76960000Y299122324D01*
X76960000Y299122333D01*
X76949003Y299233986D01*
X76905546Y299377247D01*
X76834974Y299509276D01*
X76740001Y299625001D01*
X76711003Y299648799D01*
X76327000Y300032802D01*
X76327000Y304126548D01*
X76595000Y304528548D01*
X76595000Y304412998D01*
X76753748Y304412998D01*
X76595000Y304254250D01*
X76591928Y303915000D01*
X76604188Y303790518D01*
X76640498Y303670820D01*
X76699463Y303560506D01*
X76778815Y303463815D01*
X76875506Y303384463D01*
X76985820Y303325498D01*
X77105518Y303289188D01*
X77230000Y303276928D01*
X77819250Y303280000D01*
X77978000Y303438750D01*
X77978000Y304413000D01*
X78232000Y304413000D01*
X78232000Y303438750D01*
X78390750Y303280000D01*
X78980000Y303276928D01*
X79104482Y303289188D01*
X79224180Y303325498D01*
X79334494Y303384463D01*
X79431185Y303463815D01*
X79510537Y303560506D01*
X79569502Y303670820D01*
X79605812Y303790518D01*
X79618072Y303915000D01*
X79615000Y304254250D01*
X79456250Y304413000D01*
X78232000Y304413000D01*
X77978000Y304413000D01*
X77958000Y304413000D01*
X77958000Y304667000D01*
X77978000Y304667000D01*
X77978000Y305641250D01*
X78232000Y305641250D01*
X78232000Y304667000D01*
X79456250Y304667000D01*
X79615000Y304825750D01*
X79618072Y305165000D01*
X79605812Y305289482D01*
X79569502Y305409180D01*
X79510537Y305519494D01*
X79431185Y305616185D01*
X79334494Y305695537D01*
X79224180Y305754502D01*
X79104482Y305790812D01*
X78980000Y305803072D01*
X78390750Y305800000D01*
X78232000Y305641250D01*
X77978000Y305641250D01*
X77819250Y305800000D01*
X77443939Y305801957D01*
X77537968Y305943000D01*
X81788000Y305943000D01*
X81788000Y286175091D01*
X81710107Y286363141D01*
X81421738Y286794715D01*
X81054715Y287161738D01*
X80623141Y287450107D01*
X80143601Y287648739D01*
X79634525Y287750000D01*
X79115475Y287750000D01*
X78606399Y287648739D01*
X78126859Y287450107D01*
X77695285Y287161738D01*
X77328262Y286794715D01*
X77039893Y286363141D01*
X76841261Y285883601D01*
X76740000Y285374525D01*
X76740000Y284855475D01*
X76841261Y284346399D01*
X77039893Y283866859D01*
X77328262Y283435285D01*
X77695285Y283068262D01*
X78126859Y282779893D01*
X78314909Y282702000D01*
X60439934Y282702000D01*
X59816370Y288937637D01*
X59811476Y288962048D01*
X59801914Y288985035D01*
X59788052Y289005715D01*
X59770421Y289023293D01*
X59749700Y289037093D01*
X59726685Y289046586D01*
X59690000Y289052000D01*
X58089242Y289052000D01*
X58247588Y289194731D01*
X58421641Y289428080D01*
X58427318Y289440000D01*
X71511928Y289440000D01*
X71524188Y289315518D01*
X71560498Y289195820D01*
X71619463Y289085506D01*
X71698815Y288988815D01*
X71795506Y288909463D01*
X71905820Y288850498D01*
X72025518Y288814188D01*
X72150000Y288801928D01*
X72739250Y288805000D01*
X72898000Y288963750D01*
X72898000Y289938000D01*
X73152000Y289938000D01*
X73152000Y288963750D01*
X73310750Y288805000D01*
X73900000Y288801928D01*
X74024482Y288814188D01*
X74144180Y288850498D01*
X74254494Y288909463D01*
X74351185Y288988815D01*
X74430537Y289085506D01*
X74489502Y289195820D01*
X74525812Y289315518D01*
X74538072Y289440000D01*
X74535000Y289779250D01*
X74376250Y289938000D01*
X73152000Y289938000D01*
X72898000Y289938000D01*
X71673750Y289938000D01*
X71515000Y289779250D01*
X71511928Y289440000D01*
X58427318Y289440000D01*
X58546825Y289690901D01*
X58591476Y289838110D01*
X58470155Y290068000D01*
X57277000Y290068000D01*
X57277000Y290048000D01*
X57023000Y290048000D01*
X57023000Y290068000D01*
X55829845Y290068000D01*
X55708524Y289838110D01*
X55753175Y289690901D01*
X55878359Y289428080D01*
X56052412Y289194731D01*
X56210758Y289052000D01*
X43942000Y289052000D01*
X43942000Y302020000D01*
X50041928Y302020000D01*
X50054188Y301895518D01*
X50090498Y301775820D01*
X50149463Y301665506D01*
X50228815Y301568815D01*
X50325506Y301489463D01*
X50435820Y301430498D01*
X50555518Y301394188D01*
X50680000Y301381928D01*
X51019250Y301385000D01*
X51178000Y301543750D01*
X51178000Y302768000D01*
X51432000Y302768000D01*
X51432000Y301543750D01*
X51590750Y301385000D01*
X51930000Y301381928D01*
X52054482Y301394188D01*
X52174180Y301430498D01*
X52284494Y301489463D01*
X52381185Y301568815D01*
X52460537Y301665506D01*
X52519502Y301775820D01*
X52555812Y301895518D01*
X52568072Y302020000D01*
X52565000Y302609250D01*
X52406250Y302768000D01*
X51432000Y302768000D01*
X51178000Y302768000D01*
X50203750Y302768000D01*
X50045000Y302609250D01*
X50041928Y302020000D01*
X43942000Y302020000D01*
X43942000Y304560000D01*
X50041928Y304560000D01*
X50054188Y304435518D01*
X50090498Y304315820D01*
X50149463Y304205506D01*
X50182705Y304165000D01*
X50149463Y304124494D01*
X50090498Y304014180D01*
X50054188Y303894482D01*
X50041928Y303770000D01*
X50045000Y303180750D01*
X50203750Y303022000D01*
X51178000Y303022000D01*
X51178000Y305308000D01*
X51432000Y305308000D01*
X51432000Y303022000D01*
X52406250Y303022000D01*
X52565000Y303180750D01*
X52568072Y303770000D01*
X52555812Y303894482D01*
X52519502Y304014180D01*
X52460537Y304124494D01*
X52427295Y304165000D01*
X52460537Y304205506D01*
X52519502Y304315820D01*
X52555812Y304435518D01*
X52568072Y304560000D01*
X52565000Y305149250D01*
X52406250Y305308000D01*
X51432000Y305308000D01*
X51178000Y305308000D01*
X50203750Y305308000D01*
X50045000Y305149250D01*
X50041928Y304560000D01*
X43942000Y304560000D01*
X43942000Y307100000D01*
X50041928Y307100000D01*
X50054188Y306975518D01*
X50090498Y306855820D01*
X50149463Y306745506D01*
X50182705Y306705000D01*
X50149463Y306664494D01*
X50090498Y306554180D01*
X50054188Y306434482D01*
X50041928Y306310000D01*
X50045000Y305720750D01*
X50203750Y305562000D01*
X51178000Y305562000D01*
X51178000Y307848000D01*
X51432000Y307848000D01*
X51432000Y305562000D01*
X52406250Y305562000D01*
X52565000Y305720750D01*
X52568072Y306310000D01*
X52555812Y306434482D01*
X52519502Y306554180D01*
X52460537Y306664494D01*
X52427295Y306705000D01*
X52460537Y306745506D01*
X52519502Y306855820D01*
X52555812Y306975518D01*
X52568072Y307100000D01*
X52565000Y307689250D01*
X52406250Y307848000D01*
X51432000Y307848000D01*
X51178000Y307848000D01*
X50203750Y307848000D01*
X50045000Y307689250D01*
X50041928Y307100000D01*
X43942000Y307100000D01*
X43942000Y308819909D01*
X44019893Y308631859D01*
X44308262Y308200285D01*
X44675285Y307833262D01*
X45106859Y307544893D01*
X45586399Y307346261D01*
X46095475Y307245000D01*
X46614525Y307245000D01*
X47123601Y307346261D01*
X47603141Y307544893D01*
X48034715Y307833262D01*
X48401738Y308200285D01*
X48690107Y308631859D01*
X48780463Y308850000D01*
X50041928Y308850000D01*
X50045000Y308260750D01*
X50203750Y308102000D01*
X51178000Y308102000D01*
X51178000Y309326250D01*
X51432000Y309326250D01*
X51432000Y308102000D01*
X52406250Y308102000D01*
X52565000Y308260750D01*
X52568072Y308850000D01*
X52555812Y308974482D01*
X52519502Y309094180D01*
X52460537Y309204494D01*
X52381185Y309301185D01*
X52284494Y309380537D01*
X52174180Y309439502D01*
X52054482Y309475812D01*
X51930000Y309488072D01*
X51590750Y309485000D01*
X51432000Y309326250D01*
X51178000Y309326250D01*
X51019250Y309485000D01*
X50680000Y309488072D01*
X50555518Y309475812D01*
X50435820Y309439502D01*
X50325506Y309380537D01*
X50228815Y309301185D01*
X50149463Y309204494D01*
X50090498Y309094180D01*
X50054188Y308974482D01*
X50041928Y308850000D01*
X48780463Y308850000D01*
X48888739Y309111399D01*
X48990000Y309620475D01*
X48990000Y310139525D01*
X48888739Y310648601D01*
X48690107Y311128141D01*
X48401738Y311559715D01*
X48034715Y311926738D01*
X47603141Y312215107D01*
X47415091Y312293000D01*
X52578000Y312293000D01*
X52578000Y301625000D01*
G37*
X52578000Y301625000D02*
X52580440Y301600224D01*
X52587667Y301576399D01*
X52599403Y301554443D01*
X52615197Y301535197D01*
X53250197Y300900197D01*
X53269443Y300884403D01*
X53291399Y300872667D01*
X53315224Y300865440D01*
X53340000Y300863000D01*
X55118000Y300863000D01*
X55118000Y292100000D01*
X55120440Y292075224D01*
X55127667Y292051399D01*
X55139403Y292029443D01*
X55155197Y292010197D01*
X55790197Y291375197D01*
X55809443Y291359403D01*
X55831399Y291347667D01*
X55855224Y291340440D01*
X55880000Y291338000D01*
X56210758Y291338000D01*
X56052412Y291195269D01*
X55878359Y290961920D01*
X55753175Y290699099D01*
X55708524Y290551890D01*
X55829845Y290322000D01*
X57023000Y290322000D01*
X57023000Y290342000D01*
X57277000Y290342000D01*
X57277000Y290322000D01*
X58470155Y290322000D01*
X58591476Y290551890D01*
X58549585Y290690000D01*
X71511928Y290690000D01*
X71515000Y290350750D01*
X71673750Y290192000D01*
X72898000Y290192000D01*
X72898000Y291166250D01*
X73152000Y291166250D01*
X73152000Y290192000D01*
X74376250Y290192000D01*
X74535000Y290350750D01*
X74538072Y290690000D01*
X74525812Y290814482D01*
X74489502Y290934180D01*
X74430537Y291044494D01*
X74351185Y291141185D01*
X74254494Y291220537D01*
X74144180Y291279502D01*
X74024482Y291315812D01*
X73900000Y291328072D01*
X73310750Y291325000D01*
X73152000Y291166250D01*
X72898000Y291166250D01*
X72739250Y291325000D01*
X72150000Y291328072D01*
X72025518Y291315812D01*
X71905820Y291279502D01*
X71795506Y291220537D01*
X71698815Y291141185D01*
X71619463Y291044494D01*
X71560498Y290934180D01*
X71524188Y290814482D01*
X71511928Y290690000D01*
X58549585Y290690000D01*
X58546825Y290699099D01*
X58421641Y290961920D01*
X58247588Y291195269D01*
X58089242Y291338000D01*
X76200000Y291338000D01*
X76224776Y291340440D01*
X76248601Y291347667D01*
X76270557Y291359403D01*
X76289803Y291375197D01*
X76305597Y291394443D01*
X76317333Y291416399D01*
X76324560Y291440224D01*
X76327000Y291465000D01*
X76327000Y292974985D01*
X76501898Y293009774D01*
X76690256Y293087795D01*
X76859774Y293201063D01*
X77003937Y293345226D01*
X77117205Y293514744D01*
X77195226Y293703102D01*
X77235000Y293903061D01*
X77235000Y294106939D01*
X77195226Y294306898D01*
X77117205Y294495256D01*
X77003937Y294664774D01*
X76859774Y294808937D01*
X76690256Y294922205D01*
X76605047Y294957500D01*
X76690256Y294992795D01*
X76859774Y295106063D01*
X77003937Y295250226D01*
X77117205Y295419744D01*
X77195226Y295608102D01*
X77235000Y295808061D01*
X77235000Y296011939D01*
X77195226Y296211898D01*
X77117205Y296400256D01*
X77003937Y296569774D01*
X76960000Y296613711D01*
X76960000Y299047678D01*
X76963676Y299085001D01*
X76960000Y299122324D01*
X76960000Y299122333D01*
X76949003Y299233986D01*
X76905546Y299377247D01*
X76834974Y299509276D01*
X76740001Y299625001D01*
X76711003Y299648799D01*
X76327000Y300032802D01*
X76327000Y304126548D01*
X76595000Y304528548D01*
X76595000Y304412998D01*
X76753748Y304412998D01*
X76595000Y304254250D01*
X76591928Y303915000D01*
X76604188Y303790518D01*
X76640498Y303670820D01*
X76699463Y303560506D01*
X76778815Y303463815D01*
X76875506Y303384463D01*
X76985820Y303325498D01*
X77105518Y303289188D01*
X77230000Y303276928D01*
X77819250Y303280000D01*
X77978000Y303438750D01*
X77978000Y304413000D01*
X78232000Y304413000D01*
X78232000Y303438750D01*
X78390750Y303280000D01*
X78980000Y303276928D01*
X79104482Y303289188D01*
X79224180Y303325498D01*
X79334494Y303384463D01*
X79431185Y303463815D01*
X79510537Y303560506D01*
X79569502Y303670820D01*
X79605812Y303790518D01*
X79618072Y303915000D01*
X79615000Y304254250D01*
X79456250Y304413000D01*
X78232000Y304413000D01*
X77978000Y304413000D01*
X77958000Y304413000D01*
X77958000Y304667000D01*
X77978000Y304667000D01*
X77978000Y305641250D01*
X78232000Y305641250D01*
X78232000Y304667000D01*
X79456250Y304667000D01*
X79615000Y304825750D01*
X79618072Y305165000D01*
X79605812Y305289482D01*
X79569502Y305409180D01*
X79510537Y305519494D01*
X79431185Y305616185D01*
X79334494Y305695537D01*
X79224180Y305754502D01*
X79104482Y305790812D01*
X78980000Y305803072D01*
X78390750Y305800000D01*
X78232000Y305641250D01*
X77978000Y305641250D01*
X77819250Y305800000D01*
X77443939Y305801957D01*
X77537968Y305943000D01*
X81788000Y305943000D01*
X81788000Y286175091D01*
X81710107Y286363141D01*
X81421738Y286794715D01*
X81054715Y287161738D01*
X80623141Y287450107D01*
X80143601Y287648739D01*
X79634525Y287750000D01*
X79115475Y287750000D01*
X78606399Y287648739D01*
X78126859Y287450107D01*
X77695285Y287161738D01*
X77328262Y286794715D01*
X77039893Y286363141D01*
X76841261Y285883601D01*
X76740000Y285374525D01*
X76740000Y284855475D01*
X76841261Y284346399D01*
X77039893Y283866859D01*
X77328262Y283435285D01*
X77695285Y283068262D01*
X78126859Y282779893D01*
X78314909Y282702000D01*
X60439934Y282702000D01*
X59816370Y288937637D01*
X59811476Y288962048D01*
X59801914Y288985035D01*
X59788052Y289005715D01*
X59770421Y289023293D01*
X59749700Y289037093D01*
X59726685Y289046586D01*
X59690000Y289052000D01*
X58089242Y289052000D01*
X58247588Y289194731D01*
X58421641Y289428080D01*
X58427318Y289440000D01*
X71511928Y289440000D01*
X71524188Y289315518D01*
X71560498Y289195820D01*
X71619463Y289085506D01*
X71698815Y288988815D01*
X71795506Y288909463D01*
X71905820Y288850498D01*
X72025518Y288814188D01*
X72150000Y288801928D01*
X72739250Y288805000D01*
X72898000Y288963750D01*
X72898000Y289938000D01*
X73152000Y289938000D01*
X73152000Y288963750D01*
X73310750Y288805000D01*
X73900000Y288801928D01*
X74024482Y288814188D01*
X74144180Y288850498D01*
X74254494Y288909463D01*
X74351185Y288988815D01*
X74430537Y289085506D01*
X74489502Y289195820D01*
X74525812Y289315518D01*
X74538072Y289440000D01*
X74535000Y289779250D01*
X74376250Y289938000D01*
X73152000Y289938000D01*
X72898000Y289938000D01*
X71673750Y289938000D01*
X71515000Y289779250D01*
X71511928Y289440000D01*
X58427318Y289440000D01*
X58546825Y289690901D01*
X58591476Y289838110D01*
X58470155Y290068000D01*
X57277000Y290068000D01*
X57277000Y290048000D01*
X57023000Y290048000D01*
X57023000Y290068000D01*
X55829845Y290068000D01*
X55708524Y289838110D01*
X55753175Y289690901D01*
X55878359Y289428080D01*
X56052412Y289194731D01*
X56210758Y289052000D01*
X43942000Y289052000D01*
X43942000Y302020000D01*
X50041928Y302020000D01*
X50054188Y301895518D01*
X50090498Y301775820D01*
X50149463Y301665506D01*
X50228815Y301568815D01*
X50325506Y301489463D01*
X50435820Y301430498D01*
X50555518Y301394188D01*
X50680000Y301381928D01*
X51019250Y301385000D01*
X51178000Y301543750D01*
X51178000Y302768000D01*
X51432000Y302768000D01*
X51432000Y301543750D01*
X51590750Y301385000D01*
X51930000Y301381928D01*
X52054482Y301394188D01*
X52174180Y301430498D01*
X52284494Y301489463D01*
X52381185Y301568815D01*
X52460537Y301665506D01*
X52519502Y301775820D01*
X52555812Y301895518D01*
X52568072Y302020000D01*
X52565000Y302609250D01*
X52406250Y302768000D01*
X51432000Y302768000D01*
X51178000Y302768000D01*
X50203750Y302768000D01*
X50045000Y302609250D01*
X50041928Y302020000D01*
X43942000Y302020000D01*
X43942000Y304560000D01*
X50041928Y304560000D01*
X50054188Y304435518D01*
X50090498Y304315820D01*
X50149463Y304205506D01*
X50182705Y304165000D01*
X50149463Y304124494D01*
X50090498Y304014180D01*
X50054188Y303894482D01*
X50041928Y303770000D01*
X50045000Y303180750D01*
X50203750Y303022000D01*
X51178000Y303022000D01*
X51178000Y305308000D01*
X51432000Y305308000D01*
X51432000Y303022000D01*
X52406250Y303022000D01*
X52565000Y303180750D01*
X52568072Y303770000D01*
X52555812Y303894482D01*
X52519502Y304014180D01*
X52460537Y304124494D01*
X52427295Y304165000D01*
X52460537Y304205506D01*
X52519502Y304315820D01*
X52555812Y304435518D01*
X52568072Y304560000D01*
X52565000Y305149250D01*
X52406250Y305308000D01*
X51432000Y305308000D01*
X51178000Y305308000D01*
X50203750Y305308000D01*
X50045000Y305149250D01*
X50041928Y304560000D01*
X43942000Y304560000D01*
X43942000Y307100000D01*
X50041928Y307100000D01*
X50054188Y306975518D01*
X50090498Y306855820D01*
X50149463Y306745506D01*
X50182705Y306705000D01*
X50149463Y306664494D01*
X50090498Y306554180D01*
X50054188Y306434482D01*
X50041928Y306310000D01*
X50045000Y305720750D01*
X50203750Y305562000D01*
X51178000Y305562000D01*
X51178000Y307848000D01*
X51432000Y307848000D01*
X51432000Y305562000D01*
X52406250Y305562000D01*
X52565000Y305720750D01*
X52568072Y306310000D01*
X52555812Y306434482D01*
X52519502Y306554180D01*
X52460537Y306664494D01*
X52427295Y306705000D01*
X52460537Y306745506D01*
X52519502Y306855820D01*
X52555812Y306975518D01*
X52568072Y307100000D01*
X52565000Y307689250D01*
X52406250Y307848000D01*
X51432000Y307848000D01*
X51178000Y307848000D01*
X50203750Y307848000D01*
X50045000Y307689250D01*
X50041928Y307100000D01*
X43942000Y307100000D01*
X43942000Y308819909D01*
X44019893Y308631859D01*
X44308262Y308200285D01*
X44675285Y307833262D01*
X45106859Y307544893D01*
X45586399Y307346261D01*
X46095475Y307245000D01*
X46614525Y307245000D01*
X47123601Y307346261D01*
X47603141Y307544893D01*
X48034715Y307833262D01*
X48401738Y308200285D01*
X48690107Y308631859D01*
X48780463Y308850000D01*
X50041928Y308850000D01*
X50045000Y308260750D01*
X50203750Y308102000D01*
X51178000Y308102000D01*
X51178000Y309326250D01*
X51432000Y309326250D01*
X51432000Y308102000D01*
X52406250Y308102000D01*
X52565000Y308260750D01*
X52568072Y308850000D01*
X52555812Y308974482D01*
X52519502Y309094180D01*
X52460537Y309204494D01*
X52381185Y309301185D01*
X52284494Y309380537D01*
X52174180Y309439502D01*
X52054482Y309475812D01*
X51930000Y309488072D01*
X51590750Y309485000D01*
X51432000Y309326250D01*
X51178000Y309326250D01*
X51019250Y309485000D01*
X50680000Y309488072D01*
X50555518Y309475812D01*
X50435820Y309439502D01*
X50325506Y309380537D01*
X50228815Y309301185D01*
X50149463Y309204494D01*
X50090498Y309094180D01*
X50054188Y308974482D01*
X50041928Y308850000D01*
X48780463Y308850000D01*
X48888739Y309111399D01*
X48990000Y309620475D01*
X48990000Y310139525D01*
X48888739Y310648601D01*
X48690107Y311128141D01*
X48401738Y311559715D01*
X48034715Y311926738D01*
X47603141Y312215107D01*
X47415091Y312293000D01*
X52578000Y312293000D01*
X52578000Y301625000D01*
G36*
X46851928Y286980000D02*
G01*
X46864188Y286855518D01*
X46900498Y286735820D01*
X46959463Y286625506D01*
X47038815Y286528815D01*
X47135506Y286449463D01*
X47245820Y286390498D01*
X47365518Y286354188D01*
X47490000Y286341928D01*
X48840000Y286341928D01*
X48964482Y286354188D01*
X49084180Y286390498D01*
X49194494Y286449463D01*
X49291185Y286528815D01*
X49362487Y286615697D01*
X49544482Y286494093D01*
X49782887Y286395342D01*
X50035976Y286345000D01*
X50294024Y286345000D01*
X50547113Y286395342D01*
X50785518Y286494093D01*
X51000077Y286637456D01*
X51171681Y286809060D01*
X51293773Y286676697D01*
X51501371Y286525527D01*
X51734472Y286417762D01*
X51835600Y286387090D01*
X52038000Y286510776D01*
X52038000Y287528000D01*
X52292000Y287528000D01*
X52292000Y286510776D01*
X52494400Y286387090D01*
X52595528Y286417762D01*
X52828629Y286525527D01*
X53036227Y286676697D01*
X53210344Y286865463D01*
X53344289Y287084570D01*
X53432915Y287325599D01*
X53310085Y287528000D01*
X52292000Y287528000D01*
X52038000Y287528000D01*
X52018000Y287528000D01*
X52018000Y287782000D01*
X52038000Y287782000D01*
X52038000Y287802000D01*
X52292000Y287802000D01*
X52292000Y287782000D01*
X53310085Y287782000D01*
X53432915Y287984401D01*
X53367244Y288163000D01*
X55755033Y288163000D01*
X55753175Y288159099D01*
X55708524Y288011890D01*
X55829845Y287782000D01*
X57023000Y287782000D01*
X57023000Y287802000D01*
X57277000Y287802000D01*
X57277000Y287782000D01*
X58470155Y287782000D01*
X58591476Y288011890D01*
X58546825Y288159099D01*
X58544967Y288163000D01*
X58928000Y288163000D01*
X58928000Y282702000D01*
X43942000Y282702000D01*
X43942000Y285965000D01*
X55661928Y285965000D01*
X55661928Y284265000D01*
X55674188Y284140518D01*
X55710498Y284020820D01*
X55769463Y283910506D01*
X55848815Y283813815D01*
X55945506Y283734463D01*
X56055820Y283675498D01*
X56175518Y283639188D01*
X56300000Y283626928D01*
X58000000Y283626928D01*
X58124482Y283639188D01*
X58244180Y283675498D01*
X58354494Y283734463D01*
X58451185Y283813815D01*
X58530537Y283910506D01*
X58589502Y284020820D01*
X58625812Y284140518D01*
X58638072Y284265000D01*
X58638072Y285965000D01*
X58625812Y286089482D01*
X58589502Y286209180D01*
X58530537Y286319494D01*
X58451185Y286416185D01*
X58354494Y286495537D01*
X58244180Y286554502D01*
X58163534Y286578966D01*
X58247588Y286654731D01*
X58421641Y286888080D01*
X58546825Y287150901D01*
X58591476Y287298110D01*
X58470155Y287528000D01*
X57277000Y287528000D01*
X57277000Y287508000D01*
X57023000Y287508000D01*
X57023000Y287528000D01*
X55829845Y287528000D01*
X55708524Y287298110D01*
X55753175Y287150901D01*
X55878359Y286888080D01*
X56052412Y286654731D01*
X56136466Y286578966D01*
X56055820Y286554502D01*
X55945506Y286495537D01*
X55848815Y286416185D01*
X55769463Y286319494D01*
X55710498Y286209180D01*
X55674188Y286089482D01*
X55661928Y285965000D01*
X43942000Y285965000D01*
X43942000Y288163000D01*
X46851928Y288163000D01*
X46851928Y286980000D01*
G37*
X46851928Y286980000D02*
X46864188Y286855518D01*
X46900498Y286735820D01*
X46959463Y286625506D01*
X47038815Y286528815D01*
X47135506Y286449463D01*
X47245820Y286390498D01*
X47365518Y286354188D01*
X47490000Y286341928D01*
X48840000Y286341928D01*
X48964482Y286354188D01*
X49084180Y286390498D01*
X49194494Y286449463D01*
X49291185Y286528815D01*
X49362487Y286615697D01*
X49544482Y286494093D01*
X49782887Y286395342D01*
X50035976Y286345000D01*
X50294024Y286345000D01*
X50547113Y286395342D01*
X50785518Y286494093D01*
X51000077Y286637456D01*
X51171681Y286809060D01*
X51293773Y286676697D01*
X51501371Y286525527D01*
X51734472Y286417762D01*
X51835600Y286387090D01*
X52038000Y286510776D01*
X52038000Y287528000D01*
X52292000Y287528000D01*
X52292000Y286510776D01*
X52494400Y286387090D01*
X52595528Y286417762D01*
X52828629Y286525527D01*
X53036227Y286676697D01*
X53210344Y286865463D01*
X53344289Y287084570D01*
X53432915Y287325599D01*
X53310085Y287528000D01*
X52292000Y287528000D01*
X52038000Y287528000D01*
X52018000Y287528000D01*
X52018000Y287782000D01*
X52038000Y287782000D01*
X52038000Y287802000D01*
X52292000Y287802000D01*
X52292000Y287782000D01*
X53310085Y287782000D01*
X53432915Y287984401D01*
X53367244Y288163000D01*
X55755033Y288163000D01*
X55753175Y288159099D01*
X55708524Y288011890D01*
X55829845Y287782000D01*
X57023000Y287782000D01*
X57023000Y287802000D01*
X57277000Y287802000D01*
X57277000Y287782000D01*
X58470155Y287782000D01*
X58591476Y288011890D01*
X58546825Y288159099D01*
X58544967Y288163000D01*
X58928000Y288163000D01*
X58928000Y282702000D01*
X43942000Y282702000D01*
X43942000Y285965000D01*
X55661928Y285965000D01*
X55661928Y284265000D01*
X55674188Y284140518D01*
X55710498Y284020820D01*
X55769463Y283910506D01*
X55848815Y283813815D01*
X55945506Y283734463D01*
X56055820Y283675498D01*
X56175518Y283639188D01*
X56300000Y283626928D01*
X58000000Y283626928D01*
X58124482Y283639188D01*
X58244180Y283675498D01*
X58354494Y283734463D01*
X58451185Y283813815D01*
X58530537Y283910506D01*
X58589502Y284020820D01*
X58625812Y284140518D01*
X58638072Y284265000D01*
X58638072Y285965000D01*
X58625812Y286089482D01*
X58589502Y286209180D01*
X58530537Y286319494D01*
X58451185Y286416185D01*
X58354494Y286495537D01*
X58244180Y286554502D01*
X58163534Y286578966D01*
X58247588Y286654731D01*
X58421641Y286888080D01*
X58546825Y287150901D01*
X58591476Y287298110D01*
X58470155Y287528000D01*
X57277000Y287528000D01*
X57277000Y287508000D01*
X57023000Y287508000D01*
X57023000Y287528000D01*
X55829845Y287528000D01*
X55708524Y287298110D01*
X55753175Y287150901D01*
X55878359Y286888080D01*
X56052412Y286654731D01*
X56136466Y286578966D01*
X56055820Y286554502D01*
X55945506Y286495537D01*
X55848815Y286416185D01*
X55769463Y286319494D01*
X55710498Y286209180D01*
X55674188Y286089482D01*
X55661928Y285965000D01*
X43942000Y285965000D01*
X43942000Y288163000D01*
X46851928Y288163000D01*
X46851928Y286980000D01*
G36*
X76708000Y310071770D02*
G01*
X76684180Y310084502D01*
X76564482Y310120812D01*
X76440000Y310133072D01*
X75850750Y310130000D01*
X75692000Y309971250D01*
X75692000Y308997000D01*
X75712000Y308997000D01*
X75712000Y308743000D01*
X75692000Y308743000D01*
X75692000Y308723000D01*
X75438000Y308723000D01*
X75438000Y308743000D01*
X74213750Y308743000D01*
X74055000Y308584250D01*
X74051928Y308245000D01*
X74064188Y308120518D01*
X74069805Y308102000D01*
X70551711Y308102000D01*
X70509774Y308143937D01*
X70340256Y308257205D01*
X70151898Y308335226D01*
X69951939Y308375000D01*
X69748061Y308375000D01*
X69548102Y308335226D01*
X69474501Y308304739D01*
X68683442Y308700269D01*
X68604774Y308778937D01*
X68562266Y308807340D01*
X67874606Y309495000D01*
X74051928Y309495000D01*
X74055000Y309155750D01*
X74213750Y308997000D01*
X75438000Y308997000D01*
X75438000Y309971250D01*
X75279250Y310130000D01*
X74690000Y310133072D01*
X74565518Y310120812D01*
X74445820Y310084502D01*
X74335506Y310025537D01*
X74238815Y309946185D01*
X74159463Y309849494D01*
X74100498Y309739180D01*
X74064188Y309619482D01*
X74051928Y309495000D01*
X67874606Y309495000D01*
X67399803Y309969803D01*
X67380557Y309985597D01*
X67358601Y309997333D01*
X67334776Y310004560D01*
X67310000Y310007000D01*
X61595000Y310007000D01*
X61570224Y310004560D01*
X61546399Y309997333D01*
X61524443Y309985597D01*
X61505197Y309969803D01*
X60235197Y308699803D01*
X60219403Y308680557D01*
X60207667Y308658601D01*
X60200440Y308634776D01*
X60198000Y308610000D01*
X60198000Y304800000D01*
X60200440Y304775224D01*
X60207667Y304751399D01*
X60219403Y304729443D01*
X60235197Y304710197D01*
X60870197Y304075197D01*
X60889443Y304059403D01*
X60911399Y304047667D01*
X60935224Y304040440D01*
X60960000Y304038000D01*
X62812394Y304038000D01*
X62953114Y303897280D01*
X62515750Y303895000D01*
X62357000Y303736250D01*
X62357000Y302762000D01*
X63581250Y302762000D01*
X63740000Y302920750D01*
X63741702Y303108692D01*
X64008000Y302842394D01*
X64008000Y299290096D01*
X63900456Y299260353D01*
X63788719Y299204132D01*
X63742411Y299168005D01*
X63740000Y299434250D01*
X63581250Y299593000D01*
X62357000Y299593000D01*
X62357000Y299573000D01*
X62103000Y299573000D01*
X62103000Y299593000D01*
X60878750Y299593000D01*
X60720000Y299434250D01*
X60716928Y299095000D01*
X60729188Y298970518D01*
X60765498Y298850820D01*
X60824463Y298740506D01*
X60903815Y298643815D01*
X60985230Y298577000D01*
X59182000Y298577000D01*
X59182000Y300345000D01*
X60716928Y300345000D01*
X60720000Y300005750D01*
X60878750Y299847000D01*
X62103000Y299847000D01*
X62103000Y300821250D01*
X62357000Y300821250D01*
X62357000Y299847000D01*
X63581250Y299847000D01*
X63740000Y300005750D01*
X63743072Y300345000D01*
X63730812Y300469482D01*
X63694502Y300589180D01*
X63635537Y300699494D01*
X63556185Y300796185D01*
X63459494Y300875537D01*
X63349180Y300934502D01*
X63229482Y300970812D01*
X63105000Y300983072D01*
X62515750Y300980000D01*
X62357000Y300821250D01*
X62103000Y300821250D01*
X61944250Y300980000D01*
X61355000Y300983072D01*
X61230518Y300970812D01*
X61110820Y300934502D01*
X61000506Y300875537D01*
X60903815Y300796185D01*
X60824463Y300699494D01*
X60765498Y300589180D01*
X60729188Y300469482D01*
X60716928Y300345000D01*
X59182000Y300345000D01*
X59182000Y302010000D01*
X60716928Y302010000D01*
X60729188Y301885518D01*
X60765498Y301765820D01*
X60824463Y301655506D01*
X60903815Y301558815D01*
X61000506Y301479463D01*
X61110820Y301420498D01*
X61230518Y301384188D01*
X61355000Y301371928D01*
X61944250Y301375000D01*
X62103000Y301533750D01*
X62103000Y302508000D01*
X62357000Y302508000D01*
X62357000Y301533750D01*
X62515750Y301375000D01*
X63105000Y301371928D01*
X63229482Y301384188D01*
X63349180Y301420498D01*
X63459494Y301479463D01*
X63556185Y301558815D01*
X63635537Y301655506D01*
X63694502Y301765820D01*
X63730812Y301885518D01*
X63743072Y302010000D01*
X63740000Y302349250D01*
X63581250Y302508000D01*
X62357000Y302508000D01*
X62103000Y302508000D01*
X60878750Y302508000D01*
X60720000Y302349250D01*
X60716928Y302010000D01*
X59182000Y302010000D01*
X59182000Y303260000D01*
X60716928Y303260000D01*
X60720000Y302920750D01*
X60878750Y302762000D01*
X62103000Y302762000D01*
X62103000Y303736250D01*
X61944250Y303895000D01*
X61355000Y303898072D01*
X61230518Y303885812D01*
X61110820Y303849502D01*
X61000506Y303790537D01*
X60903815Y303711185D01*
X60824463Y303614494D01*
X60765498Y303504180D01*
X60729188Y303384482D01*
X60716928Y303260000D01*
X59182000Y303260000D01*
X59182000Y308610000D01*
X59179560Y308634776D01*
X59172333Y308658601D01*
X59160597Y308680557D01*
X59144803Y308699803D01*
X58509803Y309334803D01*
X58490557Y309350597D01*
X58468601Y309362333D01*
X58444776Y309369560D01*
X58420000Y309372000D01*
X58089242Y309372000D01*
X58247588Y309514731D01*
X58421641Y309748080D01*
X58546825Y310010901D01*
X58591476Y310158110D01*
X58470155Y310388000D01*
X57277000Y310388000D01*
X57277000Y310368000D01*
X57023000Y310368000D01*
X57023000Y310388000D01*
X55829845Y310388000D01*
X55708524Y310158110D01*
X55753175Y310010901D01*
X55878359Y309748080D01*
X56052412Y309514731D01*
X56210758Y309372000D01*
X55297606Y309372000D01*
X54737000Y309932606D01*
X54737000Y310871890D01*
X55708524Y310871890D01*
X55829845Y310642000D01*
X57023000Y310642000D01*
X57023000Y311835814D01*
X57277000Y311835814D01*
X57277000Y310642000D01*
X58470155Y310642000D01*
X58591476Y310871890D01*
X58546825Y311019099D01*
X58421641Y311281920D01*
X58247588Y311515269D01*
X58031355Y311710178D01*
X57781252Y311859157D01*
X57506891Y311956481D01*
X57277000Y311835814D01*
X57023000Y311835814D01*
X56793109Y311956481D01*
X56518748Y311859157D01*
X56268645Y311710178D01*
X56052412Y311515269D01*
X55878359Y311281920D01*
X55753175Y311019099D01*
X55708524Y310871890D01*
X54737000Y310871890D01*
X54737000Y312293000D01*
X76708000Y312293000D01*
X76708000Y310071770D01*
G37*
X76708000Y310071770D02*
X76684180Y310084502D01*
X76564482Y310120812D01*
X76440000Y310133072D01*
X75850750Y310130000D01*
X75692000Y309971250D01*
X75692000Y308997000D01*
X75712000Y308997000D01*
X75712000Y308743000D01*
X75692000Y308743000D01*
X75692000Y308723000D01*
X75438000Y308723000D01*
X75438000Y308743000D01*
X74213750Y308743000D01*
X74055000Y308584250D01*
X74051928Y308245000D01*
X74064188Y308120518D01*
X74069805Y308102000D01*
X70551711Y308102000D01*
X70509774Y308143937D01*
X70340256Y308257205D01*
X70151898Y308335226D01*
X69951939Y308375000D01*
X69748061Y308375000D01*
X69548102Y308335226D01*
X69474501Y308304739D01*
X68683442Y308700269D01*
X68604774Y308778937D01*
X68562266Y308807340D01*
X67874606Y309495000D01*
X74051928Y309495000D01*
X74055000Y309155750D01*
X74213750Y308997000D01*
X75438000Y308997000D01*
X75438000Y309971250D01*
X75279250Y310130000D01*
X74690000Y310133072D01*
X74565518Y310120812D01*
X74445820Y310084502D01*
X74335506Y310025537D01*
X74238815Y309946185D01*
X74159463Y309849494D01*
X74100498Y309739180D01*
X74064188Y309619482D01*
X74051928Y309495000D01*
X67874606Y309495000D01*
X67399803Y309969803D01*
X67380557Y309985597D01*
X67358601Y309997333D01*
X67334776Y310004560D01*
X67310000Y310007000D01*
X61595000Y310007000D01*
X61570224Y310004560D01*
X61546399Y309997333D01*
X61524443Y309985597D01*
X61505197Y309969803D01*
X60235197Y308699803D01*
X60219403Y308680557D01*
X60207667Y308658601D01*
X60200440Y308634776D01*
X60198000Y308610000D01*
X60198000Y304800000D01*
X60200440Y304775224D01*
X60207667Y304751399D01*
X60219403Y304729443D01*
X60235197Y304710197D01*
X60870197Y304075197D01*
X60889443Y304059403D01*
X60911399Y304047667D01*
X60935224Y304040440D01*
X60960000Y304038000D01*
X62812394Y304038000D01*
X62953114Y303897280D01*
X62515750Y303895000D01*
X62357000Y303736250D01*
X62357000Y302762000D01*
X63581250Y302762000D01*
X63740000Y302920750D01*
X63741702Y303108692D01*
X64008000Y302842394D01*
X64008000Y299290096D01*
X63900456Y299260353D01*
X63788719Y299204132D01*
X63742411Y299168005D01*
X63740000Y299434250D01*
X63581250Y299593000D01*
X62357000Y299593000D01*
X62357000Y299573000D01*
X62103000Y299573000D01*
X62103000Y299593000D01*
X60878750Y299593000D01*
X60720000Y299434250D01*
X60716928Y299095000D01*
X60729188Y298970518D01*
X60765498Y298850820D01*
X60824463Y298740506D01*
X60903815Y298643815D01*
X60985230Y298577000D01*
X59182000Y298577000D01*
X59182000Y300345000D01*
X60716928Y300345000D01*
X60720000Y300005750D01*
X60878750Y299847000D01*
X62103000Y299847000D01*
X62103000Y300821250D01*
X62357000Y300821250D01*
X62357000Y299847000D01*
X63581250Y299847000D01*
X63740000Y300005750D01*
X63743072Y300345000D01*
X63730812Y300469482D01*
X63694502Y300589180D01*
X63635537Y300699494D01*
X63556185Y300796185D01*
X63459494Y300875537D01*
X63349180Y300934502D01*
X63229482Y300970812D01*
X63105000Y300983072D01*
X62515750Y300980000D01*
X62357000Y300821250D01*
X62103000Y300821250D01*
X61944250Y300980000D01*
X61355000Y300983072D01*
X61230518Y300970812D01*
X61110820Y300934502D01*
X61000506Y300875537D01*
X60903815Y300796185D01*
X60824463Y300699494D01*
X60765498Y300589180D01*
X60729188Y300469482D01*
X60716928Y300345000D01*
X59182000Y300345000D01*
X59182000Y302010000D01*
X60716928Y302010000D01*
X60729188Y301885518D01*
X60765498Y301765820D01*
X60824463Y301655506D01*
X60903815Y301558815D01*
X61000506Y301479463D01*
X61110820Y301420498D01*
X61230518Y301384188D01*
X61355000Y301371928D01*
X61944250Y301375000D01*
X62103000Y301533750D01*
X62103000Y302508000D01*
X62357000Y302508000D01*
X62357000Y301533750D01*
X62515750Y301375000D01*
X63105000Y301371928D01*
X63229482Y301384188D01*
X63349180Y301420498D01*
X63459494Y301479463D01*
X63556185Y301558815D01*
X63635537Y301655506D01*
X63694502Y301765820D01*
X63730812Y301885518D01*
X63743072Y302010000D01*
X63740000Y302349250D01*
X63581250Y302508000D01*
X62357000Y302508000D01*
X62103000Y302508000D01*
X60878750Y302508000D01*
X60720000Y302349250D01*
X60716928Y302010000D01*
X59182000Y302010000D01*
X59182000Y303260000D01*
X60716928Y303260000D01*
X60720000Y302920750D01*
X60878750Y302762000D01*
X62103000Y302762000D01*
X62103000Y303736250D01*
X61944250Y303895000D01*
X61355000Y303898072D01*
X61230518Y303885812D01*
X61110820Y303849502D01*
X61000506Y303790537D01*
X60903815Y303711185D01*
X60824463Y303614494D01*
X60765498Y303504180D01*
X60729188Y303384482D01*
X60716928Y303260000D01*
X59182000Y303260000D01*
X59182000Y308610000D01*
X59179560Y308634776D01*
X59172333Y308658601D01*
X59160597Y308680557D01*
X59144803Y308699803D01*
X58509803Y309334803D01*
X58490557Y309350597D01*
X58468601Y309362333D01*
X58444776Y309369560D01*
X58420000Y309372000D01*
X58089242Y309372000D01*
X58247588Y309514731D01*
X58421641Y309748080D01*
X58546825Y310010901D01*
X58591476Y310158110D01*
X58470155Y310388000D01*
X57277000Y310388000D01*
X57277000Y310368000D01*
X57023000Y310368000D01*
X57023000Y310388000D01*
X55829845Y310388000D01*
X55708524Y310158110D01*
X55753175Y310010901D01*
X55878359Y309748080D01*
X56052412Y309514731D01*
X56210758Y309372000D01*
X55297606Y309372000D01*
X54737000Y309932606D01*
X54737000Y310871890D01*
X55708524Y310871890D01*
X55829845Y310642000D01*
X57023000Y310642000D01*
X57023000Y311835814D01*
X57277000Y311835814D01*
X57277000Y310642000D01*
X58470155Y310642000D01*
X58591476Y310871890D01*
X58546825Y311019099D01*
X58421641Y311281920D01*
X58247588Y311515269D01*
X58031355Y311710178D01*
X57781252Y311859157D01*
X57506891Y311956481D01*
X57277000Y311835814D01*
X57023000Y311835814D01*
X56793109Y311956481D01*
X56518748Y311859157D01*
X56268645Y311710178D01*
X56052412Y311515269D01*
X55878359Y311281920D01*
X55753175Y311019099D01*
X55708524Y310871890D01*
X54737000Y310871890D01*
X54737000Y312293000D01*
X76708000Y312293000D01*
X76708000Y310071770D01*
G36*
X75438000Y301752000D02*
G01*
X73960534Y301752000D01*
X73869850Y301800472D01*
X73703254Y301851008D01*
X73530000Y301868072D01*
X72780000Y301868072D01*
X72606746Y301851008D01*
X72440150Y301800472D01*
X72286614Y301718405D01*
X72152038Y301607962D01*
X72041595Y301473386D01*
X72021862Y301436468D01*
X71665197Y301079803D01*
X71649403Y301060557D01*
X71637667Y301038601D01*
X71630440Y301014776D01*
X71628000Y300990000D01*
X71628000Y298127801D01*
X71615074Y298114875D01*
X71618072Y298690000D01*
X71605812Y298814482D01*
X71569502Y298934180D01*
X71510537Y299044494D01*
X71477295Y299085000D01*
X71510537Y299125506D01*
X71569502Y299235820D01*
X71605812Y299355518D01*
X71618072Y299480000D01*
X71615000Y300069250D01*
X71456250Y300228000D01*
X70482000Y300228000D01*
X70482000Y297942000D01*
X70502000Y297942000D01*
X70502000Y297688000D01*
X70482000Y297688000D01*
X70482000Y297668000D01*
X70228000Y297668000D01*
X70228000Y297688000D01*
X69253750Y297688000D01*
X69095000Y297529250D01*
X69091928Y296940000D01*
X69104188Y296815518D01*
X69140498Y296695820D01*
X69160176Y296659006D01*
X69144443Y296650597D01*
X69125197Y296634803D01*
X69109403Y296615557D01*
X69097667Y296593601D01*
X69090440Y296569776D01*
X69088000Y296545000D01*
X69088000Y294827115D01*
X69074180Y294834502D01*
X68954482Y294870812D01*
X68830000Y294883072D01*
X68490750Y294880000D01*
X68332000Y294721250D01*
X68332000Y293497000D01*
X69306250Y293497000D01*
X69465000Y293655750D01*
X69466420Y293928168D01*
X69486614Y293911595D01*
X69640150Y293829528D01*
X69806746Y293778992D01*
X69980000Y293761928D01*
X70730000Y293761928D01*
X70903254Y293778992D01*
X71069850Y293829528D01*
X71160534Y293878000D01*
X71646961Y293878000D01*
X71619463Y293844494D01*
X71560498Y293734180D01*
X71524188Y293614482D01*
X71511928Y293490000D01*
X71515000Y293150750D01*
X71673750Y292992000D01*
X72898000Y292992000D01*
X72898000Y293012000D01*
X73152000Y293012000D01*
X73152000Y292992000D01*
X74376250Y292992000D01*
X74535000Y293150750D01*
X74538072Y293490000D01*
X74525812Y293614482D01*
X74489502Y293734180D01*
X74430537Y293844494D01*
X74377459Y293909170D01*
X74384803Y293915197D01*
X74400597Y293934443D01*
X74412333Y293956399D01*
X74419560Y293980224D01*
X74422000Y294005000D01*
X74422000Y294513000D01*
X74617199Y294513000D01*
X75085822Y294044376D01*
X75170629Y293874762D01*
X75204774Y293703102D01*
X75282795Y293514744D01*
X75396063Y293345226D01*
X75438000Y293303289D01*
X75438000Y292227000D01*
X74536792Y292227000D01*
X74538072Y292240000D01*
X74535000Y292579250D01*
X74376250Y292738000D01*
X73152000Y292738000D01*
X73152000Y292718000D01*
X72898000Y292718000D01*
X72898000Y292738000D01*
X71673750Y292738000D01*
X71515000Y292579250D01*
X71511928Y292240000D01*
X71513208Y292227000D01*
X69406770Y292227000D01*
X69419502Y292250820D01*
X69455812Y292370518D01*
X69468072Y292495000D01*
X69465000Y293084250D01*
X69306250Y293243000D01*
X68332000Y293243000D01*
X68332000Y293223000D01*
X68078000Y293223000D01*
X68078000Y293243000D01*
X67103750Y293243000D01*
X66945000Y293084250D01*
X66941928Y292495000D01*
X66954188Y292370518D01*
X66990498Y292250820D01*
X67003230Y292227000D01*
X66774158Y292227000D01*
X66661455Y292677813D01*
X66668072Y292745000D01*
X66668072Y293995000D01*
X66651008Y294168254D01*
X66627728Y294245000D01*
X66941928Y294245000D01*
X66945000Y293655750D01*
X67103750Y293497000D01*
X68078000Y293497000D01*
X68078000Y294721250D01*
X67919250Y294880000D01*
X67580000Y294883072D01*
X67455518Y294870812D01*
X67335820Y294834502D01*
X67225506Y294775537D01*
X67128815Y294696185D01*
X67049463Y294599494D01*
X66990498Y294489180D01*
X66954188Y294369482D01*
X66941928Y294245000D01*
X66627728Y294245000D01*
X66600472Y294334850D01*
X66518405Y294488386D01*
X66407962Y294622962D01*
X66273386Y294733405D01*
X66167000Y294790270D01*
X66167000Y296427750D01*
X66228000Y296488750D01*
X66228000Y296976928D01*
X66482000Y296976928D01*
X66482000Y296488750D01*
X66640750Y296330000D01*
X66664239Y296327123D01*
X66788986Y296336305D01*
X66909544Y296369647D01*
X67021281Y296425868D01*
X67119903Y296502808D01*
X67201619Y296597510D01*
X67263290Y296706334D01*
X67302546Y296825098D01*
X67315000Y296933250D01*
X67156250Y297092000D01*
X67049710Y297092000D01*
X67107249Y297109454D01*
X67239278Y297180026D01*
X67355003Y297274999D01*
X67378805Y297304002D01*
X68456008Y298381203D01*
X68485001Y298404997D01*
X68508795Y298433990D01*
X68508799Y298433994D01*
X68566811Y298504683D01*
X68579974Y298520722D01*
X68650546Y298652751D01*
X68694003Y298796012D01*
X68705000Y298907665D01*
X68705000Y298907674D01*
X68708676Y298944997D01*
X68705000Y298982320D01*
X68705000Y299064692D01*
X68707000Y299085000D01*
X68707000Y299480000D01*
X69091928Y299480000D01*
X69104188Y299355518D01*
X69140498Y299235820D01*
X69199463Y299125506D01*
X69232705Y299085000D01*
X69199463Y299044494D01*
X69140498Y298934180D01*
X69104188Y298814482D01*
X69091928Y298690000D01*
X69095000Y298100750D01*
X69253750Y297942000D01*
X70228000Y297942000D01*
X70228000Y300228000D01*
X69253750Y300228000D01*
X69095000Y300069250D01*
X69091928Y299480000D01*
X68707000Y299480000D01*
X68707000Y301230000D01*
X69091928Y301230000D01*
X69095000Y300640750D01*
X69253750Y300482000D01*
X70228000Y300482000D01*
X70228000Y301706250D01*
X70482000Y301706250D01*
X70482000Y300482000D01*
X71456250Y300482000D01*
X71615000Y300640750D01*
X71618072Y301230000D01*
X71605812Y301354482D01*
X71569502Y301474180D01*
X71510537Y301584494D01*
X71431185Y301681185D01*
X71334494Y301760537D01*
X71224180Y301819502D01*
X71104482Y301855812D01*
X70980000Y301868072D01*
X70640750Y301865000D01*
X70482000Y301706250D01*
X70228000Y301706250D01*
X70069250Y301865000D01*
X69730000Y301868072D01*
X69605518Y301855812D01*
X69485820Y301819502D01*
X69375506Y301760537D01*
X69278815Y301681185D01*
X69199463Y301584494D01*
X69140498Y301474180D01*
X69104188Y301354482D01*
X69091928Y301230000D01*
X68707000Y301230000D01*
X68707000Y302645000D01*
X71511928Y302645000D01*
X71524188Y302520518D01*
X71560498Y302400820D01*
X71619463Y302290506D01*
X71698815Y302193815D01*
X71795506Y302114463D01*
X71905820Y302055498D01*
X72025518Y302019188D01*
X72150000Y302006928D01*
X72739250Y302010000D01*
X72898000Y302168750D01*
X72898000Y303143000D01*
X73152000Y303143000D01*
X73152000Y302168750D01*
X73310750Y302010000D01*
X73900000Y302006928D01*
X74024482Y302019188D01*
X74144180Y302055498D01*
X74254494Y302114463D01*
X74351185Y302193815D01*
X74430537Y302290506D01*
X74489502Y302400820D01*
X74525812Y302520518D01*
X74538072Y302645000D01*
X74535000Y302984250D01*
X74376250Y303143000D01*
X73152000Y303143000D01*
X72898000Y303143000D01*
X71673750Y303143000D01*
X71515000Y302984250D01*
X71511928Y302645000D01*
X68707000Y302645000D01*
X68707000Y303895000D01*
X71511928Y303895000D01*
X71515000Y303555750D01*
X71673750Y303397000D01*
X72898000Y303397000D01*
X72898000Y304371250D01*
X73152000Y304371250D01*
X73152000Y303397000D01*
X74376250Y303397000D01*
X74535000Y303555750D01*
X74538072Y303895000D01*
X74525812Y304019482D01*
X74489502Y304139180D01*
X74430537Y304249494D01*
X74351185Y304346185D01*
X74254494Y304425537D01*
X74144180Y304484502D01*
X74024482Y304520812D01*
X73900000Y304533072D01*
X73310750Y304530000D01*
X73152000Y304371250D01*
X72898000Y304371250D01*
X72739250Y304530000D01*
X72150000Y304533072D01*
X72025518Y304520812D01*
X71905820Y304484502D01*
X71795506Y304425537D01*
X71698815Y304346185D01*
X71619463Y304249494D01*
X71560498Y304139180D01*
X71524188Y304019482D01*
X71511928Y303895000D01*
X68707000Y303895000D01*
X68707000Y304673000D01*
X75438000Y304673000D01*
X75438000Y301752000D01*
G37*
X75438000Y301752000D02*
X73960534Y301752000D01*
X73869850Y301800472D01*
X73703254Y301851008D01*
X73530000Y301868072D01*
X72780000Y301868072D01*
X72606746Y301851008D01*
X72440150Y301800472D01*
X72286614Y301718405D01*
X72152038Y301607962D01*
X72041595Y301473386D01*
X72021862Y301436468D01*
X71665197Y301079803D01*
X71649403Y301060557D01*
X71637667Y301038601D01*
X71630440Y301014776D01*
X71628000Y300990000D01*
X71628000Y298127801D01*
X71615074Y298114875D01*
X71618072Y298690000D01*
X71605812Y298814482D01*
X71569502Y298934180D01*
X71510537Y299044494D01*
X71477295Y299085000D01*
X71510537Y299125506D01*
X71569502Y299235820D01*
X71605812Y299355518D01*
X71618072Y299480000D01*
X71615000Y300069250D01*
X71456250Y300228000D01*
X70482000Y300228000D01*
X70482000Y297942000D01*
X70502000Y297942000D01*
X70502000Y297688000D01*
X70482000Y297688000D01*
X70482000Y297668000D01*
X70228000Y297668000D01*
X70228000Y297688000D01*
X69253750Y297688000D01*
X69095000Y297529250D01*
X69091928Y296940000D01*
X69104188Y296815518D01*
X69140498Y296695820D01*
X69160176Y296659006D01*
X69144443Y296650597D01*
X69125197Y296634803D01*
X69109403Y296615557D01*
X69097667Y296593601D01*
X69090440Y296569776D01*
X69088000Y296545000D01*
X69088000Y294827115D01*
X69074180Y294834502D01*
X68954482Y294870812D01*
X68830000Y294883072D01*
X68490750Y294880000D01*
X68332000Y294721250D01*
X68332000Y293497000D01*
X69306250Y293497000D01*
X69465000Y293655750D01*
X69466420Y293928168D01*
X69486614Y293911595D01*
X69640150Y293829528D01*
X69806746Y293778992D01*
X69980000Y293761928D01*
X70730000Y293761928D01*
X70903254Y293778992D01*
X71069850Y293829528D01*
X71160534Y293878000D01*
X71646961Y293878000D01*
X71619463Y293844494D01*
X71560498Y293734180D01*
X71524188Y293614482D01*
X71511928Y293490000D01*
X71515000Y293150750D01*
X71673750Y292992000D01*
X72898000Y292992000D01*
X72898000Y293012000D01*
X73152000Y293012000D01*
X73152000Y292992000D01*
X74376250Y292992000D01*
X74535000Y293150750D01*
X74538072Y293490000D01*
X74525812Y293614482D01*
X74489502Y293734180D01*
X74430537Y293844494D01*
X74377459Y293909170D01*
X74384803Y293915197D01*
X74400597Y293934443D01*
X74412333Y293956399D01*
X74419560Y293980224D01*
X74422000Y294005000D01*
X74422000Y294513000D01*
X74617199Y294513000D01*
X75085822Y294044376D01*
X75170629Y293874762D01*
X75204774Y293703102D01*
X75282795Y293514744D01*
X75396063Y293345226D01*
X75438000Y293303289D01*
X75438000Y292227000D01*
X74536792Y292227000D01*
X74538072Y292240000D01*
X74535000Y292579250D01*
X74376250Y292738000D01*
X73152000Y292738000D01*
X73152000Y292718000D01*
X72898000Y292718000D01*
X72898000Y292738000D01*
X71673750Y292738000D01*
X71515000Y292579250D01*
X71511928Y292240000D01*
X71513208Y292227000D01*
X69406770Y292227000D01*
X69419502Y292250820D01*
X69455812Y292370518D01*
X69468072Y292495000D01*
X69465000Y293084250D01*
X69306250Y293243000D01*
X68332000Y293243000D01*
X68332000Y293223000D01*
X68078000Y293223000D01*
X68078000Y293243000D01*
X67103750Y293243000D01*
X66945000Y293084250D01*
X66941928Y292495000D01*
X66954188Y292370518D01*
X66990498Y292250820D01*
X67003230Y292227000D01*
X66774158Y292227000D01*
X66661455Y292677813D01*
X66668072Y292745000D01*
X66668072Y293995000D01*
X66651008Y294168254D01*
X66627728Y294245000D01*
X66941928Y294245000D01*
X66945000Y293655750D01*
X67103750Y293497000D01*
X68078000Y293497000D01*
X68078000Y294721250D01*
X67919250Y294880000D01*
X67580000Y294883072D01*
X67455518Y294870812D01*
X67335820Y294834502D01*
X67225506Y294775537D01*
X67128815Y294696185D01*
X67049463Y294599494D01*
X66990498Y294489180D01*
X66954188Y294369482D01*
X66941928Y294245000D01*
X66627728Y294245000D01*
X66600472Y294334850D01*
X66518405Y294488386D01*
X66407962Y294622962D01*
X66273386Y294733405D01*
X66167000Y294790270D01*
X66167000Y296427750D01*
X66228000Y296488750D01*
X66228000Y296976928D01*
X66482000Y296976928D01*
X66482000Y296488750D01*
X66640750Y296330000D01*
X66664239Y296327123D01*
X66788986Y296336305D01*
X66909544Y296369647D01*
X67021281Y296425868D01*
X67119903Y296502808D01*
X67201619Y296597510D01*
X67263290Y296706334D01*
X67302546Y296825098D01*
X67315000Y296933250D01*
X67156250Y297092000D01*
X67049710Y297092000D01*
X67107249Y297109454D01*
X67239278Y297180026D01*
X67355003Y297274999D01*
X67378805Y297304002D01*
X68456008Y298381203D01*
X68485001Y298404997D01*
X68508795Y298433990D01*
X68508799Y298433994D01*
X68566811Y298504683D01*
X68579974Y298520722D01*
X68650546Y298652751D01*
X68694003Y298796012D01*
X68705000Y298907665D01*
X68705000Y298907674D01*
X68708676Y298944997D01*
X68705000Y298982320D01*
X68705000Y299064692D01*
X68707000Y299085000D01*
X68707000Y299480000D01*
X69091928Y299480000D01*
X69104188Y299355518D01*
X69140498Y299235820D01*
X69199463Y299125506D01*
X69232705Y299085000D01*
X69199463Y299044494D01*
X69140498Y298934180D01*
X69104188Y298814482D01*
X69091928Y298690000D01*
X69095000Y298100750D01*
X69253750Y297942000D01*
X70228000Y297942000D01*
X70228000Y300228000D01*
X69253750Y300228000D01*
X69095000Y300069250D01*
X69091928Y299480000D01*
X68707000Y299480000D01*
X68707000Y301230000D01*
X69091928Y301230000D01*
X69095000Y300640750D01*
X69253750Y300482000D01*
X70228000Y300482000D01*
X70228000Y301706250D01*
X70482000Y301706250D01*
X70482000Y300482000D01*
X71456250Y300482000D01*
X71615000Y300640750D01*
X71618072Y301230000D01*
X71605812Y301354482D01*
X71569502Y301474180D01*
X71510537Y301584494D01*
X71431185Y301681185D01*
X71334494Y301760537D01*
X71224180Y301819502D01*
X71104482Y301855812D01*
X70980000Y301868072D01*
X70640750Y301865000D01*
X70482000Y301706250D01*
X70228000Y301706250D01*
X70069250Y301865000D01*
X69730000Y301868072D01*
X69605518Y301855812D01*
X69485820Y301819502D01*
X69375506Y301760537D01*
X69278815Y301681185D01*
X69199463Y301584494D01*
X69140498Y301474180D01*
X69104188Y301354482D01*
X69091928Y301230000D01*
X68707000Y301230000D01*
X68707000Y302645000D01*
X71511928Y302645000D01*
X71524188Y302520518D01*
X71560498Y302400820D01*
X71619463Y302290506D01*
X71698815Y302193815D01*
X71795506Y302114463D01*
X71905820Y302055498D01*
X72025518Y302019188D01*
X72150000Y302006928D01*
X72739250Y302010000D01*
X72898000Y302168750D01*
X72898000Y303143000D01*
X73152000Y303143000D01*
X73152000Y302168750D01*
X73310750Y302010000D01*
X73900000Y302006928D01*
X74024482Y302019188D01*
X74144180Y302055498D01*
X74254494Y302114463D01*
X74351185Y302193815D01*
X74430537Y302290506D01*
X74489502Y302400820D01*
X74525812Y302520518D01*
X74538072Y302645000D01*
X74535000Y302984250D01*
X74376250Y303143000D01*
X73152000Y303143000D01*
X72898000Y303143000D01*
X71673750Y303143000D01*
X71515000Y302984250D01*
X71511928Y302645000D01*
X68707000Y302645000D01*
X68707000Y303895000D01*
X71511928Y303895000D01*
X71515000Y303555750D01*
X71673750Y303397000D01*
X72898000Y303397000D01*
X72898000Y304371250D01*
X73152000Y304371250D01*
X73152000Y303397000D01*
X74376250Y303397000D01*
X74535000Y303555750D01*
X74538072Y303895000D01*
X74525812Y304019482D01*
X74489502Y304139180D01*
X74430537Y304249494D01*
X74351185Y304346185D01*
X74254494Y304425537D01*
X74144180Y304484502D01*
X74024482Y304520812D01*
X73900000Y304533072D01*
X73310750Y304530000D01*
X73152000Y304371250D01*
X72898000Y304371250D01*
X72739250Y304530000D01*
X72150000Y304533072D01*
X72025518Y304520812D01*
X71905820Y304484502D01*
X71795506Y304425537D01*
X71698815Y304346185D01*
X71619463Y304249494D01*
X71560498Y304139180D01*
X71524188Y304019482D01*
X71511928Y303895000D01*
X68707000Y303895000D01*
X68707000Y304673000D01*
X75438000Y304673000D01*
X75438000Y301752000D01*
G36*
X81788000Y308102000D02*
G01*
X79525270Y308102000D01*
X79468405Y308208386D01*
X79357962Y308342962D01*
X79223386Y308453405D01*
X79069850Y308535472D01*
X78903254Y308586008D01*
X78730000Y308603072D01*
X77480000Y308603072D01*
X77306746Y308586008D01*
X77140150Y308535472D01*
X77075753Y308501051D01*
X77075000Y308584250D01*
X76916250Y308743000D01*
X76853576Y308743000D01*
X76817290Y308997000D01*
X76916250Y308997000D01*
X77075000Y309155750D01*
X77078072Y309495000D01*
X77065812Y309619482D01*
X77029502Y309739180D01*
X76970537Y309849494D01*
X76891185Y309946185D01*
X76794494Y310025537D01*
X76684180Y310084502D01*
X76660925Y310091556D01*
X76346433Y312293000D01*
X81788000Y312293000D01*
X81788000Y308102000D01*
G37*
X81788000Y308102000D02*
X79525270Y308102000D01*
X79468405Y308208386D01*
X79357962Y308342962D01*
X79223386Y308453405D01*
X79069850Y308535472D01*
X78903254Y308586008D01*
X78730000Y308603072D01*
X77480000Y308603072D01*
X77306746Y308586008D01*
X77140150Y308535472D01*
X77075753Y308501051D01*
X77075000Y308584250D01*
X76916250Y308743000D01*
X76853576Y308743000D01*
X76817290Y308997000D01*
X76916250Y308997000D01*
X77075000Y309155750D01*
X77078072Y309495000D01*
X77065812Y309619482D01*
X77029502Y309739180D01*
X76970537Y309849494D01*
X76891185Y309946185D01*
X76794494Y310025537D01*
X76684180Y310084502D01*
X76660925Y310091556D01*
X76346433Y312293000D01*
X81788000Y312293000D01*
X81788000Y308102000D01*
G36*
X67818000Y309372000D02*
G01*
X65705534Y309372000D01*
X65614850Y309420472D01*
X65448254Y309471008D01*
X65275000Y309488072D01*
X64525000Y309488072D01*
X64351746Y309471008D01*
X64185150Y309420472D01*
X64094466Y309372000D01*
X62905534Y309372000D01*
X62814850Y309420472D01*
X62648254Y309471008D01*
X62475000Y309488072D01*
X61725000Y309488072D01*
X61551746Y309471008D01*
X61385150Y309420472D01*
X61231614Y309338405D01*
X61097038Y309227962D01*
X60986595Y309093386D01*
X60904528Y308939850D01*
X60853992Y308773254D01*
X60836928Y308600000D01*
X60836928Y307350000D01*
X60853992Y307176746D01*
X60904528Y307010150D01*
X60986595Y306856614D01*
X61097038Y306722038D01*
X61230912Y306612171D01*
X61111614Y306548405D01*
X60977038Y306437962D01*
X60866595Y306303386D01*
X60784528Y306149850D01*
X60733992Y305983254D01*
X60716928Y305810000D01*
X60716928Y305060000D01*
X60733992Y304886746D01*
X60784528Y304720150D01*
X60866595Y304566614D01*
X60977038Y304432038D01*
X61111614Y304321595D01*
X61265150Y304239528D01*
X61344637Y304215416D01*
X59817000Y303706203D01*
X59817000Y310388000D01*
X67818000Y310388000D01*
X67818000Y309372000D01*
G37*
X67818000Y309372000D02*
X65705534Y309372000D01*
X65614850Y309420472D01*
X65448254Y309471008D01*
X65275000Y309488072D01*
X64525000Y309488072D01*
X64351746Y309471008D01*
X64185150Y309420472D01*
X64094466Y309372000D01*
X62905534Y309372000D01*
X62814850Y309420472D01*
X62648254Y309471008D01*
X62475000Y309488072D01*
X61725000Y309488072D01*
X61551746Y309471008D01*
X61385150Y309420472D01*
X61231614Y309338405D01*
X61097038Y309227962D01*
X60986595Y309093386D01*
X60904528Y308939850D01*
X60853992Y308773254D01*
X60836928Y308600000D01*
X60836928Y307350000D01*
X60853992Y307176746D01*
X60904528Y307010150D01*
X60986595Y306856614D01*
X61097038Y306722038D01*
X61230912Y306612171D01*
X61111614Y306548405D01*
X60977038Y306437962D01*
X60866595Y306303386D01*
X60784528Y306149850D01*
X60733992Y305983254D01*
X60716928Y305810000D01*
X60716928Y305060000D01*
X60733992Y304886746D01*
X60784528Y304720150D01*
X60866595Y304566614D01*
X60977038Y304432038D01*
X61111614Y304321595D01*
X61265150Y304239528D01*
X61344637Y304215416D01*
X59817000Y303706203D01*
X59817000Y310388000D01*
X67818000Y310388000D01*
X67818000Y309372000D01*
G36*
X69044612Y308666796D02*
G01*
X68806943Y308547962D01*
X68748937Y308634774D01*
X68604774Y308778937D01*
X68435256Y308892205D01*
X68246898Y308970226D01*
X68046939Y309010000D01*
X67843061Y309010000D01*
X67643102Y308970226D01*
X67454744Y308892205D01*
X67285226Y308778937D01*
X67141063Y308634774D01*
X67027795Y308465256D01*
X66949774Y308276898D01*
X66927066Y308162736D01*
X66603803Y308485998D01*
X66580001Y308515001D01*
X66464276Y308609974D01*
X66332247Y308680546D01*
X66188986Y308724003D01*
X66150485Y308727795D01*
X66146008Y308773254D01*
X66095472Y308939850D01*
X66013405Y309093386D01*
X65912045Y309216894D01*
X68509789Y309736442D01*
X69044612Y308666796D01*
G37*
X69044612Y308666796D02*
X68806943Y308547962D01*
X68748937Y308634774D01*
X68604774Y308778937D01*
X68435256Y308892205D01*
X68246898Y308970226D01*
X68046939Y309010000D01*
X67843061Y309010000D01*
X67643102Y308970226D01*
X67454744Y308892205D01*
X67285226Y308778937D01*
X67141063Y308634774D01*
X67027795Y308465256D01*
X66949774Y308276898D01*
X66927066Y308162736D01*
X66603803Y308485998D01*
X66580001Y308515001D01*
X66464276Y308609974D01*
X66332247Y308680546D01*
X66188986Y308724003D01*
X66150485Y308727795D01*
X66146008Y308773254D01*
X66095472Y308939850D01*
X66013405Y309093386D01*
X65912045Y309216894D01*
X68509789Y309736442D01*
X69044612Y308666796D01*
G36*
X58960737Y299042788D02*
G01*
X58591790Y299991509D01*
X58635000Y300208740D01*
X58635000Y300501260D01*
X58577932Y300788158D01*
X58465990Y301058411D01*
X58303475Y301301632D01*
X58096632Y301508475D01*
X57968587Y301594032D01*
X57949468Y301643193D01*
X58096632Y301741525D01*
X58303475Y301948368D01*
X58465990Y302191589D01*
X58577932Y302461842D01*
X58635000Y302748740D01*
X58635000Y303041260D01*
X58577932Y303328158D01*
X58465990Y303598411D01*
X58303475Y303841632D01*
X58096632Y304048475D01*
X57922240Y304165000D01*
X58096632Y304281525D01*
X58303475Y304488368D01*
X58465990Y304731589D01*
X58577932Y305001842D01*
X58635000Y305288740D01*
X58635000Y305581260D01*
X58577932Y305868158D01*
X58465990Y306138411D01*
X58303475Y306381632D01*
X58096632Y306588475D01*
X57922240Y306705000D01*
X58096632Y306821525D01*
X58303475Y307028368D01*
X58465990Y307271589D01*
X58577932Y307541842D01*
X58635000Y307828740D01*
X58635000Y308121260D01*
X58577932Y308408158D01*
X58465990Y308678411D01*
X58303475Y308921632D01*
X58096632Y309128475D01*
X57914466Y309250195D01*
X58031355Y309319822D01*
X58247588Y309514731D01*
X58421641Y309748080D01*
X58423984Y309753000D01*
X59555749Y309753000D01*
X58960737Y299042788D01*
G37*
X58960737Y299042788D02*
X58591790Y299991509D01*
X58635000Y300208740D01*
X58635000Y300501260D01*
X58577932Y300788158D01*
X58465990Y301058411D01*
X58303475Y301301632D01*
X58096632Y301508475D01*
X57968587Y301594032D01*
X57949468Y301643193D01*
X58096632Y301741525D01*
X58303475Y301948368D01*
X58465990Y302191589D01*
X58577932Y302461842D01*
X58635000Y302748740D01*
X58635000Y303041260D01*
X58577932Y303328158D01*
X58465990Y303598411D01*
X58303475Y303841632D01*
X58096632Y304048475D01*
X57922240Y304165000D01*
X58096632Y304281525D01*
X58303475Y304488368D01*
X58465990Y304731589D01*
X58577932Y305001842D01*
X58635000Y305288740D01*
X58635000Y305581260D01*
X58577932Y305868158D01*
X58465990Y306138411D01*
X58303475Y306381632D01*
X58096632Y306588475D01*
X57922240Y306705000D01*
X58096632Y306821525D01*
X58303475Y307028368D01*
X58465990Y307271589D01*
X58577932Y307541842D01*
X58635000Y307828740D01*
X58635000Y308121260D01*
X58577932Y308408158D01*
X58465990Y308678411D01*
X58303475Y308921632D01*
X58096632Y309128475D01*
X57914466Y309250195D01*
X58031355Y309319822D01*
X58247588Y309514731D01*
X58421641Y309748080D01*
X58423984Y309753000D01*
X59555749Y309753000D01*
X58960737Y299042788D01*
G36*
X55878359Y309748080D02*
G01*
X56052412Y309514731D01*
X56268645Y309319822D01*
X56385534Y309250195D01*
X56203368Y309128475D01*
X55996525Y308921632D01*
X55871822Y308735000D01*
X55354776Y308735000D01*
X55351008Y308773254D01*
X55300472Y308939850D01*
X55218405Y309093386D01*
X55107962Y309227962D01*
X54973386Y309338405D01*
X54952557Y309349539D01*
X54795655Y309753000D01*
X55876016Y309753000D01*
X55878359Y309748080D01*
G37*
X55878359Y309748080D02*
X56052412Y309514731D01*
X56268645Y309319822D01*
X56385534Y309250195D01*
X56203368Y309128475D01*
X55996525Y308921632D01*
X55871822Y308735000D01*
X55354776Y308735000D01*
X55351008Y308773254D01*
X55300472Y308939850D01*
X55218405Y309093386D01*
X55107962Y309227962D01*
X54973386Y309338405D01*
X54952557Y309349539D01*
X54795655Y309753000D01*
X55876016Y309753000D01*
X55878359Y309748080D01*
G36*
X53671015Y309482263D02*
G01*
X53556746Y309471008D01*
X53390150Y309420472D01*
X53236614Y309338405D01*
X53102038Y309227962D01*
X52991595Y309093386D01*
X52909528Y308939850D01*
X52858992Y308773254D01*
X52841928Y308600000D01*
X52841928Y307350000D01*
X52858992Y307176746D01*
X52909528Y307010150D01*
X52991595Y306856614D01*
X53102038Y306722038D01*
X53122799Y306705000D01*
X53102038Y306687962D01*
X52991595Y306553386D01*
X52909528Y306399850D01*
X52858992Y306233254D01*
X52841928Y306060000D01*
X52841928Y304810000D01*
X52858992Y304636746D01*
X52909528Y304470150D01*
X52991595Y304316614D01*
X53102038Y304182038D01*
X53122799Y304165000D01*
X53102038Y304147962D01*
X52991595Y304013386D01*
X52909528Y303859850D01*
X52858992Y303693254D01*
X52841928Y303520000D01*
X52841928Y302270000D01*
X52858992Y302096746D01*
X52909528Y301930150D01*
X52991595Y301776614D01*
X53102038Y301642038D01*
X53236614Y301531595D01*
X53390150Y301449528D01*
X53556746Y301398992D01*
X53730000Y301381928D01*
X54480000Y301381928D01*
X54653254Y301398992D01*
X54819850Y301449528D01*
X54973386Y301531595D01*
X55107962Y301642038D01*
X55218405Y301776614D01*
X55300472Y301930150D01*
X55351008Y302096746D01*
X55354776Y302135000D01*
X55871822Y302135000D01*
X55996525Y301948368D01*
X56203368Y301741525D01*
X56377760Y301625000D01*
X56203368Y301508475D01*
X55996525Y301301632D01*
X55834010Y301058411D01*
X55722068Y300788158D01*
X55665000Y300501260D01*
X55665000Y300208740D01*
X55722068Y299921842D01*
X55834010Y299651589D01*
X55996525Y299408368D01*
X56203368Y299201525D01*
X56377760Y299085000D01*
X56203368Y298968475D01*
X55996525Y298761632D01*
X55834010Y298518411D01*
X55722068Y298248158D01*
X55665000Y297961260D01*
X55665000Y297668740D01*
X55722068Y297381842D01*
X55834010Y297111589D01*
X55996525Y296868368D01*
X56203368Y296661525D01*
X56377760Y296545000D01*
X56203368Y296428475D01*
X55996525Y296221632D01*
X55834010Y295978411D01*
X55722068Y295708158D01*
X55665000Y295421260D01*
X55665000Y295128740D01*
X55722068Y294841842D01*
X55834010Y294571589D01*
X55996525Y294328368D01*
X56203368Y294121525D01*
X56377760Y294005000D01*
X56203368Y293888475D01*
X55996525Y293681632D01*
X55834010Y293438411D01*
X55722068Y293168158D01*
X55665000Y292881260D01*
X55665000Y292588740D01*
X55722068Y292301842D01*
X55834010Y292031589D01*
X55996525Y291788368D01*
X56192893Y291592000D01*
X55333954Y291592000D01*
X52832000Y298472375D01*
X52832000Y311719636D01*
X53671015Y309482263D01*
G37*
X53671015Y309482263D02*
X53556746Y309471008D01*
X53390150Y309420472D01*
X53236614Y309338405D01*
X53102038Y309227962D01*
X52991595Y309093386D01*
X52909528Y308939850D01*
X52858992Y308773254D01*
X52841928Y308600000D01*
X52841928Y307350000D01*
X52858992Y307176746D01*
X52909528Y307010150D01*
X52991595Y306856614D01*
X53102038Y306722038D01*
X53122799Y306705000D01*
X53102038Y306687962D01*
X52991595Y306553386D01*
X52909528Y306399850D01*
X52858992Y306233254D01*
X52841928Y306060000D01*
X52841928Y304810000D01*
X52858992Y304636746D01*
X52909528Y304470150D01*
X52991595Y304316614D01*
X53102038Y304182038D01*
X53122799Y304165000D01*
X53102038Y304147962D01*
X52991595Y304013386D01*
X52909528Y303859850D01*
X52858992Y303693254D01*
X52841928Y303520000D01*
X52841928Y302270000D01*
X52858992Y302096746D01*
X52909528Y301930150D01*
X52991595Y301776614D01*
X53102038Y301642038D01*
X53236614Y301531595D01*
X53390150Y301449528D01*
X53556746Y301398992D01*
X53730000Y301381928D01*
X54480000Y301381928D01*
X54653254Y301398992D01*
X54819850Y301449528D01*
X54973386Y301531595D01*
X55107962Y301642038D01*
X55218405Y301776614D01*
X55300472Y301930150D01*
X55351008Y302096746D01*
X55354776Y302135000D01*
X55871822Y302135000D01*
X55996525Y301948368D01*
X56203368Y301741525D01*
X56377760Y301625000D01*
X56203368Y301508475D01*
X55996525Y301301632D01*
X55834010Y301058411D01*
X55722068Y300788158D01*
X55665000Y300501260D01*
X55665000Y300208740D01*
X55722068Y299921842D01*
X55834010Y299651589D01*
X55996525Y299408368D01*
X56203368Y299201525D01*
X56377760Y299085000D01*
X56203368Y298968475D01*
X55996525Y298761632D01*
X55834010Y298518411D01*
X55722068Y298248158D01*
X55665000Y297961260D01*
X55665000Y297668740D01*
X55722068Y297381842D01*
X55834010Y297111589D01*
X55996525Y296868368D01*
X56203368Y296661525D01*
X56377760Y296545000D01*
X56203368Y296428475D01*
X55996525Y296221632D01*
X55834010Y295978411D01*
X55722068Y295708158D01*
X55665000Y295421260D01*
X55665000Y295128740D01*
X55722068Y294841842D01*
X55834010Y294571589D01*
X55996525Y294328368D01*
X56203368Y294121525D01*
X56377760Y294005000D01*
X56203368Y293888475D01*
X55996525Y293681632D01*
X55834010Y293438411D01*
X55722068Y293168158D01*
X55665000Y292881260D01*
X55665000Y292588740D01*
X55722068Y292301842D01*
X55834010Y292031589D01*
X55996525Y291788368D01*
X56192893Y291592000D01*
X55333954Y291592000D01*
X52832000Y298472375D01*
X52832000Y311719636D01*
X53671015Y309482263D01*
G36*
X53848000Y309488072D02*
G01*
X53730000Y309488072D01*
X53556746Y309471008D01*
X53390150Y309420472D01*
X53299466Y309372000D01*
X52832000Y309372000D01*
X52832000Y312293000D01*
X53848000Y312293000D01*
X53848000Y309488072D01*
G37*
X53848000Y309488072D02*
X53730000Y309488072D01*
X53556746Y309471008D01*
X53390150Y309420472D01*
X53299466Y309372000D01*
X52832000Y309372000D01*
X52832000Y312293000D01*
X53848000Y312293000D01*
X53848000Y309488072D01*
G36*
X68815000Y307238061D02*
G01*
X68854774Y307038102D01*
X68932795Y306849744D01*
X69046063Y306680226D01*
X69190226Y306536063D01*
X69359744Y306422795D01*
X69489229Y306369160D01*
X69450000Y306171939D01*
X69450000Y305968061D01*
X69489774Y305768102D01*
X69567795Y305579744D01*
X69681063Y305410226D01*
X69825226Y305266063D01*
X69994744Y305152795D01*
X70183102Y305074774D01*
X70383061Y305035000D01*
X70586939Y305035000D01*
X70786898Y305074774D01*
X70975256Y305152795D01*
X71144774Y305266063D01*
X71188711Y305310000D01*
X71603661Y305310000D01*
X71661595Y305201614D01*
X71772038Y305067038D01*
X71906614Y304956595D01*
X72060150Y304874528D01*
X72081889Y304867934D01*
X72097753Y304859454D01*
X72241014Y304815997D01*
X72352667Y304805000D01*
X73697333Y304805000D01*
X73808986Y304815997D01*
X73952247Y304859454D01*
X73968111Y304867934D01*
X73989850Y304874528D01*
X74143386Y304956595D01*
X74277962Y305067038D01*
X74295000Y305087799D01*
X74312038Y305067038D01*
X74446614Y304956595D01*
X74600150Y304874528D01*
X74766746Y304823992D01*
X74940000Y304806928D01*
X75336802Y304806928D01*
X75359238Y304790902D01*
X74512076Y304064763D01*
X74489502Y304139180D01*
X74430537Y304249494D01*
X74351185Y304346185D01*
X74254494Y304425537D01*
X74144180Y304484502D01*
X74024482Y304520812D01*
X73900000Y304533072D01*
X73310750Y304530000D01*
X73152000Y304371250D01*
X73152000Y303397000D01*
X73172000Y303397000D01*
X73172000Y303143000D01*
X73152000Y303143000D01*
X73152000Y303123000D01*
X72898000Y303123000D01*
X72898000Y303143000D01*
X71673750Y303143000D01*
X71515000Y302984250D01*
X71511928Y302645000D01*
X71524188Y302520518D01*
X71560498Y302400820D01*
X71619463Y302290506D01*
X71698815Y302193815D01*
X71795506Y302114463D01*
X71905820Y302055498D01*
X72025518Y302019188D01*
X72115260Y302010349D01*
X71544437Y301521073D01*
X71510537Y301584494D01*
X71431185Y301681185D01*
X71334494Y301760537D01*
X71224180Y301819502D01*
X71104482Y301855812D01*
X70980000Y301868072D01*
X70640750Y301865000D01*
X70482000Y301706250D01*
X70482000Y300610413D01*
X70035852Y300228000D01*
X69253750Y300228000D01*
X69095000Y300069250D01*
X69091928Y299480000D01*
X69097475Y299423677D01*
X68705000Y299087270D01*
X68705000Y301230000D01*
X69091928Y301230000D01*
X69095000Y300640750D01*
X69253750Y300482000D01*
X70228000Y300482000D01*
X70228000Y301706250D01*
X70069250Y301865000D01*
X69730000Y301868072D01*
X69605518Y301855812D01*
X69485820Y301819502D01*
X69375506Y301760537D01*
X69278815Y301681185D01*
X69199463Y301584494D01*
X69140498Y301474180D01*
X69104188Y301354482D01*
X69091928Y301230000D01*
X68705000Y301230000D01*
X68705000Y303895000D01*
X71511928Y303895000D01*
X71515000Y303555750D01*
X71673750Y303397000D01*
X72898000Y303397000D01*
X72898000Y304371250D01*
X72739250Y304530000D01*
X72150000Y304533072D01*
X72025518Y304520812D01*
X71905820Y304484502D01*
X71795506Y304425537D01*
X71698815Y304346185D01*
X71619463Y304249494D01*
X71560498Y304139180D01*
X71524188Y304019482D01*
X71511928Y303895000D01*
X68705000Y303895000D01*
X68705000Y307271289D01*
X68748937Y307315226D01*
X68815000Y307414097D01*
X68815000Y307238061D01*
G37*
X68815000Y307238061D02*
X68854774Y307038102D01*
X68932795Y306849744D01*
X69046063Y306680226D01*
X69190226Y306536063D01*
X69359744Y306422795D01*
X69489229Y306369160D01*
X69450000Y306171939D01*
X69450000Y305968061D01*
X69489774Y305768102D01*
X69567795Y305579744D01*
X69681063Y305410226D01*
X69825226Y305266063D01*
X69994744Y305152795D01*
X70183102Y305074774D01*
X70383061Y305035000D01*
X70586939Y305035000D01*
X70786898Y305074774D01*
X70975256Y305152795D01*
X71144774Y305266063D01*
X71188711Y305310000D01*
X71603661Y305310000D01*
X71661595Y305201614D01*
X71772038Y305067038D01*
X71906614Y304956595D01*
X72060150Y304874528D01*
X72081889Y304867934D01*
X72097753Y304859454D01*
X72241014Y304815997D01*
X72352667Y304805000D01*
X73697333Y304805000D01*
X73808986Y304815997D01*
X73952247Y304859454D01*
X73968111Y304867934D01*
X73989850Y304874528D01*
X74143386Y304956595D01*
X74277962Y305067038D01*
X74295000Y305087799D01*
X74312038Y305067038D01*
X74446614Y304956595D01*
X74600150Y304874528D01*
X74766746Y304823992D01*
X74940000Y304806928D01*
X75336802Y304806928D01*
X75359238Y304790902D01*
X74512076Y304064763D01*
X74489502Y304139180D01*
X74430537Y304249494D01*
X74351185Y304346185D01*
X74254494Y304425537D01*
X74144180Y304484502D01*
X74024482Y304520812D01*
X73900000Y304533072D01*
X73310750Y304530000D01*
X73152000Y304371250D01*
X73152000Y303397000D01*
X73172000Y303397000D01*
X73172000Y303143000D01*
X73152000Y303143000D01*
X73152000Y303123000D01*
X72898000Y303123000D01*
X72898000Y303143000D01*
X71673750Y303143000D01*
X71515000Y302984250D01*
X71511928Y302645000D01*
X71524188Y302520518D01*
X71560498Y302400820D01*
X71619463Y302290506D01*
X71698815Y302193815D01*
X71795506Y302114463D01*
X71905820Y302055498D01*
X72025518Y302019188D01*
X72115260Y302010349D01*
X71544437Y301521073D01*
X71510537Y301584494D01*
X71431185Y301681185D01*
X71334494Y301760537D01*
X71224180Y301819502D01*
X71104482Y301855812D01*
X70980000Y301868072D01*
X70640750Y301865000D01*
X70482000Y301706250D01*
X70482000Y300610413D01*
X70035852Y300228000D01*
X69253750Y300228000D01*
X69095000Y300069250D01*
X69091928Y299480000D01*
X69097475Y299423677D01*
X68705000Y299087270D01*
X68705000Y301230000D01*
X69091928Y301230000D01*
X69095000Y300640750D01*
X69253750Y300482000D01*
X70228000Y300482000D01*
X70228000Y301706250D01*
X70069250Y301865000D01*
X69730000Y301868072D01*
X69605518Y301855812D01*
X69485820Y301819502D01*
X69375506Y301760537D01*
X69278815Y301681185D01*
X69199463Y301584494D01*
X69140498Y301474180D01*
X69104188Y301354482D01*
X69091928Y301230000D01*
X68705000Y301230000D01*
X68705000Y303895000D01*
X71511928Y303895000D01*
X71515000Y303555750D01*
X71673750Y303397000D01*
X72898000Y303397000D01*
X72898000Y304371250D01*
X72739250Y304530000D01*
X72150000Y304533072D01*
X72025518Y304520812D01*
X71905820Y304484502D01*
X71795506Y304425537D01*
X71698815Y304346185D01*
X71619463Y304249494D01*
X71560498Y304139180D01*
X71524188Y304019482D01*
X71511928Y303895000D01*
X68705000Y303895000D01*
X68705000Y307271289D01*
X68748937Y307315226D01*
X68815000Y307414097D01*
X68815000Y307238061D01*
M02*
