G04 #@! TF.GenerationSoftware,KiCad,Pcbnew,(5.1.5)-3*
G04 #@! TF.CreationDate,2020-03-14T15:22:24+01:00*
G04 #@! TF.ProjectId,SesnorBoard,5365736e-6f72-4426-9f61-72642e6b6963,rev?*
G04 #@! TF.SameCoordinates,Original*
G04 #@! TF.FileFunction,Legend,Bot*
G04 #@! TF.FilePolarity,Positive*
%FSLAX46Y46*%
G04 Gerber Fmt 4.6, Leading zero omitted, Abs format (unit mm)*
G04 Created by KiCad (PCBNEW (5.1.5)-3) date 2020-03-14 15:22:24*
%MOMM*%
%LPD*%
G04 APERTURE LIST*
%ADD10C,0.120000*%
%ADD11C,0.150000*%
G04 APERTURE END LIST*
D10*
X72357064Y299445000D02*
X71152936Y299445000D01*
X72357064Y301265000D02*
X71152936Y301265000D01*
X71152936Y298725000D02*
X72357064Y298725000D01*
X71152936Y296905000D02*
X72357064Y296905000D01*
X61320000Y297717936D02*
X61320000Y298922064D01*
X63140000Y297717936D02*
X63140000Y298922064D01*
X72357064Y294365000D02*
X71152936Y294365000D01*
X72357064Y296185000D02*
X71152936Y296185000D01*
X66202936Y294280000D02*
X67407064Y294280000D01*
X66202936Y292460000D02*
X67407064Y292460000D01*
X72115000Y304067936D02*
X72115000Y305272064D01*
X73935000Y304067936D02*
X73935000Y305272064D01*
X74655000Y306867936D02*
X74655000Y308072064D01*
X76475000Y306867936D02*
X76475000Y308072064D01*
X63140000Y304637064D02*
X63140000Y303432936D01*
X61320000Y304637064D02*
X61320000Y303432936D01*
X77195000Y305337936D02*
X77195000Y306542064D01*
X79015000Y305337936D02*
X79015000Y306542064D01*
X73935000Y292067064D02*
X73935000Y290862936D01*
X72115000Y292067064D02*
X72115000Y290862936D01*
X53307064Y301985000D02*
X52102936Y301985000D01*
X53307064Y303805000D02*
X52102936Y303805000D01*
X66105000Y296655000D02*
X64705000Y296655000D01*
X64705000Y298975000D02*
X66605000Y298975000D01*
X53307064Y307065000D02*
X52102936Y307065000D01*
X53307064Y308885000D02*
X52102936Y308885000D01*
X53307064Y306345000D02*
X52102936Y306345000D01*
X53307064Y304525000D02*
X52102936Y304525000D01*
X64102064Y308885000D02*
X62897936Y308885000D01*
X64102064Y307065000D02*
X62897936Y307065000D01*
D11*
X75096666Y299997857D02*
X75144285Y299950238D01*
X75287142Y299902619D01*
X75382380Y299902619D01*
X75525238Y299950238D01*
X75620476Y300045476D01*
X75668095Y300140714D01*
X75715714Y300331190D01*
X75715714Y300474047D01*
X75668095Y300664523D01*
X75620476Y300759761D01*
X75525238Y300855000D01*
X75382380Y300902619D01*
X75287142Y300902619D01*
X75144285Y300855000D01*
X75096666Y300807380D01*
X74763333Y300902619D02*
X74144285Y300902619D01*
X74477619Y300521666D01*
X74334761Y300521666D01*
X74239523Y300474047D01*
X74191904Y300426428D01*
X74144285Y300331190D01*
X74144285Y300093095D01*
X74191904Y299997857D01*
X74239523Y299950238D01*
X74334761Y299902619D01*
X74620476Y299902619D01*
X74715714Y299950238D01*
X74763333Y299997857D01*
X75096666Y294822619D02*
X75430000Y295298809D01*
X75668095Y294822619D02*
X75668095Y295822619D01*
X75287142Y295822619D01*
X75191904Y295775000D01*
X75144285Y295727380D01*
X75096666Y295632142D01*
X75096666Y295489285D01*
X75144285Y295394047D01*
X75191904Y295346428D01*
X75287142Y295298809D01*
X75668095Y295298809D01*
X74715714Y295727380D02*
X74668095Y295775000D01*
X74572857Y295822619D01*
X74334761Y295822619D01*
X74239523Y295775000D01*
X74191904Y295727380D01*
X74144285Y295632142D01*
X74144285Y295536904D01*
X74191904Y295394047D01*
X74763333Y294822619D01*
X74144285Y294822619D01*
X60777380Y299092857D02*
X60301190Y299426190D01*
X60777380Y299664285D02*
X59777380Y299664285D01*
X59777380Y299283333D01*
X59825000Y299188095D01*
X59872619Y299140476D01*
X59967857Y299092857D01*
X60110714Y299092857D01*
X60205952Y299140476D01*
X60253571Y299188095D01*
X60301190Y299283333D01*
X60301190Y299664285D01*
X60777380Y298140476D02*
X60777380Y298711904D01*
X60777380Y298426190D02*
X59777380Y298426190D01*
X59920238Y298521428D01*
X60015476Y298616666D01*
X60063095Y298711904D01*
X59777380Y297283333D02*
X59777380Y297473809D01*
X59825000Y297569047D01*
X59872619Y297616666D01*
X60015476Y297711904D01*
X60205952Y297759523D01*
X60586904Y297759523D01*
X60682142Y297711904D01*
X60729761Y297664285D01*
X60777380Y297569047D01*
X60777380Y297378571D01*
X60729761Y297283333D01*
X60682142Y297235714D01*
X60586904Y297188095D01*
X60348809Y297188095D01*
X60253571Y297235714D01*
X60205952Y297283333D01*
X60158333Y297378571D01*
X60158333Y297569047D01*
X60205952Y297664285D01*
X60253571Y297711904D01*
X60348809Y297759523D01*
X75096666Y297457857D02*
X75144285Y297410238D01*
X75287142Y297362619D01*
X75382380Y297362619D01*
X75525238Y297410238D01*
X75620476Y297505476D01*
X75668095Y297600714D01*
X75715714Y297791190D01*
X75715714Y297934047D01*
X75668095Y298124523D01*
X75620476Y298219761D01*
X75525238Y298315000D01*
X75382380Y298362619D01*
X75287142Y298362619D01*
X75144285Y298315000D01*
X75096666Y298267380D01*
X74715714Y298267380D02*
X74668095Y298315000D01*
X74572857Y298362619D01*
X74334761Y298362619D01*
X74239523Y298315000D01*
X74191904Y298267380D01*
X74144285Y298172142D01*
X74144285Y298076904D01*
X74191904Y297934047D01*
X74763333Y297362619D01*
X74144285Y297362619D01*
X67447857Y291097619D02*
X67781190Y291573809D01*
X68019285Y291097619D02*
X68019285Y292097619D01*
X67638333Y292097619D01*
X67543095Y292050000D01*
X67495476Y292002380D01*
X67447857Y291907142D01*
X67447857Y291764285D01*
X67495476Y291669047D01*
X67543095Y291621428D01*
X67638333Y291573809D01*
X68019285Y291573809D01*
X66495476Y291097619D02*
X67066904Y291097619D01*
X66781190Y291097619D02*
X66781190Y292097619D01*
X66876428Y291954761D01*
X66971666Y291859523D01*
X67066904Y291811904D01*
X65590714Y292097619D02*
X66066904Y292097619D01*
X66114523Y291621428D01*
X66066904Y291669047D01*
X65971666Y291716666D01*
X65733571Y291716666D01*
X65638333Y291669047D01*
X65590714Y291621428D01*
X65543095Y291526190D01*
X65543095Y291288095D01*
X65590714Y291192857D01*
X65638333Y291145238D01*
X65733571Y291097619D01*
X65971666Y291097619D01*
X66066904Y291145238D01*
X66114523Y291192857D01*
X75382380Y304172857D02*
X74906190Y304506190D01*
X75382380Y304744285D02*
X74382380Y304744285D01*
X74382380Y304363333D01*
X74430000Y304268095D01*
X74477619Y304220476D01*
X74572857Y304172857D01*
X74715714Y304172857D01*
X74810952Y304220476D01*
X74858571Y304268095D01*
X74906190Y304363333D01*
X74906190Y304744285D01*
X75382380Y303220476D02*
X75382380Y303791904D01*
X75382380Y303506190D02*
X74382380Y303506190D01*
X74525238Y303601428D01*
X74620476Y303696666D01*
X74668095Y303791904D01*
X74715714Y302363333D02*
X75382380Y302363333D01*
X74334761Y302601428D02*
X75049047Y302839523D01*
X75049047Y302220476D01*
X74112380Y309252857D02*
X73636190Y309586190D01*
X74112380Y309824285D02*
X73112380Y309824285D01*
X73112380Y309443333D01*
X73160000Y309348095D01*
X73207619Y309300476D01*
X73302857Y309252857D01*
X73445714Y309252857D01*
X73540952Y309300476D01*
X73588571Y309348095D01*
X73636190Y309443333D01*
X73636190Y309824285D01*
X74112380Y308300476D02*
X74112380Y308871904D01*
X74112380Y308586190D02*
X73112380Y308586190D01*
X73255238Y308681428D01*
X73350476Y308776666D01*
X73398095Y308871904D01*
X73112380Y307967142D02*
X73112380Y307348095D01*
X73493333Y307681428D01*
X73493333Y307538571D01*
X73540952Y307443333D01*
X73588571Y307395714D01*
X73683809Y307348095D01*
X73921904Y307348095D01*
X74017142Y307395714D01*
X74064761Y307443333D01*
X74112380Y307538571D01*
X74112380Y307824285D01*
X74064761Y307919523D01*
X74017142Y307967142D01*
X60777380Y304807857D02*
X60301190Y305141190D01*
X60777380Y305379285D02*
X59777380Y305379285D01*
X59777380Y304998333D01*
X59825000Y304903095D01*
X59872619Y304855476D01*
X59967857Y304807857D01*
X60110714Y304807857D01*
X60205952Y304855476D01*
X60253571Y304903095D01*
X60301190Y304998333D01*
X60301190Y305379285D01*
X60777380Y303855476D02*
X60777380Y304426904D01*
X60777380Y304141190D02*
X59777380Y304141190D01*
X59920238Y304236428D01*
X60015476Y304331666D01*
X60063095Y304426904D01*
X59872619Y303474523D02*
X59825000Y303426904D01*
X59777380Y303331666D01*
X59777380Y303093571D01*
X59825000Y302998333D01*
X59872619Y302950714D01*
X59967857Y302903095D01*
X60063095Y302903095D01*
X60205952Y302950714D01*
X60777380Y303522142D01*
X60777380Y302903095D01*
X80377380Y306582857D02*
X79901190Y306916190D01*
X80377380Y307154285D02*
X79377380Y307154285D01*
X79377380Y306773333D01*
X79425000Y306678095D01*
X79472619Y306630476D01*
X79567857Y306582857D01*
X79710714Y306582857D01*
X79805952Y306630476D01*
X79853571Y306678095D01*
X79901190Y306773333D01*
X79901190Y307154285D01*
X80377380Y305630476D02*
X80377380Y306201904D01*
X80377380Y305916190D02*
X79377380Y305916190D01*
X79520238Y306011428D01*
X79615476Y306106666D01*
X79663095Y306201904D01*
X80377380Y304678095D02*
X80377380Y305249523D01*
X80377380Y304963809D02*
X79377380Y304963809D01*
X79520238Y305059047D01*
X79615476Y305154285D01*
X79663095Y305249523D01*
X71572380Y291631666D02*
X71096190Y291965000D01*
X71572380Y292203095D02*
X70572380Y292203095D01*
X70572380Y291822142D01*
X70620000Y291726904D01*
X70667619Y291679285D01*
X70762857Y291631666D01*
X70905714Y291631666D01*
X71000952Y291679285D01*
X71048571Y291726904D01*
X71096190Y291822142D01*
X71096190Y292203095D01*
X70572380Y290726904D02*
X70572380Y291203095D01*
X71048571Y291250714D01*
X71000952Y291203095D01*
X70953333Y291107857D01*
X70953333Y290869761D01*
X71000952Y290774523D01*
X71048571Y290726904D01*
X71143809Y290679285D01*
X71381904Y290679285D01*
X71477142Y290726904D01*
X71524761Y290774523D01*
X71572380Y290869761D01*
X71572380Y291107857D01*
X71524761Y291203095D01*
X71477142Y291250714D01*
X49696666Y302442619D02*
X50030000Y302918809D01*
X50268095Y302442619D02*
X50268095Y303442619D01*
X49887142Y303442619D01*
X49791904Y303395000D01*
X49744285Y303347380D01*
X49696666Y303252142D01*
X49696666Y303109285D01*
X49744285Y303014047D01*
X49791904Y302966428D01*
X49887142Y302918809D01*
X50268095Y302918809D01*
X48744285Y302442619D02*
X49315714Y302442619D01*
X49030000Y302442619D02*
X49030000Y303442619D01*
X49125238Y303299761D01*
X49220476Y303204523D01*
X49315714Y303156904D01*
X66166904Y296457619D02*
X66166904Y295648095D01*
X66119285Y295552857D01*
X66071666Y295505238D01*
X65976428Y295457619D01*
X65785952Y295457619D01*
X65690714Y295505238D01*
X65643095Y295552857D01*
X65595476Y295648095D01*
X65595476Y296457619D01*
X65214523Y296457619D02*
X64595476Y296457619D01*
X64928809Y296076666D01*
X64785952Y296076666D01*
X64690714Y296029047D01*
X64643095Y295981428D01*
X64595476Y295886190D01*
X64595476Y295648095D01*
X64643095Y295552857D01*
X64690714Y295505238D01*
X64785952Y295457619D01*
X65071666Y295457619D01*
X65166904Y295505238D01*
X65214523Y295552857D01*
X49696666Y307522619D02*
X50030000Y307998809D01*
X50268095Y307522619D02*
X50268095Y308522619D01*
X49887142Y308522619D01*
X49791904Y308475000D01*
X49744285Y308427380D01*
X49696666Y308332142D01*
X49696666Y308189285D01*
X49744285Y308094047D01*
X49791904Y308046428D01*
X49887142Y307998809D01*
X50268095Y307998809D01*
X49363333Y308522619D02*
X48744285Y308522619D01*
X49077619Y308141666D01*
X48934761Y308141666D01*
X48839523Y308094047D01*
X48791904Y308046428D01*
X48744285Y307951190D01*
X48744285Y307713095D01*
X48791904Y307617857D01*
X48839523Y307570238D01*
X48934761Y307522619D01*
X49220476Y307522619D01*
X49315714Y307570238D01*
X49363333Y307617857D01*
X49696666Y304982619D02*
X50030000Y305458809D01*
X50268095Y304982619D02*
X50268095Y305982619D01*
X49887142Y305982619D01*
X49791904Y305935000D01*
X49744285Y305887380D01*
X49696666Y305792142D01*
X49696666Y305649285D01*
X49744285Y305554047D01*
X49791904Y305506428D01*
X49887142Y305458809D01*
X50268095Y305458809D01*
X48839523Y305649285D02*
X48839523Y304982619D01*
X49077619Y306030238D02*
X49315714Y305315952D01*
X48696666Y305315952D01*
X64785714Y310342619D02*
X64214285Y310342619D01*
X64500000Y309342619D02*
X64500000Y310342619D01*
X63880952Y309342619D02*
X63880952Y310342619D01*
X63880952Y309866428D02*
X63309523Y309866428D01*
X63309523Y309342619D02*
X63309523Y310342619D01*
X62309523Y309342619D02*
X62880952Y309342619D01*
X62595238Y309342619D02*
X62595238Y310342619D01*
X62690476Y310199761D01*
X62785714Y310104523D01*
X62880952Y310056904D01*
M02*
