G04 #@! TF.GenerationSoftware,KiCad,Pcbnew,(5.1.5)-3*
G04 #@! TF.CreationDate,2020-03-14T15:22:24+01:00*
G04 #@! TF.ProjectId,SesnorBoard,5365736e-6f72-4426-9f61-72642e6b6963,rev?*
G04 #@! TF.SameCoordinates,Original*
G04 #@! TF.FileFunction,Soldermask,Bot*
G04 #@! TF.FilePolarity,Negative*
%FSLAX46Y46*%
G04 Gerber Fmt 4.6, Leading zero omitted, Abs format (unit mm)*
G04 Created by KiCad (PCBNEW (5.1.5)-3) date 2020-03-14 15:22:24*
%MOMM*%
%LPD*%
G04 APERTURE LIST*
%ADD10C,0.100000*%
G04 APERTURE END LIST*
D10*
G36*
X58051000Y284214000D02*
G01*
X56249000Y284214000D01*
X56249000Y286016000D01*
X58051000Y286016000D01*
X58051000Y284214000D01*
G37*
G36*
X57263512Y288551073D02*
G01*
X57412812Y288521376D01*
X57576784Y288453456D01*
X57724354Y288354853D01*
X57849853Y288229354D01*
X57948456Y288081784D01*
X58016376Y287917812D01*
X58051000Y287743741D01*
X58051000Y287566259D01*
X58016376Y287392188D01*
X57948456Y287228216D01*
X57849853Y287080646D01*
X57724354Y286955147D01*
X57576784Y286856544D01*
X57412812Y286788624D01*
X57263512Y286758927D01*
X57238742Y286754000D01*
X57061258Y286754000D01*
X57036488Y286758927D01*
X56887188Y286788624D01*
X56723216Y286856544D01*
X56575646Y286955147D01*
X56450147Y287080646D01*
X56351544Y287228216D01*
X56283624Y287392188D01*
X56249000Y287566259D01*
X56249000Y287743741D01*
X56283624Y287917812D01*
X56351544Y288081784D01*
X56450147Y288229354D01*
X56575646Y288354853D01*
X56723216Y288453456D01*
X56887188Y288521376D01*
X57036488Y288551073D01*
X57061258Y288556000D01*
X57238742Y288556000D01*
X57263512Y288551073D01*
G37*
G36*
X50376766Y288353101D02*
G01*
X50508888Y288298374D01*
X50508890Y288298373D01*
X50627798Y288218921D01*
X50728921Y288117798D01*
X50728922Y288117796D01*
X50808374Y287998888D01*
X50863101Y287866766D01*
X50891000Y287726506D01*
X50891000Y287583494D01*
X50863101Y287443234D01*
X50808374Y287311112D01*
X50808373Y287311110D01*
X50728921Y287192202D01*
X50627798Y287091079D01*
X50508890Y287011627D01*
X50508889Y287011626D01*
X50508888Y287011626D01*
X50376766Y286956899D01*
X50236506Y286929000D01*
X50093494Y286929000D01*
X49953234Y286956899D01*
X49821112Y287011626D01*
X49821111Y287011626D01*
X49821110Y287011627D01*
X49702202Y287091079D01*
X49601079Y287192202D01*
X49521627Y287311110D01*
X49521626Y287311112D01*
X49466899Y287443234D01*
X49439000Y287583494D01*
X49439000Y287726506D01*
X49466899Y287866766D01*
X49521626Y287998888D01*
X49601078Y288117796D01*
X49601079Y288117798D01*
X49702202Y288218921D01*
X49821110Y288298373D01*
X49821112Y288298374D01*
X49953234Y288353101D01*
X50093494Y288381000D01*
X50236506Y288381000D01*
X50376766Y288353101D01*
G37*
G36*
X52376766Y288353101D02*
G01*
X52508888Y288298374D01*
X52508890Y288298373D01*
X52627798Y288218921D01*
X52728921Y288117798D01*
X52728922Y288117796D01*
X52808374Y287998888D01*
X52863101Y287866766D01*
X52891000Y287726506D01*
X52891000Y287583494D01*
X52863101Y287443234D01*
X52808374Y287311112D01*
X52808373Y287311110D01*
X52728921Y287192202D01*
X52627798Y287091079D01*
X52508890Y287011627D01*
X52508889Y287011626D01*
X52508888Y287011626D01*
X52376766Y286956899D01*
X52236506Y286929000D01*
X52093494Y286929000D01*
X51953234Y286956899D01*
X51821112Y287011626D01*
X51821111Y287011626D01*
X51821110Y287011627D01*
X51702202Y287091079D01*
X51601079Y287192202D01*
X51521627Y287311110D01*
X51521626Y287311112D01*
X51466899Y287443234D01*
X51439000Y287583494D01*
X51439000Y287726506D01*
X51466899Y287866766D01*
X51521626Y287998888D01*
X51601078Y288117796D01*
X51601079Y288117798D01*
X51702202Y288218921D01*
X51821110Y288298373D01*
X51821112Y288298374D01*
X51953234Y288353101D01*
X52093494Y288381000D01*
X52236506Y288381000D01*
X52376766Y288353101D01*
G37*
G36*
X48891000Y286929000D02*
G01*
X47439000Y286929000D01*
X47439000Y288381000D01*
X48891000Y288381000D01*
X48891000Y286929000D01*
G37*
G36*
X57263512Y291091073D02*
G01*
X57412812Y291061376D01*
X57576784Y290993456D01*
X57724354Y290894853D01*
X57849853Y290769354D01*
X57948456Y290621784D01*
X58016376Y290457812D01*
X58051000Y290283741D01*
X58051000Y290106259D01*
X58016376Y289932188D01*
X57948456Y289768216D01*
X57849853Y289620646D01*
X57724354Y289495147D01*
X57576784Y289396544D01*
X57412812Y289328624D01*
X57263512Y289298927D01*
X57238742Y289294000D01*
X57061258Y289294000D01*
X57036488Y289298927D01*
X56887188Y289328624D01*
X56723216Y289396544D01*
X56575646Y289495147D01*
X56450147Y289620646D01*
X56351544Y289768216D01*
X56283624Y289932188D01*
X56249000Y290106259D01*
X56249000Y290283741D01*
X56283624Y290457812D01*
X56351544Y290621784D01*
X56450147Y290769354D01*
X56575646Y290894853D01*
X56723216Y290993456D01*
X56887188Y291061376D01*
X57036488Y291091073D01*
X57061258Y291096000D01*
X57238742Y291096000D01*
X57263512Y291091073D01*
G37*
G36*
X73793604Y290736653D02*
G01*
X73830144Y290725568D01*
X73863821Y290707567D01*
X73893341Y290683341D01*
X73917567Y290653821D01*
X73935568Y290620144D01*
X73946653Y290583604D01*
X73951000Y290539462D01*
X73951000Y289590538D01*
X73946653Y289546396D01*
X73935568Y289509856D01*
X73917567Y289476179D01*
X73893341Y289446659D01*
X73863821Y289422433D01*
X73830144Y289404432D01*
X73793604Y289393347D01*
X73749462Y289389000D01*
X72300538Y289389000D01*
X72256396Y289393347D01*
X72219856Y289404432D01*
X72186179Y289422433D01*
X72156659Y289446659D01*
X72132433Y289476179D01*
X72114432Y289509856D01*
X72103347Y289546396D01*
X72099000Y289590538D01*
X72099000Y290539462D01*
X72103347Y290583604D01*
X72114432Y290620144D01*
X72132433Y290653821D01*
X72156659Y290683341D01*
X72186179Y290707567D01*
X72219856Y290725568D01*
X72256396Y290736653D01*
X72300538Y290741000D01*
X73749462Y290741000D01*
X73793604Y290736653D01*
G37*
G36*
X57263512Y293631073D02*
G01*
X57412812Y293601376D01*
X57576784Y293533456D01*
X57724354Y293434853D01*
X57849853Y293309354D01*
X57948456Y293161784D01*
X58016376Y292997812D01*
X58051000Y292823741D01*
X58051000Y292646259D01*
X58016376Y292472188D01*
X57948456Y292308216D01*
X57849853Y292160646D01*
X57724354Y292035147D01*
X57576784Y291936544D01*
X57412812Y291868624D01*
X57263512Y291838927D01*
X57238742Y291834000D01*
X57061258Y291834000D01*
X57036488Y291838927D01*
X56887188Y291868624D01*
X56723216Y291936544D01*
X56575646Y292035147D01*
X56450147Y292160646D01*
X56351544Y292308216D01*
X56283624Y292472188D01*
X56249000Y292646259D01*
X56249000Y292823741D01*
X56283624Y292997812D01*
X56351544Y293161784D01*
X56450147Y293309354D01*
X56575646Y293434853D01*
X56723216Y293533456D01*
X56887188Y293601376D01*
X57036488Y293631073D01*
X57061258Y293636000D01*
X57238742Y293636000D01*
X57263512Y293631073D01*
G37*
G36*
X73793604Y293536653D02*
G01*
X73830144Y293525568D01*
X73863821Y293507567D01*
X73893341Y293483341D01*
X73917567Y293453821D01*
X73935568Y293420144D01*
X73946653Y293383604D01*
X73951000Y293339462D01*
X73951000Y292390538D01*
X73946653Y292346396D01*
X73935568Y292309856D01*
X73917567Y292276179D01*
X73893341Y292246659D01*
X73863821Y292222433D01*
X73830144Y292204432D01*
X73793604Y292193347D01*
X73749462Y292189000D01*
X72300538Y292189000D01*
X72256396Y292193347D01*
X72219856Y292204432D01*
X72186179Y292222433D01*
X72156659Y292246659D01*
X72132433Y292276179D01*
X72114432Y292309856D01*
X72103347Y292346396D01*
X72099000Y292390538D01*
X72099000Y293339462D01*
X72103347Y293383604D01*
X72114432Y293420144D01*
X72132433Y293453821D01*
X72156659Y293483341D01*
X72186179Y293507567D01*
X72219856Y293525568D01*
X72256396Y293536653D01*
X72300538Y293541000D01*
X73749462Y293541000D01*
X73793604Y293536653D01*
G37*
G36*
X68723604Y294291653D02*
G01*
X68760144Y294280568D01*
X68793821Y294262567D01*
X68823341Y294238341D01*
X68847567Y294208821D01*
X68865568Y294175144D01*
X68876653Y294138604D01*
X68881000Y294094462D01*
X68881000Y292645538D01*
X68876653Y292601396D01*
X68865568Y292564856D01*
X68847567Y292531179D01*
X68823341Y292501659D01*
X68793821Y292477433D01*
X68760144Y292459432D01*
X68723604Y292448347D01*
X68679462Y292444000D01*
X67730538Y292444000D01*
X67686396Y292448347D01*
X67649856Y292459432D01*
X67616179Y292477433D01*
X67586659Y292501659D01*
X67562433Y292531179D01*
X67544432Y292564856D01*
X67533347Y292601396D01*
X67529000Y292645538D01*
X67529000Y294094462D01*
X67533347Y294138604D01*
X67544432Y294175144D01*
X67562433Y294208821D01*
X67586659Y294238341D01*
X67616179Y294262567D01*
X67649856Y294280568D01*
X67686396Y294291653D01*
X67730538Y294296000D01*
X68679462Y294296000D01*
X68723604Y294291653D01*
G37*
G36*
X65923604Y294291653D02*
G01*
X65960144Y294280568D01*
X65993821Y294262567D01*
X66023341Y294238341D01*
X66047567Y294208821D01*
X66065568Y294175144D01*
X66076653Y294138604D01*
X66081000Y294094462D01*
X66081000Y292645538D01*
X66076653Y292601396D01*
X66065568Y292564856D01*
X66047567Y292531179D01*
X66023341Y292501659D01*
X65993821Y292477433D01*
X65960144Y292459432D01*
X65923604Y292448347D01*
X65879462Y292444000D01*
X64930538Y292444000D01*
X64886396Y292448347D01*
X64849856Y292459432D01*
X64816179Y292477433D01*
X64786659Y292501659D01*
X64762433Y292531179D01*
X64744432Y292564856D01*
X64733347Y292601396D01*
X64729000Y292645538D01*
X64729000Y294094462D01*
X64733347Y294138604D01*
X64744432Y294175144D01*
X64762433Y294208821D01*
X64786659Y294238341D01*
X64816179Y294262567D01*
X64849856Y294280568D01*
X64886396Y294291653D01*
X64930538Y294296000D01*
X65879462Y294296000D01*
X65923604Y294291653D01*
G37*
G36*
X70873604Y296196653D02*
G01*
X70910144Y296185568D01*
X70943821Y296167567D01*
X70973341Y296143341D01*
X70997567Y296113821D01*
X71015568Y296080144D01*
X71026653Y296043604D01*
X71031000Y295999462D01*
X71031000Y294550538D01*
X71026653Y294506396D01*
X71015568Y294469856D01*
X70997567Y294436179D01*
X70973341Y294406659D01*
X70943821Y294382433D01*
X70910144Y294364432D01*
X70873604Y294353347D01*
X70829462Y294349000D01*
X69880538Y294349000D01*
X69836396Y294353347D01*
X69799856Y294364432D01*
X69766179Y294382433D01*
X69736659Y294406659D01*
X69712433Y294436179D01*
X69694432Y294469856D01*
X69683347Y294506396D01*
X69679000Y294550538D01*
X69679000Y295999462D01*
X69683347Y296043604D01*
X69694432Y296080144D01*
X69712433Y296113821D01*
X69736659Y296143341D01*
X69766179Y296167567D01*
X69799856Y296185568D01*
X69836396Y296196653D01*
X69880538Y296201000D01*
X70829462Y296201000D01*
X70873604Y296196653D01*
G37*
G36*
X73673604Y296196653D02*
G01*
X73710144Y296185568D01*
X73743821Y296167567D01*
X73773341Y296143341D01*
X73797567Y296113821D01*
X73815568Y296080144D01*
X73826653Y296043604D01*
X73831000Y295999462D01*
X73831000Y294550538D01*
X73826653Y294506396D01*
X73815568Y294469856D01*
X73797567Y294436179D01*
X73773341Y294406659D01*
X73743821Y294382433D01*
X73710144Y294364432D01*
X73673604Y294353347D01*
X73629462Y294349000D01*
X72680538Y294349000D01*
X72636396Y294353347D01*
X72599856Y294364432D01*
X72566179Y294382433D01*
X72536659Y294406659D01*
X72512433Y294436179D01*
X72494432Y294469856D01*
X72483347Y294506396D01*
X72479000Y294550538D01*
X72479000Y295999462D01*
X72483347Y296043604D01*
X72494432Y296080144D01*
X72512433Y296113821D01*
X72536659Y296143341D01*
X72566179Y296167567D01*
X72599856Y296185568D01*
X72636396Y296196653D01*
X72680538Y296201000D01*
X73629462Y296201000D01*
X73673604Y296196653D01*
G37*
G36*
X57263512Y296171073D02*
G01*
X57412812Y296141376D01*
X57576784Y296073456D01*
X57724354Y295974853D01*
X57849853Y295849354D01*
X57948456Y295701784D01*
X58016376Y295537812D01*
X58051000Y295363741D01*
X58051000Y295186259D01*
X58016376Y295012188D01*
X57948456Y294848216D01*
X57849853Y294700646D01*
X57724354Y294575147D01*
X57576784Y294476544D01*
X57412812Y294408624D01*
X57263512Y294378927D01*
X57238742Y294374000D01*
X57061258Y294374000D01*
X57036488Y294378927D01*
X56887188Y294408624D01*
X56723216Y294476544D01*
X56575646Y294575147D01*
X56450147Y294700646D01*
X56351544Y294848216D01*
X56283624Y295012188D01*
X56249000Y295186259D01*
X56249000Y295363741D01*
X56283624Y295537812D01*
X56351544Y295701784D01*
X56450147Y295849354D01*
X56575646Y295974853D01*
X56723216Y296073456D01*
X56887188Y296141376D01*
X57036488Y296171073D01*
X57061258Y296176000D01*
X57238742Y296176000D01*
X57263512Y296171073D01*
G37*
G36*
X62998604Y297591653D02*
G01*
X63035144Y297580568D01*
X63068821Y297562567D01*
X63098341Y297538341D01*
X63122567Y297508821D01*
X63140568Y297475144D01*
X63151653Y297438604D01*
X63156000Y297394462D01*
X63156000Y296445538D01*
X63151653Y296401396D01*
X63140568Y296364856D01*
X63122567Y296331179D01*
X63098341Y296301659D01*
X63068821Y296277433D01*
X63035144Y296259432D01*
X62998604Y296248347D01*
X62954462Y296244000D01*
X61505538Y296244000D01*
X61461396Y296248347D01*
X61424856Y296259432D01*
X61391179Y296277433D01*
X61361659Y296301659D01*
X61337433Y296331179D01*
X61319432Y296364856D01*
X61308347Y296401396D01*
X61304000Y296445538D01*
X61304000Y297394462D01*
X61308347Y297438604D01*
X61319432Y297475144D01*
X61337433Y297508821D01*
X61361659Y297538341D01*
X61391179Y297562567D01*
X61424856Y297580568D01*
X61461396Y297591653D01*
X61505538Y297596000D01*
X62954462Y297596000D01*
X62998604Y297591653D01*
G37*
G36*
X73673604Y298736653D02*
G01*
X73710144Y298725568D01*
X73743821Y298707567D01*
X73773341Y298683341D01*
X73797567Y298653821D01*
X73815568Y298620144D01*
X73826653Y298583604D01*
X73831000Y298539462D01*
X73831000Y297090538D01*
X73826653Y297046396D01*
X73815568Y297009856D01*
X73797567Y296976179D01*
X73773341Y296946659D01*
X73743821Y296922433D01*
X73710144Y296904432D01*
X73673604Y296893347D01*
X73629462Y296889000D01*
X72680538Y296889000D01*
X72636396Y296893347D01*
X72599856Y296904432D01*
X72566179Y296922433D01*
X72536659Y296946659D01*
X72512433Y296976179D01*
X72494432Y297009856D01*
X72483347Y297046396D01*
X72479000Y297090538D01*
X72479000Y298539462D01*
X72483347Y298583604D01*
X72494432Y298620144D01*
X72512433Y298653821D01*
X72536659Y298683341D01*
X72566179Y298707567D01*
X72599856Y298725568D01*
X72636396Y298736653D01*
X72680538Y298741000D01*
X73629462Y298741000D01*
X73673604Y298736653D01*
G37*
G36*
X70873604Y298736653D02*
G01*
X70910144Y298725568D01*
X70943821Y298707567D01*
X70973341Y298683341D01*
X70997567Y298653821D01*
X71015568Y298620144D01*
X71026653Y298583604D01*
X71031000Y298539462D01*
X71031000Y297090538D01*
X71026653Y297046396D01*
X71015568Y297009856D01*
X70997567Y296976179D01*
X70973341Y296946659D01*
X70943821Y296922433D01*
X70910144Y296904432D01*
X70873604Y296893347D01*
X70829462Y296889000D01*
X69880538Y296889000D01*
X69836396Y296893347D01*
X69799856Y296904432D01*
X69766179Y296922433D01*
X69736659Y296946659D01*
X69712433Y296976179D01*
X69694432Y297009856D01*
X69683347Y297046396D01*
X69679000Y297090538D01*
X69679000Y298539462D01*
X69683347Y298583604D01*
X69694432Y298620144D01*
X69712433Y298653821D01*
X69736659Y298683341D01*
X69766179Y298707567D01*
X69799856Y298725568D01*
X69836396Y298736653D01*
X69880538Y298741000D01*
X70829462Y298741000D01*
X70873604Y298736653D01*
G37*
G36*
X57263512Y298711073D02*
G01*
X57412812Y298681376D01*
X57576784Y298613456D01*
X57724354Y298514853D01*
X57849853Y298389354D01*
X57948456Y298241784D01*
X58016376Y298077812D01*
X58051000Y297903741D01*
X58051000Y297726259D01*
X58016376Y297552188D01*
X57948456Y297388216D01*
X57849853Y297240646D01*
X57724354Y297115147D01*
X57576784Y297016544D01*
X57412812Y296948624D01*
X57263512Y296918927D01*
X57238742Y296914000D01*
X57061258Y296914000D01*
X57036488Y296918927D01*
X56887188Y296948624D01*
X56723216Y297016544D01*
X56575646Y297115147D01*
X56450147Y297240646D01*
X56351544Y297388216D01*
X56283624Y297552188D01*
X56249000Y297726259D01*
X56249000Y297903741D01*
X56283624Y298077812D01*
X56351544Y298241784D01*
X56450147Y298389354D01*
X56575646Y298514853D01*
X56723216Y298613456D01*
X56887188Y298681376D01*
X57036488Y298711073D01*
X57061258Y298716000D01*
X57238742Y298716000D01*
X57263512Y298711073D01*
G37*
G36*
X64831000Y296914000D02*
G01*
X64079000Y296914000D01*
X64079000Y297416000D01*
X64831000Y297416000D01*
X64831000Y296914000D01*
G37*
G36*
X66731000Y296914000D02*
G01*
X65979000Y296914000D01*
X65979000Y298716000D01*
X66731000Y298716000D01*
X66731000Y296914000D01*
G37*
G36*
X64831000Y298214000D02*
G01*
X64079000Y298214000D01*
X64079000Y298716000D01*
X64831000Y298716000D01*
X64831000Y298214000D01*
G37*
G36*
X62998604Y300391653D02*
G01*
X63035144Y300380568D01*
X63068821Y300362567D01*
X63098341Y300338341D01*
X63122567Y300308821D01*
X63140568Y300275144D01*
X63151653Y300238604D01*
X63156000Y300194462D01*
X63156000Y299245538D01*
X63151653Y299201396D01*
X63140568Y299164856D01*
X63122567Y299131179D01*
X63098341Y299101659D01*
X63068821Y299077433D01*
X63035144Y299059432D01*
X62998604Y299048347D01*
X62954462Y299044000D01*
X61505538Y299044000D01*
X61461396Y299048347D01*
X61424856Y299059432D01*
X61391179Y299077433D01*
X61361659Y299101659D01*
X61337433Y299131179D01*
X61319432Y299164856D01*
X61308347Y299201396D01*
X61304000Y299245538D01*
X61304000Y300194462D01*
X61308347Y300238604D01*
X61319432Y300275144D01*
X61337433Y300308821D01*
X61361659Y300338341D01*
X61391179Y300362567D01*
X61424856Y300380568D01*
X61461396Y300391653D01*
X61505538Y300396000D01*
X62954462Y300396000D01*
X62998604Y300391653D01*
G37*
G36*
X70873604Y301276653D02*
G01*
X70910144Y301265568D01*
X70943821Y301247567D01*
X70973341Y301223341D01*
X70997567Y301193821D01*
X71015568Y301160144D01*
X71026653Y301123604D01*
X71031000Y301079462D01*
X71031000Y299630538D01*
X71026653Y299586396D01*
X71015568Y299549856D01*
X70997567Y299516179D01*
X70973341Y299486659D01*
X70943821Y299462433D01*
X70910144Y299444432D01*
X70873604Y299433347D01*
X70829462Y299429000D01*
X69880538Y299429000D01*
X69836396Y299433347D01*
X69799856Y299444432D01*
X69766179Y299462433D01*
X69736659Y299486659D01*
X69712433Y299516179D01*
X69694432Y299549856D01*
X69683347Y299586396D01*
X69679000Y299630538D01*
X69679000Y301079462D01*
X69683347Y301123604D01*
X69694432Y301160144D01*
X69712433Y301193821D01*
X69736659Y301223341D01*
X69766179Y301247567D01*
X69799856Y301265568D01*
X69836396Y301276653D01*
X69880538Y301281000D01*
X70829462Y301281000D01*
X70873604Y301276653D01*
G37*
G36*
X73673604Y301276653D02*
G01*
X73710144Y301265568D01*
X73743821Y301247567D01*
X73773341Y301223341D01*
X73797567Y301193821D01*
X73815568Y301160144D01*
X73826653Y301123604D01*
X73831000Y301079462D01*
X73831000Y299630538D01*
X73826653Y299586396D01*
X73815568Y299549856D01*
X73797567Y299516179D01*
X73773341Y299486659D01*
X73743821Y299462433D01*
X73710144Y299444432D01*
X73673604Y299433347D01*
X73629462Y299429000D01*
X72680538Y299429000D01*
X72636396Y299433347D01*
X72599856Y299444432D01*
X72566179Y299462433D01*
X72536659Y299486659D01*
X72512433Y299516179D01*
X72494432Y299549856D01*
X72483347Y299586396D01*
X72479000Y299630538D01*
X72479000Y301079462D01*
X72483347Y301123604D01*
X72494432Y301160144D01*
X72512433Y301193821D01*
X72536659Y301223341D01*
X72566179Y301247567D01*
X72599856Y301265568D01*
X72636396Y301276653D01*
X72680538Y301281000D01*
X73629462Y301281000D01*
X73673604Y301276653D01*
G37*
G36*
X57263512Y301251073D02*
G01*
X57412812Y301221376D01*
X57576784Y301153456D01*
X57724354Y301054853D01*
X57849853Y300929354D01*
X57948456Y300781784D01*
X58016376Y300617812D01*
X58051000Y300443741D01*
X58051000Y300266259D01*
X58016376Y300092188D01*
X57948456Y299928216D01*
X57849853Y299780646D01*
X57724354Y299655147D01*
X57576784Y299556544D01*
X57412812Y299488624D01*
X57263512Y299458927D01*
X57238742Y299454000D01*
X57061258Y299454000D01*
X57036488Y299458927D01*
X56887188Y299488624D01*
X56723216Y299556544D01*
X56575646Y299655147D01*
X56450147Y299780646D01*
X56351544Y299928216D01*
X56283624Y300092188D01*
X56249000Y300266259D01*
X56249000Y300443741D01*
X56283624Y300617812D01*
X56351544Y300781784D01*
X56450147Y300929354D01*
X56575646Y301054853D01*
X56723216Y301153456D01*
X56887188Y301221376D01*
X57036488Y301251073D01*
X57061258Y301256000D01*
X57238742Y301256000D01*
X57263512Y301251073D01*
G37*
G36*
X62998604Y303306653D02*
G01*
X63035144Y303295568D01*
X63068821Y303277567D01*
X63098341Y303253341D01*
X63122567Y303223821D01*
X63140568Y303190144D01*
X63151653Y303153604D01*
X63156000Y303109462D01*
X63156000Y302160538D01*
X63151653Y302116396D01*
X63140568Y302079856D01*
X63122567Y302046179D01*
X63098341Y302016659D01*
X63068821Y301992433D01*
X63035144Y301974432D01*
X62998604Y301963347D01*
X62954462Y301959000D01*
X61505538Y301959000D01*
X61461396Y301963347D01*
X61424856Y301974432D01*
X61391179Y301992433D01*
X61361659Y302016659D01*
X61337433Y302046179D01*
X61319432Y302079856D01*
X61308347Y302116396D01*
X61304000Y302160538D01*
X61304000Y303109462D01*
X61308347Y303153604D01*
X61319432Y303190144D01*
X61337433Y303223821D01*
X61361659Y303253341D01*
X61391179Y303277567D01*
X61424856Y303295568D01*
X61461396Y303306653D01*
X61505538Y303311000D01*
X62954462Y303311000D01*
X62998604Y303306653D01*
G37*
G36*
X54623604Y303816653D02*
G01*
X54660144Y303805568D01*
X54693821Y303787567D01*
X54723341Y303763341D01*
X54747567Y303733821D01*
X54765568Y303700144D01*
X54776653Y303663604D01*
X54781000Y303619462D01*
X54781000Y302170538D01*
X54776653Y302126396D01*
X54765568Y302089856D01*
X54747567Y302056179D01*
X54723341Y302026659D01*
X54693821Y302002433D01*
X54660144Y301984432D01*
X54623604Y301973347D01*
X54579462Y301969000D01*
X53630538Y301969000D01*
X53586396Y301973347D01*
X53549856Y301984432D01*
X53516179Y302002433D01*
X53486659Y302026659D01*
X53462433Y302056179D01*
X53444432Y302089856D01*
X53433347Y302126396D01*
X53429000Y302170538D01*
X53429000Y303619462D01*
X53433347Y303663604D01*
X53444432Y303700144D01*
X53462433Y303733821D01*
X53486659Y303763341D01*
X53516179Y303787567D01*
X53549856Y303805568D01*
X53586396Y303816653D01*
X53630538Y303821000D01*
X54579462Y303821000D01*
X54623604Y303816653D01*
G37*
G36*
X51823604Y303816653D02*
G01*
X51860144Y303805568D01*
X51893821Y303787567D01*
X51923341Y303763341D01*
X51947567Y303733821D01*
X51965568Y303700144D01*
X51976653Y303663604D01*
X51981000Y303619462D01*
X51981000Y302170538D01*
X51976653Y302126396D01*
X51965568Y302089856D01*
X51947567Y302056179D01*
X51923341Y302026659D01*
X51893821Y302002433D01*
X51860144Y301984432D01*
X51823604Y301973347D01*
X51779462Y301969000D01*
X50830538Y301969000D01*
X50786396Y301973347D01*
X50749856Y301984432D01*
X50716179Y302002433D01*
X50686659Y302026659D01*
X50662433Y302056179D01*
X50644432Y302089856D01*
X50633347Y302126396D01*
X50629000Y302170538D01*
X50629000Y303619462D01*
X50633347Y303663604D01*
X50644432Y303700144D01*
X50662433Y303733821D01*
X50686659Y303763341D01*
X50716179Y303787567D01*
X50749856Y303805568D01*
X50786396Y303816653D01*
X50830538Y303821000D01*
X51779462Y303821000D01*
X51823604Y303816653D01*
G37*
G36*
X57263512Y303791073D02*
G01*
X57412812Y303761376D01*
X57576784Y303693456D01*
X57724354Y303594853D01*
X57849853Y303469354D01*
X57948456Y303321784D01*
X58016376Y303157812D01*
X58051000Y302983741D01*
X58051000Y302806259D01*
X58016376Y302632188D01*
X57948456Y302468216D01*
X57849853Y302320646D01*
X57724354Y302195147D01*
X57576784Y302096544D01*
X57412812Y302028624D01*
X57263512Y301998927D01*
X57238742Y301994000D01*
X57061258Y301994000D01*
X57036488Y301998927D01*
X56887188Y302028624D01*
X56723216Y302096544D01*
X56575646Y302195147D01*
X56450147Y302320646D01*
X56351544Y302468216D01*
X56283624Y302632188D01*
X56249000Y302806259D01*
X56249000Y302983741D01*
X56283624Y303157812D01*
X56351544Y303321784D01*
X56450147Y303469354D01*
X56575646Y303594853D01*
X56723216Y303693456D01*
X56887188Y303761376D01*
X57036488Y303791073D01*
X57061258Y303796000D01*
X57238742Y303796000D01*
X57263512Y303791073D01*
G37*
G36*
X73793604Y303941653D02*
G01*
X73830144Y303930568D01*
X73863821Y303912567D01*
X73893341Y303888341D01*
X73917567Y303858821D01*
X73935568Y303825144D01*
X73946653Y303788604D01*
X73951000Y303744462D01*
X73951000Y302795538D01*
X73946653Y302751396D01*
X73935568Y302714856D01*
X73917567Y302681179D01*
X73893341Y302651659D01*
X73863821Y302627433D01*
X73830144Y302609432D01*
X73793604Y302598347D01*
X73749462Y302594000D01*
X72300538Y302594000D01*
X72256396Y302598347D01*
X72219856Y302609432D01*
X72186179Y302627433D01*
X72156659Y302651659D01*
X72132433Y302681179D01*
X72114432Y302714856D01*
X72103347Y302751396D01*
X72099000Y302795538D01*
X72099000Y303744462D01*
X72103347Y303788604D01*
X72114432Y303825144D01*
X72132433Y303858821D01*
X72156659Y303888341D01*
X72186179Y303912567D01*
X72219856Y303930568D01*
X72256396Y303941653D01*
X72300538Y303946000D01*
X73749462Y303946000D01*
X73793604Y303941653D01*
G37*
G36*
X78873604Y305211653D02*
G01*
X78910144Y305200568D01*
X78943821Y305182567D01*
X78973341Y305158341D01*
X78997567Y305128821D01*
X79015568Y305095144D01*
X79026653Y305058604D01*
X79031000Y305014462D01*
X79031000Y304065538D01*
X79026653Y304021396D01*
X79015568Y303984856D01*
X78997567Y303951179D01*
X78973341Y303921659D01*
X78943821Y303897433D01*
X78910144Y303879432D01*
X78873604Y303868347D01*
X78829462Y303864000D01*
X77380538Y303864000D01*
X77336396Y303868347D01*
X77299856Y303879432D01*
X77266179Y303897433D01*
X77236659Y303921659D01*
X77212433Y303951179D01*
X77194432Y303984856D01*
X77183347Y304021396D01*
X77179000Y304065538D01*
X77179000Y305014462D01*
X77183347Y305058604D01*
X77194432Y305095144D01*
X77212433Y305128821D01*
X77236659Y305158341D01*
X77266179Y305182567D01*
X77299856Y305200568D01*
X77336396Y305211653D01*
X77380538Y305216000D01*
X78829462Y305216000D01*
X78873604Y305211653D01*
G37*
G36*
X54623604Y306356653D02*
G01*
X54660144Y306345568D01*
X54693821Y306327567D01*
X54723341Y306303341D01*
X54747567Y306273821D01*
X54765568Y306240144D01*
X54776653Y306203604D01*
X54781000Y306159462D01*
X54781000Y304710538D01*
X54776653Y304666396D01*
X54765568Y304629856D01*
X54747567Y304596179D01*
X54723341Y304566659D01*
X54693821Y304542433D01*
X54660144Y304524432D01*
X54623604Y304513347D01*
X54579462Y304509000D01*
X53630538Y304509000D01*
X53586396Y304513347D01*
X53549856Y304524432D01*
X53516179Y304542433D01*
X53486659Y304566659D01*
X53462433Y304596179D01*
X53444432Y304629856D01*
X53433347Y304666396D01*
X53429000Y304710538D01*
X53429000Y306159462D01*
X53433347Y306203604D01*
X53444432Y306240144D01*
X53462433Y306273821D01*
X53486659Y306303341D01*
X53516179Y306327567D01*
X53549856Y306345568D01*
X53586396Y306356653D01*
X53630538Y306361000D01*
X54579462Y306361000D01*
X54623604Y306356653D01*
G37*
G36*
X51823604Y306356653D02*
G01*
X51860144Y306345568D01*
X51893821Y306327567D01*
X51923341Y306303341D01*
X51947567Y306273821D01*
X51965568Y306240144D01*
X51976653Y306203604D01*
X51981000Y306159462D01*
X51981000Y304710538D01*
X51976653Y304666396D01*
X51965568Y304629856D01*
X51947567Y304596179D01*
X51923341Y304566659D01*
X51893821Y304542433D01*
X51860144Y304524432D01*
X51823604Y304513347D01*
X51779462Y304509000D01*
X50830538Y304509000D01*
X50786396Y304513347D01*
X50749856Y304524432D01*
X50716179Y304542433D01*
X50686659Y304566659D01*
X50662433Y304596179D01*
X50644432Y304629856D01*
X50633347Y304666396D01*
X50629000Y304710538D01*
X50629000Y306159462D01*
X50633347Y306203604D01*
X50644432Y306240144D01*
X50662433Y306273821D01*
X50686659Y306303341D01*
X50716179Y306327567D01*
X50749856Y306345568D01*
X50786396Y306356653D01*
X50830538Y306361000D01*
X51779462Y306361000D01*
X51823604Y306356653D01*
G37*
G36*
X57263512Y306331073D02*
G01*
X57412812Y306301376D01*
X57576784Y306233456D01*
X57724354Y306134853D01*
X57849853Y306009354D01*
X57948456Y305861784D01*
X58016376Y305697812D01*
X58051000Y305523741D01*
X58051000Y305346259D01*
X58016376Y305172188D01*
X57948456Y305008216D01*
X57849853Y304860646D01*
X57724354Y304735147D01*
X57576784Y304636544D01*
X57412812Y304568624D01*
X57263512Y304538927D01*
X57238742Y304534000D01*
X57061258Y304534000D01*
X57036488Y304538927D01*
X56887188Y304568624D01*
X56723216Y304636544D01*
X56575646Y304735147D01*
X56450147Y304860646D01*
X56351544Y305008216D01*
X56283624Y305172188D01*
X56249000Y305346259D01*
X56249000Y305523741D01*
X56283624Y305697812D01*
X56351544Y305861784D01*
X56450147Y306009354D01*
X56575646Y306134853D01*
X56723216Y306233456D01*
X56887188Y306301376D01*
X57036488Y306331073D01*
X57061258Y306336000D01*
X57238742Y306336000D01*
X57263512Y306331073D01*
G37*
G36*
X62998604Y306106653D02*
G01*
X63035144Y306095568D01*
X63068821Y306077567D01*
X63098341Y306053341D01*
X63122567Y306023821D01*
X63140568Y305990144D01*
X63151653Y305953604D01*
X63156000Y305909462D01*
X63156000Y304960538D01*
X63151653Y304916396D01*
X63140568Y304879856D01*
X63122567Y304846179D01*
X63098341Y304816659D01*
X63068821Y304792433D01*
X63035144Y304774432D01*
X62998604Y304763347D01*
X62954462Y304759000D01*
X61505538Y304759000D01*
X61461396Y304763347D01*
X61424856Y304774432D01*
X61391179Y304792433D01*
X61361659Y304816659D01*
X61337433Y304846179D01*
X61319432Y304879856D01*
X61308347Y304916396D01*
X61304000Y304960538D01*
X61304000Y305909462D01*
X61308347Y305953604D01*
X61319432Y305990144D01*
X61337433Y306023821D01*
X61361659Y306053341D01*
X61391179Y306077567D01*
X61424856Y306095568D01*
X61461396Y306106653D01*
X61505538Y306111000D01*
X62954462Y306111000D01*
X62998604Y306106653D01*
G37*
G36*
X73793604Y306741653D02*
G01*
X73830144Y306730568D01*
X73863821Y306712567D01*
X73893341Y306688341D01*
X73917567Y306658821D01*
X73935568Y306625144D01*
X73946653Y306588604D01*
X73951000Y306544462D01*
X73951000Y305595538D01*
X73946653Y305551396D01*
X73935568Y305514856D01*
X73917567Y305481179D01*
X73893341Y305451659D01*
X73863821Y305427433D01*
X73830144Y305409432D01*
X73793604Y305398347D01*
X73749462Y305394000D01*
X72300538Y305394000D01*
X72256396Y305398347D01*
X72219856Y305409432D01*
X72186179Y305427433D01*
X72156659Y305451659D01*
X72132433Y305481179D01*
X72114432Y305514856D01*
X72103347Y305551396D01*
X72099000Y305595538D01*
X72099000Y306544462D01*
X72103347Y306588604D01*
X72114432Y306625144D01*
X72132433Y306658821D01*
X72156659Y306688341D01*
X72186179Y306712567D01*
X72219856Y306730568D01*
X72256396Y306741653D01*
X72300538Y306746000D01*
X73749462Y306746000D01*
X73793604Y306741653D01*
G37*
G36*
X76333604Y306741653D02*
G01*
X76370144Y306730568D01*
X76403821Y306712567D01*
X76433341Y306688341D01*
X76457567Y306658821D01*
X76475568Y306625144D01*
X76486653Y306588604D01*
X76491000Y306544462D01*
X76491000Y305595538D01*
X76486653Y305551396D01*
X76475568Y305514856D01*
X76457567Y305481179D01*
X76433341Y305451659D01*
X76403821Y305427433D01*
X76370144Y305409432D01*
X76333604Y305398347D01*
X76289462Y305394000D01*
X74840538Y305394000D01*
X74796396Y305398347D01*
X74759856Y305409432D01*
X74726179Y305427433D01*
X74696659Y305451659D01*
X74672433Y305481179D01*
X74654432Y305514856D01*
X74643347Y305551396D01*
X74639000Y305595538D01*
X74639000Y306544462D01*
X74643347Y306588604D01*
X74654432Y306625144D01*
X74672433Y306658821D01*
X74696659Y306688341D01*
X74726179Y306712567D01*
X74759856Y306730568D01*
X74796396Y306741653D01*
X74840538Y306746000D01*
X76289462Y306746000D01*
X76333604Y306741653D01*
G37*
G36*
X78873604Y308011653D02*
G01*
X78910144Y308000568D01*
X78943821Y307982567D01*
X78973341Y307958341D01*
X78997567Y307928821D01*
X79015568Y307895144D01*
X79026653Y307858604D01*
X79031000Y307814462D01*
X79031000Y306865538D01*
X79026653Y306821396D01*
X79015568Y306784856D01*
X78997567Y306751179D01*
X78973341Y306721659D01*
X78943821Y306697433D01*
X78910144Y306679432D01*
X78873604Y306668347D01*
X78829462Y306664000D01*
X77380538Y306664000D01*
X77336396Y306668347D01*
X77299856Y306679432D01*
X77266179Y306697433D01*
X77236659Y306721659D01*
X77212433Y306751179D01*
X77194432Y306784856D01*
X77183347Y306821396D01*
X77179000Y306865538D01*
X77179000Y307814462D01*
X77183347Y307858604D01*
X77194432Y307895144D01*
X77212433Y307928821D01*
X77236659Y307958341D01*
X77266179Y307982567D01*
X77299856Y308000568D01*
X77336396Y308011653D01*
X77380538Y308016000D01*
X78829462Y308016000D01*
X78873604Y308011653D01*
G37*
G36*
X51823604Y308896653D02*
G01*
X51860144Y308885568D01*
X51893821Y308867567D01*
X51923341Y308843341D01*
X51947567Y308813821D01*
X51965568Y308780144D01*
X51976653Y308743604D01*
X51981000Y308699462D01*
X51981000Y307250538D01*
X51976653Y307206396D01*
X51965568Y307169856D01*
X51947567Y307136179D01*
X51923341Y307106659D01*
X51893821Y307082433D01*
X51860144Y307064432D01*
X51823604Y307053347D01*
X51779462Y307049000D01*
X50830538Y307049000D01*
X50786396Y307053347D01*
X50749856Y307064432D01*
X50716179Y307082433D01*
X50686659Y307106659D01*
X50662433Y307136179D01*
X50644432Y307169856D01*
X50633347Y307206396D01*
X50629000Y307250538D01*
X50629000Y308699462D01*
X50633347Y308743604D01*
X50644432Y308780144D01*
X50662433Y308813821D01*
X50686659Y308843341D01*
X50716179Y308867567D01*
X50749856Y308885568D01*
X50786396Y308896653D01*
X50830538Y308901000D01*
X51779462Y308901000D01*
X51823604Y308896653D01*
G37*
G36*
X62618604Y308896653D02*
G01*
X62655144Y308885568D01*
X62688821Y308867567D01*
X62718341Y308843341D01*
X62742567Y308813821D01*
X62760568Y308780144D01*
X62771653Y308743604D01*
X62776000Y308699462D01*
X62776000Y307250538D01*
X62771653Y307206396D01*
X62760568Y307169856D01*
X62742567Y307136179D01*
X62718341Y307106659D01*
X62688821Y307082433D01*
X62655144Y307064432D01*
X62618604Y307053347D01*
X62574462Y307049000D01*
X61625538Y307049000D01*
X61581396Y307053347D01*
X61544856Y307064432D01*
X61511179Y307082433D01*
X61481659Y307106659D01*
X61457433Y307136179D01*
X61439432Y307169856D01*
X61428347Y307206396D01*
X61424000Y307250538D01*
X61424000Y308699462D01*
X61428347Y308743604D01*
X61439432Y308780144D01*
X61457433Y308813821D01*
X61481659Y308843341D01*
X61511179Y308867567D01*
X61544856Y308885568D01*
X61581396Y308896653D01*
X61625538Y308901000D01*
X62574462Y308901000D01*
X62618604Y308896653D01*
G37*
G36*
X65418604Y308896653D02*
G01*
X65455144Y308885568D01*
X65488821Y308867567D01*
X65518341Y308843341D01*
X65542567Y308813821D01*
X65560568Y308780144D01*
X65571653Y308743604D01*
X65576000Y308699462D01*
X65576000Y307250538D01*
X65571653Y307206396D01*
X65560568Y307169856D01*
X65542567Y307136179D01*
X65518341Y307106659D01*
X65488821Y307082433D01*
X65455144Y307064432D01*
X65418604Y307053347D01*
X65374462Y307049000D01*
X64425538Y307049000D01*
X64381396Y307053347D01*
X64344856Y307064432D01*
X64311179Y307082433D01*
X64281659Y307106659D01*
X64257433Y307136179D01*
X64239432Y307169856D01*
X64228347Y307206396D01*
X64224000Y307250538D01*
X64224000Y308699462D01*
X64228347Y308743604D01*
X64239432Y308780144D01*
X64257433Y308813821D01*
X64281659Y308843341D01*
X64311179Y308867567D01*
X64344856Y308885568D01*
X64381396Y308896653D01*
X64425538Y308901000D01*
X65374462Y308901000D01*
X65418604Y308896653D01*
G37*
G36*
X54623604Y308896653D02*
G01*
X54660144Y308885568D01*
X54693821Y308867567D01*
X54723341Y308843341D01*
X54747567Y308813821D01*
X54765568Y308780144D01*
X54776653Y308743604D01*
X54781000Y308699462D01*
X54781000Y307250538D01*
X54776653Y307206396D01*
X54765568Y307169856D01*
X54747567Y307136179D01*
X54723341Y307106659D01*
X54693821Y307082433D01*
X54660144Y307064432D01*
X54623604Y307053347D01*
X54579462Y307049000D01*
X53630538Y307049000D01*
X53586396Y307053347D01*
X53549856Y307064432D01*
X53516179Y307082433D01*
X53486659Y307106659D01*
X53462433Y307136179D01*
X53444432Y307169856D01*
X53433347Y307206396D01*
X53429000Y307250538D01*
X53429000Y308699462D01*
X53433347Y308743604D01*
X53444432Y308780144D01*
X53462433Y308813821D01*
X53486659Y308843341D01*
X53516179Y308867567D01*
X53549856Y308885568D01*
X53586396Y308896653D01*
X53630538Y308901000D01*
X54579462Y308901000D01*
X54623604Y308896653D01*
G37*
G36*
X57263512Y308871073D02*
G01*
X57412812Y308841376D01*
X57576784Y308773456D01*
X57724354Y308674853D01*
X57849853Y308549354D01*
X57948456Y308401784D01*
X58016376Y308237812D01*
X58051000Y308063741D01*
X58051000Y307886259D01*
X58016376Y307712188D01*
X57948456Y307548216D01*
X57849853Y307400646D01*
X57724354Y307275147D01*
X57576784Y307176544D01*
X57412812Y307108624D01*
X57263512Y307078927D01*
X57238742Y307074000D01*
X57061258Y307074000D01*
X57036488Y307078927D01*
X56887188Y307108624D01*
X56723216Y307176544D01*
X56575646Y307275147D01*
X56450147Y307400646D01*
X56351544Y307548216D01*
X56283624Y307712188D01*
X56249000Y307886259D01*
X56249000Y308063741D01*
X56283624Y308237812D01*
X56351544Y308401784D01*
X56450147Y308549354D01*
X56575646Y308674853D01*
X56723216Y308773456D01*
X56887188Y308841376D01*
X57036488Y308871073D01*
X57061258Y308876000D01*
X57238742Y308876000D01*
X57263512Y308871073D01*
G37*
G36*
X76333604Y309541653D02*
G01*
X76370144Y309530568D01*
X76403821Y309512567D01*
X76433341Y309488341D01*
X76457567Y309458821D01*
X76475568Y309425144D01*
X76486653Y309388604D01*
X76491000Y309344462D01*
X76491000Y308395538D01*
X76486653Y308351396D01*
X76475568Y308314856D01*
X76457567Y308281179D01*
X76433341Y308251659D01*
X76403821Y308227433D01*
X76370144Y308209432D01*
X76333604Y308198347D01*
X76289462Y308194000D01*
X74840538Y308194000D01*
X74796396Y308198347D01*
X74759856Y308209432D01*
X74726179Y308227433D01*
X74696659Y308251659D01*
X74672433Y308281179D01*
X74654432Y308314856D01*
X74643347Y308351396D01*
X74639000Y308395538D01*
X74639000Y309344462D01*
X74643347Y309388604D01*
X74654432Y309425144D01*
X74672433Y309458821D01*
X74696659Y309488341D01*
X74726179Y309512567D01*
X74759856Y309530568D01*
X74796396Y309541653D01*
X74840538Y309546000D01*
X76289462Y309546000D01*
X76333604Y309541653D01*
G37*
G36*
X57263512Y311411073D02*
G01*
X57412812Y311381376D01*
X57576784Y311313456D01*
X57724354Y311214853D01*
X57849853Y311089354D01*
X57948456Y310941784D01*
X58016376Y310777812D01*
X58051000Y310603741D01*
X58051000Y310426259D01*
X58016376Y310252188D01*
X57948456Y310088216D01*
X57849853Y309940646D01*
X57724354Y309815147D01*
X57576784Y309716544D01*
X57412812Y309648624D01*
X57263512Y309618927D01*
X57238742Y309614000D01*
X57061258Y309614000D01*
X57036488Y309618927D01*
X56887188Y309648624D01*
X56723216Y309716544D01*
X56575646Y309815147D01*
X56450147Y309940646D01*
X56351544Y310088216D01*
X56283624Y310252188D01*
X56249000Y310426259D01*
X56249000Y310603741D01*
X56283624Y310777812D01*
X56351544Y310941784D01*
X56450147Y311089354D01*
X56575646Y311214853D01*
X56723216Y311313456D01*
X56887188Y311381376D01*
X57036488Y311411073D01*
X57061258Y311416000D01*
X57238742Y311416000D01*
X57263512Y311411073D01*
G37*
M02*
