G04 #@! TF.GenerationSoftware,KiCad,Pcbnew,(5.1.5)-3*
G04 #@! TF.CreationDate,2020-03-14T15:22:24+01:00*
G04 #@! TF.ProjectId,SesnorBoard,5365736e-6f72-4426-9f61-72642e6b6963,rev?*
G04 #@! TF.SameCoordinates,Original*
G04 #@! TF.FileFunction,Soldermask,Top*
G04 #@! TF.FilePolarity,Negative*
%FSLAX46Y46*%
G04 Gerber Fmt 4.6, Leading zero omitted, Abs format (unit mm)*
G04 Created by KiCad (PCBNEW (5.1.5)-3) date 2020-03-14 15:22:24*
%MOMM*%
%LPD*%
G04 APERTURE LIST*
%ADD10C,0.100000*%
G04 APERTURE END LIST*
D10*
G36*
X58051000Y284214000D02*
G01*
X56249000Y284214000D01*
X56249000Y286016000D01*
X58051000Y286016000D01*
X58051000Y284214000D01*
G37*
G36*
X69098604Y287941653D02*
G01*
X69135144Y287930568D01*
X69168821Y287912567D01*
X69198341Y287888341D01*
X69222567Y287858821D01*
X69240568Y287825144D01*
X69251653Y287788604D01*
X69256000Y287744462D01*
X69256000Y286295538D01*
X69251653Y286251396D01*
X69240568Y286214856D01*
X69222567Y286181179D01*
X69198341Y286151659D01*
X69168821Y286127433D01*
X69135144Y286109432D01*
X69098604Y286098347D01*
X69054462Y286094000D01*
X68105538Y286094000D01*
X68061396Y286098347D01*
X68024856Y286109432D01*
X67991179Y286127433D01*
X67961659Y286151659D01*
X67937433Y286181179D01*
X67919432Y286214856D01*
X67908347Y286251396D01*
X67904000Y286295538D01*
X67904000Y287744462D01*
X67908347Y287788604D01*
X67919432Y287825144D01*
X67937433Y287858821D01*
X67961659Y287888341D01*
X67991179Y287912567D01*
X68024856Y287930568D01*
X68061396Y287941653D01*
X68105538Y287946000D01*
X69054462Y287946000D01*
X69098604Y287941653D01*
G37*
G36*
X66298604Y287941653D02*
G01*
X66335144Y287930568D01*
X66368821Y287912567D01*
X66398341Y287888341D01*
X66422567Y287858821D01*
X66440568Y287825144D01*
X66451653Y287788604D01*
X66456000Y287744462D01*
X66456000Y286295538D01*
X66451653Y286251396D01*
X66440568Y286214856D01*
X66422567Y286181179D01*
X66398341Y286151659D01*
X66368821Y286127433D01*
X66335144Y286109432D01*
X66298604Y286098347D01*
X66254462Y286094000D01*
X65305538Y286094000D01*
X65261396Y286098347D01*
X65224856Y286109432D01*
X65191179Y286127433D01*
X65161659Y286151659D01*
X65137433Y286181179D01*
X65119432Y286214856D01*
X65108347Y286251396D01*
X65104000Y286295538D01*
X65104000Y287744462D01*
X65108347Y287788604D01*
X65119432Y287825144D01*
X65137433Y287858821D01*
X65161659Y287888341D01*
X65191179Y287912567D01*
X65224856Y287930568D01*
X65261396Y287941653D01*
X65305538Y287946000D01*
X66254462Y287946000D01*
X66298604Y287941653D01*
G37*
G36*
X57263512Y288551073D02*
G01*
X57412812Y288521376D01*
X57576784Y288453456D01*
X57724354Y288354853D01*
X57849853Y288229354D01*
X57948456Y288081784D01*
X58016376Y287917812D01*
X58051000Y287743741D01*
X58051000Y287566259D01*
X58016376Y287392188D01*
X57948456Y287228216D01*
X57849853Y287080646D01*
X57724354Y286955147D01*
X57576784Y286856544D01*
X57412812Y286788624D01*
X57263512Y286758927D01*
X57238742Y286754000D01*
X57061258Y286754000D01*
X57036488Y286758927D01*
X56887188Y286788624D01*
X56723216Y286856544D01*
X56575646Y286955147D01*
X56450147Y287080646D01*
X56351544Y287228216D01*
X56283624Y287392188D01*
X56249000Y287566259D01*
X56249000Y287743741D01*
X56283624Y287917812D01*
X56351544Y288081784D01*
X56450147Y288229354D01*
X56575646Y288354853D01*
X56723216Y288453456D01*
X56887188Y288521376D01*
X57036488Y288551073D01*
X57061258Y288556000D01*
X57238742Y288556000D01*
X57263512Y288551073D01*
G37*
G36*
X48891000Y286929000D02*
G01*
X47439000Y286929000D01*
X47439000Y288381000D01*
X48891000Y288381000D01*
X48891000Y286929000D01*
G37*
G36*
X50376766Y288353101D02*
G01*
X50508888Y288298374D01*
X50508890Y288298373D01*
X50627798Y288218921D01*
X50728921Y288117798D01*
X50728922Y288117796D01*
X50808374Y287998888D01*
X50863101Y287866766D01*
X50891000Y287726506D01*
X50891000Y287583494D01*
X50863101Y287443234D01*
X50808374Y287311112D01*
X50808373Y287311110D01*
X50728921Y287192202D01*
X50627798Y287091079D01*
X50508890Y287011627D01*
X50508889Y287011626D01*
X50508888Y287011626D01*
X50376766Y286956899D01*
X50236506Y286929000D01*
X50093494Y286929000D01*
X49953234Y286956899D01*
X49821112Y287011626D01*
X49821111Y287011626D01*
X49821110Y287011627D01*
X49702202Y287091079D01*
X49601079Y287192202D01*
X49521627Y287311110D01*
X49521626Y287311112D01*
X49466899Y287443234D01*
X49439000Y287583494D01*
X49439000Y287726506D01*
X49466899Y287866766D01*
X49521626Y287998888D01*
X49601078Y288117796D01*
X49601079Y288117798D01*
X49702202Y288218921D01*
X49821110Y288298373D01*
X49821112Y288298374D01*
X49953234Y288353101D01*
X50093494Y288381000D01*
X50236506Y288381000D01*
X50376766Y288353101D01*
G37*
G36*
X52376766Y288353101D02*
G01*
X52508888Y288298374D01*
X52508890Y288298373D01*
X52627798Y288218921D01*
X52728921Y288117798D01*
X52728922Y288117796D01*
X52808374Y287998888D01*
X52863101Y287866766D01*
X52891000Y287726506D01*
X52891000Y287583494D01*
X52863101Y287443234D01*
X52808374Y287311112D01*
X52808373Y287311110D01*
X52728921Y287192202D01*
X52627798Y287091079D01*
X52508890Y287011627D01*
X52508889Y287011626D01*
X52508888Y287011626D01*
X52376766Y286956899D01*
X52236506Y286929000D01*
X52093494Y286929000D01*
X51953234Y286956899D01*
X51821112Y287011626D01*
X51821111Y287011626D01*
X51821110Y287011627D01*
X51702202Y287091079D01*
X51601079Y287192202D01*
X51521627Y287311110D01*
X51521626Y287311112D01*
X51466899Y287443234D01*
X51439000Y287583494D01*
X51439000Y287726506D01*
X51466899Y287866766D01*
X51521626Y287998888D01*
X51601078Y288117796D01*
X51601079Y288117798D01*
X51702202Y288218921D01*
X51821110Y288298373D01*
X51821112Y288298374D01*
X51953234Y288353101D01*
X52093494Y288381000D01*
X52236506Y288381000D01*
X52376766Y288353101D01*
G37*
G36*
X69098604Y290481653D02*
G01*
X69135144Y290470568D01*
X69168821Y290452567D01*
X69198341Y290428341D01*
X69222567Y290398821D01*
X69240568Y290365144D01*
X69251653Y290328604D01*
X69256000Y290284462D01*
X69256000Y288835538D01*
X69251653Y288791396D01*
X69240568Y288754856D01*
X69222567Y288721179D01*
X69198341Y288691659D01*
X69168821Y288667433D01*
X69135144Y288649432D01*
X69098604Y288638347D01*
X69054462Y288634000D01*
X68105538Y288634000D01*
X68061396Y288638347D01*
X68024856Y288649432D01*
X67991179Y288667433D01*
X67961659Y288691659D01*
X67937433Y288721179D01*
X67919432Y288754856D01*
X67908347Y288791396D01*
X67904000Y288835538D01*
X67904000Y290284462D01*
X67908347Y290328604D01*
X67919432Y290365144D01*
X67937433Y290398821D01*
X67961659Y290428341D01*
X67991179Y290452567D01*
X68024856Y290470568D01*
X68061396Y290481653D01*
X68105538Y290486000D01*
X69054462Y290486000D01*
X69098604Y290481653D01*
G37*
G36*
X66298604Y290481653D02*
G01*
X66335144Y290470568D01*
X66368821Y290452567D01*
X66398341Y290428341D01*
X66422567Y290398821D01*
X66440568Y290365144D01*
X66451653Y290328604D01*
X66456000Y290284462D01*
X66456000Y288835538D01*
X66451653Y288791396D01*
X66440568Y288754856D01*
X66422567Y288721179D01*
X66398341Y288691659D01*
X66368821Y288667433D01*
X66335144Y288649432D01*
X66298604Y288638347D01*
X66254462Y288634000D01*
X65305538Y288634000D01*
X65261396Y288638347D01*
X65224856Y288649432D01*
X65191179Y288667433D01*
X65161659Y288691659D01*
X65137433Y288721179D01*
X65119432Y288754856D01*
X65108347Y288791396D01*
X65104000Y288835538D01*
X65104000Y290284462D01*
X65108347Y290328604D01*
X65119432Y290365144D01*
X65137433Y290398821D01*
X65161659Y290428341D01*
X65191179Y290452567D01*
X65224856Y290470568D01*
X65261396Y290481653D01*
X65305538Y290486000D01*
X66254462Y290486000D01*
X66298604Y290481653D01*
G37*
G36*
X57263512Y291091073D02*
G01*
X57412812Y291061376D01*
X57576784Y290993456D01*
X57724354Y290894853D01*
X57849853Y290769354D01*
X57948456Y290621784D01*
X58016376Y290457812D01*
X58051000Y290283741D01*
X58051000Y290106259D01*
X58016376Y289932188D01*
X57948456Y289768216D01*
X57849853Y289620646D01*
X57724354Y289495147D01*
X57576784Y289396544D01*
X57412812Y289328624D01*
X57263512Y289298927D01*
X57238742Y289294000D01*
X57061258Y289294000D01*
X57036488Y289298927D01*
X56887188Y289328624D01*
X56723216Y289396544D01*
X56575646Y289495147D01*
X56450147Y289620646D01*
X56351544Y289768216D01*
X56283624Y289932188D01*
X56249000Y290106259D01*
X56249000Y290283741D01*
X56283624Y290457812D01*
X56351544Y290621784D01*
X56450147Y290769354D01*
X56575646Y290894853D01*
X56723216Y290993456D01*
X56887188Y291061376D01*
X57036488Y291091073D01*
X57061258Y291096000D01*
X57238742Y291096000D01*
X57263512Y291091073D01*
G37*
G36*
X73865800Y289959200D02*
G01*
X71164200Y289959200D01*
X71164200Y290860800D01*
X73865800Y290860800D01*
X73865800Y289959200D01*
G37*
G36*
X79965800Y289959200D02*
G01*
X77264200Y289959200D01*
X77264200Y290860800D01*
X79965800Y290860800D01*
X79965800Y289959200D01*
G37*
G36*
X53411000Y291634000D02*
G01*
X51909000Y291634000D01*
X51909000Y293836000D01*
X53411000Y293836000D01*
X53411000Y291634000D01*
G37*
G36*
X49011000Y291634000D02*
G01*
X47509000Y291634000D01*
X47509000Y293836000D01*
X49011000Y293836000D01*
X49011000Y291634000D01*
G37*
G36*
X57263512Y293631073D02*
G01*
X57412812Y293601376D01*
X57576784Y293533456D01*
X57724354Y293434853D01*
X57849853Y293309354D01*
X57948456Y293161784D01*
X58016376Y292997812D01*
X58051000Y292823741D01*
X58051000Y292646259D01*
X58016376Y292472188D01*
X57948456Y292308216D01*
X57849853Y292160646D01*
X57724354Y292035147D01*
X57576784Y291936544D01*
X57412812Y291868624D01*
X57263512Y291838927D01*
X57238742Y291834000D01*
X57061258Y291834000D01*
X57036488Y291838927D01*
X56887188Y291868624D01*
X56723216Y291936544D01*
X56575646Y292035147D01*
X56450147Y292160646D01*
X56351544Y292308216D01*
X56283624Y292472188D01*
X56249000Y292646259D01*
X56249000Y292823741D01*
X56283624Y292997812D01*
X56351544Y293161784D01*
X56450147Y293309354D01*
X56575646Y293434853D01*
X56723216Y293533456D01*
X56887188Y293601376D01*
X57036488Y293631073D01*
X57061258Y293636000D01*
X57238742Y293636000D01*
X57263512Y293631073D01*
G37*
G36*
X79965800Y292969200D02*
G01*
X77264200Y292969200D01*
X77264200Y293770800D01*
X79965800Y293770800D01*
X79965800Y292969200D01*
G37*
G36*
X73865800Y292969200D02*
G01*
X71164200Y292969200D01*
X71164200Y293770800D01*
X73865800Y293770800D01*
X73865800Y292969200D01*
G37*
G36*
X73865800Y294239200D02*
G01*
X71164200Y294239200D01*
X71164200Y295040800D01*
X73865800Y295040800D01*
X73865800Y294239200D01*
G37*
G36*
X79965800Y294239200D02*
G01*
X77264200Y294239200D01*
X77264200Y295040800D01*
X79965800Y295040800D01*
X79965800Y294239200D01*
G37*
G36*
X53353604Y296196653D02*
G01*
X53390144Y296185568D01*
X53423821Y296167567D01*
X53453341Y296143341D01*
X53477567Y296113821D01*
X53495568Y296080144D01*
X53506653Y296043604D01*
X53511000Y295999462D01*
X53511000Y294550538D01*
X53506653Y294506396D01*
X53495568Y294469856D01*
X53477567Y294436179D01*
X53453341Y294406659D01*
X53423821Y294382433D01*
X53390144Y294364432D01*
X53353604Y294353347D01*
X53309462Y294349000D01*
X52360538Y294349000D01*
X52316396Y294353347D01*
X52279856Y294364432D01*
X52246179Y294382433D01*
X52216659Y294406659D01*
X52192433Y294436179D01*
X52174432Y294469856D01*
X52163347Y294506396D01*
X52159000Y294550538D01*
X52159000Y295999462D01*
X52163347Y296043604D01*
X52174432Y296080144D01*
X52192433Y296113821D01*
X52216659Y296143341D01*
X52246179Y296167567D01*
X52279856Y296185568D01*
X52316396Y296196653D01*
X52360538Y296201000D01*
X53309462Y296201000D01*
X53353604Y296196653D01*
G37*
G36*
X50553604Y296196653D02*
G01*
X50590144Y296185568D01*
X50623821Y296167567D01*
X50653341Y296143341D01*
X50677567Y296113821D01*
X50695568Y296080144D01*
X50706653Y296043604D01*
X50711000Y295999462D01*
X50711000Y294550538D01*
X50706653Y294506396D01*
X50695568Y294469856D01*
X50677567Y294436179D01*
X50653341Y294406659D01*
X50623821Y294382433D01*
X50590144Y294364432D01*
X50553604Y294353347D01*
X50509462Y294349000D01*
X49560538Y294349000D01*
X49516396Y294353347D01*
X49479856Y294364432D01*
X49446179Y294382433D01*
X49416659Y294406659D01*
X49392433Y294436179D01*
X49374432Y294469856D01*
X49363347Y294506396D01*
X49359000Y294550538D01*
X49359000Y295999462D01*
X49363347Y296043604D01*
X49374432Y296080144D01*
X49392433Y296113821D01*
X49416659Y296143341D01*
X49446179Y296167567D01*
X49479856Y296185568D01*
X49516396Y296196653D01*
X49560538Y296201000D01*
X50509462Y296201000D01*
X50553604Y296196653D01*
G37*
G36*
X57263512Y296171073D02*
G01*
X57412812Y296141376D01*
X57576784Y296073456D01*
X57724354Y295974853D01*
X57849853Y295849354D01*
X57948456Y295701784D01*
X58016376Y295537812D01*
X58051000Y295363741D01*
X58051000Y295186259D01*
X58016376Y295012188D01*
X57948456Y294848216D01*
X57849853Y294700646D01*
X57724354Y294575147D01*
X57576784Y294476544D01*
X57412812Y294408624D01*
X57263512Y294378927D01*
X57238742Y294374000D01*
X57061258Y294374000D01*
X57036488Y294378927D01*
X56887188Y294408624D01*
X56723216Y294476544D01*
X56575646Y294575147D01*
X56450147Y294700646D01*
X56351544Y294848216D01*
X56283624Y295012188D01*
X56249000Y295186259D01*
X56249000Y295363741D01*
X56283624Y295537812D01*
X56351544Y295701784D01*
X56450147Y295849354D01*
X56575646Y295974853D01*
X56723216Y296073456D01*
X56887188Y296141376D01*
X57036488Y296171073D01*
X57061258Y296176000D01*
X57238742Y296176000D01*
X57263512Y296171073D01*
G37*
G36*
X79965800Y295509200D02*
G01*
X77264200Y295509200D01*
X77264200Y296310800D01*
X79965800Y296310800D01*
X79965800Y295509200D01*
G37*
G36*
X73865800Y295509200D02*
G01*
X71164200Y295509200D01*
X71164200Y296310800D01*
X73865800Y296310800D01*
X73865800Y295509200D01*
G37*
G36*
X73865800Y296779200D02*
G01*
X71164200Y296779200D01*
X71164200Y297580800D01*
X73865800Y297580800D01*
X73865800Y296779200D01*
G37*
G36*
X79965800Y296779200D02*
G01*
X77264200Y296779200D01*
X77264200Y297580800D01*
X79965800Y297580800D01*
X79965800Y296779200D01*
G37*
G36*
X50553604Y298736653D02*
G01*
X50590144Y298725568D01*
X50623821Y298707567D01*
X50653341Y298683341D01*
X50677567Y298653821D01*
X50695568Y298620144D01*
X50706653Y298583604D01*
X50711000Y298539462D01*
X50711000Y297090538D01*
X50706653Y297046396D01*
X50695568Y297009856D01*
X50677567Y296976179D01*
X50653341Y296946659D01*
X50623821Y296922433D01*
X50590144Y296904432D01*
X50553604Y296893347D01*
X50509462Y296889000D01*
X49560538Y296889000D01*
X49516396Y296893347D01*
X49479856Y296904432D01*
X49446179Y296922433D01*
X49416659Y296946659D01*
X49392433Y296976179D01*
X49374432Y297009856D01*
X49363347Y297046396D01*
X49359000Y297090538D01*
X49359000Y298539462D01*
X49363347Y298583604D01*
X49374432Y298620144D01*
X49392433Y298653821D01*
X49416659Y298683341D01*
X49446179Y298707567D01*
X49479856Y298725568D01*
X49516396Y298736653D01*
X49560538Y298741000D01*
X50509462Y298741000D01*
X50553604Y298736653D01*
G37*
G36*
X53353604Y298736653D02*
G01*
X53390144Y298725568D01*
X53423821Y298707567D01*
X53453341Y298683341D01*
X53477567Y298653821D01*
X53495568Y298620144D01*
X53506653Y298583604D01*
X53511000Y298539462D01*
X53511000Y297090538D01*
X53506653Y297046396D01*
X53495568Y297009856D01*
X53477567Y296976179D01*
X53453341Y296946659D01*
X53423821Y296922433D01*
X53390144Y296904432D01*
X53353604Y296893347D01*
X53309462Y296889000D01*
X52360538Y296889000D01*
X52316396Y296893347D01*
X52279856Y296904432D01*
X52246179Y296922433D01*
X52216659Y296946659D01*
X52192433Y296976179D01*
X52174432Y297009856D01*
X52163347Y297046396D01*
X52159000Y297090538D01*
X52159000Y298539462D01*
X52163347Y298583604D01*
X52174432Y298620144D01*
X52192433Y298653821D01*
X52216659Y298683341D01*
X52246179Y298707567D01*
X52279856Y298725568D01*
X52316396Y298736653D01*
X52360538Y298741000D01*
X53309462Y298741000D01*
X53353604Y298736653D01*
G37*
G36*
X57263512Y298711073D02*
G01*
X57412812Y298681376D01*
X57576784Y298613456D01*
X57724354Y298514853D01*
X57849853Y298389354D01*
X57948456Y298241784D01*
X58016376Y298077812D01*
X58051000Y297903741D01*
X58051000Y297726259D01*
X58016376Y297552188D01*
X57948456Y297388216D01*
X57849853Y297240646D01*
X57724354Y297115147D01*
X57576784Y297016544D01*
X57412812Y296948624D01*
X57263512Y296918927D01*
X57238742Y296914000D01*
X57061258Y296914000D01*
X57036488Y296918927D01*
X56887188Y296948624D01*
X56723216Y297016544D01*
X56575646Y297115147D01*
X56450147Y297240646D01*
X56351544Y297388216D01*
X56283624Y297552188D01*
X56249000Y297726259D01*
X56249000Y297903741D01*
X56283624Y298077812D01*
X56351544Y298241784D01*
X56450147Y298389354D01*
X56575646Y298514853D01*
X56723216Y298613456D01*
X56887188Y298681376D01*
X57036488Y298711073D01*
X57061258Y298716000D01*
X57238742Y298716000D01*
X57263512Y298711073D01*
G37*
G36*
X79965800Y298049200D02*
G01*
X77264200Y298049200D01*
X77264200Y298850800D01*
X79965800Y298850800D01*
X79965800Y298049200D01*
G37*
G36*
X73865800Y298049200D02*
G01*
X71164200Y298049200D01*
X71164200Y298850800D01*
X73865800Y298850800D01*
X73865800Y298049200D01*
G37*
G36*
X57263512Y301251073D02*
G01*
X57412812Y301221376D01*
X57576784Y301153456D01*
X57724354Y301054853D01*
X57849853Y300929354D01*
X57948456Y300781784D01*
X58016376Y300617812D01*
X58051000Y300443741D01*
X58051000Y300266259D01*
X58016376Y300092188D01*
X57948456Y299928216D01*
X57849853Y299780646D01*
X57724354Y299655147D01*
X57576784Y299556544D01*
X57412812Y299488624D01*
X57263512Y299458927D01*
X57238742Y299454000D01*
X57061258Y299454000D01*
X57036488Y299458927D01*
X56887188Y299488624D01*
X56723216Y299556544D01*
X56575646Y299655147D01*
X56450147Y299780646D01*
X56351544Y299928216D01*
X56283624Y300092188D01*
X56249000Y300266259D01*
X56249000Y300443741D01*
X56283624Y300617812D01*
X56351544Y300781784D01*
X56450147Y300929354D01*
X56575646Y301054853D01*
X56723216Y301153456D01*
X56887188Y301221376D01*
X57036488Y301251073D01*
X57061258Y301256000D01*
X57238742Y301256000D01*
X57263512Y301251073D01*
G37*
G36*
X79965800Y300959200D02*
G01*
X77264200Y300959200D01*
X77264200Y301860800D01*
X79965800Y301860800D01*
X79965800Y300959200D01*
G37*
G36*
X74865800Y300959200D02*
G01*
X71164200Y300959200D01*
X71164200Y301860800D01*
X74865800Y301860800D01*
X74865800Y300959200D01*
G37*
G36*
X57263512Y303791073D02*
G01*
X57412812Y303761376D01*
X57576784Y303693456D01*
X57724354Y303594853D01*
X57849853Y303469354D01*
X57948456Y303321784D01*
X58016376Y303157812D01*
X58051000Y302983741D01*
X58051000Y302806259D01*
X58016376Y302632188D01*
X57948456Y302468216D01*
X57849853Y302320646D01*
X57724354Y302195147D01*
X57576784Y302096544D01*
X57412812Y302028624D01*
X57263512Y301998927D01*
X57238742Y301994000D01*
X57061258Y301994000D01*
X57036488Y301998927D01*
X56887188Y302028624D01*
X56723216Y302096544D01*
X56575646Y302195147D01*
X56450147Y302320646D01*
X56351544Y302468216D01*
X56283624Y302632188D01*
X56249000Y302806259D01*
X56249000Y302983741D01*
X56283624Y303157812D01*
X56351544Y303321784D01*
X56450147Y303469354D01*
X56575646Y303594853D01*
X56723216Y303693456D01*
X56887188Y303761376D01*
X57036488Y303791073D01*
X57061258Y303796000D01*
X57238742Y303796000D01*
X57263512Y303791073D01*
G37*
G36*
X65538604Y303436653D02*
G01*
X65575144Y303425568D01*
X65608821Y303407567D01*
X65638341Y303383341D01*
X65662567Y303353821D01*
X65680568Y303320144D01*
X65691653Y303283604D01*
X65696000Y303239462D01*
X65696000Y302290538D01*
X65691653Y302246396D01*
X65680568Y302209856D01*
X65662567Y302176179D01*
X65638341Y302146659D01*
X65608821Y302122433D01*
X65575144Y302104432D01*
X65538604Y302093347D01*
X65494462Y302089000D01*
X64045538Y302089000D01*
X64001396Y302093347D01*
X63964856Y302104432D01*
X63931179Y302122433D01*
X63901659Y302146659D01*
X63877433Y302176179D01*
X63859432Y302209856D01*
X63848347Y302246396D01*
X63844000Y302290538D01*
X63844000Y303239462D01*
X63848347Y303283604D01*
X63859432Y303320144D01*
X63877433Y303353821D01*
X63901659Y303383341D01*
X63931179Y303407567D01*
X63964856Y303425568D01*
X64001396Y303436653D01*
X64045538Y303441000D01*
X65494462Y303441000D01*
X65538604Y303436653D01*
G37*
G36*
X69546000Y304864000D02*
G01*
X69369899Y304864000D01*
X69345513Y304861598D01*
X69322064Y304854485D01*
X69300453Y304842934D01*
X69281511Y304827389D01*
X69265966Y304808447D01*
X69254415Y304786836D01*
X69247302Y304763387D01*
X69244900Y304739001D01*
X69247302Y304714615D01*
X69254415Y304691166D01*
X69265966Y304669555D01*
X69281506Y304650619D01*
X69329519Y304602606D01*
X69348455Y304587066D01*
X69370066Y304575515D01*
X69393515Y304568402D01*
X69396000Y304568157D01*
X69396000Y303590999D01*
X69398402Y303566613D01*
X69405515Y303543164D01*
X69417066Y303521553D01*
X69432611Y303502611D01*
X69451553Y303487066D01*
X69473164Y303475515D01*
X69496613Y303468402D01*
X69520999Y303466000D01*
X69546000Y303466000D01*
X69546000Y302764000D01*
X66644000Y302764000D01*
X66644000Y303466000D01*
X66669001Y303466000D01*
X66693387Y303468402D01*
X66716836Y303475515D01*
X66738447Y303487066D01*
X66757389Y303502611D01*
X66772934Y303521553D01*
X66784485Y303543164D01*
X66791598Y303566613D01*
X66794000Y303590999D01*
X66794000Y304739001D01*
X66791598Y304763387D01*
X66784485Y304786836D01*
X66772934Y304808447D01*
X66757389Y304827389D01*
X66738447Y304842934D01*
X66716836Y304854485D01*
X66693387Y304861598D01*
X66669001Y304864000D01*
X66644000Y304864000D01*
X66644000Y305566000D01*
X69546000Y305566000D01*
X69546000Y304864000D01*
G37*
G36*
X57263512Y306331073D02*
G01*
X57412812Y306301376D01*
X57576784Y306233456D01*
X57724354Y306134853D01*
X57849853Y306009354D01*
X57948456Y305861784D01*
X58016376Y305697812D01*
X58051000Y305523741D01*
X58051000Y305346259D01*
X58016376Y305172188D01*
X57948456Y305008216D01*
X57849853Y304860646D01*
X57724354Y304735147D01*
X57576784Y304636544D01*
X57412812Y304568624D01*
X57263512Y304538927D01*
X57238742Y304534000D01*
X57061258Y304534000D01*
X57036488Y304538927D01*
X56887188Y304568624D01*
X56723216Y304636544D01*
X56575646Y304735147D01*
X56450147Y304860646D01*
X56351544Y305008216D01*
X56283624Y305172188D01*
X56249000Y305346259D01*
X56249000Y305523741D01*
X56283624Y305697812D01*
X56351544Y305861784D01*
X56450147Y306009354D01*
X56575646Y306134853D01*
X56723216Y306233456D01*
X56887188Y306301376D01*
X57036488Y306331073D01*
X57061258Y306336000D01*
X57238742Y306336000D01*
X57263512Y306331073D01*
G37*
G36*
X65538604Y306236653D02*
G01*
X65575144Y306225568D01*
X65608821Y306207567D01*
X65638341Y306183341D01*
X65662567Y306153821D01*
X65680568Y306120144D01*
X65691653Y306083604D01*
X65696000Y306039462D01*
X65696000Y305090538D01*
X65691653Y305046396D01*
X65680568Y305009856D01*
X65662567Y304976179D01*
X65638341Y304946659D01*
X65608821Y304922433D01*
X65575144Y304904432D01*
X65538604Y304893347D01*
X65494462Y304889000D01*
X64045538Y304889000D01*
X64001396Y304893347D01*
X63964856Y304904432D01*
X63931179Y304922433D01*
X63901659Y304946659D01*
X63877433Y304976179D01*
X63859432Y305009856D01*
X63848347Y305046396D01*
X63844000Y305090538D01*
X63844000Y306039462D01*
X63848347Y306083604D01*
X63859432Y306120144D01*
X63877433Y306153821D01*
X63901659Y306183341D01*
X63931179Y306207567D01*
X63964856Y306225568D01*
X64001396Y306236653D01*
X64045538Y306241000D01*
X65494462Y306241000D01*
X65538604Y306236653D01*
G37*
G36*
X57263512Y308871073D02*
G01*
X57412812Y308841376D01*
X57576784Y308773456D01*
X57724354Y308674853D01*
X57849853Y308549354D01*
X57948456Y308401784D01*
X58016376Y308237812D01*
X58051000Y308063741D01*
X58051000Y307886259D01*
X58016376Y307712188D01*
X57948456Y307548216D01*
X57849853Y307400646D01*
X57724354Y307275147D01*
X57576784Y307176544D01*
X57412812Y307108624D01*
X57263512Y307078927D01*
X57238742Y307074000D01*
X57061258Y307074000D01*
X57036488Y307078927D01*
X56887188Y307108624D01*
X56723216Y307176544D01*
X56575646Y307275147D01*
X56450147Y307400646D01*
X56351544Y307548216D01*
X56283624Y307712188D01*
X56249000Y307886259D01*
X56249000Y308063741D01*
X56283624Y308237812D01*
X56351544Y308401784D01*
X56450147Y308549354D01*
X56575646Y308674853D01*
X56723216Y308773456D01*
X56887188Y308841376D01*
X57036488Y308871073D01*
X57061258Y308876000D01*
X57238742Y308876000D01*
X57263512Y308871073D01*
G37*
G36*
X57263512Y311411073D02*
G01*
X57412812Y311381376D01*
X57576784Y311313456D01*
X57724354Y311214853D01*
X57849853Y311089354D01*
X57948456Y310941784D01*
X58016376Y310777812D01*
X58051000Y310603741D01*
X58051000Y310426259D01*
X58016376Y310252188D01*
X57948456Y310088216D01*
X57849853Y309940646D01*
X57724354Y309815147D01*
X57576784Y309716544D01*
X57412812Y309648624D01*
X57263512Y309618927D01*
X57238742Y309614000D01*
X57061258Y309614000D01*
X57036488Y309618927D01*
X56887188Y309648624D01*
X56723216Y309716544D01*
X56575646Y309815147D01*
X56450147Y309940646D01*
X56351544Y310088216D01*
X56283624Y310252188D01*
X56249000Y310426259D01*
X56249000Y310603741D01*
X56283624Y310777812D01*
X56351544Y310941784D01*
X56450147Y311089354D01*
X56575646Y311214853D01*
X56723216Y311313456D01*
X56887188Y311381376D01*
X57036488Y311411073D01*
X57061258Y311416000D01*
X57238742Y311416000D01*
X57263512Y311411073D01*
G37*
M02*
